<svg xmlns="http://www.w3.org/2000/svg" width="500" viewBox="0 0 375 225" height="300" version="1.0"><defs><clipPath id="495de5fbab"><path d="M156 15.41h139.625V155H156Zm0 0"/></clipPath><clipPath id="017e2d8027"><path d="M79.625 77H274v132.66H79.625Zm0 0"/></clipPath></defs><g clip-path="url('#495de5fbab')"><path fill="#ee2549" d="M225.977 154.621c38.355 0 69.644-31.262 69.644-69.59 0-38.332-31.289-69.594-69.652-69.594-38.356 0-69.645 31.262-69.645 69.594 0 38.328 31.29 69.59 69.645 69.59Zm0 0" fill-rule="evenodd"/></g><g clip-path="url('#017e2d8027')"><path fill="#f8fafb" d="M252.621 126.758v-7.121h-14.984l-.192-4.04c-1.093 1.044-2.46 1.626-4.023 1.954l-.766-10.223h2.102l-.23-4.902h17.585l7.817-12.66c3.023-.344 5.96-.711 8.793-1.098l4.699-10.832c-52.356 7.086-141.445 7.086-193.805 0l4.7 10.832c2.831.387 5.769.754 8.792 1.098l7.817 12.66h17.582l-.227 4.902h2.098l-.766 10.223c-1.558-.328-2.925-.91-4.023-1.953l-.188 4.039h-14.984v7.12h18.508l-4.399 58.677h-1.023l-2.625 24.191h19.562l.297-24.191h-1.21l2.734-58.676h88.511l2.735 58.676h-1.211l.297 24.191h19.562l-2.625-24.191h-1.027l-4.395-58.676h18.496v-.004Zm-116.844-24.332h35.934v17.21h-34.43l.188-4.038c-1.336 1.164-2.953 1.757-4.778 2.058l.485-10.328h2.375Zm81.493 0 .226 4.902h2.375l.484 10.328c-1.824-.3-3.44-.894-4.777-2.058l.188 4.039h-34.43v-17.211Zm0 0" fill-rule="evenodd"/></g></svg>