<svg xmlns="http://www.w3.org/2000/svg" width="500" viewBox="0 0 375 225" height="300" version="1.0"><defs><clipPath id="f4acec926d"><path d="M86.89 11.89h201v201h-201Zm0 0"/></clipPath><clipPath id="7563fd346e"><path d="M86.89 11.89h201v201h-201Zm0 0"/></clipPath></defs><g clip-path="url('#f4acec926d')"><path fill="#fff" d="M271.14 115.742a3.355 3.355 0 0 1-3.347-3.351v-.34a3.344 3.344 0 0 1 3.348-3.348h.066c1.805 0 3.285 1.516 3.285 3.32v.368a3.356 3.356 0 0 1-3.351 3.351Zm.84 17.48a3.367 3.367 0 0 1-3.246 2.555c-.273 0-.535-.039-.812-.105-1.766-.434-2.879-2.238-2.445-4.059.367-1.504 1.753-2.535 3.257-2.535.262 0 .536.024.797.102a3.367 3.367 0 0 1 2.551 3.246c0 .262-.039.535-.102.797Zm-4.148-44.449c.262-.066.563-.105.836-.105 1.504 0 2.84 1.008 3.246 2.55.066.274.106.536.106.774 0 1.504-1.047 2.918-2.555 3.281a3.586 3.586 0 0 1-.836.094 3.36 3.36 0 0 1-3.246-2.539c-.445-1.781.668-3.613 2.449-4.055Zm-3.285 64.094c-.602 1.125-1.781 1.766-2.985 1.766-.511 0-1.035-.09-1.542-.367-1.637-.875-2.278-2.88-1.403-4.528.602-1.136 1.77-1.804 2.945-1.804.536 0 1.075.129 1.57.406 1.141.601 1.805 1.777 1.805 2.941a3.46 3.46 0 0 1-.39 1.586Zm-4.7-82.652a3.48 3.48 0 0 1 1.587-.406c1.164 0 2.34.668 2.941 1.82.262.496.406 1.035.406 1.57 0 1.164-.68 2.344-1.816 2.946a3.144 3.144 0 0 1-1.531.406 3.403 3.403 0 0 1-2.985-1.781c-.879-1.637-.238-3.692 1.399-4.555ZM187.392 179.39c-36.953 0-67-30.043-67-67 0-36.954 30.046-67 67-67 36.957 0 67 30.047 67 67 0 36.957-30.043 67-67 67Zm65.222-9.278a3.258 3.258 0 0 1-2.515 1.14c-.797 0-1.57-.276-2.211-.839-1.399-1.242-1.532-3.348-.301-4.723a3.314 3.314 0 0 1 2.512-1.14c.812 0 1.586.262 2.214.84a3.265 3.265 0 0 1 1.137 2.511c0 .774-.262 1.57-.836 2.211Zm-15.703 13.938a3.294 3.294 0 0 1-1.887.601 3.411 3.411 0 0 1-2.773-1.441c-1.035-1.543-.668-3.621.863-4.656a3.303 3.303 0 0 1 1.91-.602c1.047 0 2.082.496 2.75 1.438.407.562.602 1.246.602 1.91 0 1.035-.535 2.11-1.465 2.75Zm-18.57 9.773a3.177 3.177 0 0 1-1.164.238 3.372 3.372 0 0 1-3.153-2.171c-.668-1.743.235-3.653 1.95-4.32.39-.173.797-.235 1.203-.235 1.336 0 2.605.836 3.113 2.172.172.406.234.812.234 1.203a3.325 3.325 0 0 1-2.183 3.113Zm-20.363 5.028c-.13 0-.262.039-.403.039a3.393 3.393 0 0 1-3.351-2.946c-.196-1.843 1.113-3.52 2.945-3.715.144-.039.312-.039.445-.039 1.633 0 3.075 1.243 3.282 2.942.027.133.027.277.027.445 0 1.637-1.242 3.074-2.945 3.274Zm-17.247-2.907a3.345 3.345 0 0 1-3.324 2.946H177c-1.832-.239-3.14-1.91-2.941-3.758.234-1.672 1.671-2.942 3.347-2.942.133 0 .239.04.367.04 1.715.222 2.985 1.671 2.985 3.347 0 .133-.028.223-.028.367Zm-19.796-3.992c-.512 1.336-1.782 2.149-3.157 2.149-.406 0-.808-.067-1.175-.2-1.743-.68-2.606-2.59-1.938-4.328a3.35 3.35 0 0 1 3.113-2.176c.407 0 .801.067 1.203.239 1.336.496 2.149 1.765 2.149 3.14 0 .407-.066.77-.195 1.176Zm-18.27-8.676c-.668.942-1.703 1.48-2.734 1.48-.68 0-1.348-.21-1.91-.616a3.338 3.338 0 0 1-.88-4.645c.669-.941 1.715-1.476 2.79-1.476.629 0 1.293.195 1.87.601.93.664 1.477 1.711 1.477 2.785a3.28 3.28 0 0 1-.613 1.871Zm-15.637-12.757a3.416 3.416 0 0 1-2.25.863c-.906 0-1.832-.406-2.515-1.137a3.36 3.36 0 0 1 .3-4.726 3.395 3.395 0 0 1 2.215-.836c.942 0 1.844.367 2.512 1.113.574.625.836 1.437.836 2.21 0 .93-.367 1.872-1.098 2.513Zm-12.156-16.122a3.338 3.338 0 0 1-1.586.407 3.426 3.426 0 0 1-2.984-1.782c-.836-1.636-.235-3.675 1.414-4.554a3.347 3.347 0 0 1 1.57-.367c1.203 0 2.383.644 2.957 1.78.262.497.395 1.036.395 1.571 0 1.203-.668 2.383-1.766 2.945Zm-4.7-82.312a3.308 3.308 0 0 1 2.958-1.805c.523 0 1.035.13 1.531.406 1.137.602 1.82 1.739 1.82 2.985 0 .496-.144 1.031-.382 1.531a3.348 3.348 0 0 1-2.97 1.777c-.55 0-1.046-.128-1.542-.367a3.346 3.346 0 0 1-1.414-4.527Zm-3.284 63.754a3.284 3.284 0 0 1-.797.105 3.364 3.364 0 0 1-3.246-2.55 3.357 3.357 0 0 1 2.433-4.055 3.37 3.37 0 0 1 .813-.094c1.504 0 2.879 1.008 3.246 2.54.062.273.102.534.102.812 0 1.504-1.008 2.879-2.551 3.242Zm-6.594-23.278a3.355 3.355 0 0 1 3.348-3.351 3.356 3.356 0 0 1 3.351 3.352 3.34 3.34 0 0 1-3.351 3.347 3.337 3.337 0 0 1-3.348-3.347Zm2.445-20.832c.407-1.52 1.782-2.554 3.285-2.554.235 0 .497.039.774.105a3.362 3.362 0 0 1 2.578 3.246c0 .262-.04.535-.105.797a3.354 3.354 0 0 1-3.247 2.555c-.273 0-.535-.04-.812-.106a3.347 3.347 0 0 1-2.473-4.043Zm19.328-36.93c.641-.757 1.57-1.14 2.512-1.14.774 0 1.57.278 2.211.84.734.668 1.14 1.582 1.14 2.512 0 .812-.3 1.582-.84 2.21a3.405 3.405 0 0 1-2.51 1.141c-.798 0-1.61-.261-2.24-.84a3.327 3.327 0 0 1-.273-4.722Zm15.637-13.964c.617-.402 1.246-.602 1.91-.602 1.075 0 2.121.5 2.75 1.442.407.562.602 1.242.602 1.91a3.287 3.287 0 0 1-1.438 2.746 3.342 3.342 0 0 1-1.914.605c-1.031 0-2.066-.511-2.746-1.44-1.035-1.505-.668-3.587.836-4.661Zm18.57-9.813a2.999 2.999 0 0 1 1.204-.234c1.335 0 2.617.836 3.113 2.172.172.406.238.809.238 1.203 0 1.348-.84 2.617-2.187 3.129a3.484 3.484 0 0 1-1.164.195c-1.375 0-2.645-.812-3.153-2.148-.668-1.711.207-3.649 1.95-4.317Zm20.364-5.062c.14-.027.3-.027.43-.027a3.31 3.31 0 0 1 3.285 2.945c.039.129.039.262.039.43a3.319 3.319 0 0 1-2.946 3.285c-.144.039-.273.039-.406.039a3.345 3.345 0 0 1-3.32-2.957c-.223-1.832 1.07-3.508 2.918-3.715Zm20.531-.106c.144 0 .312 0 .445.04a3.368 3.368 0 0 1 2.98 3.347c0 .133-.038.238-.038.367-.196 1.715-1.672 2.946-3.348 2.946-.105 0-.238 0-.367-.028-1.844-.195-3.153-1.87-2.945-3.715.195-1.714 1.597-2.957 3.273-2.957Zm16.527 6.934c.535-1.332 1.805-2.172 3.14-2.172.407 0 .77.067 1.177.195 1.336.54 2.172 1.82 2.172 3.157 0 .406-.063.77-.196 1.176-.496 1.335-1.804 2.171-3.152 2.171-.406 0-.8-.062-1.164-.234-1.754-.629-2.617-2.578-1.977-4.293Zm18.282 8.613a3.353 3.353 0 0 1 2.746-1.468c.68 0 1.308.199 1.91.601.945.63 1.441 1.703 1.441 2.778 0 .64-.156 1.308-.562 1.882a3.434 3.434 0 0 1-2.79 1.442c-.628 0-1.308-.172-1.87-.578-1.543-1.036-1.91-3.141-.875-4.657Zm15.675 12.73a3.363 3.363 0 0 1 2.211-.835c.942 0 1.848.363 2.512 1.11.578.628.84 1.44.84 2.214 0 .926-.367 1.832-1.102 2.512a3.409 3.409 0 0 1-2.25.863c-.902 0-1.804-.406-2.472-1.14-1.243-1.372-1.098-3.481.261-4.723Zm-60.261-42.241c-55.407 0-100.5 45.093-100.5 100.5 0 55.406 45.093 100.5 100.5 100.5 55.406 0 100.5-45.094 100.5-100.5 0-55.407-45.094-100.5-100.5-100.5"/></g><path fill="#ee2549" d="M217.543 122.441a3.355 3.355 0 0 1 3.348 3.352 3.354 3.354 0 0 1-3.348 3.348h-26.8v36.851a3.355 3.355 0 0 1-3.352 3.348 3.354 3.354 0 0 1-3.348-3.348v-36.851h-26.8a3.358 3.358 0 0 1-3.352-3.348 3.358 3.358 0 0 1 3.351-3.352h26.801v-6.699h-26.8a3.358 3.358 0 0 1-3.352-3.351 3.358 3.358 0 0 1 3.351-3.348h23.45l-26.133-34.836a3.386 3.386 0 0 1 .668-4.7 3.386 3.386 0 0 1 4.699.669l27.465 36.629 27.468-36.63a3.386 3.386 0 0 1 4.7-.667 3.382 3.382 0 0 1 .664 4.699l-26.133 34.836h23.453a3.354 3.354 0 0 1 3.348 3.348 3.355 3.355 0 0 1-3.348 3.351h-26.8v6.7Zm-30.152-77.05c-36.953 0-67 30.047-67 67 0 36.957 30.046 67 67 67 36.957 0 67-30.043 67-67 0-36.954-30.043-67-67-67"/><g clip-path="url('#7563fd346e')"><path fill="#fff" d="M187.39 206.191c-51.726 0-93.8-42.07-93.8-93.8 0-51.727 42.074-93.801 93.8-93.801 51.731 0 93.801 42.074 93.801 93.8 0 51.731-42.07 93.801-93.8 93.801Zm0-194.3c-55.417 0-100.5 45.082-100.5 100.5 0 55.421 45.083 100.5 100.5 100.5 55.423 0 100.5-45.078 100.5-100.5 0-55.418-45.077-100.5-100.5-100.5"/></g><path fill="#fff" d="M187.39 179.39c-36.94 0-67-30.058-67-67 0-36.94 30.06-67 67-67 36.942 0 67 30.06 67 67 0 36.942-30.058 67-67 67Zm0-140.699c-40.644 0-73.699 33.055-73.699 73.7 0 40.644 33.055 73.699 73.7 73.699 40.644 0 73.699-33.055 73.699-73.7 0-40.644-33.055-73.699-73.7-73.699M139.613 46.938c.684 0 1.348-.211 1.914-.606a3.306 3.306 0 0 0 .836-4.656 3.34 3.34 0 0 0-4.66-.84 3.382 3.382 0 0 0-.836 4.66c.68.93 1.715 1.441 2.746 1.441M157.477 37.488c.406 0 .8-.066 1.164-.21 1.754-.669 2.617-2.602 1.949-4.317-.664-1.742-2.617-2.606-4.317-1.938-1.742.668-2.617 2.606-1.949 4.317.508 1.336 1.778 2.148 3.153 2.148M124.578 60.363c.902 0 1.848-.406 2.512-1.14 1.207-1.375 1.074-3.52-.3-4.723-1.411-1.242-3.52-1.102-4.724.3-1.242 1.376-1.113 3.481.262 4.723.64.579 1.453.84 2.25.84M106.992 112.563a3.356 3.356 0 0 0-3.351-3.352 3.355 3.355 0 0 0-3.348 3.352 3.337 3.337 0 0 0 3.348 3.347 3.348 3.348 0 0 0 3.351-3.347M105.277 129.34a3.357 3.357 0 0 0-2.433 4.055 3.364 3.364 0 0 0 3.246 2.55c.262 0 .535-.039.797-.105 1.82-.43 2.879-2.25 2.449-4.055-.434-1.805-2.238-2.879-4.059-2.445M105.21 95.773c.278.067.54.106.813.106a3.354 3.354 0 0 0 3.247-2.555 3.365 3.365 0 0 0-2.473-4.054c-1.781-.434-3.586.68-4.059 2.445-.43 1.82.668 3.625 2.473 4.058M249.863 59.996c.813 0 1.61-.3 2.25-.879 1.375-1.226 1.508-3.347.262-4.71-1.23-1.372-3.348-1.516-4.723-.274s-1.504 3.351-.261 4.722c.668.735 1.57 1.141 2.472 1.141M234.723 46.637a3.434 3.434 0 0 0 2.789-1.442c1.031-1.543.629-3.625-.88-4.66-1.542-1.047-3.609-.68-4.655.867-1.036 1.516-.668 3.621.875 4.657.562.406 1.242.578 1.87.578M261.418 76.55c.512 0 1.074-.132 1.547-.405a3.346 3.346 0 0 0 1.41-4.528c-.875-1.637-2.879-2.277-4.527-1.402-1.637.863-2.278 2.918-1.399 4.555.602 1.097 1.766 1.78 2.969 1.78M196.84 32.527c.129.028.262.028.367.028 1.676 0 3.152-1.23 3.348-2.946.199-1.843-1.11-3.52-2.942-3.714a3.298 3.298 0 0 0-3.718 2.918c-.208 1.832 1.101 3.507 2.945 3.714M177.04 32.633c.132 0 .26 0 .405-.04 1.832-.234 3.14-1.91 2.907-3.714-.235-1.848-1.872-3.156-3.715-2.918a3.309 3.309 0 0 0-2.918 3.715 3.345 3.345 0 0 0 3.32 2.957M111.586 76.613c.496.239.992.367 1.531.367 1.215 0 2.38-.64 2.98-1.777.84-1.676.212-3.68-1.437-4.516-1.61-.878-3.652-.234-4.488 1.399a3.346 3.346 0 0 0 1.414 4.527M215.672 37.082c.363.172.758.234 1.164.234 1.348 0 2.64-.836 3.152-2.171a3.387 3.387 0 0 0-1.976-4.333 3.406 3.406 0 0 0-4.332 1.977 3.35 3.35 0 0 0 1.992 4.293M177.773 192.215c-1.804-.195-3.48 1.113-3.714 2.918-.2 1.847 1.097 3.52 2.941 3.758h.406a3.345 3.345 0 0 0 3.324-2.946 3.397 3.397 0 0 0-2.957-3.73M111.715 148.469c-1.649.879-2.25 2.918-1.414 4.554a3.426 3.426 0 0 0 2.984 1.782c.54 0 1.074-.133 1.57-.407 1.61-.84 2.25-2.878 1.387-4.515-.836-1.649-2.89-2.25-4.527-1.414M247.586 165.691c-1.242 1.375-1.098 3.48.3 4.723.641.563 1.415.84 2.212.84.945 0 1.847-.367 2.515-1.14a3.344 3.344 0 0 0-.3-4.723c-1.375-1.243-3.481-1.114-4.727.3M268.629 95.367c.262 0 .562-.027.836-.094 1.781-.43 2.879-2.273 2.45-4.054-.474-1.805-2.278-2.918-4.083-2.446-1.781.43-2.894 2.274-2.45 4.055a3.36 3.36 0 0 0 3.247 2.54M271.14 108.703a3.337 3.337 0 0 0-3.347 3.348V112.39a3.355 3.355 0 0 0 3.348 3.351 3.356 3.356 0 0 0 3.351-3.351v-.368c0-1.843-1.504-3.347-3.351-3.32M269.531 129.18a3.359 3.359 0 0 0-4.054 2.433c-.434 1.82.68 3.625 2.445 4.059.277.066.539.105.812.105a3.367 3.367 0 0 0 3.246-2.554c.43-1.805-.668-3.61-2.449-4.043M233.113 178.555c-1.531 1.035-1.91 3.113-.863 4.656a3.411 3.411 0 0 0 2.773 1.441c.641 0 1.309-.195 1.887-.601 1.531-1.047 1.895-3.153.863-4.66-1.074-1.543-3.156-1.91-4.66-.836M263.133 148.34c-1.637-.88-3.653-.238-4.516 1.398-.875 1.649-.234 3.653 1.403 4.528a3.294 3.294 0 0 0 1.543.367c1.203 0 2.367-.64 2.984-1.781.863-1.633.223-3.649-1.414-4.512M137.14 179.496a3.34 3.34 0 0 0 .88 4.645 3.23 3.23 0 0 0 1.894.601c1.047 0 2.082-.523 2.75-1.465 1.047-1.504.668-3.586-.863-4.656-1.504-1.035-3.586-.668-4.66.875M215.973 187.57c-1.715.668-2.618 2.578-1.95 4.32.497 1.333 1.778 2.173 3.153 2.173.406 0 .797-.094 1.164-.239 1.754-.668 2.617-2.601 1.95-4.316-.669-1.742-2.58-2.617-4.317-1.938M158.98 187.637c-1.738-.668-3.687.195-4.316 1.937-.668 1.738.195 3.649 1.938 4.317.367.144.77.21 1.175.21 1.375 0 2.645-.812 3.141-2.148.64-1.738-.223-3.687-1.938-4.316M122.563 165.52a3.36 3.36 0 0 0-.301 4.726c.683.73 1.61 1.137 2.515 1.137.809 0 1.61-.301 2.25-.875 1.371-1.207 1.504-3.352.262-4.711-1.23-1.375-3.352-1.52-4.727-.277M197.168 192.215c-1.832.21-3.14 1.887-2.945 3.73a3.393 3.393 0 0 0 3.351 2.946c.13 0 .274-.04.403-.04 1.847-.238 3.14-1.91 2.918-3.718a3.342 3.342 0 0 0-3.727-2.918"/><path fill="#fff" d="M217.543 115.742a3.355 3.355 0 0 0 3.348-3.351 3.354 3.354 0 0 0-3.348-3.348H194.09l26.133-34.836a3.36 3.36 0 0 0-.664-4.7 3.374 3.374 0 0 0-4.7.669l-27.468 36.629-27.465-36.63a3.374 3.374 0 0 0-4.7-.667 3.356 3.356 0 0 0-.667 4.699l26.132 34.836h-23.449a3.358 3.358 0 0 0-3.351 3.348 3.358 3.358 0 0 0 3.351 3.351h26.801v6.7h-26.8a3.358 3.358 0 0 0-3.352 3.351 3.358 3.358 0 0 0 3.351 3.348h26.801v36.851a3.354 3.354 0 0 0 3.348 3.348 3.355 3.355 0 0 0 3.351-3.348v-36.851h26.801a3.354 3.354 0 0 0 3.348-3.348 3.355 3.355 0 0 0-3.348-3.352h-26.8v-6.699h26.8"/></svg>