<svg xmlns="http://www.w3.org/2000/svg" width="500" viewBox="0 0 375 225" height="300" version="1.0"><defs><clipPath id="bd63c8c3f5"><path d="M205 5.137h67.531V72H205Zm0 0"/></clipPath><clipPath id="1c47d1d8f4"><path d="M102.281 180H131v39.637h-28.719Zm0 0"/></clipPath></defs><g clip-path="url('#bd63c8c3f5')"><path fill="#fff" d="M271.75 35.914c-.566-.98-1.75-.52-2.559-.184-.554.23-1.125.497-1.738.47-.73-.032-1.418-1.04-1.789-1.563-.39-.555-.726-1.176-.906-1.832-.215-.793-.172-1.746-.172-2.563 0-.812.039-1.715.402-2.46.285-.587.871-1.02 1.336-1.454.863-.8 1.41-1.707 1.004-2.894-.805-2.34-4.062-.778-5.254.285-1.047.933-1.816 2.226-3.195 2.71-.746.266-1.68.282-2.137-.44-.273-.434-.539-.84-1.074-.954-.816-.172-1 .836-1.176 1.453-.472-.363-1.015-.875-1.633-.816-.16.012-.297.16-.418.25-.37.277-1.117.25-1.55.281-.825.063-1.528.008-1.918-.8-.282-.583-.38-1.239-.653-1.825-.265-.578-.746-.879-1.273-1.195-.879-.52-1.824-.922-2.762-1.32-.851-.36-1.715-.692-2.531-1.114-.902-.472-1.664-1.187-2.383-1.894-1.371-1.336-2.531-2.864-3.89-4.211-.626-.614-1.329-1.117-2.004-1.66-.72-.579-1.036-1.461-1.41-2.274-.32-.7-.82-1.12-1.493-1.473-.441-.234-.879-.433-1.273-.746-.41-.32-.586-.804-.797-1.265-.285-.614-.66-.903-1.3-1.059-.544-.137-1.282-.25-1.798.008-.199.105-.336.316-.46.547a.816.816 0 0 1-.423.25c-.09.027-.187.05-.277.086h-.293c-.062 0-.121.039-.133.097-.187.774-.574 1.516-.672 2.305-.125 1 .18 2.004.243 3 .062.985-.325 1.942-.418 2.918-.094.985.222 2.047.539 2.969.308.918.793 1.742 1.008 2.691.253 1.117-.004 2.18-.141 3.29-.14 1.144-.203 2.292-.379 3.429-.14.95-.559 1.844-.656 2.82-.059.57-.106 1.032-.418 1.528-.196.312-.535.547-.82.761-.438.332-.883.711-1.067 1.25-.469 1.407.223 2.633 1 3.77.438.637.863 1.27 1.094 2.016.258.832-.461 1.539-1.086 1.933-1.266.785-3.137 1.086-4.48.383-1.262-.66-2.282-2.309-3.872-2.04-1.207.208-1.586 1.645-1.09 2.638.356.703 1.364 1.578.891 2.406-.355.621-1.168.793-1.508 1.473-.332.671-.3 1.46-.633 2.14-.402.828-.84 2.016-1.96 1.738-1.114-.277-2.118-.476-3.09.293-.785.618-1.059 1.704-1.164 2.641-.125 1.105.027 2.266.343 3.328.438 1.445 1.45 2.547 2.516 3.57.55.532 1.11 1.055 1.61 1.637.796.922 1.007 1.985.827 3.172-.23 1.512-1.218 2.89-1.203 4.43.008 1.117.723 1.996 1.825 2.18 1.43.242 2.914-1.087 3.816-2.047.395-.422.48-1.024.578-1.567.168-.937.57-1.898.863-2.805.118-.363.184-.765.586-.914.368-.136.825-.023 1.192.051.676.137 1.336.313 2.027.207 1.25-.195 1.078-1.902.723-2.742-.614-1.441-1.875-2.715-3.125-3.621-1.219-.89-2.633-1.219-4.098-1.332-.379-.031-.766-.082-1.101-.27-.403-.222-.153-.789.011-1.058.371-.61 1.063-1.047 1.653-1.422.55-.348 1.093-.672 1.757-.723.93-.074 1.82.48 2.598.922.633.363 1.277.742 1.992.918.68.164 1.387-.164 1.965-.488.754-.43 1.387-1.051 2.145-1.473 1.004-.558 2.168-.773 3.3-.851 1.774-.118 3.625.109 5.368.418 1.78.316 3.543.816 5.187 1.57 1.598.734 2.883 1.902 4.281 2.945 1.075.805 2.786 2.13 4.23 1.824 1.204-.257 1.848-1.836 2.2-2.851.02-.063-.02-.121-.066-.156a1.84 1.84 0 0 0-.414-.223c.402-.664.851-1.3 1.199-1.992.398-.801.52-1.715.758-2.57.464-1.7 1.468-3.383 3.062-4.22.879-.46 1.895-.75 2.805-1.167.777-.352 1.539-.735 2.297-1.13.62-.327.707-1.16 1.14-1.655.657-.758 1.606-.055 2.371.023 1.797.188 2.805-1.465 4.344-2.043.863-.324 1.824-.371 2.723-.559.558-.117 1.125-.628 1.535-1 .93-.836 1.46-1.96.789-3.109"/></g><path fill="#fff" d="M234.695 87.977c-.332-.368-.808-.649-.867-1.188-.05-.414.004-.824-.07-1.242-.13-.738-.336-1.516-.75-2.149-.48-.742-1.227-1.347-1.848-1.968-.39-.387-.707-1.102-1.347-1.02-.399.055-.708.344-1.125.39-.758.087-1.09-.562-1.305-1.155a.792.792 0 0 0-.426-.477c-.34-.16-.953.023-.84-.598.063-.351.254-.675.406-.988.165-.355.247-.734.313-1.113.309-1.805.105-3.77.738-5.496.293-.813 1.086-2.696-.41-2.828-.476-.043-.953.25-1.422.3-.41.047-.77-.37-1.137-.476-.332-.094-.656-.188-1-.242-.632-.11-1.648-.137-1.644.718.008 1.34 2.414 1.14 1.684 2.696-.239.496-.274.953-.208 1.504.086.68.825 2.136-.43 2.144-.722.004-1.448-.5-1.948.23-.22.313-.329.696-.528 1.024-.5.816-1.015-1.09-1.07-1.371a16.593 16.593 0 0 0-.457-1.66c-.18-.57.02-1.086-.45-1.543-.628-.621-1.831-.098-2.562-.07-.105.003-.144.093-.129.171-.367.227-.832.211-1.226.356-.282.101-.516.277-.735.472-.5.442-.437 1.106-.195 1.665.434 1.003.625 1.902.547 3.007-.035.465-.168.93-.188 1.395-.023.738-.394.918-1.066.851-.813-.086-1.633.114-2.398.38-.41.144-.965.433-1.102.894-.27.894.734 1.672 1.309 2.187.355.317.777.625 1.011 1.043.543.97-.03 2.317-.761 3.055 6.71 6.3 10.902 15.254 10.902 25.184 0 19.074-15.457 34.535-34.535 34.535-4.774 0-9.317-.969-13.45-2.719-.152.336-.304.668-.476.988-.508.922-1.145 1.785-1.773 2.621-.48.633-1.165 1.364-1.454 2.11-.109.289-.14.527-.101.836.086.61.734.84.605 1.566-.117.664-.894.926-1.46.984-.176.02-.38.055-.508.188-.633.629.593 2.023-.75 2.164-.727.078-1.313.043-2.028.277-.535.18-1.047.352-1.617.22-.73-.165-.57-.981-.492-1.509.117-.816.05-2.175-1.113-1.804-.907.289-1.704.898-2.618 1.191-.906.29-1.824.469-2.68.898-1.835.934-3.57 2.043-5.546 2.668-.7.22-1.43.348-2.137.543a12.9 12.9 0 0 1-1.113.262c.031-.215-.02-.473-.063-.644-.043-.172-.304-.098-.265.074.238.972-.617.52-1.188.414a6.49 6.49 0 0 0-2.215-.035 5.99 5.99 0 0 0-2.16.84c-.398.25-.668.593-1.172.652-.3.035-.617-.027-.914-.121.242-.301.457-.832.305-1.13-.246-.483-.695-.51-1.203-.519-1.477-.03-3.188.246-4.32 1.274-.606.554-1.27 1.082-1.766 1.746-.606.805-1.035 1.707-1.48 2.61-.426.859-.97 1.64-1.493 2.44-.601.915-1.14 1.852-1.984 2.571-.695.594-1.55.977-2.266 1.547-.402.32-.594.738-1.11.941-.421.164-1.01.043-1.46.059-.496.016-.984.125-1.309.52-.355.433-.27 1.253-.379 1.769-.472 2.238-2.546.11-3.722-.074-.434-.067-.77.172-1.012.508-.422.59-.695 1.55-.785 2.261-.059.461.047.957.113 1.418.078.52 0 1.102.192 1.602.168.43.691.828 1.183.879.27.12.535.21.836.238a.12.12 0 0 0 .113-.059c.344.086.692.145 1.02.051.605-.168 1.05-.672 1.617-.941.992-.469 2.504-1.11 3.664-.785-.308.054-.61.136-.926.152-.175.012-.175.285 0 .273.364-.015.707-.105 1.063-.175.105-.02.219-.036.336-.047.035.023.074.043.113.07.09.063.176-.004.192-.09a6.2 6.2 0 0 1 .906.04c.066.007.105-.028.12-.071h.29c.102 0 .144-.082.129-.16.55-.059.965-.32 1.55-.211.77.14 1.567.129 2.239-.328.512-.348.527-1.024.543-1.578.016-.47.226-.871.273-1.325.051-.523-.222-.937-.265-1.433.144.039.285.062.437.086.242.039.57.293.793.414.39.215.813.383 1.211.582.766.379 1.531.62 2.387.656 1.722.074 3.523-.613 5.05-1.344.837-.402 1.59-.933 2.395-1.382 1.012-.575 2.215-.27 3.324-.336.528-.036 1.188-.09 1.61-.442.601-.496.293-1.37.953-1.82.633-.43 1.52.066 2.191-.313.2-.113.309-.23.414-.437.145-.27.168-.422.461-.633.242-.172.621-.172.899-.266.449-.16.668-.468 1.187-.53.469-.06.961.093 1.422.155 1.125.157 2.117.344 3.16.805.434.191.871.375 1.305.563.285.125.598.316.918.316.773.008 1.379-.547 2.168-.566 1.558-.036.328 1.976-.067 2.554-.46.676-.996 1.309-1.277 2.086-.543 1.5.836 2.23 1.195 3.535.204.73.168 1.473.508 2.172.356.739.953 1.36 1.54 1.918.624.594 1.394 1.02 2.019 1.617.36.34.644.989 1.16 1.133.48.133.984-.238 1.336-.512.703-.55 1.406-1.132 1.957-1.843.492-.633.742-1.414 1.238-2.051.406-.52.688-1.102.918-1.719.223-.61.492-1.137.235-1.765-.344-.852.398-.809.804-1.114.324-.246.676-.457.989-.71.746-.602 1.492-1.313 2.43-1.598.628-.188.831.347 1.113.695.183.223.44.266.707.305.515.074.933.004 1.347-.317a.556.556 0 0 0 .238-.36c.036.005.07.013.11.013.176 0 .176-.278 0-.278-.656 0 .2-1.476.238-1.773.094-.692-.066-1.32-.523-1.844-.403-.469-1.032-.734-1.575-.992a18.367 18.367 0 0 1-1.812-.977c-.227-.132-.426-.304-.52-.558.188-.188.372-.38.559-.567.106.032.215.067.32.094.36.102.727.18 1.094.242.719.125 1.469.157 2.168-.082.29-.097.477-.351.727-.523.136.055.27.11.406.168a.892.892 0 0 0-.113.129.826.826 0 0 0-.141.265c-.18.45-.004.914.383 1.164.445.29 1.222.305 1.73.325.258.011.574-.051.766-.235.469-.433.738-.832 1.394-1.043.899-.285 2.086-.265 2.985.004.812.25 1.582.457 2.441.442.7-.012 1.223-.309 1.754-.727a13.36 13.36 0 0 0 2.098-2.078 9.159 9.159 0 0 0 1.304-2.14c.149-.34.23-.708.34-1.063.188-.602.586-1.047 1.02-1.488.226-.231.406-.47.582-.747.433-.683 1.097 1.207 1.16 1.383.328.903.227 1.906.68 2.774.605 1.16 1.902 1.543 3.105 1.078.54-.203.899-.66 1.102-1.184.152-.379.191-.812.265-1.215.094-.504.29-.972.418-1.464.239-.907.227-1.86.75-2.665.664-1.027 1.774-.996 2.797-1.386.715-.27 1.524-.356 2.067-.938.527-.562.605-1.406 1.187-1.937.34-.313.836-.473 1.29-.48.82-.012.839.89.667 1.445-.285.906-1.195 1.226-1.66 1.984-.195.316-.184.715-.29 1.062-.124.418-.41.774-.612 1.149-.301.558-.278 1.219.062 1.746.234.371.754.664 1.188.535.3-.086.59-.426.836-.594.503-.351 1.078-.601 1.648-.816.402-.148.773-.457 1.133-.7.453-.304 1.039-.437 1.465-.773.703-.554 1.398-1.144 1.754-1.984.171-.41.14-.906.152-1.34.012-.445.027-.934.453-1.207.2-.125.43-.21.637-.324.636-.352 1.18-1.024.886-1.77-.292-.734-1.234-1.242-1.753-1.808-.676-.742-1.586-1.16-2.352-1.797a3.608 3.608 0 0 1-.383-.39c-.086-.09-.637-1.153-.14-1.04.312.07.609.403.843.598.297.25.715.687 1.149.594.054-.012.105-.075.101-.133-.023-.332-.125-.649-.164-.98-.07-.673.48-.34.711-.102.5.504.86 1.168 1.223 1.773.324.55 1.219 2.664 2.234 2.102.649-.364.403-1.352.297-1.953-.203-1.125-.898-2.125-1.547-3.036-.32-.445-.68-.851-.957-1.32-.332-.558-.476-1.226-.629-1.851-.199-.825.028-1.551.262-2.332.117-.387.04-.774.031-1.16a.135.135 0 0 0 .117.074h.274c.176 0 .176-.274 0-.274h-.129c.043-.867.594-1.597.852-2.414.19-.61.468-.922 1.058-1.16.344-.14.613-.34.883-.594.48-.453.734-1.086.766-1.738.062-1.16-.149-2.262.074-3.422.164-.855.285-1.707.36-2.578.081-.934.308-1.777.151-2.719-.128-.777-.527-1.504-.957-2.156-.238-.363-.539-.688-.761-1.059-.324-.527-.266-1.222-.176-1.808.125-.805.398-1.582.52-2.39.144-.954-.008-1.892.062-2.845.074-1.074.766-1.765 1.828-1.449.598.18 1.121.527 1.723.703 1.097.317 1.797-.636 2.004-1.601.324-1.52-.473-2.883-.438-4.364.02-.824.446-1.636.535-2.464.047-.422-.007-.829.118-1.243.125-.414.605-.597.968-.742.512-.203.68-.367.907-.887.101-.246.472-.562.39-.855 1.02-1.082 1.07-2.55 1.25-3.996.258-2.031.547-4.004.3-6.047-.081-.672-.026-1.566-.515-2.105"/><path fill="#ee2549" d="M221.96 112.059c0-9.93-4.19-18.883-10.901-25.184-.028.031-.059.063-.086.09-.676.633-1.516 1.18-2.274 1.715-.34.242-1.281.5-1.336 1-.066.582.227.855.672 1.164.535.37.961.793 1.664.691.406-.058.86-.316 1.27-.258.398.059.52.649.594.965.238.973.503 1.988.578 2.988.039.54.105 1.028.222 1.56.203.925-.207 1.437-.703 2.155a10.466 10.466 0 0 0-1.605 3.664 6.252 6.252 0 0 0-.164 1.786c.039.625.175 1.226.035 1.847-.156.656-.942 1.23-1.442 1.637-.484.39-1.015.73-1.535 1.07-1.086.176-1.004 1.602-.969 2.434.036.937.434 1.797.41 2.754-.011.5-.163.965-.374 1.414-.243.515-.403 1.054-.875 1.418-.317.242-.746.355-1.094.55-.473.266-.98.458-1.48.66-.739.298-1.481.618-2.2.962-1.62.777-1.394 2.527-1.98 4-.332.824-.684 1.62-.973 2.464-.34.985-1.086 1.696-1.773 2.446-.559.605-.918 1.457-1.754 1.719-.672.21-1.278-.368-1.86.125-.277.23-.468.582-.707.847-.351.39-.965.613-1.437.797-.762.297-1.508.496-2.117 1.066-.621.586-.957 1.395-1.684 1.88-.738.495-1.695.581-2.508.902-.285.117-.508.355-.75.535-.566.414-.972-1.059-1.047-1.348-.175-.676-.632-1.137-.894-1.762-.375-.886 1.469-1.066 1.965-1.445.527-.398.976-1.082 1.304-1.652.422-.738.75-1.922-.082-2.5-.722-.5-1.902-.227-2.683-.059-.918.196-2.106.438-2.82 1.086-.528.477-.547 1-.579 1.688-.043 1 .149 1.976.188 2.972.035 1.059-.117 2.114-.352 3.145-.222.992-.422 2.055-.91 2.953-.027.05-.082.129-.152.223-.403.058-.645.394-.856.734-.445.723-.719 1.54-1.148 2.277-.301.516-.535 1.082-.781 1.641a34.404 34.404 0 0 0 13.449 2.719c19.078 0 34.535-15.461 34.535-34.535"/><path fill="#fff" d="M158.93 178.719c-.39-.45-.614-.793-.52-1.442.063-.437.34-.8.594-1.144.93-1.274-.574-1.992-1.27-2.914-.355-.48-.664-.656-1.257-.68-.352-.016-.704.035-1.055.035-.445 0-.836-.254-1.242-.398-.66-.23-1.399.043-2.078-.04-.692-.081-1.45-.214-2.125.012-.422.141-.688.579-.934.915-.465.64-1.04.507-1.719.62-.379.06-.754.231-.86.637a2.589 2.589 0 0 0-.07.758c.032.617.04.953-.535 1.352-.707.492-1.535.699-2.28 1.101a6.22 6.22 0 0 1-.583.293c-.238-.254-.516-.12-.828.07-.559.344-1.035-.19-1.465-.48a4.193 4.193 0 0 0-1.191-.535c-1.254-.352-2.606.344-3.325 1.348-.48.671-.503 1.414-.64 2.195-.184 1.082-1.133 1.46-2.02 1.855-.55.246-.816.594-.867 1.192-.035.441.13.886-.312 1.176-.453.296-.977.417-1.496.539-.961.218-1.875.402-2.79.78-.421.177-.769.403-.675.923.175.992 1.754 2.078 2.605 1.175.188-.195.23-.55.336-.785.172-.402.93-.132 1.207-.047.586.184.445.836.445 1.317 0 .422.036.832.145 1.242.172.676.906 1.043 1.145 1.715.175.512.304 1.043.671 1.453.383.434.938.2 1.422.18.606-.024.922.383.88.902-.028.293.034.547.167.805.504.96 2.16.816 3.05.84.895.023 2.337-.438 1.767-1.63-.184-.386-.426-.726-.461-1.163-.04-.524.191-1.047.445-1.48.508-.872 1.195-1.485 1.906-2.173.59-.562.43-1.433.801-2.101.238-.426.727-.696 1.129-.934.527-.308 1.074-.672 1.691-.742.961-.117 1.918-.3 2.883-.399 1.082-.109 2.223-.398 3.227.196.613.363 1.625 2.394 2.59 1.62.347-.28.449-.737.503-1.163.118-.88.125-1.723.547-2.524.407-.761 1.184-1.03 1.84-1.52.477-.355.832-.901 1.016-1.46.176-.543-.063-1.086-.414-1.492"/><g clip-path="url('#1c47d1d8f4')"><path fill="#fff" d="M129.879 192.395c-.238-.407-.645-.688-.988-.993-.473-.418-.774-1.03-1.207-1.492-.688-.734-1.957-.945-2.875-1.203-.258-.07-.5-.191-.754-.273 0 0-1.043-.235-.684-.422.352-.184.73-.29 1.024-.567.457-.441.234-1.664.003-2.16-.37-.805-.984-1.062-1.793-1.3-.636-.192-1.261-.403-1.851-.712-.242-.125-.504-.207-.746-.335-.301-.157-.555-.47-.805-.7-.39-.36-.863-.566-1.336-.793-.375-.175-.652-.558-1.039-.699-.469-.168-1.008-.039-1.496.008a10.75 10.75 0 0 1-.113.012.165.165 0 0 0-.024-.055c-.523-.652-2.113.105-2.726.3-1.078.34-.477 1.774-.48 2.571 0 .543-.255.969-.872.824-.355-.086-.637-.472-.883-.722-.41-.414-.879-.625-1.464-.543-.477.062-.77.511-.887.933-.16.567.176 1.117.289 1.66.05.227.05.465-.047.684-.336.754-.695.055-.809-.129-.066-.11-.214-.309-.351-.328-.742-.102-1.008.473-1.418.988-.5.625-1.11 1.149-1.508 1.848-.32.566-.879 1.266-.754 1.969.317 1.777 3.297 1.46 2.758 3.605-.227.887-.867.219-1.137-.164a4.066 4.066 0 0 0-.668-.727c-.285-.253-.93-.847-1.379-.66-.46.196-.433.606-.406 1.047.055.934.332 1.797.55 2.7.274 1.128.731 2.788 1.981 3.269.36.14.586.012.727-.336.113-.273.133-.613.223-.902.168-.532.722-.875 1.09-1.27.386-.418.792-.547 1.335-.637.454-.082.86-.238 1.028.32.168.563.523.794 1.093.833 1.188.082 1.286-2.055.957-2.758-.347-.766-.917-1.356-1.457-1.984-.238-.278-.46-.575-.664-.868a2.449 2.449 0 0 1-.289-.57c-.218-.637.43-1.016.953-.734 1.641.867 1.516 3.082 2.696 4.289.511.52.418.996.36 1.652-.02.219-.036.465.07.668.164.305.417.543.597.832.34.54.203 1.227.027 1.79-.257.808-.832 1.823-1.43 2.433-.257.265-.62.402-.878.672-.262.273-.399.75-.547 1.086-.742 1.699-.227 3.636.133 5.367.226 1.078.355 2.133.375 3.23.012.5.055 1.028-.082 1.512-.121.414-.344.777-.438 1.203-.09.399-.023 1.02.246 1.352.32.398.84.484 1.313.605 1.2.3 2.531 1.145 3.457-.152.656-.918.766-2.176.113-3.125-.531-.77-.777-1.43-.758-2.38.004-.257.051-.515.106-.765.12-.543.683-1.215 1.035-.258.129.352.035.813.016 1.176-.016.34.046.68.109 1.012.203 1.062.598 2.062.73 3.144.082.672-.093 1.309-.144 1.965-.031.38-.059.867.207 1.168.172.196.562.047.707-.11.184-.198.313-.429.441-.663.29-.535.813-.754 1.368-.922.53-.16 1.222-.234 1.66-.61a.772.772 0 0 0 .277-.519c.063-.512.098-1.004.25-1.5.348-1.16 1.524-.094 2.227-.422.527-.246.777-.762.988-1.273.652-1.586.531-3.309.75-4.985.133-1.02.047-2.086.309-3.086.273-1.027.71-2.007 1.097-2.996.324-.836.625-1.707.742-2.601.153-1.14-.004-2.364.52-3.426.371-.75 1.02-1.348 1.445-2.07.344-.575.11-1.305-.195-1.828"/></g></svg>