<svg xmlns="http://www.w3.org/2000/svg" width="500" viewBox="0 0 375 225" height="300" version="1.0"><path fill="#ee2549" d="M254.84 44.828a98.282 98.282 0 0 1 3.23 3.395 98.054 98.054 0 0 1 3.059 3.547 93.63 93.63 0 0 1 2.883 3.69 99.53 99.53 0 0 1 2.699 3.833 99.276 99.276 0 0 1 2.508 3.957c.8 1.34 1.57 2.7 2.308 4.078a97.49 97.49 0 0 1 4.004 8.469 94.04 94.04 0 0 1 3.156 8.82 95.373 95.373 0 0 1 3.997 23.028 93.696 93.696 0 0 1 0 9.367 93.368 93.368 0 0 1-.344 4.675 93.176 93.176 0 0 1-.574 4.649 91.922 91.922 0 0 1-.801 4.617 91.848 91.848 0 0 1-1.027 4.57 94.057 94.057 0 0 1-1.247 4.516 97.188 97.188 0 0 1-3.156 8.82 95.176 95.176 0 0 1-1.898 4.286 91.06 91.06 0 0 1-2.11 4.183 95.157 95.157 0 0 1-7.512 11.867 94.417 94.417 0 0 1-5.945 7.242 94.685 94.685 0 0 1-6.625 6.625 94.419 94.419 0 0 1-11.07 8.641 99.277 99.277 0 0 1-3.957 2.508c-1.34.805-2.7 1.574-4.078 2.309a95.032 95.032 0 0 1-17.29 7.164c-1.495.453-3 .867-4.515 1.25-1.515.379-3.039.718-4.574 1.023-1.531.305-3.07.574-4.613.805a98.156 98.156 0 0 1-9.325.918 98.621 98.621 0 0 1-4.683.113 93.378 93.378 0 0 1-9.36-.46 97.994 97.994 0 0 1-4.648-.571 96.587 96.587 0 0 1-4.617-.801 96.462 96.462 0 0 1-9.086-2.277 95.24 95.24 0 0 1-8.82-3.156 95.176 95.176 0 0 1-12.547-6.317c-1.34-.8-2.66-1.637-3.961-2.504a96.445 96.445 0 0 1-11.07-8.64 98.28 98.28 0 0 1-3.395-3.231 97.631 97.631 0 0 1-6.293-6.941c-.988-1.211-1.95-2.442-2.883-3.696a96.538 96.538 0 0 1-5.203-7.79 91.026 91.026 0 0 1-2.309-4.077 93.096 93.096 0 0 1-4.007-8.469 90.879 90.879 0 0 1-1.684-4.37 92.632 92.632 0 0 1-1.473-4.45c-.453-1.496-.867-3-1.25-4.516a96.425 96.425 0 0 1-1.023-4.57 96.61 96.61 0 0 1-.805-4.617 97.535 97.535 0 0 1-.918-9.324 98.495 98.495 0 0 1-.113-4.684 93.222 93.222 0 0 1 .46-9.355c.153-1.555.345-3.106.571-4.653.23-1.543.496-3.082.801-4.617a96.462 96.462 0 0 1 2.277-9.086 95.242 95.242 0 0 1 3.156-8.82 95.178 95.178 0 0 1 8.82-16.504 96.728 96.728 0 0 1 5.582-7.527 98.056 98.056 0 0 1 3.06-3.547c1.05-1.157 2.128-2.29 3.23-3.395a101.967 101.967 0 0 1 3.395-3.23c1.16-1.047 2.34-2.067 3.546-3.059a96.728 96.728 0 0 1 7.528-5.582 96.538 96.538 0 0 1 3.957-2.508c1.34-.8 2.699-1.57 4.078-2.308a95.178 95.178 0 0 1 8.469-4.004 95.239 95.239 0 0 1 27.175-6.809c1.555-.152 3.11-.27 4.672-.344a93.58 93.58 0 0 1 9.368 0c1.562.075 3.117.192 4.671.344a93.33 93.33 0 0 1 4.653.574c1.543.227 3.082.496 4.617.801 1.531.305 3.055.645 4.57 1.027 1.516.38 3.02.793 4.516 1.247 1.496.457 2.976.945 4.45 1.472a95.178 95.178 0 0 1 8.656 3.582 95.228 95.228 0 0 1 4.183 2.11 91.026 91.026 0 0 1 4.078 2.308c1.34.805 2.66 1.637 3.957 2.508a93.708 93.708 0 0 1 7.527 5.578 94.419 94.419 0 0 1 3.547 3.063 94.518 94.518 0 0 1 3.395 3.23Zm0 0"/><path fill="#fff" d="M187.996 106.973s-.004 0 0 0a.945.945 0 0 1-1.312-.004c-.235-.227-.477-.453-.711-.68a1953.13 1953.13 0 0 0-7.352 7.133l.66.648a.949.949 0 0 1 .012 1.34c2.937-2.867 5.84-5.676 8.703-8.437Zm-18.289 17.89c3.242-3.238 6.434-6.379 9.586-9.457l-.031.031a.947.947 0 0 1-1.309-.015c-.234-.227-.465-.453-.695-.68-12.852-12.637-23.184-23.613-30.719-32.637-10.547-12.632-15.687-21.421-15.715-26.863-.008-1.77.531-3.207 1.594-4.273a.964.964 0 0 1 .695-.278.961.961 0 0 1 .68.309c16.957 18.754 32.11 33.336 48.152 48.773l5.395 5.192.656.633c.375.359.383.96.024 1.34 2.03-1.958 4.042-3.895 6.042-5.817 15.817-15.223 30.774-29.61 47.454-47.996.312.598.457 1.32.445 2.184-.106 6.449-8.734 19.004-25.633 37.308-6.707 7.262-13.914 14.567-20.926 21.442a.68.68 0 0 1-.054.046c-.008.008-.016.016-.02.024-6.558 6.43-12.941 12.48-18.582 17.773Zm8.914-11.445c-37.863-37.215-45.867-52.184-45.898-58.184-.004-.824.136-1.527.441-2.105 16.684 18.39 31.649 32.785 47.473 48.012 1.773 1.707 3.55 3.418 5.34 5.144-2.43 2.344-4.88 4.719-7.356 7.133ZM207.676 142.645l8.086-8.086a.945.945 0 0 0 0 1.34l.668.667 27.34 27.336a4.803 4.803 0 0 1 0 6.774 4.769 4.769 0 0 1-3.387 1.394 4.746 4.746 0 0 1-3.383-1.394l-28.012-28.012a.952.952 0 0 0-1.312-.02Zm7.12-14.68-13.737 13.742a1.956 1.956 0 0 0-.223.254c-.008.008-.012.016-.02.023a2.674 2.674 0 0 0 .243 3.5 2.66 2.66 0 0 0 1.886.778c.723 0 1.39-.274 1.895-.778l2.789-2.789a.945.945 0 0 0 .027 1.313l28.012 28.012a6.622 6.622 0 0 0 4.723 1.949 6.631 6.631 0 0 0 4.726-1.95 6.628 6.628 0 0 0 1.95-4.726c0-1.79-.692-3.469-1.95-4.727l-27.34-27.336-.668-.667a.945.945 0 0 0-1.34 0l2.813-2.813a2.676 2.676 0 0 0 0-3.781 2.66 2.66 0 0 0-1.89-.778c-.56 0-1.122.176-1.59.524-.02.015-.04.031-.059.05a1.222 1.222 0 0 0-.246.2Zm0 0" fill-rule="evenodd"/><path fill="#f8fafb" d="M198.652 133.875Zm6.325-9.012 3.699-3.699c.351-.352.984-.352 1.34 0l4.613 4.61c-.422.214-.82.5-1.172.847l-13.738 13.738c-.356.356-.637.75-.848 1.172l-4.613-4.61a.957.957 0 0 1 0-1.343l2.336-2.332Zm0 0" fill-rule="evenodd"/><path fill="#ee2549" d="M176.727 134.176a.956.956 0 0 1-.692-.297.95.95 0 0 1 .043-1.344c11.777-11.043 26.996-25.558 40.25-39.91 16.902-18.305 25.527-30.86 25.633-37.309.012-.863-.133-1.59-.445-2.183-16.68 18.387-31.637 32.777-47.453 47.996-8.047 7.742-16.368 15.75-25.028 24.41a.95.95 0 0 1-1.344 0 .953.953 0 0 1 0-1.34c8.676-8.676 17.004-16.683 25.059-24.433 16.035-15.434 31.188-30.008 48.14-48.758a.94.94 0 0 1 .68-.309.936.936 0 0 1 .692.278c1.086 1.086 1.625 2.558 1.593 4.375-.109 7.027-8.664 19.644-26.136 38.566-13.293 14.394-28.543 28.945-40.344 40.012a.995.995 0 0 1-.648.246Zm0 0" fill-rule="evenodd"/><path fill="#ee2549" d="M174.61 142.344a.928.928 0 0 1-.669-.278.945.945 0 0 1 0-1.34l4.473-4.468-13.078-13.082-4.473 4.472a.945.945 0 0 1-1.34 0 .945.945 0 0 1 0-1.34l5.145-5.144c.352-.352.984-.352 1.34 0l14.414 14.418a.95.95 0 0 1 0 1.344l-5.145 5.14a.928.928 0 0 1-.668.278Zm0 0" fill-rule="evenodd"/><path fill="#ee2549" d="m156.105 131.746 13.739 13.738c.508.5 1.176.778 1.89.778.715 0 1.383-.274 1.891-.778a2.685 2.685 0 0 0 0-3.777l-13.738-13.742a2.683 2.683 0 0 0-3.782 0 2.676 2.676 0 0 0 0 3.781Zm15.63 16.414a4.546 4.546 0 0 1-3.235-1.332l-13.738-13.738a4.574 4.574 0 0 1 0-6.461 4.574 4.574 0 0 1 6.46 0l13.739 13.738a4.574 4.574 0 0 1 0 6.461c-.856.86-2 1.332-3.227 1.332Zm0 0" fill-rule="evenodd"/><path fill="#ee2549" d="M134.297 173.973a6.638 6.638 0 0 1-4.727-1.95c-2.605-2.609-2.605-6.851 0-9.457l28.012-28.007a.945.945 0 0 1 1.34 0 .945.945 0 0 1 0 1.34l-28.008 28.007a4.795 4.795 0 0 0 0 6.774 4.76 4.76 0 0 0 3.383 1.394 4.762 4.762 0 0 0 3.387-1.394l28.007-28.012a.945.945 0 0 1 1.34 0 .945.945 0 0 1 0 1.34l-28.008 28.012a6.625 6.625 0 0 1-4.726 1.953ZM178.617 115.691a.943.943 0 0 1-.664-.27C164.777 102.5 154.211 91.29 146.54 82.106c-10.547-12.632-15.687-21.421-15.715-26.863-.008-1.77.531-3.207 1.594-4.273a.964.964 0 0 1 .695-.278.961.961 0 0 1 .68.309c16.957 18.754 32.11 33.336 48.152 48.773l6.051 5.829c.375.359.383.96.024 1.34a.946.946 0 0 1-1.34.023l-6.047-5.824c-15.824-15.227-30.79-29.621-47.473-48.012-.3.578-.445 1.277-.437 2.105.03 6.036 8.129 21.145 46.558 58.836a.949.949 0 0 1 .012 1.34.95.95 0 0 1-.676.281Zm27.7 10.125a.932.932 0 0 1-.669-.28 864.355 864.355 0 0 0-7.996-7.856c-.761-.746-1.527-1.489-2.285-2.23a.95.95 0 0 1-.02-1.34.95.95 0 0 1 1.344-.016c.758.738 1.52 1.484 2.286 2.226 2.609 2.543 5.308 5.172 8.011 7.871a.945.945 0 0 1 0 1.34.951.951 0 0 1-.672.285Zm-8.364 8.36a.965.965 0 0 0 .695-.297.954.954 0 0 0-.046-1.344c-2.477-2.32-6.27-5.89-10.606-10.035a.953.953 0 0 0-1.34.027.954.954 0 0 0 .028 1.344c4.34 4.152 8.136 7.723 10.617 10.05a.98.98 0 0 0 .652.255Zm0 0" fill-rule="evenodd"/><path fill="#ee2549" d="M200.07 142.344a.943.943 0 0 1-.672-.278l-5.144-5.14a.957.957 0 0 1 0-1.344l14.422-14.418c.351-.352.984-.352 1.34 0l5.14 5.145a.945.945 0 0 1 0 1.34.945.945 0 0 1-1.34 0l-4.468-4.473-13.078 13.082 4.468 4.469a.945.945 0 0 1 0 1.34.928.928 0 0 1-.668.277Zm0 0" fill-rule="evenodd"/><path fill="#ee2549" d="M219.246 132.418Zm-2.562-5.23c-.684 0-1.368.257-1.887.777l-13.738 13.742a2.678 2.678 0 0 0 0 3.777 2.66 2.66 0 0 0 1.886.778c.723 0 1.39-.274 1.895-.778l13.738-13.738a2.676 2.676 0 0 0 0-3.781 2.676 2.676 0 0 0-1.894-.778Zm-13.739 20.972a4.535 4.535 0 0 1-3.226-1.332 4.567 4.567 0 0 1 0-6.46l13.738-13.74a4.57 4.57 0 0 1 6.457 0 4.574 4.574 0 0 1 0 6.462l-13.738 13.738a4.537 4.537 0 0 1-3.23 1.332Zm0 0" fill-rule="evenodd"/><path fill="#ee2549" d="M240.383 173.973a6.622 6.622 0 0 1-4.723-1.95l-28.012-28.011a.945.945 0 0 1 0-1.34.945.945 0 0 1 1.34 0L237 170.684a4.746 4.746 0 0 0 3.383 1.394 4.762 4.762 0 0 0 3.387-1.394 4.798 4.798 0 0 0 0-6.77l-28.008-28.012a.945.945 0 0 1 0-1.34.945.945 0 0 1 1.34 0l28.011 28.008a6.638 6.638 0 0 1 1.95 4.727c0 1.789-.692 3.469-1.95 4.726a6.653 6.653 0 0 1-4.73 1.95Zm0 0" fill-rule="evenodd"/><path fill="#fff" d="M178.621 113.418a1953.13 1953.13 0 0 1 7.352-7.133c-1.79-1.726-3.567-3.437-5.34-5.144-15.824-15.227-30.79-29.621-47.473-48.012-.3.578-.445 1.277-.441 2.105.031 6 8.039 20.97 45.902 58.184ZM196.031 116.102c-2.48 2.421-4.93 4.789-7.32 7.078 3.668 3.504 6.906 6.554 9.219 8.73l7.043-7.043c-2.47-2.457-4.934-4.855-7.325-7.183a205.177 205.177 0 0 0-1.617-1.582ZM216.43 136.57l-6.77 6.77L237 170.68a4.746 4.746 0 0 0 3.383 1.394 4.762 4.762 0 0 0 3.387-1.394 4.803 4.803 0 0 0 0-6.774ZM137.684 170.684l27.336-27.34-6.77-6.77-27.336 27.34a4.79 4.79 0 0 0 0 6.77 4.76 4.76 0 0 0 3.383 1.394 4.778 4.778 0 0 0 3.387-1.394ZM156.105 131.746Zm2.813 2.813 8.098 8.097.011.012.012.012 2.8 2.8c.509.5 1.177.778 1.891.778.715 0 1.383-.274 1.891-.778a2.688 2.688 0 0 0 .246-3.496c-.008-.011-.02-.023-.027-.035a3.4 3.4 0 0 0-.219-.254l-13.738-13.738a4.65 4.65 0 0 0-.258-.227c-.004-.003-.012-.007-.016-.011a2.68 2.68 0 0 0-3.504.238 2.676 2.676 0 0 0 0 3.781Zm0 0" fill-rule="evenodd"/><path fill="#f8fafb" d="m161.555 126.957 13.078 13.078 3.781-3.777-2.328-2.328c-.02-.016-.035-.035-.05-.051-.005-.004-.009-.008-.009-.012l-8.324-8.32-.008-.008-.007-.008-2.348-2.351Zm0 0" fill-rule="evenodd"/></svg>