<svg xmlns="http://www.w3.org/2000/svg" width="500" viewBox="0 0 375 225" height="300" version="1.0"><defs><clipPath id="e4158b23a4"><path d="M117.824 107h144.75v53.965h-144.75Zm0 0"/></clipPath><clipPath id="6ac4472a3b"><path d="M147 15.465h86V57h-86Zm0 0"/></clipPath></defs><path fill="#0097b2" d="M226.664 30.023a1.046 1.046 0 0 1-.957-1.473l3.176-7.1a1.052 1.052 0 0 1 1.383-.528c.527.234.765.855.527 1.379l-3.176 7.101a1.047 1.047 0 0 1-.953.621ZM241.422 48.547a1.046 1.046 0 0 1-.242-2.063l7.574-1.812a1.05 1.05 0 0 1 1.262.773 1.043 1.043 0 0 1-.774 1.262l-7.574 1.809a.887.887 0 0 1-.246.03ZM153.707 30.023c-.402 0-.785-.23-.957-.62l-3.18-7.098c-.234-.528 0-1.145.532-1.38.523-.238 1.144 0 1.378.528l3.18 7.098a1.047 1.047 0 0 1-.953 1.472ZM138.945 48.547a.905.905 0 0 1-.246-.031l-7.574-1.809a1.05 1.05 0 0 1-.773-1.262c.136-.558.699-.906 1.261-.773l7.575 1.812a1.046 1.046 0 0 1-.242 2.063Zm0 0"/><path fill="#fff" d="M129.727 130.816h30.609l21.246-15.757h-35.766c-.933 0-1.812.433-2.379 1.171a21.168 21.168 0 0 1-13.343 8.028l-1.348.222c-.754.125-1.2.915-.914 1.622ZM220.031 130.816h30.61l1.89-4.714a1.195 1.195 0 0 0-.914-1.622l-1.351-.222a21.198 21.198 0 0 1-13.344-8.028 2.984 2.984 0 0 0-2.375-1.171h-35.762ZM182.738 59.035h-30.953c-.808 0-1.57.375-2.058 1.016a18.302 18.302 0 0 1-11.551 6.941l-1.164.195a1.03 1.03 0 0 0-.79 1.403l1.633 4.082h26.493ZM243.36 67.191l-1.165-.195a18.355 18.355 0 0 1-11.55-6.941 2.585 2.585 0 0 0-2.055-1.016h-30.961l18.39 13.637h26.493l1.636-4.078a1.032 1.032 0 0 0-.789-1.407ZM176.2 140.438h-4.735c-.66 0-1.195-.536-1.195-1.196v-6.281c0-.66.535-1.195 1.195-1.195h4.734c.664 0 1.2.535 1.2 1.195v6.281c0 .656-.536 1.196-1.2 1.196ZM192.55 140.438h-4.734c-.66 0-1.195-.536-1.195-1.196v-6.281c0-.66.535-1.195 1.195-1.195h4.735c.664 0 1.199.535 1.199 1.195v6.281c0 .656-.535 1.196-1.2 1.196ZM227.379 148.383h-74.387a8.314 8.314 0 0 0-7.594 4.933h89.57a8.308 8.308 0 0 0-7.59-4.933ZM223.836 87.688H156.53a7.519 7.519 0 0 0-6.87 4.464h81.042a7.505 7.505 0 0 0-6.867-4.465ZM210.227 37.742H170.14a5.617 5.617 0 0 0-5.356 3.918h50.8a5.625 5.625 0 0 0-5.358-3.918ZM208.902 140.438h-4.734c-.66 0-1.195-.536-1.195-1.196v-6.281c0-.66.535-1.195 1.195-1.195h4.734c.66 0 1.196.535 1.196 1.195v6.281c0 .656-.536 1.196-1.196 1.196ZM184.379 81.063h-4.738c-.66 0-1.196-.536-1.196-1.196V73.59c0-.66.535-1.195 1.196-1.195h4.738c.66 0 1.195.535 1.195 1.195v6.277c0 .66-.535 1.195-1.195 1.195ZM200.73 81.063h-4.738c-.66 0-1.195-.536-1.195-1.196V73.59c0-.66.535-1.195 1.195-1.195h4.738c.66 0 1.196.535 1.196 1.195v6.277c0 .66-.535 1.195-1.196 1.195Zm0 0"/><g clip-path="url('#e4158b23a4')"><path fill="#0097b2" d="M262.043 153.258a2.235 2.235 0 0 0-1.856-.985h-9.476l-8.387-6.222v-14.188h8.317a1.046 1.046 0 1 0 0-2.09l-30.227.028-29.605-21.961a1.049 1.049 0 0 0-1.246 0l-29.606 21.96-30.352-.027a1.046 1.046 0 1 0 0 2.09h8.442v14.188l-8.387 6.222h-9.48a2.24 2.24 0 0 0-1.856.985 2.229 2.229 0 0 0-.222 2.086l1.687 4.215a2.231 2.231 0 0 0 2.082 1.406h136.625c.922 0 1.738-.55 2.078-1.406l1.692-4.215a2.218 2.218 0 0 0-.223-2.086ZM240.23 131.89V144.5l-16.996-12.61Zm-100.093 0h17l-17 12.609Zm50.047-21.91 57.015 42.292H133.168Zm70.14 44.59-1.687 4.21a.15.15 0 0 1-.137.09H121.875a.15.15 0 0 1-.14-.09l-1.688-4.21a.14.14 0 0 1 .016-.141.131.131 0 0 1 .12-.067h140.005c.054 0 .093.02.12.067.032.043.04.09.016.14Zm0 0"/></g><path fill="#0097b2" d="M129.125 97.605a2.066 2.066 0 0 0 1.93 1.305h13.02v12.235c0 .578.468 1.046 1.046 1.046.574 0 1.043-.468 1.043-1.046V98.91h88.04v12.235a1.047 1.047 0 0 0 2.093 0V98.91h13.016c.855 0 1.617-.515 1.933-1.305l1.461-3.648c.258-.64.18-1.363-.21-1.937a2.072 2.072 0 0 0-1.724-.915h-8.152l-10.578-7.847v-9.54h10.469a1.046 1.046 0 1 0 0-2.09h-26.149l-25.558-18.956a1.037 1.037 0 0 0-1.246 0l-25.555 18.957h-26.258a1.046 1.046 0 1 0 0 2.09h10.582v9.539l-10.578 7.847h-8.156a2.09 2.09 0 0 0-1.727.91 2.081 2.081 0 0 0-.207 1.942ZM229.949 73.72v7.988l-10.765-7.988Zm-79.527 0h10.766l-10.766 7.988Zm39.762-18.903 48.925 36.29h-97.851Zm60.578 38.364-1.457 3.64-118.239.004-1.472-3.629Zm0 0"/><g clip-path="url('#6ac4472a3b')"><path fill="#0097b2" d="M148.418 46.074a2.228 2.228 0 0 0 2.14 1.567h6.32v7.949a1.046 1.046 0 0 0 2.095 0v-7.95h62.43v7.95a1.045 1.045 0 0 0 2.09 0v-7.95h6.32c.984 0 1.847-.628 2.14-1.566l.805-2.55a2.224 2.224 0 0 0-.332-1.997 2.212 2.212 0 0 0-1.809-.914h-71.094l30.66-22.742 26.313 19.52c.461.343 1.121.246 1.465-.215a1.051 1.051 0 0 0-.215-1.465L190.81 15.73a1.049 1.049 0 0 0-1.246 0l-33.547 24.882h-6.258c-.723 0-1.383.336-1.809.914a2.207 2.207 0 0 0-.332 2Zm1.215-3.304a.145.145 0 0 1 .12-.063h80.86c.051 0 .09.023.117.063.032.039.04.085.024.132l-.8 2.551a.155.155 0 0 1-.145.106h-79.254a.155.155 0 0 1-.145-.106l-.8-2.55a.155.155 0 0 1 .023-.133Zm0 0"/></g><path d="M117.44 199.047c.848 0 1.21-.566 1.453-1.293.93-2.62-.039-6.902.809-9.12 1.047-.325 1.652.038 2.34.241 4.28 1.332 8.316 3.188 12.394 5.004 1.86.809 3.715 1.575 5.613 2.141 1.211.363 2.746.523 3.23-1.129.403-1.414-.73-2.101-1.777-2.707-.726-.523-15.707-5.652-16.027-6.824 2.582-1.453 5.168-2.824 7.668-4.317 2.867-1.738 7.832-5.21 6.742-6.945-1.047-1.574-4.843 1.008-7.347 2.18-3.914 1.734-7.711 3.914-12.473 5.449 0-4.035.16-6.457-.324-9.648-.082-.848-.446-1.735-1.414-1.735-1.13-.043-1.532.926-1.575 1.938a467.15 467.15 0 0 0-.32 7.75c0 1.453-.043 2.543-1.82 3.27-1.856.808-1.938 2.464-.2 3.433 1.372.808 1.333 1.695 1.333 2.867-.082 3.148-.121 6.016.28 8.074.165.684.606 1.332 1.415 1.371ZM146.301 198.524c2.301.726 3.996-4.887 5.168-8.074.403-1.051 1.051-1.453 2.18-1.254 2.422.445 4.926.406 7.387.285 2.062-.121 3.312.441 3.879 2.582.765 2.867 3.39 6.258 5.085 5.41 1.13-.523.81-2.3.485-3.187-2.3-7.352-9.73-22.368-10.094-22.852-1.695-1.937-2.945-1.777-4.117.645-2.906 5.773-5.328 11.789-8.602 17.402-1.25 2.098-1.937 4.52-2.257 6.984-.083.848-.122 1.774.886 2.059Zm7.832-13.649c1.293-2.785 2.344-5.125 3.715-8.152l3.594 8.152ZM174.597 199.45c2.828-.403 1.98-5.653 2.102-8.516.281-5.371.605-10.7.886-15.988 1.696-.242 12.395 14.25 18.29 21.398.726.887 1.453 1.856 2.382 2.582 2.907 2.262 3.957-1.008 4.078-4.52.16-4.726-1.011-24.265-1.011-24.304-.121-.848-.403-1.695-1.41-1.617-.809.082-1.172.808-1.211 1.535-.243 5.168-1.414 10.254-.649 15.46.363 2.185.242 4.321.164 6.583-1.172-.402-11.386-11.504-16.715-18.492a19.204 19.204 0 0 0-3.754-3.672c-1.414-1.09-2.3-.688-2.585 1.129-.082.484-.082.969-.082 1.414.042 5.57-.727 11.023-1.696 16.473-.441 2.421-.523 4.882-.605 7.347-.078 2.383.566 3.352 1.816 3.188ZM229.38 196.707c2.504-1.21 4.035-3.19 4.157-6.058.12-2.906-1.333-4.926-3.793-6.258-2.907-1.531-17.442-5.894-18.813-6.902-1.738-1.293-1.937-3.188-.605-4.926 3.27-4.238 11.464-4.035 14.613.324.93 1.332 2.02 3.43 3.07 3.028.848-.364.766-1.172.606-1.856-.649-3.191-2.305-5.695-5.41-6.906-4.606-1.778-9.286-1.535-13.688.726-5.047 2.586-6.582 10.094-.242 13.649 6.015 3.308 11.707 2.3 17.965 5.972 2.664 1.575 2.586 4.723-.082 6.22-3.348 2.097-13.563 1.777-19.86-3.473-.61-.485-1.172-.81-1.898-.524-.809.32-.89 1.047-.969 1.734-.285 2.422 1.09 4.403 3.836 5.168 6.7 1.735 15.137 3.028 21.113.082ZM236.481 198.524c2.3.726 3.996-4.887 5.168-8.074.402-1.051 1.05-1.453 2.18-1.254 2.422.445 4.925.406 7.386.285 2.063-.121 3.313.441 3.88 2.582.765 2.867 3.39 6.258 5.085 5.41 1.13-.523.809-2.3.485-3.187-2.301-7.352-9.73-22.368-10.094-22.852-1.695-1.937-2.945-1.777-4.117.645-2.907 5.773-5.328 11.789-8.602 17.402-1.25 2.098-1.937 4.52-2.258 6.984-.082.848-.12 1.774.887 2.059Zm7.832-13.649c1.293-2.785 2.344-5.125 3.715-8.152l3.594 8.152ZM264.941 197.473c2.34-.082 2.059-3.27 2.059-5.289v-8.156c.484-5.168.523-9.043.363-12.918-.04-.93 0-1.856-.567-2.703-.484-.809-1.492-.809-1.898.078-1.371 10.66-1.773 15.625-1.937 24.828l.043 1.738c.078 1.25.44 2.461 1.937 2.422Zm0 0" fill="#f8fafb"/></svg>