<svg xmlns="http://www.w3.org/2000/svg" width="500" viewBox="0 0 375 225" height="300" version="1.0"><defs><clipPath id="18a3d358db"><path d="M279 38h17.621v16.57H279Zm0 0"/></clipPath><clipPath id="1b63d9e84f"><path d="M279 38h17.621v15H279Zm0 0"/></clipPath><clipPath id="9897b60dde"><path d="M278.621 38h18v16.57h-18Zm0 0"/></clipPath><clipPath id="4c1e6edee1"><path d="M118.035 153h138.75v51.715h-138.75Zm0 0"/></clipPath><clipPath id="2392cdef18"><path d="M146 65.215h83V105h-83Zm0 0"/></clipPath></defs><path d="M113.791 84.136c.88-.442.961-1.215.836-2.098-.398-3.207-3.629-7.145-3.902-9.89.922-.88 1.738-.817 2.555-.966 5.136-.84 10.289-1.011 15.464-1.242 2.348-.129 4.676-.297 6.938-.695 1.445-.254 3.125-.883 2.766-2.852-.317-1.68-1.844-1.804-3.25-1.886-1.028-.168-19.239 2.296-20.18 1.246 1.926-2.848 3.894-5.617 5.715-8.47 2.074-3.288 5.426-9.476 3.39-10.71-1.906-1.09-4.504 3.566-6.492 6.082-3.164 3.836-5.969 8.07-10.117 12.14-2.098-4.19-3.187-6.788-5.348-9.847-.527-.84-1.363-1.57-2.37-1.066-1.196.543-1.11 1.757-.626 2.828a572.843 572.843 0 0 0 3.692 8.215c.754 1.507 1.28 2.66-.188 4.336-1.508 1.804-.73 3.562 1.574 3.667 1.844.125 2.266 1.067 2.871 2.282 1.555 3.312 3 6.308 4.493 8.234.523.629 1.32 1.067 2.18.692ZM140.747 70.457c2.793.184 3.149-6.613 3.586-10.53.164-1.298.781-1.93 2.11-2.017 2.855-.171 5.664-.91 8.406-1.73 2.289-.707 3.855-.418 5.086 1.84 1.656 3.015 5.554 6.113 7.23 4.687 1.13-.906.274-2.82-.336-3.73-4.633-7.645-17.168-22.512-17.71-22.957-2.45-1.715-3.817-1.188-4.462 1.867-1.68 7.313-2.742 14.766-4.87 21.996-.829 2.715-.93 5.637-.614 8.5.145.98.355 2.035 1.574 2.074Zm5.043-17.55c.684-3.496 1.219-6.43 1.926-10.223l6.312 8.195Zm0 0" fill="#0097b2"/><path d="M169.576 64.558c3.27-.535 2.16-6.609 2.234-9.937.2-6.238.45-12.43.652-18.574 1.961-.32 14.72 16.246 21.73 24.398.864 1.016 1.731 2.121 2.825 2.941 3.426 2.555 4.566-1.261 4.625-5.343.074-5.485-1.746-28.133-1.746-28.18-.16-.98-.508-1.957-1.68-1.84-.933.113-1.34.965-1.367 1.809-.16 6.004-1.398 11.933-.383 17.96.473 2.52.383 5.005.34 7.634-1.367-.442-13.484-13.086-19.832-21.063a22.06 22.06 0 0 0-4.445-4.176c-1.664-1.23-2.688-.742-2.973 1.371-.082.567-.07 1.13-.058 1.645.18 6.465-.583 12.805-1.579 19.152-.457 2.824-.492 5.684-.527 8.543-.039 2.766.734 3.875 2.184 3.66ZM229.543 66.863c3.14-.754 5.367-2.621 6.215-5.84.855-3.27-.297-5.914-2.762-8.035-2.914-2.457-18.324-10.992-19.629-12.477-1.652-1.894-1.41-4.097.528-5.734 4.758-4 14-1.75 16.496 3.973.722 1.742 1.441 4.39 2.73 4.195 1.055-.203 1.16-1.14 1.149-1.957.054-3.777-1.203-7.027-4.43-9.168-4.781-3.152-10.156-4.031-15.703-2.555-6.363 1.684-9.957 9.82-3.645 15.418 6.004 5.239 12.711 5.5 18.899 11.211 2.633 2.446 1.765 5.996-1.625 7.032-4.32 1.554-15.824-1.336-21.672-8.844-.566-.7-1.129-1.203-2.024-1.063-.996.168-1.265.973-1.527 1.73-.918 2.677.149 5.259 3.074 6.81 7.172 3.62 16.422 7.171 23.926 5.304ZM233.93 70.366c2.066 1.887 6.59-3.195 9.379-5.984.937-.91 1.812-1.02 2.906-.258 2.336 1.649 4.992 2.828 7.644 3.903 2.227.875 3.27 2.082 2.825 4.609-.59 3.394.52 8.246 2.718 8.18 1.45 0 1.973-2.032 2.067-3.125 1.16-8.86.656-28.301.511-28.989-.843-2.87-2.238-3.308-4.656-1.328-5.875 4.664-11.36 9.82-17.539 14.137-2.344 1.601-4.246 3.816-5.789 6.254-.5.851-.992 1.812-.066 2.601Zm14.902-10.554c2.719-2.305 4.965-4.262 7.887-6.782l-.192 10.344ZM262.324 83.376c2.351 1.363 4.043-1.945 5.289-3.93l5.027-8.019c3.668-4.781 6.098-8.566 8.328-12.477.536-.937 1.149-1.828 1.114-3.007.023-1.094-.969-1.72-1.914-1.094-7.926 9.633-11.387 14.265-17.223 23.219l-1.031 1.73c-.696 1.281-1.082 2.695.41 3.578Zm0 0" fill="#0097b2"/><g clip-path="url('#18a3d358db')"><path fill="#fff" d="M296.117 45.895a9.882 9.882 0 0 1-.078 1.222c-.039.27-.117.528-.191.79-.106.37-.23.738-.399 1.09-.101.214-.183.44-.289.651a8.66 8.66 0 0 1-1.21 1.817 5.13 5.13 0 0 1-1 .883c-.555.37-1.114.73-1.716 1.027-.34.164-.695.29-1.058.402-.426.133-.852.27-1.281.395a4.349 4.349 0 0 1-.782.129c-.277.031-.558.054-.836.078-.09.004-.183 0-.273 0l-.547-.024c-.195-.003-.379-.062-.57-.101-.48-.102-.946-.274-1.418-.41a6.363 6.363 0 0 1-1.153-.453 8.872 8.872 0 0 1-1.625-1.075c-.277-.226-.546-.46-.757-.746-.118-.16-.22-.328-.336-.484-.375-.48-.641-1.02-.868-1.578-.109-.27-.222-.54-.32-.813a5.437 5.437 0 0 1-.254-1.164c-.054-.5-.047-1-.02-1.504.02-.312.048-.625.11-.933.098-.477.262-.934.461-1.38a9.315 9.315 0 0 1 1.898-2.734c.192-.195.395-.375.582-.57.153-.156.29-.328.446-.484.437-.446.898-.864 1.43-1.2a4.94 4.94 0 0 1 1.19-.554c.31-.098.602-.07.888.09.129.07.27.125.406.183a.48.48 0 0 0 .277.016 5.54 5.54 0 0 1 .985-.043c.28.016.558.031.84.05.406.036.8.118 1.187.259.289.105.59.187.883.285.406.136.793.312 1.172.508.171.085.347.136.539.152.312.027.597.137.86.308.675.438 1.163 1.028 1.519 1.727.144.277.27.563.375.86.05.14.128.269.195.406.117.246.254.488.344.746.129.375.23.761.332 1.148.054.207.058.426.062.64.004.13 0 .259 0 .388Zm0 0"/></g><g clip-path="url('#1b63d9e84f')"><path fill="#e5503d" d="M288.156 38.535c-2.414-.347-5.488 1.02-7.914 4.113-1.433 1.836-1.617 5.598.145 6.442.93.418 1.738-1.7 3.48.293.77 1.433.703 2.66 2.637 2.699 1.285-.023 2.07-1.477 2.582-2.727.512-1.25.96-1.902 2.062-2.085 1.102-.188 1.258-.215 2.817 1.699 1.09.558 1.922-1.059 1.922-1.059s.734-2.676-.364-4.64c-1.613-2.63-3.117-4.122-7.367-4.735Zm0 0"/></g><path fill="#fcaf06" d="M285.016 39.027s-1.934 1.262-2.946 3.328c0 0-.695 1.415.285.727.606-1.016 1.836-2.867 3.29-3.242 1.449-.375 2.062.808 1.793 2.383-.266 1.574-1.102 4.593-.133 4.562.636 0 .945-2.164 1.195-3.152.254-.988.617-2.586 1.246-3.14.625-.56 1.504-.825 2.34.19.836 1.016.969 2.903 1.734 3.63.762.726.868.117.871-.516.004-.629-.652-2.586-1.714-3.543-1.067-.961.074-.531.78.11.708.64 1.513 1.644 1.915 4.066-.11.855-.633 1.492-1.371 1.543-.742.05-1.106-.848-1.45-1.746-.347-.899-.62-2.782-1.632-3.02-1.012-.234-1.594 1.535-1.848 3.29-.254 1.753-.66 3.233-1.453 3.69-.79.458-1.934 0-2.133-1.343-.2-1.344.406-3.348.649-4.442.242-1.097-.372-2.23-1.27-1.449-.894.781-1.71 2.246-2.469 3.906-.757 1.657-1.89 2.098-2.132.23-.188-1.816 1.3-4.265 1.843-4.874.543-.613 2.524-2.895 4.211-1.68a86.56 86.56 0 0 0-1.601.492Zm0 0"/><path fill="#5ce1e6" d="M281.84 46.398s-.18.454-.09.508c.09.051 1.156.215 1.223.121.062-.093.254-.566.144-.664-.11-.097-.992-.222-.992-.222s-.133-.075-.285.257ZM286.324 48.156c-.035.008-1.238.114-1.238.114s-.09 1.011.305 1.07c.39.062 1.129.039 1.171-.059.04-.097-.238-1.125-.238-1.125ZM287.293 45.973c-.043.12.105.797.105.797v.039c.407-.16.497-.922.497-.922s-.563-.035-.602.086ZM285.219 44.992s-.621.051-.672-.02c-.05-.07-.102-1.175-.063-1.218.04-.043.704.008.735.125.031.117 0 1.113 0 1.113ZM286.316 42.91s-.93-.437-.968-.687c.058-.274.367-.489.367-.489l.738.254s.043.617-.137.922ZM284.926 40.11c0 .007-.32-.297-.281-.446.043-.152.605-.281.68-.277.07.004.464.468.464.468ZM288.82 38.598s-.601.894-.57 1.125c.031.23.438.226.582.187.145-.039.582-.652.586-1.097a4.247 4.247 0 0 0-.598-.215ZM288.95 41.93s-.735-.16-.79-.133c-.055.027-.305.652-.187.726.113.079.68.192.68.192ZM290.656 43.293s.078 1.27.309 1.285c.226.016.68-.07.691-.332.008-.262-.285-1.008-.449-1.031-.16-.024-.55.078-.55.078ZM289.516 46.258s.261.66.43.648c.167-.011.964-.418.972-.543.008-.125-.29-.36-.418-.37-.129-.013-.984.265-.984.265ZM293.16 44.973s-.973.738-1.05.855c-.083.113.417.57.523.535.105-.035 1.074-.672 1.074-.672ZM293.973 41.531l-.68.453.34.828.773-.324s-.105-.601-.433-.957Zm0 0"/><path fill="#fcaf06" d="M279.582 49.383s.488.699 1.457.418c1.621-.473 1.879-.637 2.89 1.539.946 2.031 3.352 2.367 4.739.66 1.559-1.918 1.21-3.895 2.988-3.887 1.09-.035 1.684 2.395 3.39 1.688l.532-1.426s-.59 1.2-1.437.492c-.852-.703-1.938-2.66-3.485-1.597-1.547 1.062-1.496 3.144-3.035 4.394-1.539 1.25-3.066-.527-3.5-1.754-.43-1.222-1.496-1.691-2.937-.808-1.098.523-1.942-1.446-1.942-1.446Zm0 0"/><path fill="#fff" d="M279.227 46.43s.46-2.403 1.921-3.899c.489-1.277.426-1.351.426-1.351s-2.332 2.05-2.347 5.25ZM283.86 39.973s1.988-1.133 4.66-.942c2.668.188 4.878 1.883 5.789 3.293-.278-.683-.829-1.828-1.618-2.215 0 0-1.824-1.351-4.187-1.52-2.36-.167-3.629.462-3.629.462ZM295.484 45.09c.239.672.188 1.867.07 2.851 0 0 .837-2.004.106-3.574-.133.625-.176.723-.176.723Zm0 0"/><g clip-path="url('#9897b60dde')"><path fill="#e5503d" d="M287.152 54.57h-.05a37.54 37.54 0 0 1-.676-.027l-.051-.004a.828.828 0 0 1-.172-.016 11.844 11.844 0 0 1-1.406-.37c-.149-.051-.3-.102-.457-.145-.563-.153-1.13-.41-1.777-.82a9.46 9.46 0 0 1-1.184-.887 3.804 3.804 0 0 1-.73-.817c-.016-.02-.028-.043-.044-.062a2.086 2.086 0 0 0-.156-.223c-.402-.52-.66-1.09-.86-1.582-.034-.09-.073-.176-.109-.258a5.772 5.772 0 0 1-.48-1.922c-.047-.597-.016-1.18.02-1.667.046-.598.195-1.2.464-1.84a8.819 8.819 0 0 1 1.145-1.965 8.306 8.306 0 0 1 1.137-1.246c.148-.13.273-.274.379-.395.156-.183.332-.37.52-.55a9.036 9.036 0 0 1 1.194-1.008c.274-.188.586-.352.98-.516.157-.066.321-.129.497-.16.094-.016.18-.024.262-.024.195 0 .37.043.535.133.133.074.277.137.418.196l.02.007c.038.016.077.024.12.024.012 0 .028 0 .04-.004.23-.035.48-.055.765-.055.266 0 .531.016.793.031l.086.004c.598.032 1.04.114 1.438.262.246.09.496.168.777.25.48.145.926.352 1.45.613.108.055.21.082.32.09.374.028.687.133.96.313.157.11.34.234.504.379.39.347.703.73.95 1.164.23.41.394.765.507 1.109a.97.97 0 0 0 .078.172l.012.027c.04.07.074.149.113.219.067.129.133.262.2.395.058.12.12.265.168.414.113.355.203.652.273.925.078.297.094.606.094.868.004.09.004.18 0 .265v.121c-.004.399-.02.864-.094 1.32a2.24 2.24 0 0 1-.04.23c-.136.497-.273 1.009-.491 1.485l-.024.047a.521.521 0 0 0-.043.094c-.16.45-.406.871-.62 1.246a7.976 7.976 0 0 1-.466.7c-.222.3-.484.597-.8.91-.121.12-.27.242-.45.37-.625.438-1.199.794-1.765 1.09-.29.153-.606.282-1.031.422-.446.145-.891.282-1.32.414-.313.098-.641.141-.946.172-.234.028-.469.047-.746.07-.09.008-.16.012-.23.012Zm-7.562-5.855a.63.63 0 0 0 .012.055.394.394 0 0 0 .015.078c.117.343.27.746.469 1.132.262.5.582.973.957 1.418.445.52.914.946 1.437 1.301a8.566 8.566 0 0 0 2.293 1.11c.782.238 1.61.359 2.461.359.504 0 1.024-.043 1.551-.125.57-.09 1.156-.254 1.844-.516.46-.175.883-.43 1.293-.672.133-.078.27-.16.406-.238a8.358 8.358 0 0 0 2.567-2.773c.027-.043.046-.09.07-.133.012-.02.02-.04.027-.059l.067-.125c.035-.074.07-.148.109-.222.008-.012.012-.024.02-.04a.764.764 0 0 0 .101-.277l.008-.043-.04.02c-.038.023-.073.043-.105.058-.062.036-.117.067-.175.094a.967.967 0 0 1-.454.117c-.171 0-.351-.047-.53-.144-.067-.035-.126-.078-.184-.121a.217.217 0 0 1-.032-.024c-.293-.21-.53-.488-.757-.754l-.008-.007a9.84 9.84 0 0 0-.532-.575 1.05 1.05 0 0 0-.535-.304 1.627 1.627 0 0 0-.332-.035c-.336 0-.664.113-.972.335a2.807 2.807 0 0 0-.614.622c-.328.433-.566.82-.75 1.214-.015.036-.035.07-.054.106a.894.894 0 0 1-.036.062c-.027.051-.05.102-.078.149-.062.12-.129.246-.191.37-.18.36-.36.684-.559.997-.336.531-.875.781-1.308.941-.016.008-.04.012-.059.016a3.16 3.16 0 0 1-1.09.043 1.348 1.348 0 0 1-.523-.184c-.426-.27-.7-.53-.879-.843-.117-.2-.223-.395-.32-.586a6.869 6.869 0 0 1-.196-.426 5.388 5.388 0 0 0-.293-.606 1.61 1.61 0 0 0-.503-.542 1.003 1.003 0 0 0-.57-.188c-.134 0-.274.031-.411.09-.25.11-.441.195-.621.277-.25.113-.492.172-.742.172-.078 0-.153-.008-.23-.016a1.1 1.1 0 0 1-.587-.242c-.05-.043-.101-.09-.148-.133a3.344 3.344 0 0 0-.129-.113.406.406 0 0 0-.074-.055c-.016-.011-.031-.023-.051-.035l-.043-.035Zm2.746-.297h.047a1.997 1.997 0 0 1 1.785 1.227c.09.214.191.425.293.632.031.07.066.137.098.207.132.286.32.563.609.899.25.297.574.46.965.488.043.004.086.004.129.004.265 0 .527-.055.785-.168.414-.176.742-.406.996-.7a3.9 3.9 0 0 0 .625-1.01c.031-.075.062-.153.094-.227.035-.09.07-.18.113-.27.031-.07.066-.137.098-.2.047-.085.093-.175.129-.265.09-.215.207-.414.32-.613.058-.102.121-.207.176-.317.02-.035.043-.062.066-.097.012-.012.024-.028.035-.04.262-.363.613-.632.918-.843.11-.074.223-.125.352-.156.168-.04.293-.055.414-.055.074 0 .14.008.21.02.052.011.102.02.15.027.144.027.288.055.429.094.234.074.457.203.683.402.028.02.051.043.075.066.027.028.054.055.086.082.183.153.343.32.492.512.094.121.199.238.305.352l.093.105c.18.203.43.254.621.274h.028c.035 0 .07-.004.113-.02.203-.058.348-.152.441-.289l.024-.035c.066-.094.133-.191.183-.297.125-.258.223-.492.309-.71.121-.317.2-.634.234-.942.055-.496.028-1.012-.086-1.63-.003-.01-.015-.019-.027-.03-.004-.004-.012-.008-.02-.016l-.027-.024-.008.036c-.05.175-.152.336-.324.52-.008.007-.012.015-.02.026-.003 0-.003.004-.007.008-.195.258-.465.457-.82.61a.69.69 0 0 1-.278.062.552.552 0 0 1-.328-.11c-.016-.01-.027-.023-.043-.03a.836.836 0 0 0-.223-.137l-.011-.004-.012.008c-.043.031-.09.062-.133.097l-.285.204c-.11.07-.227.14-.375.222a2.102 2.102 0 0 1-.215.094l-.023.008a.202.202 0 0 1-.043.008.108.108 0 0 1-.086-.047c-.102-.125-.203-.254-.3-.371l-.04-.047c-.023-.028-.05-.055-.07-.086-.051-.074-.047-.137.02-.203.015-.012.03-.028.046-.04h.004c.074-.062.148-.12.223-.18.175-.136.355-.276.53-.417l.04-.027c.047-.032.098-.067.117-.137l.004-.008-.004-.008c-.012-.023-.02-.05-.031-.078a1.648 1.648 0 0 0-.07-.176c-.157-.394-.317-.816-.41-1.261a5.696 5.696 0 0 0-.473-1.317 2.944 2.944 0 0 0-.242-.386.933.933 0 0 0-.461-.344.738.738 0 0 0-.254-.043.646.646 0 0 0-.39.133 1.91 1.91 0 0 0-.657.882c-.078.227-.152.457-.219.684l-.012.035c-.156.504-.261 1.031-.363 1.54-.027.12-.05.241-.074.362l-.082.41a9.625 9.625 0 0 1-.23 1.036c-.09.297-.196.644-.34.972a2.134 2.134 0 0 1-.707.872c-.211.152-.442.23-.688.23h-.02c-.152 0-.304-.023-.453-.047a2.523 2.523 0 0 1-.222-.047c-.035-.008-.075-.02-.114-.027l-.03-.008.003.031c.004.02.008.036.008.051a.56.56 0 0 0 .016.086l.058.168c.016.04.027.078.043.117.055.168.07.348.05.567-.007.078-.034.105-.12.125-.012 0-.028.004-.043.004-.004 0-.012 0-.02.003a3.058 3.058 0 0 1-.34.016c-.21 0-.43-.02-.64-.039l-.07-.004c-.028-.004-.051-.012-.079-.016-.007-.003-.02-.003-.027-.007a.3.3 0 0 1-.215-.172 1.102 1.102 0 0 1-.074-.196c-.066-.257-.043-.515-.016-.761.008-.074.043-.106.125-.11.04-.004.086-.007.133-.007.031 0 .059.004.082.004.043.003.09.007.133.007.164 0 .328-.027.484-.05l.09-.012c.028-.004.051-.02.07-.028.008-.007.02-.011.028-.015l.02-.008-.008-.02c-.004-.007-.008-.015-.008-.023-.004-.012-.008-.023-.016-.035-.16-.203-.25-.45-.336-.684l-.023-.062a1.412 1.412 0 0 1-.07-.309c-.02-.187-.036-.375-.047-.558-.008-.086-.016-.168-.02-.25l-.012-.082a3.111 3.111 0 0 1 0-.473c.004-.059.012-.121.024-.18a10.189 10.189 0 0 0 .063-.414c.042-.262.081-.535.128-.8a7.627 7.627 0 0 1 .274-1.087c.02-.05.043-.113.004-.187l-.004-.004-.008-.004a.765.765 0 0 0-.055-.023l-.133-.059c-.297-.137-.511-.281-.68-.457-.077-.086-.077-.121-.003-.219l.117-.152c.062-.078.125-.16.187-.242.059-.074.075-.098.114-.098.02 0 .05.008.097.024.07.02.137.046.207.074.051.02.106.043.164.058.012.008.024.012.04.02a.238.238 0 0 0 .105.031.138.138 0 0 0 .066-.015l.016-.004-.004-.016-.012-.082a2.308 2.308 0 0 1-.02-.172c-.03-.285-.202-.492-.35-.64a.275.275 0 0 0-.204-.086 1.228 1.228 0 0 0-.531.195c-.418.281-.75.64-.984 1.066-.032.055-.06.11-.086.16-.055.098-.106.2-.164.293-.11.188-.192.383-.27.567-.102.25-.215.5-.32.742l-.055.125c-.055.125-.113.25-.168.371a30.92 30.92 0 0 0-.277.633c-.106.246-.25.562-.457.848-.008.011-.012.02-.02.027-.047.062-.094.125-.105.21l-.004.02.02.004c.019.008.038.012.054.02.043.012.078.023.117.031l.277.059c.067.015.133.027.196.043.176.039.226.105.195.261-.027.16-.066.313-.113.457-.05.153-.086.18-.223.18-.012 0-.027 0-.047-.004a.817.817 0 0 1-.148-.012c-.242-.035-.488-.074-.723-.109l-.066-.008c-.028-.004-.055-.008-.078-.02-.102-.03-.14-.085-.133-.183.004-.031.012-.062.015-.094a.635.635 0 0 0 .016-.074c0-.008.004-.02.008-.027.012-.031.023-.07-.012-.117l-.015-.008h-.024a.23.23 0 0 0-.055-.008h-.015a.96.96 0 0 1-.531-.172c-.34-.219-.547-.547-.63-1a3.026 3.026 0 0 1-.015-.996c.004-.047.012-.098.02-.145.015-.085.027-.171.035-.261.031-.309.11-.63.242-.969l.187-.457c.043-.098.086-.2.125-.297.02-.05.036-.101.051-.152.008-.016.012-.031.02-.051l.004-.004c.004-.008.011-.016.015-.023.012-.016-.004-.028-.011-.035l-.004-.004-.032-.032-.007.07c-.059 0-.082.048-.106.083-.004.008-.008.02-.015.027-.473.64-.833 1.234-1.098 1.809-.043.101-.078.183-.098.265-.035.121-.066.25-.097.371-.036.137-.07.278-.11.418-.062.23-.098.489-.113.809-.024.574.031 1.137.086 1.61.047.37.172.726.375 1.054.187.297.472.45.844.453h.02c.241 0 .476-.055.694-.16.153-.074.305-.14.457-.203a1.2 1.2 0 0 1 .438-.09Zm3.965-.148a2.668 2.668 0 0 1-.176.015c-.125.012-.246.024-.363.028a6.65 6.65 0 0 0-.555.05h-.016l-.003.016c-.04.152-.024.3-.008.445.007.063.015.125.02.184v.012c0 .062.003.128.062.18l.004.003h.004c.261.05.52.078.746.078.183 0 .343-.015.472-.05l.016-.004v-.016c0-.176-.043-.34-.09-.516-.035-.129-.074-.265-.09-.406v-.02Zm-.563-7.637c.172 0 .414.074.535.293.125.226.204.422.243.613.062.273.066.566.015.867-.05.309-.12.645-.219 1.047a13.805 13.805 0 0 0-.382 2.59c-.024.395.035.812.172 1.277.132.438.433.754.894.942.047.02.121.043.192.043.011 0 .023-.004.03-.004.329-.04.571-.13.762-.285a2.12 2.12 0 0 0 .606-.817c.14-.316.215-.652.289-.976.02-.086.04-.176.063-.266.042-.184.07-.371.097-.55.016-.126.035-.255.059-.38.074-.379.152-.765.23-1.136l.07-.36c.012-.05.028-.105.047-.164a36.145 36.145 0 0 1 .328-.996c.114-.332.231-.566.376-.77.238-.324.515-.484.847-.484.074 0 .149.008.227.024.117.023.23.07.344.117.015.004.03.012.046.015.13.055.235.141.309.274.203.332.336.621.426.91.125.422.23.742.332 1.043.074.215.156.43.234.64l.152.41c.122.34.266.606.45.837.16.199.328.324.527.394a.586.586 0 0 0 .191.035.475.475 0 0 0 .168-.03l.02-.013c.148-.058.3-.125.437-.21.192-.122.344-.29.457-.5.133-.25.137-.516.125-.72-.039-.698-.148-1.261-.343-1.769a5.71 5.71 0 0 0-.418-.879 14.132 14.132 0 0 0-.371-.566l-.008-.012c-.27-.398-.617-.719-.895-.949a.988.988 0 0 0-.53-.246l-.052-.004.028.039.015.02a.25.25 0 0 0 .04.05c.398.426.769.934 1.14 1.543.336.559.55 1.082.652 1.598.075.375.094.723.063 1.062a.897.897 0 0 1-.13.372.42.42 0 0 1-.358.199.421.421 0 0 1-.243-.074 1.036 1.036 0 0 1-.246-.23c-.238-.352-.445-.669-.586-1.024-.203-.5-.39-1.04-.617-1.743-.125-.39-.262-.671-.45-.91a1.74 1.74 0 0 0-.784-.59 1.489 1.489 0 0 0-.489-.09c-.19 0-.378.051-.55.145-.051.028-.11.055-.164.082l-.032.012c-.16.078-.293.184-.398.316a3.201 3.201 0 0 0-.41.664l-.016.036c-.058.136-.12.277-.18.421-.168.422-.355.922-.46 1.454-.016.074-.028.144-.043.214-.024.141-.047.282-.086.418-.09.348-.16.703-.227 1.051-.02.102-.043.207-.062.313-.07.351-.168.765-.356 1.164-.078.16-.164.28-.273.375a.519.519 0 0 1-.305.133h-.04a.262.262 0 0 1-.202-.083c-.133-.14-.258-.304-.281-.527a5.377 5.377 0 0 1-.02-.789 14.52 14.52 0 0 1 .195-1.637c.035-.23.082-.46.13-.683l.081-.414c.11-.586.176-1.063.211-1.508.031-.379-.047-.692-.238-.953a.987.987 0 0 0-.602-.39 2.363 2.363 0 0 0-.289-.044c-.066-.004-.129-.008-.191-.008-.129 0-.25.012-.363.04a2.498 2.498 0 0 0-.79.331 5.13 5.13 0 0 0-.855.684c-.496.492-.844.938-1.094 1.398a4.205 4.205 0 0 1-.14.243c-.04.054-.078.113-.114.168-.05.074-.101.152-.148.226-.113.184-.3.278-.48.371l-.004.004a.205.205 0 0 1-.09.024c-.063 0-.125-.036-.172-.102a.332.332 0 0 1-.05-.289c.015-.043.026-.09.038-.133.05-.183.102-.375.2-.55l.054-.094c.16-.282.328-.575.512-.848.199-.3.398-.59.637-.844l.07-.082c.02-.02.035-.043.055-.066.046-.047.09-.098.132-.149.102-.117.207-.238.32-.347.41-.395.872-.754 1.368-1.07.129-.083.242-.137.347-.169.149-.046.301-.082.45-.117.07-.015.14-.031.21-.05.016 0 .028-.008.044-.02.007-.004.02-.008.027-.016l.031-.015-.027-.02c-.008-.008-.02-.015-.027-.023a.149.149 0 0 0-.051-.035 1.434 1.434 0 0 0-.746-.102 2.02 2.02 0 0 0-.715.227c-.367.203-.75.433-1.086.742l-.262.25a9.557 9.557 0 0 1-.289.273c-.351.328-.621.703-.836 1.028-.14.207-.265.386-.387.546a4.414 4.414 0 0 0-.375.582c-.343.672-.57 1.309-.687 1.946a3.82 3.82 0 0 0-.02 1.332c.059.355.239.656.551.918a.367.367 0 0 0 .242.105.44.44 0 0 0 .223-.074.441.441 0 0 0 .121-.102l.02-.023c.062-.066.125-.137.171-.215.165-.273.336-.566.481-.87l.117-.263c.3-.644.61-1.312.942-1.957.21-.41.445-.843.773-1.21.121-.133.277-.305.457-.458.227-.191.484-.316.79-.382a.596.596 0 0 1 .116-.012Zm-3.52 5.59c-.394.191-.429.422-.413.597l.004.016.011.004c.38.113.73.172 1.086.18h.02l.004-.016c.007-.047.015-.09.023-.133.02-.117.04-.23.055-.344a.156.156 0 0 0-.008-.074c0-.012-.004-.02-.004-.031v-.016l-.77-.183Zm3.84-6.528h.172c.336.016.641.13.903.328.09.067.176.145.215.274.015.05.043.098.07.144l.027.051a.936.936 0 0 1 .121.399c.008.14.02.285.008.425-.015.22-.039.45-.074.723l-.063.422c-.019.098-.035.2-.05.3-.02.137-.035.274-.055.41-.031.247-.066.505-.113.759-.02.12-.043.246-.067.363-.066.36-.132.727-.175 1.098a3.66 3.66 0 0 0 .007.902.71.71 0 0 0 .2.39c.011.016.035.02.058.028l.04.012.034.011-.003-.035c-.004-.023-.004-.043-.008-.062l-.012-.102c-.008-.058-.02-.117-.027-.176a8.448 8.448 0 0 1-.051-.332.172.172 0 0 1 .008-.074c0-.008.004-.02.004-.027a2.55 2.55 0 0 1 .625-.117h.015l.004-.016c.016-.059.027-.113.043-.172.035-.121.066-.246.098-.371l.082-.363c.047-.203.094-.414.148-.617.125-.458.211-.836.278-1.196l.011-.047c.012-.062.028-.125.008-.203l-.004-.008-.012-.004-.03-.011c-.02-.004-.044-.012-.067-.02a6.449 6.449 0 0 1-.414-.14c-.114-.047-.18-.164-.149-.27a6.41 6.41 0 0 1 .176-.527c.031-.078.066-.102.137-.102h.05c.044.008.087.016.126.028l.066.011.027.008c.11.023.22.047.332.047.028 0 .055-.004.082-.008h.016l.004-.012.012-.027c.007-.02.02-.035.023-.055.098-.328.258-.62.418-.89.137-.239.344-.438.629-.606.02-.011.043-.02.062-.031.032-.016.063-.031.094-.05.215-.153.477-.223.813-.223h.027c.156 0 .3.03.441.086.254.101.473.253.66.472.356.406.618.883.801 1.457.047.149.094.305.137.453.09.297.18.602.293.899.172.441.363.777.598 1.05l.011.016a.66.66 0 0 0 .223.192.26.26 0 0 0 .36-.121c.023-.047.039-.098.054-.145.067-.238.05-.473.031-.734-.023-.243-.082-.48-.136-.711l-.035-.153c-.004-.02-.016-.039-.028-.058-.008-.008-.012-.02-.02-.032l-.007-.015-.02.008a1.714 1.714 0 0 1-.074.023c-.125.043-.246.082-.36.149-.054.03-.113.066-.171.093a.242.242 0 0 1-.07.02c-.028 0-.051-.016-.09-.063-.164-.175-.258-.394-.348-.605l-.082-.18c-.043-.097-.023-.148.078-.207.067-.039.14-.078.211-.11.04-.019.078-.038.117-.062.02-.008.04-.02.059-.027.078-.04.16-.078.226-.149l.012-.011-.008-.012c-.007-.02-.02-.035-.027-.055a.883.883 0 0 0-.063-.101c-.242-.317-.445-.57-.628-.801a.849.849 0 0 0-.141-.125l-.012-.008a5.54 5.54 0 0 0-1.047-.64 17.982 17.982 0 0 0-1.449-.59c-.25-.094-.504-.192-.77-.242-.03-.004-.058-.004-.09-.008-.011 0-.023 0-.038-.004h-.016l-.004.015-.012.032a2.543 2.543 0 0 1-.508.984c-.058.074-.12.106-.19.106a.24.24 0 0 1-.071-.012c-.07-.016-.14-.028-.207-.04-.031-.007-.067-.011-.098-.019l-.066-.011a1.285 1.285 0 0 1-.168-.036c-.055-.011-.078-.054-.067-.105.012-.043.032-.086.047-.129l.008-.008c.121-.285.25-.535.395-.762l.015-.02c.024-.034.055-.077.024-.136l-.008-.008c-.004 0-.004-.004-.008-.004a.03.03 0 0 0-.02-.007l-.015-.004a.433.433 0 0 0-.074-.008c-.172-.008-.344-.016-.512-.016-1.016 0-2 .157-2.926.465-.176.059-.355.133-.5.278-.035.039-.082.074-.125.109a4.956 4.956 0 0 0-.762.727c-.078.093-.164.187-.242.277a7.59 7.59 0 0 0-.172.191l-.086.098c-.09.097-.175.2-.25.305-.05.078-.101.152-.152.226-.187.285-.387.582-.555.887a4.53 4.53 0 0 0-.289.719c-.02.058-.043.132.02.214l.012.016.015-.012c.016-.004.028-.011.043-.02.028-.015.059-.03.086-.054.137-.117.235-.266.313-.394.074-.125.144-.239.218-.348.141-.211.27-.395.391-.57.066-.09.137-.18.207-.266l.004-.004a11.173 11.173 0 0 1 .535-.598c.274-.28.59-.55.942-.796a.077.077 0 0 0 .035-.036c.008-.004.011-.011.015-.015l.012-.012-.008-.012c-.015-.035-.035-.066-.05-.101a3.96 3.96 0 0 1-.114-.223c-.043-.101-.027-.148.078-.203.176-.094.364-.156.59-.219.012-.004.027-.004.04-.004.038 0 .07.016.113.059.074.07.144.14.222.215l.098.097.004.004H286.058Zm1.567 6.278c-.066 0-.117.015-.254.062l-.016.004v.05c.008.169.016.329.102.493l.016.027.02-.023c.015-.012.027-.027.038-.04a.308.308 0 0 0 .067-.077 1.9 1.9 0 0 0 .187-.453l.004-.024-.023-.004c-.063-.008-.106-.015-.141-.015Zm5.32-.743c-.093.094-.187.188-.28.278-.063.066-.142.117-.224.168-.086.054-.171.11-.246.183l-.011.016.007.012c.137.191.27.332.48.406l.013.004.007-.008c.063-.035.122-.074.184-.11.168-.1.336-.206.504-.312.05-.031.117-.074.137-.156l.004-.012-.008-.008a1.141 1.141 0 0 0-.063-.082c-.047-.062-.097-.125-.144-.191-.028-.035-.047-.074-.07-.117-.036-.067-.07-.137-.133-.196l-.016-.015Zm-7.234-3.394a.468.468 0 0 1-.043.047 1.61 1.61 0 0 0-.219.27c-.015.023-.031.046-.05.07l-.008.015.011.012c.176.172.504.414.649.488a.505.505 0 0 0 .101.032l.043.011.02.008.008-.02c.058-.152.136-.53.14-.68v-.01l-.008-.005a1.634 1.634 0 0 0-.625-.242l-.011-.004Zm8.191-.184c-.078.051-.152.098-.226.141a5.12 5.12 0 0 0-.324.203l-.012.012.004.012c.117.347.215.546.332.675l.012.012.613-.258-.008-.015c-.07-.282-.211-.516-.36-.77l-.011-.023Zm-5.734.23c-.012.028-.023.052-.031.079-.067.156-.13.3-.117.484v.008l.011.008c.207.133.371.187.57.187h.016l.004-.011c.07-.176.152-.39.207-.645l.004-.023h-.027c-.106-.008-.211-.032-.313-.051-.097-.02-.199-.04-.3-.05h-.016Zm-2.852-2.44c-.195.05-.386.105-.574.214l-.015.008.007.016c.067.191.07.195.188.312l.012.008.015-.004c.043-.02.086-.035.133-.055.133-.054.27-.109.406-.168a715.193 715.193 0 0 1 .094-.063l.02-.015-.274-.258Zm3.43-.524c-.058.11-.113.21-.168.312-.02.04-.047.083-.07.122-.063.105-.125.21-.153.336l-.003.015.015.008a.957.957 0 0 0 .469.129h.062l.008-.012c.219-.281.383-.664.387-.914v-.016l-.012-.003a1.809 1.809 0 0 0-.437-.13h-.016Zm0 0"/></g><path fill="#e5503d" d="M290.91 44.676c-.043 0-.078-.024-.101-.067a.38.38 0 0 1-.032-.074l-.035-.148a35.355 35.355 0 0 1-.168-.688.897.897 0 0 1-.02-.156c0-.031-.003-.059-.003-.094 0-.008 0-.02.004-.031.004-.031.007-.074.02-.11.023-.085.073-.128.167-.136.13-.016.235-.035.328-.067a.31.31 0 0 1 .114-.023c.12 0 .218.082.285.238.011.028.02.059.027.094.008.023.012.047.02.066l.171.512a.6.6 0 0 0 .032.074c.011.036.027.07.035.106a.276.276 0 0 1-.188.348c-.175.05-.355.097-.53.144a.568.568 0 0 1-.118.012Zm.246-1.461c-.011 0-.027 0-.039.004-.09.02-.18.043-.27.062a.978.978 0 0 1-.1.028l-.013.004-.004.011c-.003.012-.007.02-.007.028-.004.011-.008.023-.008.039l.02.144c.035.238.066.48.105.723.012.082.031.164.11.23l.007.008.61-.191.003-.012a.377.377 0 0 0-.015-.242c-.067-.192-.133-.387-.2-.574l-.043-.114a.302.302 0 0 0-.027-.062c-.031-.059-.074-.086-.129-.086ZM284.945 45.059a1.67 1.67 0 0 1-.293-.02c-.125-.023-.156-.055-.18-.176a1.045 1.045 0 0 1-.019-.168l-.008-.105a35.735 35.735 0 0 1-.039-.664c-.008-.149-.004-.149.059-.254l.133.012c.105.011.207.023.304.035.082.008.168.023.246.035l.059.012c.07.007.106.05.11.129 0 .05.003.12 0 .19-.016.278-.008.524.023.75v.005c.008.07.02.14-.027.195a2.34 2.34 0 0 1-.368.024Zm-.382-1.239c-.004.02-.008.035-.008.051a.12.12 0 0 0-.008.063c.008.257.023.53.035.812a.19.19 0 0 0 .023.09c.008.016.036.062.075.07.09.016.183.028.28.028a.919.919 0 0 0 .212-.024l.02-.004-.024-1.008-.016-.003a3.473 3.473 0 0 0-.351-.06c-.07-.01-.14-.019-.215-.034l-.02-.004ZM289.898 47.027c-.039 0-.066-.027-.12-.113-.051-.082-.094-.168-.141-.25l-.016-.031a3.512 3.512 0 0 1-.09-.168c-.02-.04-.039-.078-.062-.117-.031-.059-.04-.09-.031-.11.007-.02.039-.035.109-.058.058-.016.121-.035.187-.055l.246-.063c.165-.042.332-.09.497-.136.023-.004.046-.008.066-.008.05 0 .09.02.129.059.043.043.082.086.125.125.055.054.11.113.164.171.016.016.027.043.039.067.008.012.012.02.016.031a.072.072 0 0 0-.008.027c-.012.024-.016.043-.031.059a.382.382 0 0 1-.11.09c-.277.144-.562.297-.851.441a.303.303 0 0 1-.118.04Zm.63-.98c-.048.016-.094.027-.141.043-.106.031-.203.062-.305.09-.102.027-.2.05-.305.074l-.148.035-.024.008.012.023a.78.78 0 0 0 .04.082c.027.063.054.125.085.188.008.012.016.027.024.043a.453.453 0 0 0 .152.203l.008.008.062-.024c.293-.117.567-.226.817-.422l.011-.011-.011-.024c-.07-.12-.14-.234-.262-.312l-.008-.008ZM222.36 79.168c-.137 0-.274-.027-.41-.086a1.008 1.008 0 0 1-.509-1.324l3.047-6.805c.227-.504.82-.73 1.325-.508a1 1 0 0 1 .507 1.32l-3.047 6.81a.997.997 0 0 1-.914.593ZM236.508 96.93a1 1 0 0 1-.23-1.977l7.257-1.738a1 1 0 0 1 1.207.742 1.002 1.002 0 0 1-.742 1.211l-7.258 1.734a.96.96 0 0 1-.234.028ZM152.434 79.168a.999.999 0 0 1-.918-.59l-3.047-6.808a.996.996 0 0 1 .508-1.32c.503-.227 1.097 0 1.324.503l3.047 6.809a.997.997 0 0 1-.914 1.406ZM138.285 96.93a.96.96 0 0 1-.234-.028l-7.262-1.734a1.005 1.005 0 0 1 .469-1.953l7.258 1.738a1 1 0 0 1-.23 1.977Zm0 0"/><path fill="#ff4c4e" d="M129.45 175.809h29.34l20.362-15.11h-34.28c-.895 0-1.74.414-2.282 1.125a20.319 20.319 0 0 1-12.79 7.696l-1.292.214a1.142 1.142 0 0 0-.875 1.555ZM216.004 175.809h29.34l1.808-4.52a1.142 1.142 0 0 0-.875-1.555l-1.293-.214a20.312 20.312 0 0 1-12.789-7.696 2.86 2.86 0 0 0-2.277-1.125h-34.277ZM180.262 106.984H150.59c-.774 0-1.504.364-1.973.977a17.56 17.56 0 0 1-11.07 6.656l-1.117.188a.987.987 0 0 0-.758 1.343l1.57 3.91h25.39ZM238.363 114.805l-1.117-.184a17.595 17.595 0 0 1-11.07-6.66 2.487 2.487 0 0 0-1.969-.973h-29.676l17.63 13.078h25.39l1.566-3.91a.992.992 0 0 0-.754-1.351Zm0 0"/><path fill="#5ce1e6" d="M173.992 185.031h-4.539a1.144 1.144 0 0 1-1.144-1.144v-6.024c0-.633.511-1.144 1.144-1.144h4.54c.632 0 1.148.511 1.148 1.144v6.024a1.15 1.15 0 0 1-1.149 1.144ZM189.664 185.031h-4.539a1.144 1.144 0 0 1-1.145-1.144v-6.024c0-.633.512-1.144 1.145-1.144h4.54c.636 0 1.148.511 1.148 1.144v6.024c0 .629-.512 1.144-1.149 1.144ZM223.047 192.648h-71.3c-3.15 0-6 1.856-7.278 4.73h85.851a7.954 7.954 0 0 0-7.273-4.73ZM219.652 134.457h-64.511a7.204 7.204 0 0 0-6.586 4.281h77.68a7.194 7.194 0 0 0-6.583-4.281ZM206.61 86.57h-38.426a5.385 5.385 0 0 0-5.133 3.758h48.691a5.388 5.388 0 0 0-5.133-3.758ZM205.34 185.031h-4.54a1.144 1.144 0 0 1-1.148-1.144v-6.024c0-.633.512-1.144 1.149-1.144h4.539c.633 0 1.144.511 1.144 1.144v6.024c0 .629-.511 1.144-1.144 1.144ZM181.832 128.105h-4.539a1.147 1.147 0 0 1-1.148-1.144v-6.023c0-.633.515-1.145 1.148-1.145h4.539c.633 0 1.145.512 1.145 1.144v6.024c0 .633-.512 1.144-1.145 1.144ZM197.504 128.105h-4.54a1.147 1.147 0 0 1-1.148-1.144v-6.023c0-.633.516-1.145 1.149-1.145h4.539c.633 0 1.144.512 1.144 1.144v6.024c0 .633-.511 1.144-1.144 1.144Zm0 0"/><g clip-path="url('#4c1e6edee1')"><path fill="#0097b2" d="M256.273 197.324a2.156 2.156 0 0 0-1.78-.945h-9.083l-8.039-5.965V176.81h7.973c.55 0 1.004-.45 1.004-1 0-.555-.453-1.004-1.004-1.004l-28.973.027-28.375-21.055a1.008 1.008 0 0 0-1.195 0l-28.375 21.055-29.094-.027a1.003 1.003 0 1 0 0 2.004h8.094v13.605l-8.043 5.965H120.3c-.715 0-1.38.351-1.781.945-.403.59-.48 1.34-.215 2l1.617 4.04a2.146 2.146 0 0 0 1.996 1.35h130.953c.883 0 1.668-.53 1.996-1.35l1.617-4.04c.27-.66.192-1.41-.21-2Zm-20.91-20.488v12.09l-16.289-12.09Zm-95.937 0h16.293l-16.293 12.09Zm47.969-21.004 54.648 40.547H132.746Zm67.23 42.75-1.617 4.035a.148.148 0 0 1-.133.09H121.922a.136.136 0 0 1-.133-.09l-1.617-4.035c-.024-.047-.016-.094.012-.137a.138.138 0 0 1 .117-.062h134.191c.051 0 .094.02.117.062.032.043.036.09.016.137Zm0 0"/></g><path fill="#0097b2" d="M128.871 143.965a1.985 1.985 0 0 0 1.852 1.254h12.476v11.73a1.003 1.003 0 0 0 2.004 0v-11.73h84.383v11.73a1.003 1.003 0 0 0 2.008 0v-11.73h12.476a1.99 1.99 0 0 0 1.852-1.254l1.402-3.496a1.995 1.995 0 0 0-1.855-2.734h-7.813l-10.14-7.524v-9.145h10.035a1.003 1.003 0 1 0 0-2.004h-25.063l-24.496-18.18a1.008 1.008 0 0 0-1.195 0l-24.496 18.18h-25.164a1.003 1.003 0 1 0 0 2.004h10.14v9.145l-10.14 7.52h-7.817c-.664 0-1.28.328-1.652.878a1.976 1.976 0 0 0-.203 1.856Zm96.637-22.899v7.657l-10.317-7.657Zm-76.227 0h10.32l-10.32 7.657Zm38.114-18.125 46.894 34.793h-93.785Zm58.066 36.782-1.399 3.488-113.328.008-1.414-3.48Zm0 0"/><g clip-path="url('#2392cdef18')"><path fill="#0097b2" d="M147.363 94.559a2.14 2.14 0 0 0 2.051 1.504h6.059v7.62a1.003 1.003 0 0 0 2.004 0v-7.62h59.84v7.62a1.003 1.003 0 0 0 2.007 0v-7.62h6.055c.945 0 1.77-.606 2.055-1.504l.765-2.446a2.125 2.125 0 0 0-.316-1.914 2.123 2.123 0 0 0-1.735-.875h-68.14l29.387-21.804 25.218 18.714a1.012 1.012 0 0 0 1.407-.207 1.003 1.003 0 0 0-.208-1.402l-25.816-19.156a.996.996 0 0 0-1.195 0l-32.156 23.855h-6c-.688 0-1.32.32-1.73.88a2.124 2.124 0 0 0-.321 1.913Zm1.164-3.168a.144.144 0 0 1 .118-.059h77.5c.05 0 .085.02.117.059a.15.15 0 0 1 .02.129l-.77 2.445a.143.143 0 0 1-.137.097H149.41a.143.143 0 0 1-.137-.097l-.765-2.445c-.012-.051-.008-.094.02-.13Zm0 0"/></g></svg>