<svg xmlns="http://www.w3.org/2000/svg" width="500" viewBox="0 0 375 225" height="300" version="1.0"><defs><clipPath id="e62891d4af"><path d="M219 18.371h72V90h-72Zm0 0"/></clipPath><clipPath id="ad0e1c0b6f"><path d="M51.379 172.523H323.53v34.098H51.38Zm0 0"/></clipPath><clipPath id="f3a57a83f9"><path d="M172 46h151.578v127H172Zm0 0"/></clipPath><clipPath id="2be567f77f"><path d="M51.328 129H87v44H51.328Zm0 0"/></clipPath></defs><g clip-path="url('#e62891d4af')"><path fill="#ee2549" d="M219.48 53.965c0-19.66 15.93-35.594 35.579-35.594 19.652 0 35.582 15.934 35.582 35.594 0 19.656-15.93 35.59-35.582 35.59-19.649 0-35.579-15.934-35.579-35.59"/></g><g clip-path="url('#ad0e1c0b6f')"><path fill="#fff" d="M323.531 172.594H51.38v34.027H323.53v-34.027"/></g><path fill="#fff" d="M181.734 133.773s-2.047-.191-2.535-.914c0 0 .078.953.375 1.391h-9.953v-3.172c4.727-.023 8.766-.168 12.113-.36Zm-15.355.477h-9.953c.293-.438.375-1.39.375-1.39-.492.722-2.54.913-2.54.913v-3.054c3.348.191 7.387.336 12.118.36Zm1.621-8.16c-13.684 0-30.094-3.008-30.094-3.008s-.066 1.313.95 3.008c0 0 .917.148 2.75.355-.083 1.86.414 3.07.414 3.07s2.734.497 8.23.934v3.324s-2.043-.191-2.531-.914c0 0 .078.953.37 1.391h-6.07v3.293h8.231v33.758h-.5l-.605 1.492h6.226l-.605-1.492h-.504v-33.758h27.472v33.758h-.5l-.605 1.492h6.223l-.602-1.492h-.504v-33.758h8.23v-3.293h-6.066c.293-.438.371-1.39.371-1.39-.488.722-2.535.913-2.535.913v-3.324c5.496-.437 8.23-.933 8.23-.933s.497-1.211.419-3.07c1.832-.208 2.746-.356 2.746-.356 1.015-1.695.953-3.008.953-3.008s-16.41 3.008-30.094 3.008M128.219 140.207s-.746.711-2.285.711h-3.664s1.152-.938.949-2.078c0 0-4.207 2.43-12.86-1.754v-3.809h-3.738v-6.652s8.524-.785 14.734-2.746v.55c-.14.094-.32.333-.32.934 0 .528-.293.68-.297.684a.245.245 0 0 0 .102.469h1.406a.25.25 0 0 0 .238-.192.254.254 0 0 0-.132-.277c-.012-.004-.305-.156-.305-.684 0-.601-.18-.84-.32-.933v-.668c2.511-.825 4.601-1.848 5.511-3.098h-1.21s1.144-.969 1.21-2.098c0 0-.726.684-2.218.684h-3.563s1.125-.906.922-2.012c0 0-4.305 2.489-13.168-2.043v-3.414h-3.477v-5.199s8.793-1.727 14.61-4.398v.464c-.145.094-.32.332-.32.934 0 .527-.294.68-.301.68a.252.252 0 0 0-.141.277.25.25 0 0 0 .242.195h1.41c.114 0 .211-.082.235-.191a.247.247 0 0 0-.13-.277c-.01-.004-.304-.157-.304-.684 0-.602-.18-.84-.32-.934v-.64c1.918-.914 3.469-1.938 4.2-3.031h-1.122s1.062-.985 1.121-2.13c0 0-.676.696-2.062.696h-3.317s1.047-.922.863-2.047c0 0-2.109 1.258-5.992-.281 0 0-15.558-6.137-17.433-10.64v-1.716h-1.5s.312-1.246-1.032-1.496v-.613c.664-.262 1.563-.902 1.563-2.063a.245.245 0 0 0-.246-.246h-1.32l-.008-1.433h.715a.345.345 0 1 0 0-.691h-.715v-1.204h.672a.331.331 0 0 0 .335-.324.333.333 0 0 0-.335-.332h-.676l-.008-1.238h.64c.176 0 .317-.14.317-.309a.312.312 0 0 0-.316-.312h-.641l-.004-1.274h.602a.3.3 0 0 0 .304-.293c0-.16-.136-.289-.304-.289h-.602l-.004-1.316h.563c.16 0 .289-.121.289-.27a.28.28 0 0 0-.29-.273h-.566l-.004-1.352h.524c.156 0 .277-.113.277-.254 0-.14-.121-.25-.277-.25h-.524l-.004-1.39h.489c.14 0 .261-.106.261-.235s-.12-.234-.261-.234h-.489l-.007-1.426h.449c.14 0 .25-.097.25-.219 0-.113-.11-.214-.25-.214h-.45l-.003-1.461h.41c.129 0 .234-.09.234-.2 0-.109-.105-.195-.234-.195h-.41l-.004-1.625a.942.942 0 0 0 .64-.89v-3.333a.934.934 0 0 0-.656-.89l-.004-1.574a.543.543 0 0 0 .258-.461v-.758a.55.55 0 0 0-.262-.465l-.007-1.805a.558.558 0 0 0-.004-.98v-.5a.266.266 0 0 0-.531 0l-.004.5a.566.566 0 0 0-.293.492c0 .211.12.395.293.488l-.008 1.805a.545.545 0 0 0-.266.465v.758c0 .195.106.367.262.46l-.004 1.575a.934.934 0 0 0-.656.89v3.333c0 .414.27.765.64.89l-.004 1.625h-.41c-.133 0-.234.086-.234.195 0 .11.101.2.234.2h.41l-.007 1.46h-.45c-.136 0-.25.102-.25.215 0 .122.114.22.25.22h.45l-.004 1.425h-.489c-.144 0-.261.105-.261.234 0 .13.117.235.261.235h.485v1.39h-.528c-.152 0-.277.11-.277.25 0 .141.125.254.277.254h.528l-.008 1.352h-.563c-.16 0-.293.12-.293.273 0 .149.133.27.293.27h.563l-.004 1.316h-.602a.295.295 0 0 0-.304.29c0 .16.133.292.304.292h.598v1.274h-.64c-.18 0-.32.136-.32.312 0 .168.14.309.32.309h.636l-.004 1.238h-.675a.333.333 0 0 0-.336.332c0 .18.152.324.335.324h.676l-.004 1.203h-.714a.348.348 0 0 0-.352.344c0 .192.16.348.352.348h.714l-.007 1.433h-1.325a.244.244 0 0 0-.242.246c0 1.16.899 1.801 1.559 2.063v.613c-1.344.25-1.028 1.496-1.028 1.496h-1.504v1.715c-1.87 4.504-17.43 10.64-17.43 10.64-3.886 1.54-5.991.282-5.991.282-.184 1.125.859 2.047.859 2.047h-3.313c-1.39 0-2.066-.695-2.066-.695.063 1.144 1.125 2.129 1.125 2.129h-1.125c.734 1.093 2.285 2.117 4.203 3.035v.636c-.144.094-.32.332-.32.934 0 .527-.293.68-.305.684a.247.247 0 0 0 .105.469h1.41a.246.246 0 0 0 .24-.196.25.25 0 0 0-.138-.277c-.011 0-.304-.153-.304-.68 0-.602-.176-.84-.32-.934v-.464c5.82 2.671 14.609 4.398 14.609 4.398v5.2h-3.473v3.413c-8.867 4.532-13.168 2.043-13.168 2.043-.2 1.106.922 2.012.922 2.012h-3.562c-1.493 0-2.22-.684-2.22-.684.067 1.13 1.208 2.098 1.208 2.098h-1.207c.91 1.25 2.996 2.273 5.511 3.098v.668c-.144.093-.324.332-.324.933 0 .528-.289.68-.3.684a.25.25 0 0 0-.133.277c.027.11.12.192.234.192h1.414a.247.247 0 0 0 .238-.192.252.252 0 0 0-.136-.277c-.008-.004-.301-.156-.301-.684 0-.601-.18-.84-.32-.933v-.551c6.214 1.96 14.734 2.746 14.734 2.746v6.652h-3.738v3.809c-8.657 4.184-12.86 1.754-12.86 1.754-.203 1.14.95 2.078.95 2.078h-3.668c-1.536 0-2.282-.711-2.282-.711.067 1.164 1.242 2.16 1.242 2.16h-1.242c.996 1.375 3.38 2.485 6.2 3.36v.664c-.141.097-.32.336-.32.933 0 .528-.29.68-.305.684a.25.25 0 0 0-.133.277.25.25 0 0 0 .238.192h1.41a.243.243 0 0 0 .238-.192.238.238 0 0 0-.14-.277c-.004-.004-.297-.156-.297-.684 0-.597-.18-.836-.32-.933v-.551c6.34 1.902 14.652 2.672 14.652 2.672v19.758H77.32v4.523h33.52v-4.523h-3.848v-19.758s8.313-.77 14.656-2.672v.55c-.14.098-.32.337-.32.934 0 .528-.293.68-.3.684a.247.247 0 0 0-.141.277c.023.11.125.192.238.192h1.414a.253.253 0 0 0 .238-.192.257.257 0 0 0-.136-.277c-.012-.004-.301-.156-.301-.684 0-.597-.18-.836-.324-.933v-.664c2.824-.875 5.207-1.985 6.203-3.36h-1.242s1.175-.996 1.242-2.16"/><g clip-path="url('#f3a57a83f9')"><path fill="#fff" d="M314.922 71.844v7.832c2.7 1.86 5.793 2.828 8.61 3.308v89.809H174.093v-23.852l6.789-12.78v-7.985s-6.766.36-8.512-1.946l.258-.425s-.219-.82 0-1.032c0 0 4.629.618 9.355-1.773v-2.629s-6.77.363-8.515-1.941l.254-.426s-.22-.817 0-1.031c0 0 9.03 1.199 14.738-6.254v-6.168c-2.117-.117-4.969-.54-6.016-1.922l.258-.426s-.219-.82 0-1.035c0 0 6.156 1.68 11.695-5.95-.035-.23.2-.464.329-.663.148-.239-.036-.594-.27-.813-.234-.219.195-.16.254-.32s.601-.637.457-.188c-.152.442.305.868.394 1.192.04.18-.027.394-.097.554 1.687-.05 7.55-.32 13.887-1.785.148-.293-.07-.71-.348-.965-.285-.265.242-.199.316-.398.075-.191.739-.781.559-.234-.18.547.375 1.062.48 1.472.102.407-.265.965-.265.965 5.562 7.781 11.789 6.086 11.789 6.086.219.215 0 1.031 0 1.031l.254.426c-1.043 1.383-3.899 1.805-6.012 1.926v8.953l20.848-2.984v-4.91c-2.137-.098-5.176-.497-6.262-1.934l.254-.426s-.219-.82 0-1.035c0 0 10.336 1.71 15.808-6.379a.422.422 0 0 0 .043-.07s2.211.324 5.313.152c2.715-.422 7.105-1.7 8.8-5.644.86-2.004 1.426-3.579 1.798-4.786-2.551-.207-5.72-.832-6.934-2.625l.312-.59s-.27-1.132 0-1.43c0 0 10.102 1.474 17.372-3.542V68.43s-8.387.504-10.547-2.692l.316-.59s-.273-1.132 0-1.43c0 0 1.125.169 2.902.2h.016c2.867-.316 10.742-1.867 14.988-9.559l.043-.07c.477-.82.848-1.66.5-2.02-.36-.363.09-1.007-.195-1.562-.281-.562.047-1.71-.254-2.219-.3-.504.422-.672.66-1.18.239-.503-.152-1.285.66-.667.817.617.575 1.062.301 1.23-.27.168-.48 1.29 0 1.738.488.45.395 1.43.395 1.43 6.664 2.89 16.691 4.668 20.754 5.305h.004c.57-.235.37-2.168-.22-2.586-.581-.422-.132-.25.317-.797.453-.55 1.04.46 1.445.758.403.293.223 1.008.043 1.508-.18.507.227 1.39.227 1.39.902.211.363 1.68.363 1.68 3.903 6.047 14.707 8.66 16.371 9.027h.004c.352-.008.672-.023.961-.039v3.387c-3.258 1.496-8.61 1.172-8.61 1.172"/></g><g clip-path="url('#2be567f77f')"><path fill="#fff" d="M86.059 156.406v.207c-2.91 2.184-12.422 1.907-12.422 1.907v9.656l.504.808v3.809H51.379V135.82c1.648-.996 2.973-2.234 3.691-3.785h.657v-1.039h1.39s0-.004.004-.008c.008-.039.082-.336.11-.66.027-.324.003-.676-.172-.836-.504-.457.101-.512.328-.101.226-.41.828-.356.324.101-.176.16-.191.516-.164.844.027.297.086.574.105.64v.012l.004.008h1.395v1.04h.648c3.805 7.71 21.547 7.784 21.547 7.784v.278c-3.02 2.968-8.676 3.472-8.676 3.472v8.39h4.871v1.743c.84 1.399 8.618 2.703 8.618 2.703"/></g><path fill="#fff" d="M194.2 163.297h-1.325c-1.164-.445-2.918-1.074-3.219-1.184v-2.011c1.926.675 3.465 1.261 4.543 1.691Zm0 2.32h-1.403c-.817-.441-3.04-1.465-3.137-1.508l-.004-.004v-1.398c.57.207 2.059.746 3.067 1.129.035.012.066.02.101.02h1.375Zm-6.618-6.172v1.864c-2.137-.79-5.84-2.059-10.637-3.32-.757-.2-1.562-.407-2.41-.61v-1.645a145.758 145.758 0 0 1 13.055 3.664c-.004.016-.008.032-.008.047Zm0 3.856a110.529 110.529 0 0 0-6.059-2.024v-1.406a108.23 108.23 0 0 1 6.059 2.035Zm-6.758-2.235a129.558 129.558 0 0 0-6.289-1.691v-1.422c.793.195 1.547.387 2.258.574 1.45.38 2.797.762 4.031 1.13Zm-6.988-5.39v1.535a130.126 130.126 0 0 0-11.356-2.156v-1.567a138.42 138.42 0 0 1 11.372 2.09.424.424 0 0 0-.016.098Zm0 3.531a128.196 128.196 0 0 0-5.836-1.238v-1.426c2.098.394 4.055.82 5.836 1.242Zm-6.535-1.371a132.68 132.68 0 0 0-4.82-.785v-1.43c1.671.242 3.285.508 4.82.79Zm-6.895-3.059c-4.215-.53-8.77-.882-13.5-.898v-1.547c4.656.02 9.203.356 13.5.883Zm0 1.996c-2.05-.257-4.18-.476-6.37-.628v-1.438c2.19.156 4.32.375 6.37.633Zm-7.07-.68c-2.098-.132-4.246-.21-6.43-.218v-1.438c2.184.008 4.332.086 6.43.223Zm-7.129-2.214c-4.734.016-9.289.367-13.504.898v-1.562c4.297-.528 8.844-.863 13.504-.883Zm0 1.996c-2.187.008-4.336.086-6.43.219v-1.434c2.098-.137 4.246-.215 6.43-.222Zm-7.129.27c-2.195.152-4.324.37-6.375.628v-1.433c2.063-.262 4.192-.477 6.375-.633Zm-8.445-1.09c-4.242.61-8.086 1.382-11.36 2.156v-1.535a.424.424 0 0 0-.015-.098 138.529 138.529 0 0 1 11.375-2.09Zm0 1.996c-1.672.238-3.285.508-4.824.785v-1.418c1.554-.285 3.164-.555 4.824-.797Zm-5.524.918c-2.097.394-4.05.816-5.836 1.238v-1.406c1.829-.438 3.778-.86 5.836-1.254Zm-6.535-.59c-.844.203-1.652.41-2.41.61-4.793 1.261-8.5 2.53-10.637 3.32v-1.864a.196.196 0 0 0-.007-.047 149.658 149.658 0 0 1 6.43-1.968c1.972-.555 4.198-1.133 6.624-1.696Zm0 1.996a129.558 129.558 0 0 0-6.29 1.691l.001-1.398c1.852-.55 3.965-1.133 6.29-1.7Zm-6.988 1.902c-2.594.79-4.66 1.508-6.059 2.024v-1.39a107.75 107.75 0 0 1 6.059-2.032Zm-8.133.836c-.3.11-2.055.739-3.219 1.184H98.91v-1.504c1.082-.43 2.621-1.016 4.543-1.691Zm0 1.992c0 .004-.004.004-.004.004-.097.043-2.32 1.067-3.136 1.508H98.91v-1.762h1.375c.035 0 .07-.007.102-.02 1.008-.382 2.496-.92 3.066-1.128Zm92.82-2.21v-1.153a.14.14 0 0 0-.14-.14h-.211v-.98a.494.494 0 0 0-.367-.493h-.004c-.004-.004-.012-.027-.012-.074 0-.028.031-.102.05-.149.06-.14.134-.316.04-.457-.066-.101-.195-.152-.395-.152-.195 0-.324.05-.394.152-.094.14-.02.317.043.457.02.047.05.121.05.149 0 .047-.007.07-.011.074h-.008a.497.497 0 0 0-.367.484v.989h-.207a.14.14 0 0 0-.14.14v.301a114.095 114.095 0 0 0-4.583-1.695.156.156 0 0 0-.101-.04h-.02c-.062-.023-.125-.042-.191-.066v-.914a.494.494 0 0 0-.368-.492c-.003-.008-.015-.027-.015-.074 0-.028.031-.102.055-.149.058-.14.132-.316.035-.46-.067-.098-.196-.15-.395-.15-.195 0-.324.052-.39.15-.098.144-.024.32.039.46.02.047.05.121.05.149 0 .047-.011.066-.015.074a.502.502 0 0 0-.371.484v.457a142.257 142.257 0 0 0-6.567-2.015c-5.035-1.418-11.707-3-19.234-4.028v-.746a.488.488 0 0 0-.367-.488c0-.004-.004-.004-.004-.004-.004-.008-.016-.027-.016-.074 0-.027.035-.098.055-.149.058-.14.133-.312.039-.457-.066-.101-.195-.152-.395-.152-.199 0-.324.05-.394.152-.094.145-.02.317.039.457.023.051.055.122.055.149 0 .047-.012.066-.012.074-.004 0-.004 0-.004.004a.49.49 0 0 0-.371.48v.579c-4.504-.567-9.293-.926-14.2-.926-4.906 0-9.69.36-14.199.926v-.57a.492.492 0 0 0-.367-.489l-.004-.004c-.004-.008-.015-.027-.015-.074 0-.027.035-.098.054-.149.059-.14.133-.312.04-.457-.067-.101-.196-.152-.395-.152-.2 0-.328.05-.395.152-.093.145-.02.317.04.457.019.051.054.122.054.149 0 .047-.012.066-.015.074v.004a.49.49 0 0 0-.372.48v.754c-7.523 1.028-14.199 2.61-19.23 4.028a141.047 141.047 0 0 0-6.57 2.015v-.449a.504.504 0 0 0-.371-.492c-.004-.008-.016-.027-.016-.074 0-.028.031-.102.055-.149.058-.14.132-.316.035-.46-.067-.098-.192-.15-.39-.15-.2 0-.329.052-.395.15-.094.144-.024.32.039.46.02.047.05.121.05.149a.164.164 0 0 1-.011.074h-.004a.492.492 0 0 0-.367.484v.922c-.063.024-.13.043-.192.067h-.02a.139.139 0 0 0-.097.039c-1.91.664-3.46 1.25-4.586 1.695v-.3a.14.14 0 0 0-.137-.141h-.21v-.98a.5.5 0 0 0-.368-.493h-.004c-.004-.004-.015-.027-.015-.074 0-.028.035-.102.054-.149.06-.14.133-.316.04-.457-.07-.101-.196-.152-.395-.152-.2 0-.328.05-.395.152-.093.14-.02.317.04.457a.542.542 0 0 1 .054.149c0 .047-.011.07-.015.074a.497.497 0 0 0-.371.484v.989h-.211a.14.14 0 0 0-.137.14v1.149l-.004.004a.347.347 0 0 0-.207.316v10.23a.35.35 0 0 0 .348.352h6.71a.35.35 0 0 0 .348-.352v-4.14c2.203-.88 20.903-8.047 42.52-8.047 21.617 0 40.316 7.168 42.52 8.047v4.14a.35.35 0 0 0 .347.352h6.71a.35.35 0 0 0 .348-.352v-10.23a.34.34 0 0 0-.207-.316"/></svg>