<svg xmlns="http://www.w3.org/2000/svg" width="500" viewBox="0 0 375 225" height="300" version="1.0"><defs><clipPath id="1376818eb5"><path d="M92.71 8.898h198v198h-198Zm0 0"/></clipPath><clipPath id="ca296957c2"><path d="M79.617 100H228v106.965H79.617Zm0 0"/></clipPath></defs><g clip-path="url('#1376818eb5')"><path fill="#ee2549" d="M290.71 107.898c0 1.622-.038 3.243-.12 4.86a95.943 95.943 0 0 1-.356 4.847c-.16 1.61-.355 3.22-.593 4.82a97.682 97.682 0 0 1-1.898 9.527 96.519 96.519 0 0 1-2.821 9.302 95.025 95.025 0 0 1-1.746 4.531 97.976 97.976 0 0 1-4.156 8.781 99.49 99.49 0 0 1-4.992 8.336 96.904 96.904 0 0 1-2.801 3.973 97.655 97.655 0 0 1-2.989 3.828 98.244 98.244 0 0 1-10.043 10.55 98.345 98.345 0 0 1-11.484 8.962 99.574 99.574 0 0 1-4.106 2.601 99.635 99.635 0 0 1-4.226 2.395 100.095 100.095 0 0 1-8.781 4.152 97.871 97.871 0 0 1-9.149 3.274 97.803 97.803 0 0 1-9.426 2.36 98.742 98.742 0 0 1-14.453 1.784 100.854 100.854 0 0 1-9.718 0c-1.618-.078-3.23-.199-4.844-.36a98.742 98.742 0 0 1-9.61-1.426 97.803 97.803 0 0 1-9.425-2.358 97.87 97.87 0 0 1-9.148-3.273 100.095 100.095 0 0 1-8.781-4.152 99.635 99.635 0 0 1-4.228-2.396 97.01 97.01 0 0 1-4.105-2.601 96.815 96.815 0 0 1-3.973-2.797 97.782 97.782 0 0 1-7.511-6.164 98.418 98.418 0 0 1-10.043-10.55 101.635 101.635 0 0 1-2.993-3.829 99.49 99.49 0 0 1-13.695-25.621 106.33 106.33 0 0 1-1.523-4.617 96.516 96.516 0 0 1-1.293-4.684 97.682 97.682 0 0 1-1.899-9.527c-.238-1.602-.433-3.211-.594-4.82a95.943 95.943 0 0 1-.355-4.848 95.945 95.945 0 0 1-.121-4.86c0-1.617.039-3.238.121-4.855a99.578 99.578 0 0 1 .95-9.668 98.9 98.9 0 0 1 1.898-9.531c.39-1.57.824-3.133 1.293-4.684.472-1.547.98-3.086 1.523-4.613a99.462 99.462 0 0 1 8.3-17.543 99.49 99.49 0 0 1 5.395-8.078c.97-1.301 1.965-2.578 2.993-3.832a104.927 104.927 0 0 1 3.171-3.68 98.144 98.144 0 0 1 6.871-6.867 97.78 97.78 0 0 1 7.512-6.164 96.814 96.814 0 0 1 3.973-2.797 93.222 93.222 0 0 1 4.105-2.602 99.635 99.635 0 0 1 4.227-2.394 95.842 95.842 0 0 1 4.34-2.184 93.58 93.58 0 0 1 4.441-1.968 97.87 97.87 0 0 1 9.149-3.274 97.808 97.808 0 0 1 4.683-1.297 97.835 97.835 0 0 1 9.528-1.894c1.605-.239 3.21-.438 4.824-.598a100.56 100.56 0 0 1 9.703-.477 100.86 100.86 0 0 1 9.703.477 100.365 100.365 0 0 1 9.61 1.426c1.59.316 3.171.672 4.742 1.066 1.57.395 3.132.824 4.683 1.297a97.871 97.871 0 0 1 9.148 3.273 93.579 93.579 0 0 1 4.442 1.97 95.841 95.841 0 0 1 4.34 2.183c1.43.765 2.84 1.562 4.226 2.394 1.391.832 2.758 1.7 4.106 2.602a96.815 96.815 0 0 1 3.973 2.797 97.78 97.78 0 0 1 7.511 6.164 98.144 98.144 0 0 1 13.032 14.379 96.903 96.903 0 0 1 5.398 8.078 100.21 100.21 0 0 1 4.582 8.566 100.348 100.348 0 0 1 1.969 4.446 95.026 95.026 0 0 1 1.746 4.53 102.784 102.784 0 0 1 1.527 4.614c.469 1.55.903 3.113 1.293 4.684a98.888 98.888 0 0 1 2.492 14.351c.16 1.614.278 3.23.356 4.848.082 1.617.12 3.238.12 4.855Zm0 0"/></g><g clip-path="url('#ca296957c2')"><path fill="#fff" d="M225.012 125.965c-6.446-5.328-8.473-15.047-8.711-16.293a39.963 39.963 0 0 0-2.446-7.102c-1.28-2.836-5.3-2.949-6.722-.175-2.95 5.757-6.422 10.878-9.817 15.199-7.636 9.726-19.691 14.922-32.039 14.113 0 0-51.359-3.289-52.172-3.285 0 0-15.41-.418-26.19-6.824-1.61-.953-3.626.12-3.821 1.98-.864 8.219 6.87 14.395 6.87 14.395-6.124 6.007-9.976 14.343-10.015 23.64-.047 11.227 5.856 21.184 14.633 27.27a10.527 10.527 0 0 0-1.723 5.754v1.722c0 5.852 4.75 10.594 10.61 10.594h25.113c6.332 0 11.469-5.129 11.469-11.453 0-.129-.016-.254-.02-.379h.051c.086-2.191-.004-8.562-3.887-10.578-1.37-.711-2.593-2.48-2.55-4.023.082-2.93 2.933-3.817 5.921-3.59 12.176.922 15.829 11.675 15.426 18.59v.84c0 5.85 4.75 10.593 10.606 10.593h24.722c5.973 0 11.243-4.394 11.805-10.332.457-4.766-2.02-8.992-5.828-11.121 4.836-3.406 9.058-7.7 12.351-12.773 8.286-12.758 14.336-28.68 18.215-40.926.676-2.137-.12-4.406-1.851-5.836Zm-113.77 41.258a5.387 5.387 0 0 1-5.39-5.383 5.387 5.387 0 0 1 5.39-5.383c2.977 0 5.39 2.41 5.39 5.383a5.387 5.387 0 0 1-5.39 5.383Zm16.543-13.746a5.387 5.387 0 0 1-5.39-5.383 5.387 5.387 0 0 1 5.39-5.383c2.98 0 5.39 2.41 5.39 5.383a5.385 5.385 0 0 1-5.39 5.383Zm17.86 13.746a5.387 5.387 0 0 1-5.391-5.383 5.387 5.387 0 0 1 5.39-5.383c2.977 0 5.391 2.41 5.391 5.383a5.387 5.387 0 0 1-5.39 5.383Zm16.851-13.746a5.387 5.387 0 0 1-5.39-5.383 5.387 5.387 0 0 1 5.39-5.383c2.977 0 5.39 2.41 5.39 5.383a5.387 5.387 0 0 1-5.39 5.383Zm19.89 13.746a5.387 5.387 0 0 1-5.39-5.383 5.387 5.387 0 0 1 5.39-5.383c2.977 0 5.391 2.41 5.391 5.383a5.387 5.387 0 0 1-5.39 5.383Zm0 0"/></g><path fill="#fff" d="M292.605 18.563a3.445 3.445 0 0 0-4.347 2.195l-1.84 5.61a9.514 9.514 0 0 1-8.309 6.515l-2.96.23.867-10.847a3.438 3.438 0 0 0-3.157-3.703h-.004a3.443 3.443 0 0 0-3.707 3.152l-1.93 24.062c-.495 6.207-5.683 10.989-11.917 10.989h-7.754v-7.02a3.445 3.445 0 0 0-6.89 0v24.36h-12.223v-24.36a3.445 3.445 0 0 0-6.891 0v7.02h-7.754c-6.234 0-11.422-4.782-11.918-10.989l-1.93-24.062a3.439 3.439 0 0 0-3.707-3.152 3.438 3.438 0 0 0-3.16 3.703l.871 10.847-2.965-.23a9.519 9.519 0 0 1-8.308-6.516l-1.84-5.61a3.44 3.44 0 0 0-4.344-2.195 3.441 3.441 0 0 0-2.203 4.34l1.84 5.606a16.408 16.408 0 0 0 14.32 11.234l4.055.317.504 6.265c.781 9.785 8.96 17.324 18.789 17.324h7.75v10.457h-20.477c-2.535 0-3.953 2.961-2.32 4.895 2.07 2.45 5.867 4.977 12.75 5.406.914 8.477 9.219 13.985 11.531 23.766l.04.183c0 .008.011.07.03.172.18.856 1.575 4.485 3.087 8.2 1.867 4.59 6.82 5.578 7.968 5.578 3.59 0 6.805-2.25 7.993-5.637 2.539-7.211 7.386-19.723 12.957-27.676a9.757 9.757 0 0 0 1.707-4.586c7.41-.465 11.242-3.363 13.199-5.969 1.336-1.785-.031-4.332-2.262-4.332h-20.269.07V63.648h7.754c9.824 0 18.004-7.539 18.789-17.324l.5-6.265 4.055-.317a16.399 16.399 0 0 0 14.32-11.234l1.84-5.606a3.439 3.439 0 0 0-2.2-4.34Zm-68.253 71.48a4.022 4.022 0 1 1 0-8.043c2.226 0 4.027 1.8 4.027 4.023 0 2.22-1.8 4.02-4.027 4.02Zm23.628-4.02a4.025 4.025 0 0 1-4.027 4.02 4.023 4.023 0 1 1 0-8.043c2.223 0 4.027 1.8 4.027 4.023Zm0 0"/></svg>