<svg xmlns="http://www.w3.org/2000/svg" width="500" viewBox="0 0 375 225" height="300" version="1.0"><defs><clipPath id="5b1c2038ef"><path d="M87.25 12.25H287.5V212.5H87.25Zm0 0"/></clipPath><clipPath id="0365f4de51"><path d="M100 112h174v100.5H100Zm0 0"/></clipPath></defs><g clip-path="url('#5b1c2038ef')"><path fill="#ee2549" d="M287.484 112.363c0 55.293-44.82 100.114-100.113 100.114-36.95 0-69.219-20.02-86.566-49.801 0 0-.004.004-.008.004-.082-.14-.16-.282-.238-.422-.032-.051-.059-.102-.09-.153a99.815 99.815 0 0 1-2.239-4.125l-.046-.093a102.121 102.121 0 0 1-2.082-4.32v-.005c-5.684-12.566-8.852-26.511-8.852-41.199 0-55.293 44.82-100.113 100.113-100.113 7.774 0 15.344.883 22.61 2.563 44.406 10.246 77.511 50.03 77.511 97.55Zm0 0"/></g><path fill="#fff" d="M249.84 119.637H125.344s14.785-3.961 24.367-16.606V90.79h-8.305v-.8h17.883V73.651c-7.434 3.77-16.004 7.133-25.281 9.004l-.16-.785c30.007-6.055 52.609-27.84 52.832-28.058l.105.105c.113-.105.176-.168.176-.168s.062.063.176.168l.105-.105c.223.218 22.824 22.003 52.832 28.058l-.16.785c-9.277-1.87-17.848-5.234-25.281-9.004v16.336h20.226v.801h-9.39v12.242c9.582 12.64 24.37 16.606 24.37 16.606Zm0 0"/><path fill="#ee2549" d="M149.71 102.629h75.759v.805H149.71Zm0 0"/><path fill="#fff" d="M270.156 161.938h-164.98s19.597-5.25 32.289-22.004V128.41h-15.77a7.098 7.098 0 0 1-7.097-7.097c36.382-3.329 72.765-38.946 72.765-38.946s36.383 35.617 72.766 38.945a7.098 7.098 0 0 1-7.102 7.098h-15.164v11.524c12.696 16.754 32.293 22.004 32.293 22.004Zm0 0"/><path fill="#ee2549" d="M137.465 139.531h100.398v.805H137.465Zm0 0"/><g clip-path="url('#0365f4de51')"><path fill="#fff" d="M273.926 162.68c-17.348 29.777-49.617 49.797-86.563 49.797-36.949 0-69.218-20.02-86.566-49.797 44.71-9.168 86.566-50.13 86.566-50.13s41.852 40.966 86.563 50.13Zm0 0"/></g><path fill="#ee2549" d="M138.184 163.484h98.109l-48.629-29.574Zm2.906-.8 46.574-27.836 45.766 27.836Zm72.047-29.274a241.438 241.438 0 0 1-17.43-13.742h30.012l-38.153-22.7-37.98 22.7h29.234a247.648 247.648 0 0 1-17.113 13.227c-14.277 10.07-36.453 23.347-61.008 29.402l.196.777c24.68-6.082 46.953-19.418 61.289-29.535 14.066-9.922 23.457-18.773 25.175-20.426 1.72 1.692 11.172 10.825 25.297 20.938 14.39 10.304 36.254 23.668 60.88 29.32l.39-.691c-24.488-5.621-46.465-19.012-60.79-29.27Zm-18.34-14.535c-4.535-3.977-7.102-6.555-7.149-6.605l-.285.28-.281-.284c-.05.05-2.676 2.625-7.32 6.597h-27.27l35.074-20.96 35.235 20.96h-28.004Zm-75.54 1.8-.152-.784c37.043-7.297 67.668-37.504 67.973-37.805l.285.281.285-.277c.274.281 27.602 28.203 62.286 36.55l-.192.778c-33.031-7.95-59.402-33.512-62.387-36.484-3.19 3.078-32.718 30.773-68.097 37.742ZM264.844 175.355H109.883v.805h19.46v14.809h8.821V176.16h24.066v14.809h8.82V176.16h32.665v14.809h8.824V176.16h24.063v14.809h8.824V176.16h19.418Zm-127.48 14.813h-7.22V176.16h7.22Zm32.886 0h-7.219V176.16h7.219Zm41.488 0h-7.218V176.16h7.218Zm32.887 0h-7.219V176.16h7.219ZM187.316 63.359l-21.27 13.309h42.142Zm-.004.95 18.125 11.558H168.84Zm0 0"/></svg>