<svg xmlns="http://www.w3.org/2000/svg" width="500" viewBox="0 0 375 225" height="300" version="1.0"><defs><clipPath id="0238e6fc31"><path d="M112.75 17.996h149.703v189H112.75Zm0 0"/></clipPath></defs><g clip-path="url('#0238e6fc31')"><path fill="#fff" d="M218.438 92.383c0 18.039-14.645 32.664-32.715 32.664-18.067 0-32.711-14.625-32.711-32.664 0-18.043 14.644-32.668 32.71-32.668 18.071 0 32.715 14.625 32.715 32.668m-30.476-74.387c-.117 0-.238.004-.36.004-.12 0-.238-.004-.359-.004-41.14 0-74.492 33.3-74.492 74.387 0 58.152 68.79 110.168 74.16 114.14.219.165.485.36.692.473.242-.144.492-.324.75-.512 5.761-4.273 74.101-56.136 74.101-114.101 0-41.086-33.348-74.387-74.492-74.387"/></g><path fill="#ee2549" d="M218.438 92.383c0 18.039-14.645 32.664-32.715 32.664-18.067 0-32.711-14.625-32.711-32.664 0-18.043 14.644-32.668 32.71-32.668 18.071 0 32.715 14.625 32.715 32.668"/></svg>