<svg xmlns="http://www.w3.org/2000/svg" xmlns:xlink="http://www.w3.org/1999/xlink" width="500" zoomAndPan="magnify" viewBox="0 0 375 225" height="300" preserveAspectRatio="xMidYMid meet" version="1.0"><defs><g/><clipPath id="3356485bfa"><path d="M 117.824219 107 L 262.574219 107 L 262.574219 160.964844 L 117.824219 160.964844 Z M 117.824219 107 " clip-rule="nonzero"/></clipPath><clipPath id="5326e1d603"><path d="M 147 15.464844 L 233 15.464844 L 233 57 L 147 57 Z M 147 15.464844 " clip-rule="nonzero"/></clipPath></defs><path fill="#ffffff" d="M 226.664062 30.023438 C 226.519531 30.023438 226.375 29.992188 226.234375 29.929688 C 225.710938 29.691406 225.46875 29.074219 225.707031 28.550781 L 228.882812 21.449219 C 229.121094 20.925781 229.738281 20.6875 230.265625 20.921875 C 230.792969 21.15625 231.03125 21.777344 230.792969 22.300781 L 227.617188 29.402344 C 227.445312 29.789062 227.0625 30.023438 226.664062 30.023438 Z M 226.664062 30.023438 " fill-opacity="1" fill-rule="nonzero"/><path fill="#ffffff" d="M 241.421875 48.546875 C 240.949219 48.546875 240.519531 48.222656 240.40625 47.742188 C 240.273438 47.183594 240.621094 46.617188 241.179688 46.484375 L 248.753906 44.671875 C 249.316406 44.539062 249.882812 44.886719 250.015625 45.445312 C 250.152344 46.007812 249.804688 46.574219 249.242188 46.707031 L 241.667969 48.515625 C 241.585938 48.539062 241.503906 48.546875 241.421875 48.546875 Z M 241.421875 48.546875 " fill-opacity="1" fill-rule="nonzero"/><path fill="#ffffff" d="M 153.707031 30.023438 C 153.304688 30.023438 152.921875 29.792969 152.75 29.402344 L 149.570312 22.304688 C 149.335938 21.777344 149.570312 21.160156 150.101562 20.925781 C 150.625 20.6875 151.246094 20.925781 151.480469 21.453125 L 154.660156 28.550781 C 154.894531 29.078125 154.660156 29.695312 154.128906 29.933594 C 153.992188 29.992188 153.847656 30.023438 153.707031 30.023438 Z M 153.707031 30.023438 " fill-opacity="1" fill-rule="nonzero"/><path fill="#ffffff" d="M 138.945312 48.546875 C 138.863281 48.546875 138.785156 48.539062 138.699219 48.515625 L 131.125 46.707031 C 130.566406 46.574219 130.21875 46.007812 130.351562 45.445312 C 130.488281 44.886719 131.050781 44.539062 131.613281 44.671875 L 139.1875 46.484375 C 139.75 46.617188 140.097656 47.183594 139.960938 47.742188 C 139.847656 48.222656 139.417969 48.546875 138.945312 48.546875 Z M 138.945312 48.546875 " fill-opacity="1" fill-rule="nonzero"/><path fill="#ffffff" d="M 129.726562 130.816406 L 160.335938 130.816406 L 181.582031 115.058594 L 145.816406 115.058594 C 144.882812 115.058594 144.003906 115.492188 143.4375 116.230469 C 140.175781 120.503906 135.402344 123.371094 130.09375 124.257812 L 128.746094 124.480469 C 127.992188 124.605469 127.546875 125.394531 127.832031 126.101562 Z M 129.726562 130.816406 " fill-opacity="1" fill-rule="nonzero"/><path fill="#ffffff" d="M 220.03125 130.816406 L 250.640625 130.816406 L 252.53125 126.101562 C 252.816406 125.394531 252.367188 124.605469 251.617188 124.480469 L 250.265625 124.257812 C 244.960938 123.371094 240.191406 120.503906 236.921875 116.230469 C 236.359375 115.492188 235.480469 115.058594 234.546875 115.058594 L 198.785156 115.058594 Z M 220.03125 130.816406 " fill-opacity="1" fill-rule="nonzero"/><path fill="#ffffff" d="M 182.738281 59.035156 L 151.785156 59.035156 C 150.976562 59.035156 150.214844 59.410156 149.726562 60.050781 C 146.902344 63.746094 142.773438 66.230469 138.175781 66.992188 L 137.011719 67.1875 C 136.359375 67.296875 135.972656 67.980469 136.222656 68.589844 L 137.855469 72.671875 L 164.347656 72.671875 Z M 182.738281 59.035156 " fill-opacity="1" fill-rule="nonzero"/><path fill="#ffffff" d="M 243.359375 67.191406 L 242.195312 66.996094 C 237.601562 66.230469 233.472656 63.746094 230.644531 60.054688 C 230.15625 59.414062 229.394531 59.039062 228.589844 59.039062 L 197.628906 59.039062 L 216.019531 72.675781 L 242.511719 72.675781 L 244.148438 68.597656 C 244.394531 67.980469 244.011719 67.296875 243.359375 67.191406 Z M 243.359375 67.191406 " fill-opacity="1" fill-rule="nonzero"/><path fill="#ffffff" d="M 176.199219 140.4375 L 171.464844 140.4375 C 170.804688 140.4375 170.269531 139.902344 170.269531 139.242188 L 170.269531 132.960938 C 170.269531 132.300781 170.804688 131.765625 171.464844 131.765625 L 176.199219 131.765625 C 176.863281 131.765625 177.398438 132.300781 177.398438 132.960938 L 177.398438 139.242188 C 177.398438 139.898438 176.863281 140.4375 176.199219 140.4375 Z M 176.199219 140.4375 " fill-opacity="1" fill-rule="nonzero"/><path fill="#ffffff" d="M 192.550781 140.4375 L 187.816406 140.4375 C 187.15625 140.4375 186.621094 139.902344 186.621094 139.242188 L 186.621094 132.960938 C 186.621094 132.300781 187.15625 131.765625 187.816406 131.765625 L 192.550781 131.765625 C 193.214844 131.765625 193.75 132.300781 193.75 132.960938 L 193.75 139.242188 C 193.75 139.898438 193.214844 140.4375 192.550781 140.4375 Z M 192.550781 140.4375 " fill-opacity="1" fill-rule="nonzero"/><path fill="#ffffff" d="M 227.378906 148.382812 L 152.992188 148.382812 C 149.707031 148.382812 146.730469 150.320312 145.398438 153.316406 L 234.96875 153.316406 C 233.636719 150.320312 230.664062 148.382812 227.378906 148.382812 Z M 227.378906 148.382812 " fill-opacity="1" fill-rule="nonzero"/><path fill="#ffffff" d="M 223.835938 87.6875 L 156.53125 87.6875 C 153.558594 87.6875 150.867188 89.4375 149.660156 92.152344 L 230.703125 92.152344 C 229.503906 89.4375 226.808594 87.6875 223.835938 87.6875 Z M 223.835938 87.6875 " fill-opacity="1" fill-rule="nonzero"/><path fill="#ffffff" d="M 210.226562 37.742188 L 170.140625 37.742188 C 167.691406 37.742188 165.523438 39.328125 164.785156 41.660156 L 215.585938 41.660156 C 214.84375 39.328125 212.675781 37.742188 210.226562 37.742188 Z M 210.226562 37.742188 " fill-opacity="1" fill-rule="nonzero"/><path fill="#ffffff" d="M 208.902344 140.4375 L 204.167969 140.4375 C 203.507812 140.4375 202.972656 139.902344 202.972656 139.242188 L 202.972656 132.960938 C 202.972656 132.300781 203.507812 131.765625 204.167969 131.765625 L 208.902344 131.765625 C 209.5625 131.765625 210.097656 132.300781 210.097656 132.960938 L 210.097656 139.242188 C 210.097656 139.898438 209.5625 140.4375 208.902344 140.4375 Z M 208.902344 140.4375 " fill-opacity="1" fill-rule="nonzero"/><path fill="#ffffff" d="M 184.378906 81.0625 L 179.640625 81.0625 C 178.980469 81.0625 178.445312 80.527344 178.445312 79.867188 L 178.445312 73.589844 C 178.445312 72.929688 178.980469 72.394531 179.640625 72.394531 L 184.378906 72.394531 C 185.039062 72.394531 185.574219 72.929688 185.574219 73.589844 L 185.574219 79.867188 C 185.574219 80.527344 185.039062 81.0625 184.378906 81.0625 Z M 184.378906 81.0625 " fill-opacity="1" fill-rule="nonzero"/><path fill="#ffffff" d="M 200.730469 81.0625 L 195.992188 81.0625 C 195.332031 81.0625 194.796875 80.527344 194.796875 79.867188 L 194.796875 73.589844 C 194.796875 72.929688 195.332031 72.394531 195.992188 72.394531 L 200.730469 72.394531 C 201.390625 72.394531 201.925781 72.929688 201.925781 73.589844 L 201.925781 79.867188 C 201.925781 80.527344 201.390625 81.0625 200.730469 81.0625 Z M 200.730469 81.0625 " fill-opacity="1" fill-rule="nonzero"/><g clip-path="url(#3356485bfa)"><path fill="#f8fafb" d="M 262.042969 153.257812 C 261.625 152.640625 260.933594 152.273438 260.1875 152.273438 L 250.710938 152.273438 L 242.324219 146.050781 L 242.324219 131.863281 L 250.640625 131.863281 C 251.21875 131.863281 251.6875 131.394531 251.6875 130.816406 C 251.6875 130.242188 251.21875 129.773438 250.640625 129.773438 L 220.414062 129.800781 L 190.808594 107.839844 C 190.4375 107.566406 189.933594 107.566406 189.5625 107.839844 L 159.957031 129.800781 L 129.605469 129.773438 C 129.027344 129.773438 128.558594 130.242188 128.558594 130.816406 C 128.558594 131.394531 129.027344 131.863281 129.605469 131.863281 L 138.046875 131.863281 L 138.046875 146.050781 L 129.660156 152.273438 L 120.179688 152.273438 C 119.4375 152.273438 118.742188 152.640625 118.324219 153.257812 C 117.90625 153.871094 117.824219 154.65625 118.101562 155.34375 L 119.789062 159.558594 C 120.132812 160.414062 120.949219 160.964844 121.871094 160.964844 L 258.496094 160.964844 C 259.417969 160.964844 260.234375 160.414062 260.574219 159.558594 L 262.265625 155.34375 C 262.546875 154.65625 262.460938 153.871094 262.042969 153.257812 Z M 240.230469 131.890625 L 240.230469 144.5 L 223.234375 131.890625 Z M 140.136719 131.890625 L 157.136719 131.890625 L 140.136719 144.5 Z M 190.183594 109.980469 L 247.199219 152.273438 L 133.167969 152.273438 Z M 260.324219 154.570312 L 258.636719 158.78125 C 258.613281 158.835938 258.558594 158.871094 258.5 158.871094 L 121.875 158.871094 C 121.8125 158.871094 121.757812 158.835938 121.734375 158.78125 L 120.046875 154.570312 C 120.027344 154.519531 120.03125 154.472656 120.0625 154.429688 C 120.089844 154.382812 120.132812 154.363281 120.183594 154.363281 L 260.1875 154.363281 C 260.242188 154.363281 260.28125 154.382812 260.308594 154.429688 C 260.339844 154.472656 260.347656 154.519531 260.324219 154.570312 Z M 260.324219 154.570312 " fill-opacity="1" fill-rule="nonzero"/></g><path fill="#f8fafb" d="M 129.125 97.605469 C 129.441406 98.398438 130.199219 98.910156 131.054688 98.910156 L 144.074219 98.910156 L 144.074219 111.144531 C 144.074219 111.722656 144.542969 112.191406 145.121094 112.191406 C 145.695312 112.191406 146.164062 111.722656 146.164062 111.144531 L 146.164062 98.910156 L 234.203125 98.910156 L 234.203125 111.144531 C 234.203125 111.722656 234.671875 112.191406 235.25 112.191406 C 235.828125 112.191406 236.296875 111.722656 236.296875 111.144531 L 236.296875 98.910156 L 249.3125 98.910156 C 250.167969 98.910156 250.929688 98.394531 251.246094 97.605469 L 252.707031 93.957031 C 252.964844 93.316406 252.886719 92.59375 252.496094 92.019531 C 252.109375 91.445312 251.464844 91.105469 250.773438 91.105469 L 242.621094 91.105469 L 232.042969 83.257812 L 232.042969 73.71875 L 242.511719 73.71875 C 243.089844 73.71875 243.558594 73.25 243.558594 72.675781 C 243.558594 72.097656 243.089844 71.628906 242.511719 71.628906 L 216.363281 71.628906 L 190.804688 52.671875 C 190.433594 52.394531 189.929688 52.394531 189.558594 52.671875 L 164.003906 71.628906 L 137.746094 71.628906 C 137.167969 71.628906 136.699219 72.097656 136.699219 72.675781 C 136.699219 73.25 137.167969 73.71875 137.746094 73.71875 L 148.328125 73.71875 L 148.328125 83.257812 L 137.75 91.105469 L 129.59375 91.105469 C 128.902344 91.105469 128.257812 91.445312 127.867188 92.015625 C 127.480469 92.589844 127.402344 93.3125 127.660156 93.957031 Z M 229.949219 73.71875 L 229.949219 81.707031 L 219.183594 73.71875 Z M 150.421875 73.71875 L 161.1875 73.71875 L 150.421875 81.707031 Z M 190.183594 54.816406 L 239.109375 91.105469 L 141.257812 91.105469 Z M 250.761719 93.179688 L 249.304688 96.820312 L 131.066406 96.824219 L 129.59375 93.195312 Z M 250.761719 93.179688 " fill-opacity="1" fill-rule="nonzero"/><g clip-path="url(#5326e1d603)"><path fill="#f8fafb" d="M 148.417969 46.074219 C 148.710938 47.011719 149.570312 47.640625 150.558594 47.640625 L 156.878906 47.640625 L 156.878906 55.589844 C 156.878906 56.164062 157.347656 56.632812 157.925781 56.632812 C 158.5 56.632812 158.972656 56.164062 158.972656 55.589844 L 158.972656 47.640625 L 221.402344 47.640625 L 221.402344 55.589844 C 221.402344 56.164062 221.871094 56.632812 222.445312 56.632812 C 223.023438 56.632812 223.492188 56.164062 223.492188 55.589844 L 223.492188 47.640625 L 229.8125 47.640625 C 230.796875 47.640625 231.660156 47.011719 231.953125 46.074219 L 232.757812 43.523438 C 232.972656 42.835938 232.851562 42.109375 232.425781 41.527344 C 231.996094 40.941406 231.339844 40.613281 230.617188 40.613281 L 159.523438 40.613281 L 190.183594 17.871094 L 216.496094 37.390625 C 216.957031 37.734375 217.617188 37.636719 217.960938 37.175781 C 218.304688 36.710938 218.207031 36.058594 217.746094 35.710938 L 190.808594 15.730469 C 190.4375 15.457031 189.933594 15.457031 189.5625 15.730469 L 156.015625 40.613281 L 149.757812 40.613281 C 149.035156 40.613281 148.375 40.949219 147.949219 41.527344 C 147.519531 42.109375 147.398438 42.835938 147.617188 43.527344 Z M 149.632812 42.769531 C 149.664062 42.726562 149.707031 42.707031 149.753906 42.707031 L 230.613281 42.707031 C 230.664062 42.707031 230.703125 42.730469 230.730469 42.769531 C 230.761719 42.808594 230.769531 42.855469 230.753906 42.902344 L 229.953125 45.453125 C 229.929688 45.515625 229.875 45.558594 229.808594 45.558594 L 150.554688 45.558594 C 150.488281 45.558594 150.433594 45.515625 150.410156 45.453125 L 149.609375 42.902344 C 149.597656 42.851562 149.605469 42.804688 149.632812 42.769531 Z M 149.632812 42.769531 " fill-opacity="1" fill-rule="nonzero"/></g><g fill="#f8fafb" fill-opacity="1"><g transform="translate(91.976794, 197.473099)"><g/></g></g><g fill="#f8fafb" fill-opacity="1"><g transform="translate(112.150901, 197.473099)"><g><path d="M 5.289062 1.574219 C 6.136719 1.574219 6.5 1.007812 6.742188 0.28125 C 7.671875 -2.339844 6.703125 -6.621094 7.550781 -8.839844 C 8.597656 -9.164062 9.203125 -8.800781 9.890625 -8.597656 C 14.171875 -7.265625 18.207031 -5.410156 22.285156 -3.59375 C 24.144531 -2.785156 26 -2.019531 27.898438 -1.453125 C 29.109375 -1.089844 30.644531 -0.929688 31.128906 -2.582031 C 31.53125 -3.996094 30.398438 -4.683594 29.351562 -5.289062 C 28.625 -5.8125 13.644531 -10.941406 13.324219 -12.113281 C 15.90625 -13.566406 18.492188 -14.9375 20.992188 -16.429688 C 23.859375 -18.167969 28.824219 -21.640625 27.734375 -23.375 C 26.6875 -24.949219 22.890625 -22.367188 20.386719 -21.195312 C 16.472656 -19.460938 12.675781 -17.28125 7.914062 -15.746094 C 7.914062 -19.78125 8.074219 -22.203125 7.589844 -25.394531 C 7.507812 -26.242188 7.144531 -27.128906 6.175781 -27.128906 C 5.046875 -27.171875 4.644531 -26.203125 4.601562 -25.191406 C 4.480469 -22.609375 4.359375 -20.023438 4.28125 -17.441406 C 4.28125 -15.988281 4.238281 -14.898438 2.460938 -14.171875 C 0.605469 -13.363281 0.523438 -11.707031 2.261719 -10.738281 C 3.632812 -9.929688 3.59375 -9.042969 3.59375 -7.871094 C 3.511719 -4.722656 3.472656 -1.855469 3.875 0.203125 C 4.039062 0.886719 4.480469 1.535156 5.289062 1.574219 Z M 5.289062 1.574219 "/></g></g></g><g fill="#f8fafb" fill-opacity="1"><g transform="translate(144.363749, 197.473099)"><g><path d="M 1.9375 1.050781 C 4.238281 1.777344 5.933594 -3.835938 7.105469 -7.023438 C 7.507812 -8.074219 8.15625 -8.476562 9.285156 -8.277344 C 11.707031 -7.832031 14.210938 -7.871094 16.671875 -7.992188 C 18.734375 -8.113281 19.984375 -7.550781 20.550781 -5.410156 C 21.316406 -2.542969 23.941406 0.847656 25.636719 0 C 26.765625 -0.523438 26.445312 -2.300781 26.121094 -3.1875 C 23.820312 -10.539062 16.390625 -25.554688 16.027344 -26.039062 C 14.332031 -27.976562 13.082031 -27.816406 11.910156 -25.394531 C 9.003906 -19.621094 6.582031 -13.605469 3.308594 -7.992188 C 2.058594 -5.894531 1.371094 -3.472656 1.050781 -1.007812 C 0.96875 -0.160156 0.929688 0.765625 1.9375 1.050781 Z M 9.769531 -12.597656 C 11.0625 -15.382812 12.113281 -17.722656 13.484375 -20.75 L 17.078125 -12.597656 Z M 9.769531 -12.597656 "/></g></g></g><g fill="#f8fafb" fill-opacity="1"><g transform="translate(171.772921, 197.473099)"><g><path d="M 2.824219 1.976562 C 5.652344 1.574219 4.804688 -3.675781 4.925781 -6.539062 C 5.207031 -11.910156 5.53125 -17.238281 5.8125 -22.527344 C 7.507812 -22.769531 18.207031 -8.277344 24.101562 -1.128906 C 24.828125 -0.242188 25.554688 0.726562 26.484375 1.453125 C 29.390625 3.714844 30.441406 0.445312 30.5625 -3.066406 C 30.722656 -7.792969 29.550781 -27.332031 29.550781 -27.371094 C 29.429688 -28.21875 29.148438 -29.066406 28.140625 -28.988281 C 27.332031 -28.90625 26.96875 -28.179688 26.929688 -27.453125 C 26.6875 -22.285156 25.515625 -17.199219 26.28125 -11.992188 C 26.644531 -9.808594 26.523438 -7.671875 26.445312 -5.410156 C 25.273438 -5.8125 15.058594 -16.914062 9.730469 -23.902344 C 8.640625 -25.3125 7.386719 -26.523438 5.976562 -27.574219 C 4.5625 -28.664062 3.675781 -28.261719 3.390625 -26.445312 C 3.308594 -25.960938 3.308594 -25.476562 3.308594 -25.03125 C 3.351562 -19.460938 2.582031 -14.007812 1.613281 -8.558594 C 1.171875 -6.136719 1.089844 -3.675781 1.007812 -1.210938 C 0.929688 1.171875 1.574219 2.140625 2.824219 1.976562 Z M 2.824219 1.976562 "/></g></g></g><g fill="#f8fafb" fill-opacity="1"><g transform="translate(203.380257, 197.473099)"><g><path d="M 26 -0.765625 C 28.503906 -1.976562 30.035156 -3.957031 30.15625 -6.824219 C 30.277344 -9.730469 28.824219 -11.75 26.363281 -13.082031 C 23.457031 -14.613281 8.921875 -18.976562 7.550781 -19.984375 C 5.8125 -21.277344 5.613281 -23.171875 6.945312 -24.910156 C 10.214844 -29.148438 18.410156 -28.945312 21.558594 -24.585938 C 22.488281 -23.253906 23.578125 -21.15625 24.628906 -21.558594 C 25.476562 -21.921875 25.394531 -22.730469 25.234375 -23.414062 C 24.585938 -26.605469 22.929688 -29.109375 19.824219 -30.320312 C 15.21875 -32.097656 10.539062 -31.855469 6.136719 -29.59375 C 1.089844 -27.007812 -0.445312 -19.5 5.894531 -15.945312 C 11.910156 -12.636719 17.601562 -13.644531 23.859375 -9.972656 C 26.523438 -8.398438 26.445312 -5.25 23.777344 -3.753906 C 20.429688 -1.65625 10.214844 -1.976562 3.917969 -7.226562 C 3.308594 -7.710938 2.746094 -8.035156 2.019531 -7.75 C 1.210938 -7.429688 1.128906 -6.703125 1.050781 -6.015625 C 0.765625 -3.59375 2.140625 -1.613281 4.886719 -0.847656 C 11.585938 0.886719 20.023438 2.179688 26 -0.765625 Z M 26 -0.765625 "/></g></g></g><g fill="#f8fafb" fill-opacity="1"><g transform="translate(234.543561, 197.473099)"><g><path d="M 1.9375 1.050781 C 4.238281 1.777344 5.933594 -3.835938 7.105469 -7.023438 C 7.507812 -8.074219 8.15625 -8.476562 9.285156 -8.277344 C 11.707031 -7.832031 14.210938 -7.871094 16.671875 -7.992188 C 18.734375 -8.113281 19.984375 -7.550781 20.550781 -5.410156 C 21.316406 -2.542969 23.941406 0.847656 25.636719 0 C 26.765625 -0.523438 26.445312 -2.300781 26.121094 -3.1875 C 23.820312 -10.539062 16.390625 -25.554688 16.027344 -26.039062 C 14.332031 -27.976562 13.082031 -27.816406 11.910156 -25.394531 C 9.003906 -19.621094 6.582031 -13.605469 3.308594 -7.992188 C 2.058594 -5.894531 1.371094 -3.472656 1.050781 -1.007812 C 0.96875 -0.160156 0.929688 0.765625 1.9375 1.050781 Z M 9.769531 -12.597656 C 11.0625 -15.382812 12.113281 -17.722656 13.484375 -20.75 L 17.078125 -12.597656 Z M 9.769531 -12.597656 "/></g></g></g><g fill="#f8fafb" fill-opacity="1"><g transform="translate(261.952733, 197.473099)"><g><path d="M 2.988281 0 C 5.328125 -0.0820312 5.046875 -3.269531 5.046875 -5.289062 L 5.046875 -13.445312 C 5.53125 -18.613281 5.570312 -22.488281 5.410156 -26.363281 C 5.371094 -27.292969 5.410156 -28.21875 4.84375 -29.066406 C 4.359375 -29.875 3.351562 -29.875 2.945312 -28.988281 C 1.574219 -18.328125 1.171875 -13.363281 1.007812 -4.160156 L 1.050781 -2.421875 C 1.128906 -1.171875 1.492188 0.0390625 2.988281 0 Z M 2.988281 0 "/></g></g></g><g fill="#f8fafb" fill-opacity="1"><g transform="translate(268.44378, 197.473099)"><g/></g></g></svg>