<svg xmlns="http://www.w3.org/2000/svg" xmlns:xlink="http://www.w3.org/1999/xlink" width="500" zoomAndPan="magnify" viewBox="0 0 375 225" height="300" preserveAspectRatio="xMidYMid meet" version="1.0"><defs><clipPath id="495de5fbab"><path d="M 156 15.410156 L 295.625 15.410156 L 295.625 155 L 156 155 Z M 156 15.410156 " clip-rule="nonzero"/></clipPath><clipPath id="017e2d8027"><path d="M 79.625 77 L 274 77 L 274 209.660156 L 79.625 209.660156 Z M 79.625 77 " clip-rule="nonzero"/></clipPath></defs><g clip-path="url(#495de5fbab)"><path fill="#ee2549" d="M 225.976562 154.621094 C 264.332031 154.621094 295.621094 123.359375 295.621094 85.03125 C 295.621094 46.699219 264.332031 15.4375 225.96875 15.4375 C 187.613281 15.4375 156.324219 46.699219 156.324219 85.03125 C 156.324219 123.359375 187.613281 154.621094 225.96875 154.621094 Z M 225.976562 154.621094 " fill-opacity="1" fill-rule="evenodd"/></g><g clip-path="url(#017e2d8027)"><path fill="#f8fafb" d="M 252.621094 126.757812 L 252.621094 119.636719 L 237.636719 119.636719 L 237.445312 115.597656 C 236.351562 116.640625 234.984375 117.222656 233.421875 117.550781 L 232.65625 107.328125 L 234.757812 107.328125 L 234.527344 102.425781 L 252.113281 102.425781 L 259.929688 89.765625 C 262.953125 89.421875 265.890625 89.054688 268.722656 88.667969 L 273.421875 77.835938 C 221.066406 84.921875 131.976562 84.921875 79.617188 77.835938 L 84.316406 88.667969 C 87.148438 89.054688 90.085938 89.421875 93.109375 89.765625 L 100.925781 102.425781 L 118.507812 102.425781 L 118.28125 107.328125 L 120.378906 107.328125 L 119.613281 117.550781 C 118.054688 117.222656 116.6875 116.640625 115.589844 115.597656 L 115.402344 119.636719 L 100.417969 119.636719 L 100.417969 126.757812 L 118.925781 126.757812 L 114.527344 185.433594 L 113.503906 185.433594 L 110.878906 209.625 L 130.441406 209.625 L 130.738281 185.433594 L 129.527344 185.433594 L 132.261719 126.757812 L 220.773438 126.757812 L 223.507812 185.433594 L 222.296875 185.433594 L 222.59375 209.625 L 242.15625 209.625 L 239.53125 185.433594 L 238.503906 185.433594 L 234.109375 126.757812 L 252.605469 126.757812 L 252.605469 126.753906 Z M 135.777344 102.425781 L 171.710938 102.425781 L 171.710938 119.636719 L 137.28125 119.636719 L 137.46875 115.597656 C 136.132812 116.761719 134.515625 117.355469 132.691406 117.65625 L 133.175781 107.328125 L 135.550781 107.328125 Z M 217.269531 102.425781 L 217.496094 107.328125 L 219.871094 107.328125 L 220.355469 117.65625 C 218.53125 117.355469 216.914062 116.761719 215.578125 115.597656 L 215.765625 119.636719 L 181.335938 119.636719 L 181.335938 102.425781 Z M 217.269531 102.425781 " fill-opacity="1" fill-rule="evenodd"/></g></svg>