<svg xmlns="http://www.w3.org/2000/svg" xmlns:xlink="http://www.w3.org/1999/xlink" width="500" zoomAndPan="magnify" viewBox="0 0 375 225" height="300" preserveAspectRatio="xMidYMid meet" version="1.0"><defs><clipPath id="f4acec926d"><path d="M 86.890625 11.890625 L 287.890625 11.890625 L 287.890625 212.890625 L 86.890625 212.890625 Z M 86.890625 11.890625 " clip-rule="nonzero"/></clipPath><clipPath id="7563fd346e"><path d="M 86.890625 11.890625 L 287.890625 11.890625 L 287.890625 212.890625 L 86.890625 212.890625 Z M 86.890625 11.890625 " clip-rule="nonzero"/></clipPath></defs><g clip-path="url(#f4acec926d)"><path fill="#ffffff" d="M 271.140625 115.742188 C 269.296875 115.742188 267.792969 114.238281 267.792969 112.390625 L 267.792969 112.050781 C 267.792969 110.21875 269.269531 108.703125 271.140625 108.703125 C 271.179688 108.703125 271.179688 108.703125 271.207031 108.703125 C 273.011719 108.703125 274.492188 110.21875 274.492188 112.023438 L 274.492188 112.390625 C 274.492188 114.238281 272.988281 115.742188 271.140625 115.742188 Z M 271.980469 133.222656 C 271.613281 134.730469 270.238281 135.777344 268.734375 135.777344 C 268.460938 135.777344 268.199219 135.738281 267.921875 135.671875 C 266.15625 135.238281 265.042969 133.433594 265.476562 131.613281 C 265.84375 130.109375 267.230469 129.078125 268.734375 129.078125 C 268.996094 129.078125 269.269531 129.101562 269.53125 129.179688 C 271.035156 129.546875 272.082031 130.921875 272.082031 132.425781 C 272.082031 132.6875 272.042969 132.960938 271.980469 133.222656 Z M 267.832031 88.773438 C 268.09375 88.707031 268.394531 88.667969 268.667969 88.667969 C 270.171875 88.667969 271.507812 89.675781 271.914062 91.21875 C 271.980469 91.492188 272.019531 91.753906 272.019531 91.992188 C 272.019531 93.496094 270.972656 94.910156 269.464844 95.273438 C 269.191406 95.339844 268.902344 95.367188 268.628906 95.367188 C 267.152344 95.367188 265.777344 94.371094 265.382812 92.828125 C 264.9375 91.046875 266.050781 89.214844 267.832031 88.773438 Z M 264.546875 152.867188 C 263.945312 153.992188 262.765625 154.632812 261.5625 154.632812 C 261.050781 154.632812 260.527344 154.542969 260.019531 154.265625 C 258.382812 153.390625 257.742188 151.386719 258.617188 149.738281 C 259.21875 148.601562 260.386719 147.933594 261.5625 147.933594 C 262.097656 147.933594 262.636719 148.0625 263.132812 148.339844 C 264.273438 148.941406 264.9375 150.117188 264.9375 151.28125 C 264.9375 151.820312 264.808594 152.355469 264.546875 152.867188 Z M 259.847656 70.214844 C 260.359375 69.953125 260.894531 69.808594 261.433594 69.808594 C 262.597656 69.808594 263.773438 70.476562 264.375 71.628906 C 264.636719 72.125 264.78125 72.664062 264.78125 73.199219 C 264.78125 74.363281 264.101562 75.542969 262.964844 76.144531 C 262.492188 76.417969 261.929688 76.550781 261.433594 76.550781 C 260.214844 76.550781 259.050781 75.882812 258.449219 74.769531 C 257.570312 73.132812 258.210938 71.078125 259.847656 70.214844 Z M 187.390625 179.390625 C 150.4375 179.390625 120.390625 149.347656 120.390625 112.390625 C 120.390625 75.4375 150.4375 45.390625 187.390625 45.390625 C 224.347656 45.390625 254.390625 75.4375 254.390625 112.390625 C 254.390625 149.347656 224.347656 179.390625 187.390625 179.390625 Z M 252.613281 170.113281 C 251.945312 170.886719 251.042969 171.253906 250.097656 171.253906 C 249.300781 171.253906 248.527344 170.976562 247.886719 170.414062 C 246.488281 169.171875 246.355469 167.066406 247.585938 165.691406 C 248.253906 164.917969 249.195312 164.550781 250.097656 164.550781 C 250.910156 164.550781 251.683594 164.8125 252.3125 165.390625 C 253.082031 166.058594 253.449219 166.960938 253.449219 167.902344 C 253.449219 168.675781 253.1875 169.472656 252.613281 170.113281 Z M 236.910156 184.050781 C 236.332031 184.457031 235.664062 184.652344 235.023438 184.652344 C 233.953125 184.652344 232.917969 184.140625 232.25 183.210938 C 231.214844 181.667969 231.582031 179.589844 233.113281 178.554688 C 233.691406 178.148438 234.355469 177.953125 235.023438 177.953125 C 236.070312 177.953125 237.105469 178.449219 237.773438 179.390625 C 238.179688 179.953125 238.375 180.636719 238.375 181.300781 C 238.375 182.335938 237.839844 183.410156 236.910156 184.050781 Z M 218.339844 193.824219 C 217.972656 193.96875 217.582031 194.0625 217.175781 194.0625 C 215.800781 194.0625 214.53125 193.222656 214.023438 191.890625 C 213.355469 190.148438 214.257812 188.238281 215.972656 187.570312 C 216.363281 187.398438 216.769531 187.335938 217.175781 187.335938 C 218.511719 187.335938 219.78125 188.171875 220.289062 189.507812 C 220.460938 189.914062 220.523438 190.320312 220.523438 190.710938 C 220.523438 192.058594 219.6875 193.328125 218.339844 193.824219 Z M 197.976562 198.851562 C 197.847656 198.851562 197.714844 198.890625 197.574219 198.890625 C 195.898438 198.890625 194.457031 197.648438 194.222656 195.945312 C 194.027344 194.101562 195.335938 192.425781 197.167969 192.230469 C 197.3125 192.191406 197.480469 192.191406 197.613281 192.191406 C 199.246094 192.191406 200.6875 193.433594 200.894531 195.132812 C 200.921875 195.265625 200.921875 195.410156 200.921875 195.578125 C 200.921875 197.214844 199.679688 198.652344 197.976562 198.851562 Z M 180.730469 195.945312 C 180.523438 197.648438 179.082031 198.890625 177.40625 198.890625 L 177 198.890625 C 175.167969 198.652344 173.859375 196.980469 174.058594 195.132812 C 174.292969 193.460938 175.730469 192.191406 177.40625 192.191406 C 177.539062 192.191406 177.644531 192.230469 177.773438 192.230469 C 179.488281 192.453125 180.757812 193.902344 180.757812 195.578125 C 180.757812 195.710938 180.730469 195.800781 180.730469 195.945312 Z M 160.933594 191.953125 C 160.421875 193.289062 159.152344 194.101562 157.777344 194.101562 C 157.371094 194.101562 156.96875 194.035156 156.601562 193.902344 C 154.859375 193.222656 153.996094 191.3125 154.664062 189.574219 C 155.160156 188.238281 156.445312 187.398438 157.777344 187.398438 C 158.183594 187.398438 158.578125 187.464844 158.980469 187.636719 C 160.316406 188.132812 161.128906 189.402344 161.128906 190.777344 C 161.128906 191.183594 161.0625 191.546875 160.933594 191.953125 Z M 142.664062 183.277344 C 141.996094 184.21875 140.960938 184.757812 139.929688 184.757812 C 139.25 184.757812 138.582031 184.546875 138.019531 184.140625 C 136.472656 183.082031 136.109375 181 137.140625 179.496094 C 137.808594 178.554688 138.855469 178.019531 139.929688 178.019531 C 140.558594 178.019531 141.222656 178.214844 141.800781 178.621094 C 142.730469 179.285156 143.277344 180.332031 143.277344 181.40625 C 143.277344 182.035156 143.070312 182.703125 142.664062 183.277344 Z M 127.027344 170.519531 C 126.386719 171.082031 125.585938 171.382812 124.777344 171.382812 C 123.871094 171.382812 122.945312 170.976562 122.261719 170.246094 C 121.058594 168.871094 121.164062 166.765625 122.5625 165.519531 C 123.207031 164.957031 124.015625 164.683594 124.777344 164.683594 C 125.71875 164.683594 126.621094 165.050781 127.289062 165.796875 C 127.863281 166.421875 128.125 167.234375 128.125 168.007812 C 128.125 168.9375 127.757812 169.878906 127.027344 170.519531 Z M 114.871094 154.398438 C 114.359375 154.671875 113.824219 154.804688 113.285156 154.804688 C 112.082031 154.804688 110.90625 154.136719 110.300781 153.023438 C 109.464844 151.386719 110.066406 149.347656 111.714844 148.46875 C 112.214844 148.207031 112.75 148.101562 113.285156 148.101562 C 114.488281 148.101562 115.667969 148.746094 116.242188 149.882812 C 116.503906 150.378906 116.636719 150.917969 116.636719 151.453125 C 116.636719 152.65625 115.96875 153.835938 114.871094 154.398438 Z M 110.171875 72.085938 C 110.746094 70.949219 111.910156 70.28125 113.128906 70.28125 C 113.652344 70.28125 114.164062 70.410156 114.660156 70.6875 C 115.796875 71.289062 116.480469 72.425781 116.480469 73.671875 C 116.480469 74.167969 116.335938 74.703125 116.097656 75.203125 C 115.496094 76.339844 114.332031 76.980469 113.128906 76.980469 C 112.578125 76.980469 112.082031 76.851562 111.585938 76.613281 C 109.9375 75.738281 109.308594 73.734375 110.171875 72.085938 Z M 106.886719 135.839844 C 106.625 135.90625 106.351562 135.945312 106.089844 135.945312 C 104.582031 135.945312 103.210938 134.898438 102.84375 133.394531 C 102.398438 131.589844 103.511719 129.78125 105.277344 129.339844 C 105.550781 129.273438 105.8125 129.246094 106.089844 129.246094 C 107.59375 129.246094 108.96875 130.253906 109.335938 131.785156 C 109.398438 132.058594 109.4375 132.320312 109.4375 132.597656 C 109.4375 134.101562 108.429688 135.476562 106.886719 135.839844 Z M 100.292969 112.5625 C 100.292969 110.714844 101.796875 109.210938 103.640625 109.210938 C 105.488281 109.210938 106.992188 110.714844 106.992188 112.5625 C 106.992188 114.40625 105.511719 115.910156 103.640625 115.910156 C 101.796875 115.910156 100.292969 114.433594 100.292969 112.5625 Z M 102.738281 91.730469 C 103.144531 90.210938 104.519531 89.175781 106.023438 89.175781 C 106.257812 89.175781 106.519531 89.214844 106.796875 89.28125 C 108.328125 89.648438 109.375 91.023438 109.375 92.527344 C 109.375 92.789062 109.335938 93.0625 109.269531 93.324219 C 108.902344 94.84375 107.527344 95.878906 106.023438 95.878906 C 105.75 95.878906 105.488281 95.839844 105.210938 95.773438 C 103.40625 95.339844 102.308594 93.535156 102.738281 91.730469 Z M 122.066406 54.800781 C 122.707031 54.042969 123.636719 53.660156 124.578125 53.660156 C 125.351562 53.660156 126.148438 53.9375 126.789062 54.5 C 127.523438 55.167969 127.929688 56.082031 127.929688 57.011719 C 127.929688 57.824219 127.628906 58.59375 127.089844 59.222656 C 126.425781 59.96875 125.480469 60.363281 124.578125 60.363281 C 123.78125 60.363281 122.96875 60.101562 122.339844 59.523438 C 120.953125 58.292969 120.824219 56.175781 122.066406 54.800781 Z M 137.703125 40.835938 C 138.320312 40.433594 138.949219 40.234375 139.613281 40.234375 C 140.6875 40.234375 141.734375 40.734375 142.363281 41.675781 C 142.769531 42.238281 142.964844 42.917969 142.964844 43.585938 C 142.964844 44.660156 142.46875 45.691406 141.527344 46.332031 C 140.960938 46.726562 140.296875 46.9375 139.613281 46.9375 C 138.582031 46.9375 137.546875 46.425781 136.867188 45.496094 C 135.832031 43.992188 136.199219 41.910156 137.703125 40.835938 Z M 156.273438 31.023438 C 156.679688 30.851562 157.070312 30.789062 157.476562 30.789062 C 158.8125 30.789062 160.09375 31.625 160.589844 32.960938 C 160.761719 33.367188 160.828125 33.769531 160.828125 34.164062 C 160.828125 35.511719 159.988281 36.78125 158.640625 37.292969 C 158.277344 37.421875 157.882812 37.488281 157.476562 37.488281 C 156.101562 37.488281 154.832031 36.675781 154.324219 35.339844 C 153.65625 33.628906 154.53125 31.691406 156.273438 31.023438 Z M 176.636719 25.960938 C 176.777344 25.933594 176.9375 25.933594 177.066406 25.933594 C 178.714844 25.933594 180.15625 27.164062 180.351562 28.878906 C 180.390625 29.007812 180.390625 29.140625 180.390625 29.308594 C 180.390625 30.957031 179.148438 32.398438 177.445312 32.59375 C 177.300781 32.632812 177.171875 32.632812 177.039062 32.632812 C 175.367188 32.632812 173.925781 31.390625 173.71875 29.675781 C 173.496094 27.84375 174.789062 26.167969 176.636719 25.960938 Z M 197.167969 25.855469 C 197.3125 25.855469 197.480469 25.855469 197.613281 25.894531 C 199.3125 26.089844 200.59375 27.53125 200.59375 29.242188 C 200.59375 29.375 200.554688 29.480469 200.554688 29.609375 C 200.359375 31.324219 198.882812 32.554688 197.207031 32.554688 C 197.101562 32.554688 196.96875 32.554688 196.839844 32.527344 C 194.996094 32.332031 193.6875 30.65625 193.894531 28.8125 C 194.089844 27.097656 195.492188 25.855469 197.167969 25.855469 Z M 213.695312 32.789062 C 214.230469 31.457031 215.5 30.617188 216.835938 30.617188 C 217.242188 30.617188 217.605469 30.683594 218.011719 30.8125 C 219.347656 31.351562 220.183594 32.632812 220.183594 33.96875 C 220.183594 34.375 220.121094 34.738281 219.988281 35.144531 C 219.492188 36.480469 218.183594 37.316406 216.835938 37.316406 C 216.429688 37.316406 216.035156 37.253906 215.671875 37.082031 C 213.917969 36.453125 213.054688 34.503906 213.695312 32.789062 Z M 231.976562 41.402344 C 232.617188 40.472656 233.652344 39.933594 234.722656 39.933594 C 235.402344 39.933594 236.03125 40.132812 236.632812 40.535156 C 237.578125 41.164062 238.074219 42.238281 238.074219 43.3125 C 238.074219 43.953125 237.917969 44.621094 237.511719 45.195312 C 236.84375 46.125 235.796875 46.636719 234.722656 46.636719 C 234.09375 46.636719 233.414062 46.464844 232.851562 46.058594 C 231.308594 45.023438 230.941406 42.917969 231.976562 41.402344 Z M 247.652344 54.132812 C 248.292969 53.570312 249.09375 53.296875 249.863281 53.296875 C 250.804688 53.296875 251.710938 53.660156 252.375 54.40625 C 252.953125 55.035156 253.214844 55.847656 253.214844 56.621094 C 253.214844 57.546875 252.847656 58.453125 252.113281 59.132812 C 251.472656 59.695312 250.675781 59.996094 249.863281 59.996094 C 248.960938 59.996094 248.058594 59.589844 247.390625 58.855469 C 246.148438 57.484375 246.292969 55.375 247.652344 54.132812 Z M 187.390625 11.890625 C 131.984375 11.890625 86.890625 56.984375 86.890625 112.390625 C 86.890625 167.796875 131.984375 212.890625 187.390625 212.890625 C 242.796875 212.890625 287.890625 167.796875 287.890625 112.390625 C 287.890625 56.984375 242.796875 11.890625 187.390625 11.890625 " fill-opacity="1" fill-rule="nonzero"/></g><path fill="#ee2549" d="M 217.542969 122.441406 C 219.386719 122.441406 220.890625 123.945312 220.890625 125.792969 C 220.890625 127.636719 219.386719 129.140625 217.542969 129.140625 L 190.742188 129.140625 L 190.742188 165.992188 C 190.742188 167.835938 189.238281 169.339844 187.390625 169.339844 C 185.546875 169.339844 184.042969 167.835938 184.042969 165.992188 L 184.042969 129.140625 L 157.242188 129.140625 C 155.398438 129.140625 153.890625 127.636719 153.890625 125.792969 C 153.890625 123.945312 155.398438 122.441406 157.242188 122.441406 L 184.042969 122.441406 L 184.042969 115.742188 L 157.242188 115.742188 C 155.398438 115.742188 153.890625 114.238281 153.890625 112.390625 C 153.890625 110.546875 155.398438 109.042969 157.242188 109.042969 L 180.691406 109.042969 L 154.558594 74.207031 C 153.460938 72.726562 153.761719 70.621094 155.226562 69.507812 C 156.707031 68.410156 158.8125 68.710938 159.925781 70.175781 L 187.390625 106.804688 L 214.859375 70.175781 C 215.972656 68.710938 218.078125 68.410156 219.558594 69.507812 C 221.023438 70.621094 221.324219 72.726562 220.222656 74.207031 L 194.089844 109.042969 L 217.542969 109.042969 C 219.386719 109.042969 220.890625 110.546875 220.890625 112.390625 C 220.890625 114.238281 219.386719 115.742188 217.542969 115.742188 L 190.742188 115.742188 L 190.742188 122.441406 Z M 187.390625 45.390625 C 150.4375 45.390625 120.390625 75.4375 120.390625 112.390625 C 120.390625 149.347656 150.4375 179.390625 187.390625 179.390625 C 224.347656 179.390625 254.390625 149.347656 254.390625 112.390625 C 254.390625 75.4375 224.347656 45.390625 187.390625 45.390625 " fill-opacity="1" fill-rule="nonzero"/><g clip-path="url(#7563fd346e)"><path fill="#ffffff" d="M 187.390625 206.191406 C 135.664062 206.191406 93.589844 164.121094 93.589844 112.390625 C 93.589844 60.664062 135.664062 18.589844 187.390625 18.589844 C 239.121094 18.589844 281.191406 60.664062 281.191406 112.390625 C 281.191406 164.121094 239.121094 206.191406 187.390625 206.191406 Z M 187.390625 11.890625 C 131.972656 11.890625 86.890625 56.972656 86.890625 112.390625 C 86.890625 167.8125 131.972656 212.890625 187.390625 212.890625 C 242.8125 212.890625 287.890625 167.8125 287.890625 112.390625 C 287.890625 56.972656 242.8125 11.890625 187.390625 11.890625 " fill-opacity="1" fill-rule="nonzero"/></g><path fill="#ffffff" d="M 187.390625 179.390625 C 150.449219 179.390625 120.390625 149.332031 120.390625 112.390625 C 120.390625 75.449219 150.449219 45.390625 187.390625 45.390625 C 224.332031 45.390625 254.390625 75.449219 254.390625 112.390625 C 254.390625 149.332031 224.332031 179.390625 187.390625 179.390625 Z M 187.390625 38.691406 C 146.746094 38.691406 113.691406 71.746094 113.691406 112.390625 C 113.691406 153.035156 146.746094 186.089844 187.390625 186.089844 C 228.035156 186.089844 261.089844 153.035156 261.089844 112.390625 C 261.089844 71.746094 228.035156 38.691406 187.390625 38.691406 " fill-opacity="1" fill-rule="nonzero"/><path fill="#ffffff" d="M 139.613281 46.9375 C 140.296875 46.9375 140.960938 46.726562 141.527344 46.332031 C 143.070312 45.285156 143.4375 43.179688 142.363281 41.675781 C 141.328125 40.171875 139.25 39.765625 137.703125 40.835938 C 136.199219 41.910156 135.832031 43.976562 136.867188 45.496094 C 137.546875 46.425781 138.582031 46.9375 139.613281 46.9375 " fill-opacity="1" fill-rule="nonzero"/><path fill="#ffffff" d="M 157.476562 37.488281 C 157.882812 37.488281 158.277344 37.421875 158.640625 37.277344 C 160.394531 36.609375 161.257812 34.675781 160.589844 32.960938 C 159.925781 31.21875 157.972656 30.355469 156.273438 31.023438 C 154.53125 31.691406 153.65625 33.628906 154.324219 35.339844 C 154.832031 36.675781 156.101562 37.488281 157.476562 37.488281 " fill-opacity="1" fill-rule="nonzero"/><path fill="#ffffff" d="M 124.578125 60.363281 C 125.480469 60.363281 126.425781 59.957031 127.089844 59.222656 C 128.296875 57.847656 128.164062 55.703125 126.789062 54.5 C 125.378906 53.257812 123.269531 53.398438 122.066406 54.800781 C 120.824219 56.175781 120.953125 58.28125 122.328125 59.523438 C 122.96875 60.101562 123.78125 60.363281 124.578125 60.363281 " fill-opacity="1" fill-rule="nonzero"/><path fill="#ffffff" d="M 106.992188 112.5625 C 106.992188 110.714844 105.488281 109.210938 103.640625 109.210938 C 101.796875 109.210938 100.292969 110.714844 100.292969 112.5625 C 100.292969 114.433594 101.796875 115.910156 103.640625 115.910156 C 105.511719 115.910156 106.992188 114.394531 106.992188 112.5625 " fill-opacity="1" fill-rule="nonzero"/><path fill="#ffffff" d="M 105.277344 129.339844 C 103.511719 129.78125 102.398438 131.589844 102.84375 133.394531 C 103.210938 134.898438 104.582031 135.945312 106.089844 135.945312 C 106.351562 135.945312 106.625 135.90625 106.886719 135.839844 C 108.707031 135.410156 109.765625 133.589844 109.335938 131.785156 C 108.902344 129.980469 107.097656 128.90625 105.277344 129.339844 " fill-opacity="1" fill-rule="nonzero"/><path fill="#ffffff" d="M 105.210938 95.773438 C 105.488281 95.839844 105.75 95.878906 106.023438 95.878906 C 107.527344 95.878906 108.902344 94.84375 109.269531 93.324219 C 109.699219 91.519531 108.601562 89.714844 106.796875 89.269531 C 105.015625 88.835938 103.210938 89.949219 102.738281 91.714844 C 102.308594 93.535156 103.40625 95.339844 105.210938 95.773438 " fill-opacity="1" fill-rule="nonzero"/><path fill="#ffffff" d="M 249.863281 59.996094 C 250.675781 59.996094 251.472656 59.695312 252.113281 59.117188 C 253.488281 57.890625 253.621094 55.769531 252.375 54.40625 C 251.144531 53.035156 249.027344 52.890625 247.652344 54.132812 C 246.277344 55.375 246.148438 57.484375 247.390625 58.855469 C 248.058594 59.589844 248.960938 59.996094 249.863281 59.996094 " fill-opacity="1" fill-rule="nonzero"/><path fill="#ffffff" d="M 234.722656 46.636719 C 235.796875 46.636719 236.84375 46.125 237.511719 45.195312 C 238.542969 43.652344 238.140625 41.570312 236.632812 40.535156 C 235.089844 39.488281 233.023438 39.855469 231.976562 41.402344 C 230.941406 42.917969 231.308594 45.023438 232.851562 46.058594 C 233.414062 46.464844 234.09375 46.636719 234.722656 46.636719 " fill-opacity="1" fill-rule="nonzero"/><path fill="#ffffff" d="M 261.417969 76.550781 C 261.929688 76.550781 262.492188 76.417969 262.964844 76.144531 C 264.613281 75.265625 265.238281 73.265625 264.375 71.617188 C 263.5 69.980469 261.496094 69.339844 259.847656 70.214844 C 258.210938 71.078125 257.570312 73.132812 258.449219 74.769531 C 259.050781 75.867188 260.214844 76.550781 261.417969 76.550781 " fill-opacity="1" fill-rule="nonzero"/><path fill="#ffffff" d="M 196.839844 32.527344 C 196.96875 32.554688 197.101562 32.554688 197.207031 32.554688 C 198.882812 32.554688 200.359375 31.324219 200.554688 29.609375 C 200.753906 27.765625 199.445312 26.089844 197.613281 25.894531 C 195.765625 25.65625 194.089844 26.964844 193.894531 28.8125 C 193.6875 30.644531 194.996094 32.320312 196.839844 32.527344 " fill-opacity="1" fill-rule="nonzero"/><path fill="#ffffff" d="M 177.039062 32.632812 C 177.171875 32.632812 177.300781 32.632812 177.445312 32.59375 C 179.277344 32.359375 180.585938 30.683594 180.351562 28.878906 C 180.117188 27.03125 178.480469 25.722656 176.636719 25.960938 C 174.789062 26.167969 173.480469 27.84375 173.71875 29.675781 C 173.925781 31.390625 175.367188 32.632812 177.039062 32.632812 " fill-opacity="1" fill-rule="nonzero"/><path fill="#ffffff" d="M 111.585938 76.613281 C 112.082031 76.851562 112.578125 76.980469 113.117188 76.980469 C 114.332031 76.980469 115.496094 76.339844 116.097656 75.203125 C 116.9375 73.527344 116.308594 71.523438 114.660156 70.6875 C 113.050781 69.808594 111.007812 70.453125 110.171875 72.085938 C 109.308594 73.734375 109.9375 75.738281 111.585938 76.613281 " fill-opacity="1" fill-rule="nonzero"/><path fill="#ffffff" d="M 215.671875 37.082031 C 216.035156 37.253906 216.429688 37.316406 216.835938 37.316406 C 218.183594 37.316406 219.476562 36.480469 219.988281 35.144531 C 220.617188 33.390625 219.753906 31.480469 218.011719 30.8125 C 216.273438 30.1875 214.363281 31.050781 213.679688 32.789062 C 213.054688 34.503906 213.917969 36.441406 215.671875 37.082031 " fill-opacity="1" fill-rule="nonzero"/><path fill="#ffffff" d="M 177.773438 192.214844 C 175.96875 192.019531 174.292969 193.328125 174.058594 195.132812 C 173.859375 196.980469 175.15625 198.652344 177 198.890625 C 177.144531 198.890625 177.277344 198.890625 177.40625 198.890625 C 179.082031 198.890625 180.523438 197.648438 180.730469 195.945312 C 180.925781 194.101562 179.617188 192.453125 177.773438 192.214844 " fill-opacity="1" fill-rule="nonzero"/><path fill="#ffffff" d="M 111.714844 148.46875 C 110.066406 149.347656 109.464844 151.386719 110.300781 153.023438 C 110.90625 154.136719 112.082031 154.804688 113.285156 154.804688 C 113.824219 154.804688 114.359375 154.671875 114.855469 154.398438 C 116.464844 153.558594 117.105469 151.519531 116.242188 149.882812 C 115.40625 148.234375 113.351562 147.632812 111.714844 148.46875 " fill-opacity="1" fill-rule="nonzero"/><path fill="#ffffff" d="M 247.585938 165.691406 C 246.34375 167.066406 246.488281 169.171875 247.886719 170.414062 C 248.527344 170.976562 249.300781 171.253906 250.097656 171.253906 C 251.042969 171.253906 251.945312 170.886719 252.613281 170.113281 C 253.816406 168.738281 253.722656 166.632812 252.3125 165.390625 C 250.9375 164.148438 248.832031 164.277344 247.585938 165.691406 " fill-opacity="1" fill-rule="nonzero"/><path fill="#ffffff" d="M 268.628906 95.367188 C 268.890625 95.367188 269.191406 95.339844 269.464844 95.273438 C 271.246094 94.84375 272.34375 93 271.914062 91.21875 C 271.441406 89.414062 269.636719 88.300781 267.832031 88.773438 C 266.050781 89.203125 264.9375 91.046875 265.382812 92.828125 C 265.777344 94.371094 267.152344 95.367188 268.628906 95.367188 " fill-opacity="1" fill-rule="nonzero"/><path fill="#ffffff" d="M 271.140625 108.703125 C 269.269531 108.703125 267.792969 110.207031 267.792969 112.050781 C 267.792969 112.117188 267.792969 112.15625 267.792969 112.222656 C 267.792969 112.285156 267.792969 112.328125 267.792969 112.390625 C 267.792969 114.238281 269.296875 115.742188 271.140625 115.742188 C 272.988281 115.742188 274.492188 114.238281 274.492188 112.390625 C 274.492188 112.328125 274.492188 112.285156 274.492188 112.222656 C 274.492188 112.15625 274.492188 112.089844 274.492188 112.023438 C 274.492188 110.179688 272.988281 108.675781 271.140625 108.703125 " fill-opacity="1" fill-rule="nonzero"/><path fill="#ffffff" d="M 269.53125 129.179688 C 267.726562 128.734375 265.921875 129.847656 265.476562 131.613281 C 265.042969 133.433594 266.15625 135.238281 267.921875 135.671875 C 268.199219 135.738281 268.460938 135.777344 268.734375 135.777344 C 270.238281 135.777344 271.613281 134.730469 271.980469 133.222656 C 272.410156 131.417969 271.3125 129.613281 269.53125 129.179688 " fill-opacity="1" fill-rule="nonzero"/><path fill="#ffffff" d="M 233.113281 178.554688 C 231.582031 179.589844 231.203125 181.667969 232.25 183.210938 C 232.917969 184.140625 233.953125 184.652344 235.023438 184.652344 C 235.664062 184.652344 236.332031 184.457031 236.910156 184.050781 C 238.441406 183.003906 238.804688 180.898438 237.773438 179.390625 C 236.699219 177.847656 234.617188 177.480469 233.113281 178.554688 " fill-opacity="1" fill-rule="nonzero"/><path fill="#ffffff" d="M 263.132812 148.339844 C 261.496094 147.460938 259.480469 148.101562 258.617188 149.738281 C 257.742188 151.386719 258.382812 153.390625 260.019531 154.265625 C 260.515625 154.527344 261.050781 154.632812 261.5625 154.632812 C 262.765625 154.632812 263.929688 153.992188 264.546875 152.851562 C 265.410156 151.21875 264.769531 149.203125 263.132812 148.339844 " fill-opacity="1" fill-rule="nonzero"/><path fill="#ffffff" d="M 137.140625 179.496094 C 136.109375 181 136.472656 183.070312 138.019531 184.140625 C 138.582031 184.546875 139.25 184.742188 139.914062 184.742188 C 140.960938 184.742188 141.996094 184.21875 142.664062 183.277344 C 143.710938 181.773438 143.332031 179.691406 141.800781 178.621094 C 140.296875 177.585938 138.214844 177.953125 137.140625 179.496094 " fill-opacity="1" fill-rule="nonzero"/><path fill="#ffffff" d="M 215.972656 187.570312 C 214.257812 188.238281 213.355469 190.148438 214.023438 191.890625 C 214.519531 193.222656 215.800781 194.0625 217.175781 194.0625 C 217.582031 194.0625 217.972656 193.96875 218.339844 193.824219 C 220.09375 193.15625 220.957031 191.222656 220.289062 189.507812 C 219.621094 187.765625 217.710938 186.890625 215.972656 187.570312 " fill-opacity="1" fill-rule="nonzero"/><path fill="#ffffff" d="M 158.980469 187.636719 C 157.242188 186.96875 155.292969 187.832031 154.664062 189.574219 C 153.996094 191.3125 154.859375 193.222656 156.601562 193.890625 C 156.96875 194.035156 157.371094 194.101562 157.777344 194.101562 C 159.152344 194.101562 160.421875 193.289062 160.917969 191.953125 C 161.558594 190.214844 160.695312 188.265625 158.980469 187.636719 " fill-opacity="1" fill-rule="nonzero"/><path fill="#ffffff" d="M 122.5625 165.519531 C 121.164062 166.765625 121.058594 168.871094 122.261719 170.246094 C 122.945312 170.976562 123.871094 171.382812 124.777344 171.382812 C 125.585938 171.382812 126.386719 171.082031 127.027344 170.507812 C 128.398438 169.300781 128.53125 167.15625 127.289062 165.796875 C 126.058594 164.421875 123.9375 164.277344 122.5625 165.519531 " fill-opacity="1" fill-rule="nonzero"/><path fill="#ffffff" d="M 197.167969 192.214844 C 195.335938 192.425781 194.027344 194.101562 194.222656 195.945312 C 194.457031 197.648438 195.898438 198.890625 197.574219 198.890625 C 197.703125 198.890625 197.847656 198.851562 197.976562 198.851562 C 199.824219 198.613281 201.117188 196.941406 200.894531 195.132812 C 200.660156 193.289062 199.011719 191.992188 197.167969 192.214844 " fill-opacity="1" fill-rule="nonzero"/><path fill="#ffffff" d="M 217.542969 115.742188 C 219.386719 115.742188 220.890625 114.238281 220.890625 112.390625 C 220.890625 110.546875 219.386719 109.042969 217.542969 109.042969 L 194.089844 109.042969 L 220.222656 74.207031 C 221.335938 72.714844 221.035156 70.621094 219.558594 69.507812 C 218.066406 68.398438 215.972656 68.710938 214.859375 70.175781 L 187.390625 106.804688 L 159.925781 70.175781 C 158.8125 68.710938 156.71875 68.398438 155.226562 69.507812 C 153.746094 70.621094 153.445312 72.714844 154.558594 74.207031 L 180.691406 109.042969 L 157.242188 109.042969 C 155.398438 109.042969 153.890625 110.546875 153.890625 112.390625 C 153.890625 114.238281 155.398438 115.742188 157.242188 115.742188 L 184.042969 115.742188 L 184.042969 122.441406 L 157.242188 122.441406 C 155.398438 122.441406 153.890625 123.945312 153.890625 125.792969 C 153.890625 127.636719 155.398438 129.140625 157.242188 129.140625 L 184.042969 129.140625 L 184.042969 165.992188 C 184.042969 167.835938 185.546875 169.339844 187.390625 169.339844 C 189.238281 169.339844 190.742188 167.835938 190.742188 165.992188 L 190.742188 129.140625 L 217.542969 129.140625 C 219.386719 129.140625 220.890625 127.636719 220.890625 125.792969 C 220.890625 123.945312 219.386719 122.441406 217.542969 122.441406 L 190.742188 122.441406 L 190.742188 115.742188 L 217.542969 115.742188 " fill-opacity="1" fill-rule="nonzero"/></svg>