<svg xmlns="http://www.w3.org/2000/svg" xmlns:xlink="http://www.w3.org/1999/xlink" width="500" zoomAndPan="magnify" viewBox="0 0 375 225" height="300" preserveAspectRatio="xMidYMid meet" version="1.0"><defs><clipPath id="bd63c8c3f5"><path d="M 205 5.136719 L 272.53125 5.136719 L 272.53125 72 L 205 72 Z M 205 5.136719 " clip-rule="nonzero"/></clipPath><clipPath id="1c47d1d8f4"><path d="M 102.28125 180 L 131 180 L 131 219.636719 L 102.28125 219.636719 Z M 102.28125 180 " clip-rule="nonzero"/></clipPath></defs><g clip-path="url(#bd63c8c3f5)"><path fill="#ffffff" d="M 271.75 35.914062 C 271.183594 34.933594 270 35.394531 269.191406 35.730469 C 268.636719 35.960938 268.066406 36.226562 267.453125 36.199219 C 266.722656 36.167969 266.035156 35.160156 265.664062 34.636719 C 265.273438 34.082031 264.9375 33.460938 264.757812 32.804688 C 264.542969 32.011719 264.585938 31.058594 264.585938 30.242188 C 264.585938 29.429688 264.625 28.527344 264.988281 27.78125 C 265.273438 27.195312 265.859375 26.761719 266.324219 26.328125 C 267.1875 25.527344 267.734375 24.621094 267.328125 23.433594 C 266.523438 21.09375 263.265625 22.65625 262.074219 23.71875 C 261.027344 24.652344 260.257812 25.945312 258.878906 26.429688 C 258.132812 26.695312 257.199219 26.710938 256.742188 25.988281 C 256.46875 25.554688 256.203125 25.148438 255.667969 25.035156 C 254.851562 24.863281 254.667969 25.871094 254.492188 26.488281 C 254.019531 26.125 253.476562 25.613281 252.859375 25.671875 C 252.699219 25.683594 252.5625 25.832031 252.441406 25.921875 C 252.070312 26.199219 251.324219 26.171875 250.890625 26.203125 C 250.066406 26.265625 249.363281 26.210938 248.972656 25.402344 C 248.691406 24.820312 248.59375 24.164062 248.320312 23.578125 C 248.054688 23 247.574219 22.699219 247.046875 22.382812 C 246.167969 21.863281 245.222656 21.460938 244.285156 21.0625 C 243.433594 20.703125 242.570312 20.371094 241.753906 19.949219 C 240.851562 19.476562 240.089844 18.761719 239.371094 18.054688 C 238 16.71875 236.839844 15.191406 235.480469 13.84375 C 234.855469 13.230469 234.152344 12.726562 233.476562 12.183594 C 232.757812 11.605469 232.441406 10.722656 232.066406 9.910156 C 231.746094 9.210938 231.246094 8.789062 230.574219 8.4375 C 230.132812 8.203125 229.695312 8.003906 229.300781 7.691406 C 228.890625 7.371094 228.714844 6.886719 228.503906 6.425781 C 228.21875 5.8125 227.84375 5.523438 227.203125 5.367188 C 226.660156 5.230469 225.921875 5.117188 225.40625 5.375 C 225.207031 5.480469 225.070312 5.691406 224.945312 5.921875 C 224.828125 6.046875 224.71875 6.117188 224.523438 6.171875 C 224.433594 6.199219 224.335938 6.222656 224.246094 6.257812 L 223.953125 6.257812 C 223.890625 6.257812 223.832031 6.296875 223.820312 6.355469 C 223.632812 7.128906 223.246094 7.871094 223.148438 8.660156 C 223.023438 9.660156 223.328125 10.664062 223.390625 11.660156 C 223.453125 12.644531 223.066406 13.601562 222.972656 14.578125 C 222.878906 15.5625 223.195312 16.625 223.511719 17.546875 C 223.820312 18.464844 224.304688 19.289062 224.519531 20.238281 C 224.773438 21.355469 224.515625 22.417969 224.378906 23.527344 C 224.238281 24.671875 224.175781 25.820312 224 26.957031 C 223.859375 27.90625 223.441406 28.800781 223.34375 29.777344 C 223.285156 30.347656 223.238281 30.808594 222.925781 31.304688 C 222.730469 31.617188 222.390625 31.851562 222.105469 32.066406 C 221.667969 32.398438 221.222656 32.777344 221.039062 33.316406 C 220.570312 34.722656 221.261719 35.949219 222.039062 37.085938 C 222.476562 37.722656 222.902344 38.355469 223.132812 39.101562 C 223.390625 39.933594 222.671875 40.640625 222.046875 41.035156 C 220.78125 41.820312 218.910156 42.121094 217.566406 41.417969 C 216.304688 40.757812 215.285156 39.109375 213.695312 39.378906 C 212.488281 39.585938 212.109375 41.023438 212.605469 42.015625 C 212.960938 42.71875 213.96875 43.59375 213.496094 44.421875 C 213.140625 45.042969 212.328125 45.214844 211.988281 45.894531 C 211.65625 46.566406 211.6875 47.355469 211.355469 48.035156 C 210.953125 48.863281 210.515625 50.050781 209.394531 49.773438 C 208.28125 49.496094 207.277344 49.296875 206.304688 50.066406 C 205.519531 50.683594 205.246094 51.769531 205.140625 52.707031 C 205.015625 53.8125 205.167969 54.972656 205.484375 56.035156 C 205.921875 57.480469 206.933594 58.582031 208 59.605469 C 208.550781 60.136719 209.109375 60.660156 209.609375 61.242188 C 210.40625 62.164062 210.617188 63.226562 210.4375 64.414062 C 210.207031 65.925781 209.21875 67.304688 209.234375 68.84375 C 209.242188 69.960938 209.957031 70.839844 211.058594 71.023438 C 212.488281 71.265625 213.972656 69.9375 214.875 68.976562 C 215.269531 68.554688 215.355469 67.953125 215.453125 67.410156 C 215.621094 66.472656 216.023438 65.511719 216.316406 64.605469 C 216.433594 64.242188 216.5 63.839844 216.902344 63.691406 C 217.269531 63.554688 217.726562 63.667969 218.09375 63.742188 C 218.769531 63.878906 219.429688 64.054688 220.121094 63.949219 C 221.371094 63.753906 221.199219 62.046875 220.84375 61.207031 C 220.230469 59.765625 218.96875 58.492188 217.71875 57.585938 C 216.5 56.695312 215.085938 56.367188 213.621094 56.253906 C 213.242188 56.222656 212.855469 56.171875 212.519531 55.984375 C 212.117188 55.761719 212.367188 55.195312 212.53125 54.925781 C 212.902344 54.316406 213.59375 53.878906 214.183594 53.503906 C 214.734375 53.15625 215.277344 52.832031 215.941406 52.78125 C 216.871094 52.707031 217.761719 53.261719 218.539062 53.703125 C 219.171875 54.066406 219.816406 54.445312 220.53125 54.621094 C 221.210938 54.785156 221.917969 54.457031 222.496094 54.132812 C 223.25 53.703125 223.882812 53.082031 224.640625 52.660156 C 225.644531 52.101562 226.808594 51.886719 227.941406 51.808594 C 229.714844 51.691406 231.566406 51.917969 233.308594 52.226562 C 235.089844 52.542969 236.851562 53.042969 238.496094 53.796875 C 240.09375 54.53125 241.378906 55.699219 242.777344 56.742188 C 243.851562 57.546875 245.5625 58.871094 247.007812 58.566406 C 248.210938 58.308594 248.855469 56.730469 249.207031 55.714844 C 249.226562 55.652344 249.1875 55.59375 249.140625 55.558594 C 249.015625 55.464844 248.871094 55.394531 248.726562 55.335938 C 249.128906 54.671875 249.578125 54.035156 249.925781 53.34375 C 250.324219 52.542969 250.445312 51.628906 250.683594 50.773438 C 251.148438 49.074219 252.152344 47.390625 253.746094 46.554688 C 254.625 46.09375 255.640625 45.804688 256.550781 45.386719 C 257.328125 45.035156 258.089844 44.652344 258.847656 44.257812 C 259.46875 43.929688 259.554688 43.097656 259.988281 42.601562 C 260.644531 41.84375 261.59375 42.546875 262.359375 42.625 C 264.15625 42.8125 265.164062 41.160156 266.703125 40.582031 C 267.566406 40.257812 268.527344 40.210938 269.425781 40.023438 C 269.984375 39.90625 270.550781 39.394531 270.960938 39.023438 C 271.890625 38.1875 272.421875 37.0625 271.75 35.914062 " fill-opacity="1" fill-rule="nonzero"/></g><path fill="#ffffff" d="M 234.695312 87.976562 C 234.363281 87.609375 233.886719 87.328125 233.828125 86.789062 C 233.777344 86.375 233.832031 85.964844 233.757812 85.546875 C 233.628906 84.808594 233.421875 84.03125 233.007812 83.398438 C 232.527344 82.65625 231.78125 82.050781 231.160156 81.429688 C 230.769531 81.042969 230.453125 80.328125 229.8125 80.410156 C 229.414062 80.464844 229.105469 80.753906 228.6875 80.800781 C 227.929688 80.886719 227.597656 80.238281 227.382812 79.644531 C 227.300781 79.417969 227.167969 79.269531 226.957031 79.167969 C 226.617188 79.007812 226.003906 79.191406 226.117188 78.570312 C 226.179688 78.21875 226.371094 77.894531 226.523438 77.582031 C 226.6875 77.226562 226.769531 76.847656 226.835938 76.46875 C 227.144531 74.664062 226.941406 72.699219 227.574219 70.972656 C 227.867188 70.160156 228.660156 68.277344 227.164062 68.144531 C 226.6875 68.101562 226.210938 68.394531 225.742188 68.445312 C 225.332031 68.492188 224.972656 68.074219 224.605469 67.96875 C 224.273438 67.875 223.949219 67.78125 223.605469 67.726562 C 222.972656 67.617188 221.957031 67.589844 221.960938 68.445312 C 221.96875 69.785156 224.375 69.585938 223.644531 71.140625 C 223.40625 71.636719 223.371094 72.09375 223.4375 72.644531 C 223.523438 73.324219 224.261719 74.78125 223.007812 74.789062 C 222.285156 74.792969 221.558594 74.289062 221.058594 75.019531 C 220.839844 75.332031 220.730469 75.714844 220.53125 76.042969 C 220.03125 76.859375 219.515625 74.953125 219.460938 74.671875 C 219.34375 74.105469 219.179688 73.566406 219.003906 73.011719 C 218.824219 72.441406 219.023438 71.925781 218.554688 71.46875 C 217.925781 70.847656 216.722656 71.371094 215.992188 71.398438 C 215.886719 71.402344 215.847656 71.492188 215.863281 71.570312 C 215.496094 71.796875 215.03125 71.78125 214.636719 71.925781 C 214.355469 72.027344 214.121094 72.203125 213.902344 72.398438 C 213.402344 72.839844 213.464844 73.503906 213.707031 74.0625 C 214.140625 75.066406 214.332031 75.964844 214.253906 77.070312 C 214.21875 77.535156 214.085938 78 214.066406 78.464844 C 214.042969 79.203125 213.671875 79.382812 213 79.316406 C 212.1875 79.230469 211.367188 79.429688 210.601562 79.695312 C 210.191406 79.839844 209.636719 80.128906 209.5 80.589844 C 209.230469 81.484375 210.234375 82.261719 210.808594 82.777344 C 211.164062 83.09375 211.585938 83.402344 211.820312 83.820312 C 212.363281 84.789062 211.789062 86.136719 211.058594 86.875 C 217.769531 93.175781 221.960938 102.128906 221.960938 112.058594 C 221.960938 131.132812 206.503906 146.59375 187.425781 146.59375 C 182.652344 146.59375 178.109375 145.625 173.976562 143.875 C 173.824219 144.210938 173.671875 144.542969 173.5 144.863281 C 172.992188 145.785156 172.355469 146.648438 171.726562 147.484375 C 171.246094 148.117188 170.5625 148.847656 170.273438 149.59375 C 170.164062 149.882812 170.132812 150.121094 170.171875 150.429688 C 170.257812 151.039062 170.90625 151.269531 170.777344 151.996094 C 170.660156 152.660156 169.882812 152.921875 169.316406 152.980469 C 169.140625 153 168.9375 153.035156 168.808594 153.167969 C 168.175781 153.796875 169.402344 155.191406 168.058594 155.332031 C 167.332031 155.410156 166.746094 155.375 166.03125 155.609375 C 165.496094 155.789062 164.984375 155.960938 164.414062 155.828125 C 163.683594 155.664062 163.84375 154.847656 163.921875 154.320312 C 164.039062 153.503906 163.972656 152.144531 162.808594 152.515625 C 161.902344 152.804688 161.105469 153.414062 160.191406 153.707031 C 159.285156 153.996094 158.367188 154.175781 157.511719 154.605469 C 155.675781 155.539062 153.941406 156.648438 151.964844 157.273438 C 151.265625 157.492188 150.535156 157.621094 149.828125 157.816406 C 149.433594 157.921875 149.074219 158.015625 148.714844 158.078125 C 148.746094 157.863281 148.695312 157.605469 148.652344 157.433594 C 148.609375 157.261719 148.347656 157.335938 148.386719 157.507812 C 148.625 158.480469 147.769531 158.027344 147.199219 157.921875 C 146.46875 157.789062 145.714844 157.765625 144.984375 157.886719 C 144.226562 158.015625 143.472656 158.316406 142.824219 158.726562 C 142.425781 158.976562 142.15625 159.320312 141.652344 159.378906 C 141.351562 159.414062 141.035156 159.351562 140.738281 159.257812 C 140.980469 158.957031 141.195312 158.425781 141.042969 158.128906 C 140.796875 157.644531 140.347656 157.617188 139.839844 157.609375 C 138.363281 157.578125 136.652344 157.855469 135.519531 158.882812 C 134.914062 159.4375 134.25 159.964844 133.753906 160.628906 C 133.148438 161.433594 132.71875 162.335938 132.273438 163.238281 C 131.847656 164.097656 131.304688 164.878906 130.78125 165.679688 C 130.179688 166.59375 129.640625 167.53125 128.796875 168.25 C 128.101562 168.84375 127.246094 169.226562 126.53125 169.796875 C 126.128906 170.117188 125.9375 170.535156 125.421875 170.738281 C 125 170.902344 124.410156 170.78125 123.960938 170.796875 C 123.464844 170.8125 122.976562 170.921875 122.652344 171.316406 C 122.296875 171.75 122.382812 172.570312 122.273438 173.085938 C 121.800781 175.324219 119.726562 173.195312 118.550781 173.011719 C 118.117188 172.945312 117.78125 173.183594 117.539062 173.519531 C 117.117188 174.109375 116.84375 175.070312 116.753906 175.78125 C 116.695312 176.242188 116.800781 176.738281 116.867188 177.199219 C 116.945312 177.71875 116.867188 178.300781 117.058594 178.800781 C 117.226562 179.230469 117.75 179.628906 118.242188 179.679688 C 118.511719 179.800781 118.777344 179.890625 119.078125 179.917969 C 119.132812 179.921875 119.167969 179.894531 119.191406 179.859375 C 119.535156 179.945312 119.882812 180.003906 120.210938 179.910156 C 120.816406 179.742188 121.261719 179.238281 121.828125 178.96875 C 122.820312 178.5 124.332031 177.859375 125.492188 178.183594 C 125.183594 178.238281 124.882812 178.320312 124.566406 178.335938 C 124.390625 178.347656 124.390625 178.621094 124.566406 178.609375 C 124.929688 178.59375 125.273438 178.503906 125.628906 178.433594 C 125.734375 178.414062 125.847656 178.398438 125.964844 178.386719 C 126 178.410156 126.039062 178.429688 126.078125 178.457031 C 126.167969 178.519531 126.253906 178.453125 126.269531 178.367188 C 126.578125 178.359375 126.898438 178.371094 127.175781 178.40625 C 127.242188 178.414062 127.28125 178.378906 127.296875 178.335938 C 127.394531 178.335938 127.492188 178.335938 127.585938 178.335938 C 127.6875 178.335938 127.730469 178.253906 127.714844 178.175781 C 128.265625 178.117188 128.679688 177.855469 129.265625 177.964844 C 130.035156 178.105469 130.832031 178.09375 131.503906 177.636719 C 132.015625 177.289062 132.03125 176.613281 132.046875 176.058594 C 132.0625 175.589844 132.273438 175.1875 132.320312 174.734375 C 132.371094 174.210938 132.097656 173.796875 132.054688 173.300781 C 132.199219 173.339844 132.339844 173.363281 132.492188 173.386719 C 132.734375 173.425781 133.0625 173.679688 133.285156 173.800781 C 133.675781 174.015625 134.097656 174.183594 134.496094 174.382812 C 135.261719 174.761719 136.027344 175.003906 136.882812 175.039062 C 138.605469 175.113281 140.40625 174.425781 141.933594 173.695312 C 142.769531 173.292969 143.523438 172.761719 144.328125 172.3125 C 145.339844 171.738281 146.542969 172.042969 147.652344 171.976562 C 148.179688 171.941406 148.839844 171.886719 149.261719 171.535156 C 149.863281 171.039062 149.554688 170.164062 150.214844 169.714844 C 150.847656 169.285156 151.734375 169.78125 152.40625 169.402344 C 152.605469 169.289062 152.714844 169.171875 152.820312 168.964844 C 152.964844 168.695312 152.988281 168.542969 153.28125 168.332031 C 153.523438 168.160156 153.902344 168.160156 154.179688 168.066406 C 154.628906 167.90625 154.847656 167.597656 155.367188 167.535156 C 155.835938 167.476562 156.328125 167.628906 156.789062 167.691406 C 157.914062 167.847656 158.90625 168.035156 159.949219 168.496094 C 160.382812 168.6875 160.820312 168.871094 161.253906 169.058594 C 161.539062 169.183594 161.851562 169.375 162.171875 169.375 C 162.945312 169.382812 163.550781 168.828125 164.339844 168.808594 C 165.898438 168.773438 164.667969 170.785156 164.273438 171.363281 C 163.8125 172.039062 163.277344 172.671875 162.996094 173.449219 C 162.453125 174.949219 163.832031 175.679688 164.191406 176.984375 C 164.394531 177.714844 164.359375 178.457031 164.699219 179.15625 C 165.054688 179.894531 165.652344 180.515625 166.238281 181.074219 C 166.863281 181.667969 167.632812 182.09375 168.257812 182.691406 C 168.617188 183.03125 168.902344 183.679688 169.417969 183.824219 C 169.898438 183.957031 170.402344 183.585938 170.753906 183.3125 C 171.457031 182.761719 172.160156 182.179688 172.710938 181.46875 C 173.203125 180.835938 173.453125 180.054688 173.949219 179.417969 C 174.355469 178.898438 174.636719 178.316406 174.867188 177.699219 C 175.089844 177.089844 175.359375 176.5625 175.101562 175.933594 C 174.757812 175.082031 175.5 175.125 175.90625 174.820312 C 176.230469 174.574219 176.582031 174.363281 176.894531 174.109375 C 177.640625 173.507812 178.386719 172.796875 179.324219 172.511719 C 179.953125 172.324219 180.15625 172.859375 180.4375 173.207031 C 180.621094 173.429688 180.878906 173.472656 181.144531 173.511719 C 181.660156 173.585938 182.078125 173.515625 182.492188 173.195312 C 182.636719 173.089844 182.710938 172.960938 182.730469 172.835938 C 182.765625 172.839844 182.800781 172.847656 182.839844 172.847656 C 183.015625 172.847656 183.015625 172.570312 182.839844 172.570312 C 182.183594 172.570312 183.039062 171.09375 183.078125 170.796875 C 183.171875 170.105469 183.011719 169.476562 182.554688 168.953125 C 182.152344 168.484375 181.523438 168.21875 180.980469 167.960938 C 180.359375 167.667969 179.75 167.34375 179.167969 166.984375 C 178.941406 166.851562 178.742188 166.679688 178.648438 166.425781 C 178.835938 166.238281 179.019531 166.046875 179.207031 165.859375 C 179.3125 165.890625 179.421875 165.925781 179.527344 165.953125 C 179.886719 166.054688 180.253906 166.132812 180.621094 166.195312 C 181.339844 166.320312 182.089844 166.351562 182.789062 166.113281 C 183.078125 166.015625 183.265625 165.761719 183.515625 165.589844 C 183.652344 165.644531 183.785156 165.699219 183.921875 165.757812 C 183.878906 165.796875 183.84375 165.839844 183.808594 165.886719 C 183.726562 166 183.71875 166.019531 183.667969 166.152344 C 183.488281 166.601562 183.664062 167.066406 184.050781 167.316406 C 184.496094 167.605469 185.273438 167.621094 185.78125 167.640625 C 186.039062 167.652344 186.355469 167.589844 186.546875 167.40625 C 187.015625 166.972656 187.285156 166.574219 187.941406 166.363281 C 188.839844 166.078125 190.027344 166.097656 190.925781 166.367188 C 191.738281 166.617188 192.507812 166.824219 193.367188 166.808594 C 194.066406 166.796875 194.589844 166.5 195.121094 166.082031 C 195.898438 165.46875 196.597656 164.769531 197.21875 164.003906 C 197.75 163.355469 198.1875 162.632812 198.523438 161.863281 C 198.671875 161.523438 198.753906 161.15625 198.863281 160.800781 C 199.050781 160.199219 199.449219 159.753906 199.882812 159.3125 C 200.109375 159.082031 200.289062 158.84375 200.464844 158.566406 C 200.898438 157.882812 201.5625 159.773438 201.625 159.949219 C 201.953125 160.851562 201.851562 161.855469 202.304688 162.722656 C 202.910156 163.882812 204.207031 164.265625 205.410156 163.800781 C 205.949219 163.597656 206.308594 163.140625 206.511719 162.617188 C 206.664062 162.238281 206.703125 161.804688 206.777344 161.402344 C 206.871094 160.898438 207.066406 160.429688 207.195312 159.9375 C 207.433594 159.03125 207.421875 158.078125 207.945312 157.273438 C 208.609375 156.246094 209.71875 156.277344 210.742188 155.886719 C 211.457031 155.617188 212.265625 155.53125 212.808594 154.949219 C 213.335938 154.386719 213.414062 153.542969 213.996094 153.011719 C 214.335938 152.699219 214.832031 152.539062 215.285156 152.53125 C 216.105469 152.519531 216.125 153.421875 215.953125 153.976562 C 215.667969 154.882812 214.757812 155.203125 214.292969 155.960938 C 214.097656 156.277344 214.109375 156.675781 214.003906 157.023438 C 213.878906 157.441406 213.59375 157.796875 213.390625 158.171875 C 213.089844 158.730469 213.113281 159.390625 213.453125 159.917969 C 213.6875 160.289062 214.207031 160.582031 214.640625 160.453125 C 214.941406 160.367188 215.230469 160.027344 215.476562 159.859375 C 215.980469 159.507812 216.554688 159.257812 217.125 159.042969 C 217.527344 158.894531 217.898438 158.585938 218.257812 158.34375 C 218.710938 158.039062 219.296875 157.90625 219.722656 157.570312 C 220.425781 157.015625 221.121094 156.425781 221.476562 155.585938 C 221.648438 155.175781 221.617188 154.679688 221.628906 154.246094 C 221.640625 153.800781 221.65625 153.3125 222.082031 153.039062 C 222.28125 152.914062 222.511719 152.828125 222.71875 152.714844 C 223.355469 152.363281 223.898438 151.691406 223.605469 150.945312 C 223.3125 150.210938 222.371094 149.703125 221.851562 149.136719 C 221.175781 148.394531 220.265625 147.976562 219.5 147.339844 C 219.359375 147.21875 219.234375 147.085938 219.117188 146.949219 C 219.03125 146.859375 218.480469 145.796875 218.976562 145.910156 C 219.289062 145.980469 219.585938 146.3125 219.820312 146.507812 C 220.117188 146.757812 220.535156 147.195312 220.96875 147.101562 C 221.023438 147.089844 221.074219 147.027344 221.070312 146.96875 C 221.046875 146.636719 220.945312 146.320312 220.90625 145.988281 C 220.835938 145.316406 221.386719 145.648438 221.617188 145.886719 C 222.117188 146.390625 222.476562 147.054688 222.839844 147.660156 C 223.164062 148.210938 224.058594 150.324219 225.074219 149.761719 C 225.722656 149.398438 225.476562 148.410156 225.371094 147.808594 C 225.167969 146.683594 224.472656 145.683594 223.824219 144.773438 C 223.503906 144.328125 223.144531 143.921875 222.867188 143.453125 C 222.535156 142.894531 222.390625 142.226562 222.238281 141.601562 C 222.039062 140.777344 222.265625 140.050781 222.5 139.269531 C 222.617188 138.882812 222.539062 138.496094 222.53125 138.109375 C 222.554688 138.152344 222.597656 138.183594 222.648438 138.183594 L 222.921875 138.183594 C 223.097656 138.183594 223.097656 137.910156 222.921875 137.910156 L 222.792969 137.910156 C 222.835938 137.042969 223.386719 136.3125 223.644531 135.496094 C 223.835938 134.886719 224.113281 134.574219 224.703125 134.335938 C 225.046875 134.195312 225.316406 133.996094 225.585938 133.742188 C 226.066406 133.289062 226.320312 132.65625 226.351562 132.003906 C 226.414062 130.84375 226.203125 129.742188 226.425781 128.582031 C 226.589844 127.726562 226.710938 126.875 226.785156 126.003906 C 226.867188 125.070312 227.09375 124.226562 226.9375 123.285156 C 226.808594 122.507812 226.410156 121.78125 225.980469 121.128906 C 225.742188 120.765625 225.441406 120.441406 225.21875 120.070312 C 224.894531 119.542969 224.953125 118.847656 225.042969 118.261719 C 225.167969 117.457031 225.441406 116.679688 225.5625 115.871094 C 225.707031 114.917969 225.554688 113.980469 225.625 113.027344 C 225.699219 111.953125 226.390625 111.261719 227.453125 111.578125 C 228.050781 111.757812 228.574219 112.105469 229.175781 112.28125 C 230.273438 112.597656 230.972656 111.644531 231.179688 110.679688 C 231.503906 109.160156 230.707031 107.796875 230.742188 106.316406 C 230.761719 105.492188 231.1875 104.679688 231.277344 103.851562 C 231.324219 103.429688 231.269531 103.023438 231.394531 102.609375 C 231.519531 102.195312 232 102.011719 232.363281 101.867188 C 232.875 101.664062 233.042969 101.5 233.269531 100.980469 C 233.371094 100.734375 233.742188 100.417969 233.660156 100.125 C 234.679688 99.042969 234.730469 97.574219 234.910156 96.128906 C 235.167969 94.097656 235.457031 92.125 235.210938 90.082031 C 235.128906 89.410156 235.183594 88.515625 234.695312 87.976562 " fill-opacity="1" fill-rule="nonzero"/><path fill="#ee2549" d="M 221.960938 112.058594 C 221.960938 102.128906 217.769531 93.175781 211.058594 86.875 C 211.03125 86.90625 211 86.9375 210.972656 86.964844 C 210.296875 87.597656 209.457031 88.144531 208.699219 88.679688 C 208.359375 88.921875 207.417969 89.179688 207.363281 89.679688 C 207.296875 90.261719 207.589844 90.535156 208.035156 90.84375 C 208.570312 91.214844 208.996094 91.636719 209.699219 91.535156 C 210.105469 91.476562 210.558594 91.21875 210.96875 91.277344 C 211.367188 91.335938 211.488281 91.925781 211.5625 92.242188 C 211.800781 93.214844 212.066406 94.230469 212.140625 95.230469 C 212.179688 95.769531 212.246094 96.257812 212.363281 96.789062 C 212.566406 97.714844 212.15625 98.226562 211.660156 98.945312 C 210.894531 100.054688 210.347656 101.296875 210.054688 102.609375 C 209.921875 103.191406 209.851562 103.800781 209.890625 104.394531 C 209.929688 105.019531 210.066406 105.621094 209.925781 106.242188 C 209.769531 106.898438 208.984375 107.472656 208.484375 107.878906 C 208 108.269531 207.46875 108.609375 206.949219 108.949219 C 205.863281 109.125 205.945312 110.550781 205.980469 111.382812 C 206.015625 112.320312 206.414062 113.179688 206.390625 114.136719 C 206.378906 114.636719 206.226562 115.101562 206.015625 115.550781 C 205.773438 116.066406 205.613281 116.605469 205.140625 116.96875 C 204.824219 117.210938 204.394531 117.324219 204.046875 117.519531 C 203.574219 117.785156 203.066406 117.976562 202.566406 118.179688 C 201.828125 118.476562 201.085938 118.796875 200.367188 119.140625 C 198.746094 119.917969 198.972656 121.667969 198.386719 123.140625 C 198.054688 123.964844 197.703125 124.761719 197.414062 125.605469 C 197.074219 126.589844 196.328125 127.300781 195.640625 128.050781 C 195.082031 128.65625 194.722656 129.507812 193.886719 129.769531 C 193.214844 129.980469 192.609375 129.402344 192.027344 129.894531 C 191.75 130.125 191.558594 130.476562 191.320312 130.742188 C 190.96875 131.132812 190.355469 131.355469 189.882812 131.539062 C 189.121094 131.835938 188.375 132.035156 187.765625 132.605469 C 187.144531 133.191406 186.808594 134 186.082031 134.484375 C 185.34375 134.980469 184.386719 135.066406 183.574219 135.386719 C 183.289062 135.503906 183.066406 135.742188 182.824219 135.921875 C 182.257812 136.335938 181.851562 134.863281 181.777344 134.574219 C 181.601562 133.898438 181.144531 133.4375 180.882812 132.8125 C 180.507812 131.925781 182.351562 131.746094 182.847656 131.367188 C 183.375 130.96875 183.824219 130.285156 184.152344 129.714844 C 184.574219 128.976562 184.902344 127.792969 184.070312 127.214844 C 183.347656 126.714844 182.167969 126.988281 181.386719 127.15625 C 180.46875 127.351562 179.28125 127.59375 178.566406 128.242188 C 178.039062 128.71875 178.019531 129.242188 177.988281 129.929688 C 177.945312 130.929688 178.136719 131.90625 178.175781 132.902344 C 178.210938 133.960938 178.058594 135.015625 177.824219 136.046875 C 177.601562 137.039062 177.402344 138.101562 176.914062 139 C 176.886719 139.050781 176.832031 139.128906 176.761719 139.222656 C 176.359375 139.28125 176.117188 139.617188 175.90625 139.957031 C 175.460938 140.679688 175.1875 141.496094 174.757812 142.234375 C 174.457031 142.75 174.222656 143.316406 173.976562 143.875 C 178.109375 145.625 182.652344 146.59375 187.425781 146.59375 C 206.503906 146.59375 221.960938 131.132812 221.960938 112.058594 " fill-opacity="1" fill-rule="nonzero"/><path fill="#ffffff" d="M 158.929688 178.71875 C 158.539062 178.269531 158.316406 177.925781 158.410156 177.277344 C 158.472656 176.839844 158.75 176.476562 159.003906 176.132812 C 159.933594 174.859375 158.429688 174.140625 157.734375 173.21875 C 157.378906 172.738281 157.070312 172.5625 156.476562 172.539062 C 156.125 172.523438 155.773438 172.574219 155.421875 172.574219 C 154.976562 172.574219 154.585938 172.320312 154.179688 172.175781 C 153.519531 171.945312 152.78125 172.21875 152.101562 172.136719 C 151.410156 172.054688 150.652344 171.921875 149.976562 172.148438 C 149.554688 172.289062 149.289062 172.726562 149.042969 173.0625 C 148.578125 173.703125 148.003906 173.570312 147.324219 173.683594 C 146.945312 173.742188 146.570312 173.914062 146.464844 174.320312 C 146.402344 174.574219 146.382812 174.8125 146.394531 175.078125 C 146.425781 175.695312 146.433594 176.03125 145.859375 176.429688 C 145.152344 176.921875 144.324219 177.128906 143.578125 177.53125 C 143.398438 177.632812 143.203125 177.734375 142.996094 177.824219 C 142.757812 177.570312 142.480469 177.703125 142.167969 177.894531 C 141.609375 178.238281 141.132812 177.703125 140.703125 177.414062 C 140.335938 177.167969 139.933594 177 139.511719 176.878906 C 138.257812 176.527344 136.90625 177.222656 136.1875 178.226562 C 135.707031 178.898438 135.683594 179.640625 135.546875 180.421875 C 135.363281 181.503906 134.414062 181.882812 133.527344 182.277344 C 132.976562 182.523438 132.710938 182.871094 132.660156 183.46875 C 132.625 183.910156 132.789062 184.355469 132.347656 184.644531 C 131.894531 184.941406 131.371094 185.0625 130.851562 185.183594 C 129.890625 185.402344 128.976562 185.585938 128.0625 185.964844 C 127.640625 186.140625 127.292969 186.367188 127.386719 186.886719 C 127.5625 187.878906 129.140625 188.964844 129.992188 188.0625 C 130.179688 187.867188 130.222656 187.511719 130.328125 187.277344 C 130.5 186.875 131.257812 187.144531 131.535156 187.230469 C 132.121094 187.414062 131.980469 188.066406 131.980469 188.546875 C 131.980469 188.96875 132.015625 189.378906 132.125 189.789062 C 132.296875 190.464844 133.03125 190.832031 133.269531 191.503906 C 133.445312 192.015625 133.574219 192.546875 133.941406 192.957031 C 134.324219 193.390625 134.878906 193.15625 135.363281 193.136719 C 135.96875 193.113281 136.285156 193.519531 136.242188 194.039062 C 136.214844 194.332031 136.277344 194.585938 136.410156 194.84375 C 136.914062 195.804688 138.570312 195.660156 139.460938 195.683594 C 140.355469 195.707031 141.796875 195.246094 141.226562 194.054688 C 141.042969 193.667969 140.800781 193.328125 140.765625 192.890625 C 140.726562 192.367188 140.957031 191.84375 141.210938 191.410156 C 141.71875 190.539062 142.40625 189.925781 143.117188 189.238281 C 143.707031 188.675781 143.546875 187.804688 143.917969 187.136719 C 144.15625 186.710938 144.644531 186.441406 145.046875 186.203125 C 145.574219 185.894531 146.121094 185.53125 146.738281 185.460938 C 147.699219 185.34375 148.65625 185.160156 149.621094 185.0625 C 150.703125 184.953125 151.84375 184.664062 152.847656 185.257812 C 153.460938 185.621094 154.472656 187.652344 155.4375 186.878906 C 155.785156 186.597656 155.886719 186.140625 155.941406 185.714844 C 156.058594 184.835938 156.066406 183.992188 156.488281 183.191406 C 156.894531 182.429688 157.671875 182.160156 158.328125 181.671875 C 158.804688 181.316406 159.160156 180.769531 159.34375 180.210938 C 159.519531 179.667969 159.28125 179.125 158.929688 178.71875 " fill-opacity="1" fill-rule="nonzero"/><g clip-path="url(#1c47d1d8f4)"><path fill="#ffffff" d="M 129.878906 192.394531 C 129.640625 191.988281 129.234375 191.707031 128.890625 191.402344 C 128.417969 190.984375 128.117188 190.371094 127.683594 189.910156 C 126.996094 189.175781 125.726562 188.964844 124.808594 188.707031 C 124.550781 188.636719 124.308594 188.515625 124.054688 188.433594 C 124.054688 188.433594 123.011719 188.199219 123.371094 188.011719 C 123.722656 187.828125 124.101562 187.722656 124.394531 187.445312 C 124.851562 187.003906 124.628906 185.78125 124.398438 185.285156 C 124.027344 184.480469 123.414062 184.222656 122.605469 183.984375 C 121.96875 183.792969 121.34375 183.582031 120.753906 183.273438 C 120.511719 183.148438 120.25 183.066406 120.007812 182.9375 C 119.707031 182.78125 119.453125 182.46875 119.203125 182.238281 C 118.8125 181.878906 118.339844 181.671875 117.867188 181.445312 C 117.492188 181.269531 117.214844 180.886719 116.828125 180.746094 C 116.359375 180.578125 115.820312 180.707031 115.332031 180.753906 C 115.296875 180.757812 115.257812 180.761719 115.21875 180.765625 C 115.214844 180.746094 115.207031 180.730469 115.195312 180.710938 C 114.671875 180.058594 113.082031 180.816406 112.46875 181.011719 C 111.390625 181.351562 111.992188 182.785156 111.988281 183.582031 C 111.988281 184.125 111.734375 184.550781 111.117188 184.40625 C 110.761719 184.320312 110.480469 183.933594 110.234375 183.683594 C 109.824219 183.269531 109.355469 183.058594 108.769531 183.140625 C 108.292969 183.203125 108 183.652344 107.882812 184.074219 C 107.722656 184.640625 108.058594 185.191406 108.171875 185.734375 C 108.222656 185.960938 108.222656 186.199219 108.125 186.417969 C 107.789062 187.171875 107.429688 186.472656 107.316406 186.289062 C 107.25 186.179688 107.101562 185.980469 106.964844 185.960938 C 106.222656 185.859375 105.957031 186.433594 105.546875 186.949219 C 105.046875 187.574219 104.4375 188.097656 104.039062 188.796875 C 103.71875 189.363281 103.160156 190.0625 103.285156 190.765625 C 103.601562 192.542969 106.582031 192.226562 106.042969 194.371094 C 105.816406 195.257812 105.175781 194.589844 104.90625 194.207031 C 104.714844 193.933594 104.488281 193.699219 104.238281 193.480469 C 103.953125 193.226562 103.308594 192.632812 102.859375 192.820312 C 102.398438 193.015625 102.425781 193.425781 102.453125 193.867188 C 102.507812 194.800781 102.785156 195.664062 103.003906 196.566406 C 103.277344 197.695312 103.734375 199.355469 104.984375 199.835938 C 105.34375 199.976562 105.570312 199.847656 105.710938 199.5 C 105.824219 199.226562 105.84375 198.886719 105.933594 198.597656 C 106.101562 198.066406 106.65625 197.722656 107.023438 197.328125 C 107.410156 196.910156 107.816406 196.78125 108.359375 196.691406 C 108.8125 196.609375 109.21875 196.453125 109.386719 197.011719 C 109.554688 197.574219 109.910156 197.804688 110.480469 197.84375 C 111.667969 197.925781 111.765625 195.789062 111.4375 195.085938 C 111.089844 194.320312 110.519531 193.730469 109.980469 193.101562 C 109.742188 192.824219 109.519531 192.527344 109.316406 192.234375 C 109.191406 192.054688 109.101562 191.867188 109.027344 191.664062 C 108.808594 191.027344 109.457031 190.648438 109.980469 190.929688 C 111.621094 191.796875 111.496094 194.011719 112.675781 195.21875 C 113.1875 195.738281 113.09375 196.214844 113.035156 196.871094 C 113.015625 197.089844 113 197.335938 113.105469 197.539062 C 113.269531 197.84375 113.523438 198.082031 113.703125 198.371094 C 114.042969 198.910156 113.90625 199.597656 113.730469 200.160156 C 113.472656 200.96875 112.898438 201.984375 112.300781 202.59375 C 112.042969 202.859375 111.679688 202.996094 111.421875 203.265625 C 111.160156 203.539062 111.023438 204.015625 110.875 204.351562 C 110.132812 206.050781 110.648438 207.988281 111.007812 209.71875 C 111.234375 210.796875 111.363281 211.851562 111.382812 212.949219 C 111.394531 213.449219 111.4375 213.976562 111.300781 214.460938 C 111.179688 214.875 110.957031 215.238281 110.863281 215.664062 C 110.773438 216.0625 110.839844 216.683594 111.109375 217.015625 C 111.429688 217.414062 111.949219 217.5 112.421875 217.621094 C 113.621094 217.921875 114.953125 218.765625 115.878906 217.46875 C 116.535156 216.550781 116.644531 215.292969 115.992188 214.34375 C 115.460938 213.574219 115.214844 212.914062 115.234375 211.964844 C 115.238281 211.707031 115.285156 211.449219 115.339844 211.199219 C 115.460938 210.65625 116.023438 209.984375 116.375 210.941406 C 116.503906 211.292969 116.410156 211.753906 116.390625 212.117188 C 116.375 212.457031 116.4375 212.796875 116.5 213.128906 C 116.703125 214.191406 117.097656 215.191406 117.230469 216.273438 C 117.3125 216.945312 117.136719 217.582031 117.085938 218.238281 C 117.054688 218.617188 117.027344 219.105469 117.292969 219.40625 C 117.464844 219.601562 117.855469 219.453125 118 219.296875 C 118.183594 219.097656 118.3125 218.867188 118.441406 218.632812 C 118.730469 218.097656 119.253906 217.878906 119.808594 217.710938 C 120.339844 217.550781 121.03125 217.476562 121.46875 217.101562 C 121.632812 216.960938 121.71875 216.796875 121.746094 216.582031 C 121.808594 216.070312 121.84375 215.578125 121.996094 215.082031 C 122.34375 213.921875 123.519531 214.988281 124.222656 214.660156 C 124.75 214.414062 125 213.898438 125.210938 213.386719 C 125.863281 211.800781 125.742188 210.078125 125.960938 208.402344 C 126.09375 207.382812 126.007812 206.316406 126.269531 205.316406 C 126.542969 204.289062 126.980469 203.308594 127.367188 202.320312 C 127.691406 201.484375 127.992188 200.613281 128.109375 199.71875 C 128.261719 198.578125 128.105469 197.355469 128.628906 196.292969 C 129 195.542969 129.648438 194.945312 130.074219 194.222656 C 130.417969 193.648438 130.183594 192.917969 129.878906 192.394531 " fill-opacity="1" fill-rule="nonzero"/></g></svg>