<svg xmlns="http://www.w3.org/2000/svg" xmlns:xlink="http://www.w3.org/1999/xlink" width="500" zoomAndPan="magnify" viewBox="0 0 375 225" height="300" preserveAspectRatio="xMidYMid meet" version="1.0"><path fill="#ee2549" d="M 254.839844 44.828125 C 255.941406 45.933594 257.019531 47.0625 258.070312 48.222656 C 259.117188 49.378906 260.136719 50.5625 261.128906 51.769531 C 262.121094 52.976562 263.082031 54.207031 264.011719 55.460938 C 264.941406 56.71875 265.84375 57.996094 266.710938 59.292969 C 267.578125 60.59375 268.414062 61.910156 269.21875 63.25 C 270.019531 64.589844 270.789062 65.949219 271.527344 67.328125 C 272.261719 68.707031 272.964844 70.101562 273.632812 71.515625 C 274.300781 72.925781 274.933594 74.355469 275.53125 75.796875 C 276.128906 77.242188 276.691406 78.699219 277.21875 80.167969 C 277.746094 81.640625 278.234375 83.121094 278.6875 84.617188 C 279.140625 86.113281 279.558594 87.617188 279.9375 89.132812 C 280.316406 90.648438 280.660156 92.171875 280.964844 93.707031 C 281.269531 95.238281 281.535156 96.777344 281.765625 98.320312 C 281.996094 99.867188 282.1875 101.417969 282.339844 102.972656 C 282.492188 104.527344 282.609375 106.085938 282.683594 107.644531 C 282.761719 109.207031 282.800781 110.765625 282.800781 112.328125 C 282.800781 113.890625 282.761719 115.453125 282.683594 117.011719 C 282.609375 118.574219 282.492188 120.132812 282.339844 121.6875 C 282.1875 123.242188 281.996094 124.789062 281.765625 126.335938 C 281.539062 127.882812 281.269531 129.421875 280.964844 130.953125 C 280.660156 132.484375 280.320312 134.007812 279.9375 135.523438 C 279.558594 137.039062 279.144531 138.546875 278.691406 140.039062 C 278.234375 141.535156 277.746094 143.019531 277.21875 144.488281 C 276.695312 145.960938 276.132812 147.417969 275.535156 148.859375 C 274.9375 150.304688 274.304688 151.730469 273.636719 153.144531 C 272.96875 154.558594 272.265625 155.953125 271.527344 157.328125 C 270.792969 158.707031 270.023438 160.066406 269.21875 161.40625 C 268.414062 162.746094 267.582031 164.066406 266.710938 165.367188 C 265.84375 166.664062 264.945312 167.941406 264.015625 169.195312 C 263.082031 170.453125 262.121094 171.683594 261.132812 172.890625 C 260.140625 174.097656 259.121094 175.28125 258.070312 176.4375 C 257.023438 177.597656 255.945312 178.726562 254.839844 179.832031 C 253.734375 180.9375 252.605469 182.011719 251.445312 183.0625 C 250.289062 184.113281 249.105469 185.132812 247.898438 186.125 C 246.691406 187.113281 245.460938 188.074219 244.207031 189.007812 C 242.949219 189.9375 241.671875 190.835938 240.375 191.703125 C 239.074219 192.570312 237.757812 193.40625 236.417969 194.210938 C 235.078125 195.015625 233.71875 195.785156 232.339844 196.519531 C 230.960938 197.257812 229.566406 197.960938 228.152344 198.628906 C 226.742188 199.296875 225.3125 199.929688 223.871094 200.527344 C 222.425781 201.125 220.96875 201.6875 219.5 202.210938 C 218.027344 202.738281 216.546875 203.230469 215.050781 203.683594 C 213.554688 204.136719 212.050781 204.550781 210.535156 204.933594 C 209.019531 205.3125 207.496094 205.652344 205.960938 205.957031 C 204.429688 206.261719 202.890625 206.53125 201.347656 206.761719 C 199.800781 206.988281 198.25 207.179688 196.695312 207.332031 C 195.140625 207.488281 193.582031 207.601562 192.023438 207.679688 C 190.460938 207.753906 188.902344 207.792969 187.339844 207.792969 C 185.777344 207.792969 184.214844 207.753906 182.65625 207.679688 C 181.09375 207.601562 179.535156 207.488281 177.980469 207.332031 C 176.425781 207.179688 174.878906 206.988281 173.332031 206.761719 C 171.785156 206.53125 170.246094 206.265625 168.714844 205.960938 C 167.183594 205.65625 165.660156 205.3125 164.144531 204.933594 C 162.628906 204.554688 161.121094 204.136719 159.628906 203.683594 C 158.132812 203.230469 156.648438 202.738281 155.179688 202.214844 C 153.707031 201.6875 152.25 201.125 150.808594 200.527344 C 149.363281 199.929688 147.9375 199.296875 146.523438 198.628906 C 145.109375 197.960938 143.714844 197.257812 142.339844 196.523438 C 140.960938 195.785156 139.601562 195.015625 138.261719 194.210938 C 136.921875 193.410156 135.601562 192.574219 134.300781 191.707031 C 133.003906 190.839844 131.726562 189.9375 130.472656 189.007812 C 129.214844 188.078125 127.984375 187.117188 126.777344 186.125 C 125.570312 185.132812 124.386719 184.113281 123.230469 183.066406 C 122.070312 182.015625 120.941406 180.9375 119.835938 179.835938 C 118.730469 178.730469 117.65625 177.597656 116.605469 176.441406 C 115.554688 175.28125 114.535156 174.101562 113.542969 172.894531 C 112.554688 171.683594 111.59375 170.453125 110.660156 169.199219 C 109.730469 167.945312 108.832031 166.667969 107.964844 165.367188 C 107.097656 164.070312 106.261719 162.75 105.457031 161.410156 C 104.652344 160.070312 103.882812 158.710938 103.148438 157.332031 C 102.410156 155.957031 101.707031 154.558594 101.039062 153.148438 C 100.371094 151.734375 99.738281 150.308594 99.140625 148.863281 C 98.542969 147.421875 97.980469 145.964844 97.457031 144.492188 C 96.929688 143.023438 96.4375 141.539062 95.984375 140.042969 C 95.53125 138.546875 95.117188 137.042969 94.734375 135.527344 C 94.355469 134.011719 94.015625 132.488281 93.710938 130.957031 C 93.40625 129.425781 93.136719 127.886719 92.90625 126.339844 C 92.679688 124.792969 92.488281 123.246094 92.335938 121.6875 C 92.179688 120.132812 92.066406 118.578125 91.988281 117.015625 C 91.914062 115.457031 91.875 113.894531 91.875 112.332031 C 91.875 110.769531 91.914062 109.207031 91.988281 107.648438 C 92.066406 106.085938 92.179688 104.53125 92.335938 102.976562 C 92.488281 101.421875 92.679688 99.871094 92.90625 98.324219 C 93.136719 96.78125 93.402344 95.242188 93.707031 93.707031 C 94.011719 92.175781 94.355469 90.652344 94.734375 89.136719 C 95.113281 87.621094 95.53125 86.117188 95.984375 84.621094 C 96.4375 83.125 96.929688 81.644531 97.453125 80.171875 C 97.980469 78.699219 98.542969 77.242188 99.140625 75.800781 C 99.738281 74.355469 100.371094 72.929688 101.039062 71.515625 C 101.707031 70.105469 102.410156 68.710938 103.144531 67.332031 C 103.882812 65.953125 104.652344 64.59375 105.457031 63.253906 C 106.257812 61.914062 107.09375 60.59375 107.960938 59.296875 C 108.828125 57.996094 109.730469 56.71875 110.660156 55.464844 C 111.589844 54.210938 112.550781 52.980469 113.542969 51.769531 C 114.535156 50.5625 115.554688 49.378906 116.601562 48.222656 C 117.652344 47.066406 118.730469 45.933594 119.832031 44.828125 C 120.9375 43.726562 122.070312 42.648438 123.226562 41.597656 C 124.386719 40.550781 125.566406 39.53125 126.773438 38.539062 C 127.984375 37.546875 129.214844 36.585938 130.46875 35.65625 C 131.722656 34.726562 133 33.824219 134.300781 32.957031 C 135.597656 32.089844 136.917969 31.253906 138.257812 30.449219 C 139.597656 29.648438 140.957031 28.878906 142.335938 28.140625 C 143.710938 27.40625 145.109375 26.703125 146.519531 26.035156 C 147.933594 25.367188 149.359375 24.734375 150.804688 24.136719 C 152.246094 23.539062 153.703125 22.976562 155.175781 22.449219 C 156.644531 21.921875 158.128906 21.433594 159.625 20.980469 C 161.121094 20.527344 162.625 20.109375 164.140625 19.730469 C 165.65625 19.351562 167.179688 19.007812 168.710938 18.703125 C 170.242188 18.398438 171.78125 18.132812 173.328125 17.902344 C 174.875 17.671875 176.425781 17.480469 177.980469 17.328125 C 179.535156 17.175781 181.089844 17.058594 182.652344 16.984375 C 184.210938 16.90625 185.773438 16.867188 187.335938 16.867188 C 188.898438 16.867188 190.460938 16.90625 192.019531 16.984375 C 193.582031 17.058594 195.136719 17.175781 196.691406 17.328125 C 198.246094 17.480469 199.796875 17.671875 201.34375 17.902344 C 202.886719 18.128906 204.425781 18.398438 205.960938 18.703125 C 207.492188 19.007812 209.015625 19.347656 210.53125 19.730469 C 212.046875 20.109375 213.550781 20.523438 215.046875 20.976562 C 216.542969 21.433594 218.023438 21.921875 219.496094 22.449219 C 220.96875 22.972656 222.425781 23.535156 223.867188 24.132812 C 225.3125 24.730469 226.738281 25.363281 228.152344 26.03125 C 229.5625 26.699219 230.957031 27.402344 232.335938 28.140625 C 233.714844 28.875 235.074219 29.644531 236.414062 30.449219 C 237.753906 31.253906 239.074219 32.085938 240.371094 32.957031 C 241.671875 33.824219 242.949219 34.722656 244.203125 35.652344 C 245.457031 36.585938 246.6875 37.546875 247.898438 38.535156 C 249.105469 39.527344 250.289062 40.546875 251.445312 41.597656 C 252.601562 42.644531 253.734375 43.722656 254.839844 44.828125 Z M 254.839844 44.828125 " fill-opacity="1" fill-rule="nonzero"/><path fill="#ffffff" d="M 187.996094 106.972656 C 187.996094 106.972656 187.992188 106.972656 187.996094 106.972656 C 187.628906 107.324219 187.046875 107.324219 186.683594 106.96875 C 186.449219 106.742188 186.207031 106.515625 185.972656 106.289062 C 183.546875 108.632812 181.097656 111.003906 178.621094 113.421875 C 178.839844 113.636719 179.0625 113.855469 179.28125 114.070312 C 179.652344 114.433594 179.660156 115.035156 179.292969 115.410156 C 182.230469 112.542969 185.132812 109.734375 187.996094 106.972656 Z M 169.707031 124.863281 C 172.949219 121.625 176.140625 118.484375 179.292969 115.40625 C 179.28125 115.417969 179.273438 115.425781 179.261719 115.4375 C 179.082031 115.605469 178.847656 115.691406 178.617188 115.691406 C 178.375 115.691406 178.132812 115.601562 177.953125 115.421875 C 177.71875 115.195312 177.488281 114.96875 177.257812 114.742188 C 164.40625 102.105469 154.074219 91.128906 146.539062 82.105469 C 135.992188 69.472656 130.851562 60.683594 130.824219 55.242188 C 130.816406 53.472656 131.355469 52.035156 132.417969 50.96875 C 132.601562 50.785156 132.855469 50.6875 133.113281 50.691406 C 133.371094 50.699219 133.617188 50.808594 133.792969 51 C 150.75 69.753906 165.902344 84.335938 181.945312 99.773438 C 183.734375 101.496094 185.53125 103.222656 187.339844 104.964844 C 187.558594 105.175781 187.777344 105.386719 187.996094 105.597656 C 188.371094 105.957031 188.378906 106.558594 188.019531 106.9375 C 190.050781 104.980469 192.0625 103.042969 194.0625 101.121094 C 209.878906 85.898438 224.835938 71.511719 241.515625 53.125 C 241.828125 53.722656 241.972656 54.445312 241.960938 55.308594 C 241.855469 61.757812 233.226562 74.3125 216.328125 92.617188 C 209.621094 99.878906 202.414062 107.183594 195.402344 114.058594 C 195.386719 114.074219 195.367188 114.089844 195.347656 114.105469 C 195.339844 114.113281 195.332031 114.121094 195.328125 114.128906 C 188.769531 120.558594 182.386719 126.609375 176.746094 131.902344 Z M 178.621094 113.417969 C 140.757812 76.203125 132.753906 61.234375 132.722656 55.234375 C 132.71875 54.410156 132.859375 53.707031 133.164062 53.128906 C 149.847656 71.519531 164.8125 85.914062 180.636719 101.140625 C 182.410156 102.847656 184.1875 104.558594 185.976562 106.285156 C 183.546875 108.628906 181.097656 111.003906 178.621094 113.417969 Z M 178.621094 113.417969 " fill-opacity="1" fill-rule="evenodd"/><path fill="#ffffff" d="M 207.675781 142.644531 L 215.761719 134.558594 C 215.390625 134.925781 215.390625 135.527344 215.761719 135.898438 L 216.429688 136.566406 L 243.769531 163.902344 C 245.632812 165.769531 245.632812 168.808594 243.769531 170.675781 C 242.867188 171.574219 241.664062 172.070312 240.382812 172.070312 C 239.097656 172.070312 237.898438 171.574219 237 170.675781 L 208.988281 142.664062 C 208.625 142.308594 208.046875 142.300781 207.675781 142.644531 Z M 214.796875 127.964844 L 201.058594 141.707031 C 200.976562 141.785156 200.902344 141.871094 200.835938 141.960938 C 200.828125 141.96875 200.824219 141.976562 200.816406 141.984375 C 200.023438 143.03125 200.105469 144.53125 201.058594 145.484375 C 201.5625 145.984375 202.230469 146.261719 202.945312 146.261719 C 203.667969 146.261719 204.335938 145.988281 204.839844 145.484375 L 207.628906 142.695312 C 207.285156 143.070312 207.292969 143.648438 207.65625 144.007812 L 235.667969 172.019531 C 236.921875 173.277344 238.601562 173.96875 240.390625 173.96875 C 242.183594 173.96875 243.859375 173.277344 245.117188 172.019531 C 246.375 170.757812 247.070312 169.082031 247.066406 167.292969 C 247.066406 165.503906 246.375 163.824219 245.117188 162.566406 L 217.777344 135.230469 L 217.109375 134.5625 C 216.742188 134.191406 216.140625 134.191406 215.769531 134.5625 L 218.582031 131.75 C 219.625 130.707031 219.625 129.011719 218.582031 127.96875 C 218.0625 127.449219 217.378906 127.191406 216.691406 127.191406 C 216.132812 127.191406 215.570312 127.367188 215.101562 127.714844 C 215.082031 127.730469 215.0625 127.746094 215.042969 127.765625 C 214.949219 127.820312 214.871094 127.890625 214.796875 127.964844 Z M 214.796875 127.964844 " fill-opacity="1" fill-rule="evenodd"/><path fill="#f8fafb" d="M 198.652344 133.875 Z M 204.976562 124.863281 L 208.675781 121.164062 C 209.027344 120.8125 209.660156 120.8125 210.015625 121.164062 L 214.628906 125.773438 C 214.207031 125.988281 213.808594 126.273438 213.457031 126.621094 L 199.71875 140.359375 C 199.363281 140.714844 199.082031 141.109375 198.871094 141.53125 L 194.257812 136.921875 C 193.890625 136.550781 193.890625 135.949219 194.257812 135.578125 L 196.59375 133.246094 Z M 204.976562 124.863281 " fill-opacity="1" fill-rule="evenodd"/><path fill="#ee2549" d="M 176.726562 134.175781 C 176.472656 134.175781 176.222656 134.074219 176.035156 133.878906 C 175.675781 133.496094 175.695312 132.894531 176.078125 132.535156 C 187.855469 121.492188 203.074219 106.976562 216.328125 92.625 C 233.230469 74.320312 241.855469 61.765625 241.960938 55.316406 C 241.972656 54.453125 241.828125 53.726562 241.515625 53.132812 C 224.835938 71.519531 209.878906 85.910156 194.0625 101.128906 C 186.015625 108.871094 177.695312 116.878906 169.035156 125.539062 C 168.664062 125.910156 168.0625 125.910156 167.691406 125.539062 C 167.324219 125.171875 167.324219 124.570312 167.691406 124.199219 C 176.367188 115.523438 184.695312 107.515625 192.75 99.765625 C 208.785156 84.332031 223.9375 69.757812 240.890625 51.007812 C 241.0625 50.816406 241.3125 50.703125 241.570312 50.699219 C 241.835938 50.695312 242.082031 50.792969 242.261719 50.976562 C 243.347656 52.0625 243.886719 53.535156 243.855469 55.351562 C 243.746094 62.378906 235.191406 74.996094 217.71875 93.917969 C 204.425781 108.3125 189.175781 122.863281 177.375 133.929688 C 177.191406 134.089844 176.957031 134.175781 176.726562 134.175781 Z M 176.726562 134.175781 " fill-opacity="1" fill-rule="evenodd"/><path fill="#ee2549" d="M 174.609375 142.34375 C 174.367188 142.34375 174.125 142.253906 173.941406 142.066406 C 173.570312 141.695312 173.570312 141.097656 173.941406 140.726562 L 178.414062 136.257812 L 165.335938 123.175781 L 160.863281 127.648438 C 160.496094 128.019531 159.894531 128.019531 159.523438 127.648438 C 159.152344 127.277344 159.152344 126.679688 159.523438 126.308594 L 164.667969 121.164062 C 165.019531 120.8125 165.652344 120.8125 166.007812 121.164062 L 180.421875 135.582031 C 180.792969 135.953125 180.792969 136.554688 180.421875 136.925781 L 175.277344 142.066406 C 175.09375 142.253906 174.851562 142.34375 174.609375 142.34375 Z M 174.609375 142.34375 " fill-opacity="1" fill-rule="evenodd"/><path fill="#ee2549" d="M 156.105469 131.746094 L 169.84375 145.484375 C 170.351562 145.984375 171.019531 146.261719 171.734375 146.261719 C 172.449219 146.261719 173.117188 145.988281 173.625 145.484375 C 174.660156 144.441406 174.660156 142.746094 173.625 141.707031 L 159.886719 127.964844 C 158.84375 126.925781 157.148438 126.925781 156.105469 127.964844 C 155.0625 129.007812 155.0625 130.703125 156.105469 131.746094 Z M 171.734375 148.160156 C 170.507812 148.160156 169.363281 147.6875 168.5 146.828125 L 154.761719 133.089844 C 152.980469 131.308594 152.980469 128.410156 154.761719 126.628906 C 156.542969 124.847656 159.445312 124.847656 161.222656 126.628906 L 174.960938 140.367188 C 176.742188 142.152344 176.742188 145.046875 174.960938 146.828125 C 174.105469 147.6875 172.960938 148.160156 171.734375 148.160156 Z M 171.734375 148.160156 " fill-opacity="1" fill-rule="evenodd"/><path fill="#ee2549" d="M 134.296875 173.972656 C 132.507812 173.972656 130.828125 173.28125 129.570312 172.023438 C 126.964844 169.414062 126.964844 165.171875 129.570312 162.566406 L 157.582031 134.558594 C 157.953125 134.1875 158.550781 134.1875 158.921875 134.558594 C 159.292969 134.925781 159.292969 135.527344 158.921875 135.898438 L 130.914062 163.90625 C 129.046875 165.773438 129.046875 168.8125 130.914062 170.679688 C 131.816406 171.578125 133.015625 172.074219 134.296875 172.074219 C 135.582031 172.074219 136.78125 171.578125 137.683594 170.679688 L 165.691406 142.667969 C 166.0625 142.296875 166.664062 142.296875 167.03125 142.667969 C 167.402344 143.039062 167.402344 143.636719 167.03125 144.007812 L 139.023438 172.019531 C 137.765625 173.28125 136.085938 173.972656 134.296875 173.972656 Z M 134.296875 173.972656 " fill-opacity="1" fill-rule="evenodd"/><path fill="#ee2549" d="M 178.617188 115.691406 C 178.375 115.691406 178.136719 115.601562 177.953125 115.421875 C 164.777344 102.5 154.210938 91.289062 146.539062 82.105469 C 135.992188 69.472656 130.851562 60.683594 130.824219 55.242188 C 130.816406 53.472656 131.355469 52.035156 132.417969 50.96875 C 132.601562 50.785156 132.855469 50.6875 133.113281 50.691406 C 133.371094 50.699219 133.617188 50.808594 133.792969 51 C 150.75 69.753906 165.902344 84.335938 181.945312 99.773438 C 183.953125 101.707031 185.964844 103.644531 187.996094 105.601562 C 188.371094 105.960938 188.378906 106.5625 188.019531 106.941406 C 187.65625 107.320312 187.054688 107.328125 186.679688 106.964844 C 184.648438 105.007812 182.636719 103.070312 180.632812 101.140625 C 164.808594 85.914062 149.84375 71.519531 133.160156 53.128906 C 132.859375 53.707031 132.714844 54.40625 132.722656 55.234375 C 132.753906 61.269531 140.851562 76.378906 179.28125 114.070312 C 179.652344 114.433594 179.660156 115.035156 179.292969 115.410156 C 179.109375 115.597656 178.859375 115.691406 178.617188 115.691406 Z M 206.316406 125.816406 C 206.074219 125.816406 205.832031 125.722656 205.648438 125.535156 C 202.953125 122.84375 200.261719 120.21875 197.652344 117.679688 C 196.890625 116.933594 196.125 116.191406 195.367188 115.449219 C 194.992188 115.082031 194.984375 114.484375 195.347656 114.109375 C 195.71875 113.734375 196.316406 113.726562 196.691406 114.09375 C 197.449219 114.832031 198.210938 115.578125 198.976562 116.320312 C 201.585938 118.863281 204.285156 121.492188 206.988281 124.191406 C 207.359375 124.5625 207.359375 125.164062 206.988281 125.53125 C 206.800781 125.71875 206.558594 125.816406 206.316406 125.816406 Z M 197.953125 134.175781 C 198.207031 134.175781 198.460938 134.074219 198.648438 133.878906 C 199.003906 133.496094 198.984375 132.894531 198.601562 132.535156 C 196.125 130.214844 192.332031 126.644531 187.996094 122.5 C 187.617188 122.140625 187.015625 122.152344 186.65625 122.527344 C 186.292969 122.90625 186.308594 123.507812 186.683594 123.871094 C 191.023438 128.023438 194.820312 131.59375 197.300781 133.921875 C 197.488281 134.089844 197.722656 134.175781 197.953125 134.175781 Z M 197.953125 134.175781 " fill-opacity="1" fill-rule="evenodd"/><path fill="#ee2549" d="M 200.070312 142.34375 C 199.828125 142.34375 199.585938 142.253906 199.398438 142.066406 L 194.253906 136.925781 C 193.886719 136.554688 193.886719 135.953125 194.253906 135.582031 L 208.675781 121.164062 C 209.027344 120.8125 209.660156 120.8125 210.015625 121.164062 L 215.15625 126.308594 C 215.527344 126.679688 215.527344 127.277344 215.15625 127.648438 C 214.789062 128.019531 214.183594 128.019531 213.816406 127.648438 L 209.347656 123.175781 L 196.269531 136.257812 L 200.738281 140.726562 C 201.109375 141.097656 201.109375 141.695312 200.738281 142.066406 C 200.554688 142.253906 200.3125 142.34375 200.070312 142.34375 Z M 200.070312 142.34375 " fill-opacity="1" fill-rule="evenodd"/><path fill="#ee2549" d="M 219.246094 132.417969 Z M 216.683594 127.1875 C 216 127.1875 215.316406 127.445312 214.796875 127.964844 L 201.058594 141.707031 C 200.019531 142.746094 200.019531 144.441406 201.058594 145.484375 C 201.5625 145.984375 202.230469 146.261719 202.945312 146.261719 C 203.667969 146.261719 204.335938 145.988281 204.839844 145.484375 L 218.578125 131.746094 C 219.621094 130.703125 219.621094 129.007812 218.578125 127.964844 C 218.054688 127.445312 217.371094 127.1875 216.683594 127.1875 Z M 202.945312 148.160156 C 201.726562 148.160156 200.578125 147.6875 199.71875 146.828125 C 197.933594 145.046875 197.933594 142.152344 199.71875 140.367188 L 213.457031 126.628906 C 215.238281 124.847656 218.132812 124.847656 219.914062 126.628906 C 221.695312 128.410156 221.695312 131.308594 219.914062 133.089844 L 206.175781 146.828125 C 205.316406 147.6875 204.167969 148.160156 202.945312 148.160156 Z M 202.945312 148.160156 " fill-opacity="1" fill-rule="evenodd"/><path fill="#ee2549" d="M 240.382812 173.972656 C 238.59375 173.972656 236.914062 173.28125 235.660156 172.023438 L 207.648438 144.011719 C 207.277344 143.640625 207.277344 143.042969 207.648438 142.671875 C 208.019531 142.300781 208.617188 142.300781 208.988281 142.671875 L 237 170.683594 C 237.898438 171.582031 239.097656 172.078125 240.382812 172.078125 C 241.664062 172.078125 242.871094 171.582031 243.769531 170.683594 C 245.632812 168.816406 245.632812 165.777344 243.769531 163.914062 L 215.761719 135.902344 C 215.390625 135.53125 215.390625 134.929688 215.761719 134.5625 C 216.132812 134.191406 216.734375 134.191406 217.101562 134.5625 L 245.113281 162.570312 C 246.371094 163.828125 247.0625 165.507812 247.0625 167.296875 C 247.0625 169.085938 246.371094 170.765625 245.113281 172.023438 C 243.851562 173.28125 242.171875 173.972656 240.382812 173.972656 Z M 240.382812 173.972656 " fill-opacity="1" fill-rule="evenodd"/><path fill="#ffffff" d="M 178.621094 113.417969 C 181.097656 111 183.546875 108.628906 185.972656 106.285156 C 184.183594 104.558594 182.40625 102.847656 180.632812 101.140625 C 164.808594 85.914062 149.84375 71.519531 133.160156 53.128906 C 132.859375 53.707031 132.714844 54.40625 132.71875 55.234375 C 132.75 61.234375 140.757812 76.203125 178.621094 113.417969 Z M 178.621094 113.417969 " fill-opacity="1" fill-rule="evenodd"/><path fill="#ffffff" d="M 196.03125 116.101562 C 193.550781 118.523438 191.101562 120.890625 188.710938 123.179688 C 192.378906 126.683594 195.617188 129.734375 197.929688 131.910156 L 204.972656 124.867188 C 202.503906 122.410156 200.039062 120.011719 197.648438 117.683594 C 197.113281 117.152344 196.570312 116.625 196.03125 116.101562 Z M 196.03125 116.101562 " fill-opacity="1" fill-rule="evenodd"/><path fill="#ffffff" d="M 216.429688 136.570312 L 209.660156 143.339844 L 237 170.679688 C 237.898438 171.578125 239.097656 172.074219 240.382812 172.074219 C 241.664062 172.074219 242.871094 171.578125 243.769531 170.679688 C 245.632812 168.8125 245.632812 165.773438 243.769531 163.90625 Z M 216.429688 136.570312 " fill-opacity="1" fill-rule="evenodd"/><path fill="#ffffff" d="M 137.683594 170.683594 L 165.019531 143.34375 L 158.25 136.574219 L 130.914062 163.914062 C 129.046875 165.777344 129.046875 168.816406 130.914062 170.683594 C 131.816406 171.582031 133.015625 172.078125 134.296875 172.078125 C 135.582031 172.074219 136.78125 171.582031 137.683594 170.683594 Z M 137.683594 170.683594 " fill-opacity="1" fill-rule="evenodd"/><path fill="#ffffff" d="M 156.105469 131.746094 Z M 158.917969 134.558594 L 167.015625 142.65625 C 167.019531 142.660156 167.023438 142.664062 167.027344 142.667969 C 167.03125 142.671875 167.035156 142.675781 167.039062 142.679688 L 169.839844 145.480469 C 170.347656 145.980469 171.015625 146.257812 171.730469 146.257812 C 172.445312 146.257812 173.113281 145.984375 173.621094 145.480469 C 174.570312 144.527344 174.648438 143.03125 173.867188 141.984375 C 173.859375 141.972656 173.847656 141.960938 173.839844 141.949219 C 173.769531 141.859375 173.699219 141.777344 173.621094 141.695312 L 159.882812 127.957031 C 159.796875 127.875 159.714844 127.804688 159.625 127.730469 C 159.621094 127.726562 159.613281 127.722656 159.609375 127.71875 C 158.566406 126.925781 157.0625 127.003906 156.105469 127.957031 C 155.0625 129 155.0625 130.695312 156.105469 131.738281 Z M 158.917969 134.558594 " fill-opacity="1" fill-rule="evenodd"/><path fill="#f8fafb" d="M 161.554688 126.957031 L 174.632812 140.035156 L 178.414062 136.257812 L 176.085938 133.929688 C 176.066406 133.914062 176.050781 133.894531 176.035156 133.878906 C 176.03125 133.875 176.027344 133.871094 176.027344 133.867188 L 167.703125 125.546875 C 167.699219 125.542969 167.695312 125.539062 167.695312 125.539062 C 167.691406 125.535156 167.691406 125.535156 167.6875 125.53125 L 165.339844 123.179688 Z M 161.554688 126.957031 " fill-opacity="1" fill-rule="evenodd"/></svg>