<svg xmlns="http://www.w3.org/2000/svg" xmlns:xlink="http://www.w3.org/1999/xlink" width="500" zoomAndPan="magnify" viewBox="0 0 375 225" height="300" preserveAspectRatio="xMidYMid meet" version="1.0"><defs><g/><clipPath id="18a3d358db"><path d="M 279 38 L 296.621094 38 L 296.621094 54.570312 L 279 54.570312 Z M 279 38 " clip-rule="nonzero"/></clipPath><clipPath id="1b63d9e84f"><path d="M 279 38 L 296.621094 38 L 296.621094 53 L 279 53 Z M 279 38 " clip-rule="nonzero"/></clipPath><clipPath id="9897b60dde"><path d="M 278.621094 38 L 296.621094 38 L 296.621094 54.570312 L 278.621094 54.570312 Z M 278.621094 38 " clip-rule="nonzero"/></clipPath><clipPath id="4c1e6edee1"><path d="M 118.035156 153 L 256.785156 153 L 256.785156 204.714844 L 118.035156 204.714844 Z M 118.035156 153 " clip-rule="nonzero"/></clipPath><clipPath id="2392cdef18"><path d="M 146 65.214844 L 229 65.214844 L 229 105 L 146 105 Z M 146 65.214844 " clip-rule="nonzero"/></clipPath></defs><g fill="#0097b2" fill-opacity="1"><g transform="translate(91.548206, 98.802082)"><g/></g></g><g fill="#0097b2" fill-opacity="1"><g transform="translate(107.482771, 85.248793)"><g><path d="M 6.308594 -1.113281 C 7.1875 -1.554688 7.269531 -2.328125 7.144531 -3.210938 C 6.746094 -6.417969 3.515625 -10.355469 3.242188 -13.101562 C 4.164062 -13.980469 4.980469 -13.917969 5.796875 -14.066406 C 10.933594 -14.90625 16.085938 -15.078125 21.261719 -15.308594 C 23.609375 -15.4375 25.9375 -15.605469 28.199219 -16.003906 C 29.644531 -16.257812 31.324219 -16.886719 30.964844 -18.855469 C 30.648438 -20.535156 29.121094 -20.660156 27.714844 -20.742188 C 26.6875 -20.910156 8.476562 -18.445312 7.535156 -19.496094 C 9.460938 -22.34375 11.429688 -25.113281 13.25 -27.964844 C 15.324219 -31.253906 18.675781 -37.441406 16.640625 -38.675781 C 14.734375 -39.765625 12.136719 -35.109375 10.148438 -32.59375 C 6.984375 -28.757812 4.179688 -24.523438 0.03125 -20.453125 C -2.066406 -24.644531 -3.15625 -27.242188 -5.316406 -30.300781 C -5.84375 -31.140625 -6.679688 -31.871094 -7.6875 -31.367188 C -8.882812 -30.824219 -8.796875 -29.609375 -8.3125 -28.539062 C -7.097656 -25.792969 -5.878906 -23.050781 -4.621094 -20.324219 C -3.867188 -18.816406 -3.339844 -17.664062 -4.808594 -15.988281 C -6.316406 -14.183594 -5.539062 -12.425781 -3.234375 -12.320312 C -1.390625 -12.195312 -0.96875 -11.253906 -0.363281 -10.039062 C 1.191406 -6.726562 2.636719 -3.730469 4.128906 -1.804688 C 4.652344 -1.175781 5.449219 -0.738281 6.308594 -1.113281 Z M 6.308594 -1.113281 "/></g></g></g><g fill="#0097b2" fill-opacity="1"><g transform="translate(138.270631, 69.812844)"><g><path d="M 2.476562 0.644531 C 5.269531 0.828125 5.625 -5.96875 6.0625 -9.886719 C 6.226562 -11.183594 6.84375 -11.816406 8.171875 -11.902344 C 11.027344 -12.074219 13.835938 -12.8125 16.578125 -13.632812 C 18.867188 -14.339844 20.433594 -14.050781 21.664062 -11.792969 C 23.320312 -8.777344 27.21875 -5.679688 28.894531 -7.105469 C 30.023438 -8.011719 29.167969 -9.925781 28.558594 -10.835938 C 23.925781 -18.480469 11.390625 -33.347656 10.847656 -33.792969 C 8.398438 -35.507812 7.03125 -34.980469 6.386719 -31.925781 C 4.707031 -24.613281 3.644531 -17.160156 1.515625 -9.929688 C 0.6875 -7.214844 0.585938 -4.292969 0.902344 -1.429688 C 1.046875 -0.449219 1.257812 0.605469 2.476562 0.644531 Z M 7.519531 -16.90625 C 8.203125 -20.402344 8.738281 -23.335938 9.445312 -27.128906 L 15.757812 -18.933594 Z M 7.519531 -16.90625 "/></g></g></g><g fill="#0097b2" fill-opacity="1"><g transform="translate(166.247518, 62.327899)"><g><path d="M 3.328125 2.230469 C 6.597656 1.695312 5.488281 -4.378906 5.5625 -7.707031 C 5.761719 -13.945312 6.011719 -20.136719 6.214844 -26.28125 C 8.175781 -26.601562 20.933594 -10.035156 27.945312 -1.882812 C 28.808594 -0.867188 29.675781 0.238281 30.769531 1.058594 C 34.195312 3.613281 35.335938 -0.203125 35.394531 -4.285156 C 35.46875 -9.769531 33.648438 -32.417969 33.648438 -32.464844 C 33.488281 -33.445312 33.140625 -34.421875 31.96875 -34.304688 C 31.035156 -34.191406 30.628906 -33.339844 30.601562 -32.496094 C 30.441406 -26.492188 29.203125 -20.5625 30.21875 -14.535156 C 30.691406 -12.015625 30.601562 -9.53125 30.558594 -6.902344 C 29.191406 -7.34375 17.074219 -19.988281 10.726562 -27.964844 C 9.425781 -29.582031 7.945312 -30.957031 6.28125 -32.140625 C 4.617188 -33.371094 3.59375 -32.882812 3.308594 -30.769531 C 3.226562 -30.203125 3.238281 -29.640625 3.25 -29.125 C 3.429688 -22.660156 2.667969 -16.320312 1.671875 -9.972656 C 1.214844 -7.148438 1.179688 -4.289062 1.144531 -1.429688 C 1.105469 1.335938 1.878906 2.445312 3.328125 2.230469 Z M 3.328125 2.230469 "/></g></g></g><g fill="#0097b2" fill-opacity="1"><g transform="translate(199.867359, 61.312277)"><g><path d="M 29.675781 5.550781 C 32.816406 4.796875 35.042969 2.929688 35.890625 -0.289062 C 36.746094 -3.558594 35.59375 -6.203125 33.128906 -8.324219 C 30.214844 -10.78125 14.804688 -19.316406 13.5 -20.800781 C 11.847656 -22.695312 12.089844 -24.898438 14.027344 -26.535156 C 18.785156 -30.535156 28.027344 -28.285156 30.523438 -22.5625 C 31.246094 -20.820312 31.964844 -18.171875 33.253906 -18.367188 C 34.308594 -18.570312 34.414062 -19.507812 34.402344 -20.324219 C 34.457031 -24.101562 33.199219 -27.351562 29.972656 -29.492188 C 25.191406 -32.644531 19.816406 -33.523438 14.269531 -32.046875 C 7.90625 -30.363281 4.3125 -22.226562 10.625 -16.628906 C 16.628906 -11.390625 23.335938 -11.128906 29.523438 -5.417969 C 32.15625 -2.972656 31.289062 0.578125 27.898438 1.613281 C 23.578125 3.167969 12.074219 0.277344 6.226562 -7.230469 C 5.660156 -7.929688 5.097656 -8.433594 4.203125 -8.292969 C 3.207031 -8.125 2.9375 -7.320312 2.675781 -6.5625 C 1.757812 -3.886719 2.824219 -1.304688 5.75 0.246094 C 12.921875 3.867188 22.171875 7.417969 29.675781 5.550781 Z M 29.675781 5.550781 "/></g></g></g><g fill="#0097b2" fill-opacity="1"><g transform="translate(232.398398, 68.315592)"><g><path d="M 1.53125 2.050781 C 3.597656 3.9375 8.121094 -1.144531 10.910156 -3.933594 C 11.847656 -4.84375 12.722656 -4.953125 13.816406 -4.191406 C 16.152344 -2.542969 18.808594 -1.363281 21.460938 -0.289062 C 23.6875 0.585938 24.730469 1.792969 24.285156 4.320312 C 23.695312 7.714844 24.804688 12.566406 27.003906 12.5 C 28.453125 12.5 28.976562 10.46875 29.070312 9.375 C 30.230469 0.515625 29.726562 -18.925781 29.582031 -19.613281 C 28.738281 -22.484375 27.34375 -22.921875 24.925781 -20.941406 C 19.050781 -16.277344 13.566406 -11.121094 7.386719 -6.804688 C 5.042969 -5.203125 3.140625 -2.988281 1.597656 -0.550781 C 1.097656 0.300781 0.605469 1.261719 1.53125 2.050781 Z M 16.433594 -8.503906 C 19.152344 -10.808594 21.398438 -12.765625 24.320312 -15.285156 L 24.128906 -4.941406 Z M 16.433594 -8.503906 "/></g></g></g><g fill="#0097b2" fill-opacity="1"><g transform="translate(259.386409, 81.532463)"><g><path d="M 2.9375 1.84375 C 5.289062 3.207031 6.980469 -0.101562 8.226562 -2.085938 L 13.253906 -10.105469 C 16.921875 -14.886719 19.351562 -18.671875 21.582031 -22.582031 C 22.117188 -23.519531 22.730469 -24.410156 22.695312 -25.589844 C 22.71875 -26.683594 21.726562 -27.308594 20.78125 -26.683594 C 12.855469 -17.050781 9.394531 -12.417969 3.558594 -3.464844 L 2.527344 -1.734375 C 1.832031 -0.453125 1.445312 0.960938 2.9375 1.84375 Z M 2.9375 1.84375 "/></g></g></g><g fill="#0097b2" fill-opacity="1"><g transform="translate(264.883236, 84.434895)"><g/></g></g><g clip-path="url(#18a3d358db)"><path fill="#ffffff" d="M 296.117188 45.894531 C 296.113281 46.300781 296.09375 46.710938 296.039062 47.117188 C 296 47.386719 295.921875 47.644531 295.847656 47.90625 C 295.742188 48.277344 295.617188 48.644531 295.449219 48.996094 C 295.347656 49.210938 295.265625 49.4375 295.160156 49.648438 C 294.828125 50.296875 294.4375 50.914062 293.949219 51.464844 C 293.652344 51.800781 293.324219 52.097656 292.949219 52.347656 C 292.394531 52.71875 291.835938 53.078125 291.234375 53.375 C 290.894531 53.539062 290.539062 53.664062 290.175781 53.777344 C 289.75 53.910156 289.324219 54.046875 288.894531 54.171875 C 288.640625 54.246094 288.378906 54.273438 288.113281 54.300781 C 287.835938 54.332031 287.554688 54.355469 287.277344 54.378906 C 287.1875 54.382812 287.09375 54.378906 287.003906 54.378906 C 286.820312 54.371094 286.640625 54.363281 286.457031 54.355469 C 286.261719 54.351562 286.078125 54.292969 285.886719 54.253906 C 285.40625 54.152344 284.941406 53.980469 284.46875 53.84375 C 284.070312 53.726562 283.683594 53.582031 283.316406 53.390625 C 282.730469 53.09375 282.195312 52.730469 281.691406 52.316406 C 281.414062 52.089844 281.144531 51.855469 280.933594 51.570312 C 280.816406 51.410156 280.714844 51.242188 280.597656 51.085938 C 280.222656 50.605469 279.957031 50.066406 279.730469 49.507812 C 279.621094 49.238281 279.507812 48.96875 279.410156 48.695312 C 279.277344 48.316406 279.203125 47.925781 279.15625 47.53125 C 279.101562 47.03125 279.109375 46.53125 279.136719 46.027344 C 279.15625 45.714844 279.183594 45.402344 279.246094 45.09375 C 279.34375 44.617188 279.507812 44.160156 279.707031 43.714844 C 280.167969 42.6875 280.8125 41.785156 281.605469 40.980469 C 281.796875 40.785156 282 40.605469 282.1875 40.410156 C 282.339844 40.253906 282.476562 40.082031 282.632812 39.925781 C 283.070312 39.480469 283.53125 39.0625 284.0625 38.726562 C 284.433594 38.488281 284.832031 38.304688 285.253906 38.171875 C 285.5625 38.074219 285.855469 38.101562 286.140625 38.261719 C 286.269531 38.332031 286.410156 38.386719 286.546875 38.445312 C 286.636719 38.484375 286.730469 38.476562 286.824219 38.460938 C 287.152344 38.414062 287.480469 38.40625 287.808594 38.417969 C 288.089844 38.433594 288.367188 38.449219 288.648438 38.46875 C 289.054688 38.503906 289.449219 38.585938 289.835938 38.726562 C 290.125 38.832031 290.425781 38.914062 290.71875 39.011719 C 291.125 39.148438 291.511719 39.324219 291.890625 39.519531 C 292.0625 39.605469 292.238281 39.65625 292.429688 39.671875 C 292.742188 39.699219 293.027344 39.808594 293.289062 39.980469 C 293.964844 40.417969 294.453125 41.007812 294.808594 41.707031 C 294.953125 41.984375 295.078125 42.269531 295.183594 42.566406 C 295.234375 42.707031 295.3125 42.835938 295.378906 42.972656 C 295.496094 43.21875 295.632812 43.460938 295.722656 43.71875 C 295.851562 44.09375 295.953125 44.480469 296.054688 44.867188 C 296.109375 45.074219 296.113281 45.292969 296.117188 45.507812 C 296.121094 45.636719 296.117188 45.765625 296.117188 45.894531 Z M 296.117188 45.894531 " fill-opacity="1" fill-rule="nonzero"/></g><g clip-path="url(#1b63d9e84f)"><path fill="#e5503d" d="M 288.15625 38.535156 C 285.742188 38.1875 282.667969 39.554688 280.242188 42.648438 C 278.808594 44.484375 278.625 48.246094 280.386719 49.089844 C 281.316406 49.507812 282.125 47.390625 283.867188 49.382812 C 284.636719 50.816406 284.570312 52.042969 286.503906 52.082031 C 287.789062 52.058594 288.574219 50.605469 289.085938 49.355469 C 289.597656 48.105469 290.046875 47.453125 291.148438 47.269531 C 292.25 47.082031 292.40625 47.054688 293.964844 48.96875 C 295.054688 49.527344 295.886719 47.910156 295.886719 47.910156 C 295.886719 47.910156 296.621094 45.234375 295.523438 43.269531 C 293.910156 40.640625 292.40625 39.148438 288.15625 38.535156 Z M 288.15625 38.535156 " fill-opacity="1" fill-rule="nonzero"/></g><path fill="#fcaf06" d="M 285.015625 39.027344 C 285.015625 39.027344 283.082031 40.289062 282.070312 42.355469 C 282.070312 42.355469 281.375 43.769531 282.355469 43.082031 C 282.960938 42.066406 284.191406 40.214844 285.644531 39.839844 C 287.09375 39.464844 287.707031 40.648438 287.4375 42.222656 C 287.171875 43.796875 286.335938 46.816406 287.304688 46.785156 C 287.941406 46.785156 288.25 44.621094 288.5 43.632812 C 288.753906 42.644531 289.117188 41.046875 289.746094 40.492188 C 290.371094 39.933594 291.25 39.667969 292.085938 40.683594 C 292.921875 41.699219 293.054688 43.585938 293.820312 44.3125 C 294.582031 45.039062 294.6875 44.429688 294.691406 43.796875 C 294.695312 43.167969 294.039062 41.210938 292.976562 40.253906 C 291.910156 39.292969 293.050781 39.722656 293.757812 40.363281 C 294.464844 41.003906 295.269531 42.007812 295.671875 44.429688 C 295.5625 45.285156 295.039062 45.921875 294.300781 45.972656 C 293.558594 46.023438 293.195312 45.125 292.851562 44.226562 C 292.503906 43.328125 292.230469 41.445312 291.21875 41.207031 C 290.207031 40.972656 289.625 42.742188 289.371094 44.496094 C 289.117188 46.25 288.710938 47.730469 287.917969 48.1875 C 287.128906 48.644531 285.984375 48.1875 285.785156 46.84375 C 285.585938 45.5 286.191406 43.496094 286.433594 42.402344 C 286.675781 41.304688 286.0625 40.171875 285.164062 40.953125 C 284.269531 41.734375 283.453125 43.199219 282.695312 44.859375 C 281.9375 46.515625 280.804688 46.957031 280.5625 45.089844 C 280.375 43.273438 281.863281 40.824219 282.40625 40.214844 C 282.949219 39.601562 284.929688 37.320312 286.617188 38.535156 C 285.785156 38.78125 285.015625 39.027344 285.015625 39.027344 Z M 285.015625 39.027344 " fill-opacity="1" fill-rule="nonzero"/><path fill="#5ce1e6" d="M 281.839844 46.398438 C 281.839844 46.398438 281.660156 46.851562 281.75 46.90625 C 281.839844 46.957031 282.90625 47.121094 282.972656 47.027344 C 283.035156 46.933594 283.226562 46.460938 283.117188 46.363281 C 283.007812 46.265625 282.125 46.140625 282.125 46.140625 C 282.125 46.140625 281.992188 46.066406 281.839844 46.398438 Z M 281.839844 46.398438 " fill-opacity="1" fill-rule="nonzero"/><path fill="#5ce1e6" d="M 286.324219 48.15625 C 286.289062 48.164062 285.085938 48.269531 285.085938 48.269531 C 285.085938 48.269531 284.996094 49.28125 285.390625 49.339844 C 285.78125 49.402344 286.519531 49.378906 286.5625 49.28125 C 286.601562 49.183594 286.324219 48.15625 286.324219 48.15625 Z M 286.324219 48.15625 " fill-opacity="1" fill-rule="nonzero"/><path fill="#5ce1e6" d="M 287.292969 45.972656 C 287.25 46.09375 287.398438 46.769531 287.398438 46.769531 L 287.398438 46.808594 C 287.804688 46.648438 287.894531 45.886719 287.894531 45.886719 C 287.894531 45.886719 287.332031 45.851562 287.292969 45.972656 Z M 287.292969 45.972656 " fill-opacity="1" fill-rule="nonzero"/><path fill="#5ce1e6" d="M 285.21875 44.992188 C 285.21875 44.992188 284.597656 45.042969 284.546875 44.972656 C 284.496094 44.902344 284.445312 43.796875 284.484375 43.753906 C 284.523438 43.710938 285.1875 43.761719 285.21875 43.878906 C 285.25 43.996094 285.21875 44.992188 285.21875 44.992188 Z M 285.21875 44.992188 " fill-opacity="1" fill-rule="nonzero"/><path fill="#5ce1e6" d="M 286.316406 42.910156 C 286.316406 42.910156 285.386719 42.472656 285.347656 42.222656 C 285.40625 41.949219 285.714844 41.734375 285.714844 41.734375 L 286.453125 41.988281 C 286.453125 41.988281 286.496094 42.605469 286.316406 42.910156 Z M 286.316406 42.910156 " fill-opacity="1" fill-rule="nonzero"/><path fill="#5ce1e6" d="M 284.925781 40.109375 C 284.925781 40.117188 284.605469 39.8125 284.644531 39.664062 C 284.6875 39.511719 285.25 39.382812 285.324219 39.386719 C 285.394531 39.390625 285.789062 39.855469 285.789062 39.855469 Z M 284.925781 40.109375 " fill-opacity="1" fill-rule="nonzero"/><path fill="#5ce1e6" d="M 288.820312 38.597656 C 288.820312 38.597656 288.21875 39.492188 288.25 39.722656 C 288.28125 39.953125 288.6875 39.949219 288.832031 39.910156 C 288.976562 39.871094 289.414062 39.257812 289.417969 38.8125 C 289.007812 38.640625 288.820312 38.597656 288.820312 38.597656 Z M 288.820312 38.597656 " fill-opacity="1" fill-rule="nonzero"/><path fill="#5ce1e6" d="M 288.949219 41.929688 C 288.949219 41.929688 288.214844 41.769531 288.160156 41.796875 C 288.105469 41.824219 287.855469 42.449219 287.972656 42.523438 C 288.085938 42.601562 288.652344 42.714844 288.652344 42.714844 Z M 288.949219 41.929688 " fill-opacity="1" fill-rule="nonzero"/><path fill="#5ce1e6" d="M 290.65625 43.292969 C 290.65625 43.292969 290.734375 44.5625 290.964844 44.578125 C 291.191406 44.59375 291.644531 44.507812 291.65625 44.246094 C 291.664062 43.984375 291.371094 43.238281 291.207031 43.214844 C 291.046875 43.191406 290.65625 43.292969 290.65625 43.292969 Z M 290.65625 43.292969 " fill-opacity="1" fill-rule="nonzero"/><path fill="#5ce1e6" d="M 289.515625 46.257812 C 289.515625 46.257812 289.777344 46.917969 289.945312 46.90625 C 290.113281 46.894531 290.910156 46.488281 290.917969 46.363281 C 290.925781 46.238281 290.628906 46.003906 290.5 45.992188 C 290.371094 45.980469 289.515625 46.257812 289.515625 46.257812 Z M 289.515625 46.257812 " fill-opacity="1" fill-rule="nonzero"/><path fill="#5ce1e6" d="M 293.160156 44.972656 C 293.160156 44.972656 292.1875 45.710938 292.109375 45.828125 C 292.027344 45.941406 292.527344 46.398438 292.632812 46.363281 C 292.738281 46.328125 293.707031 45.691406 293.707031 45.691406 Z M 293.160156 44.972656 " fill-opacity="1" fill-rule="nonzero"/><path fill="#5ce1e6" d="M 293.972656 41.53125 L 293.292969 41.984375 L 293.632812 42.8125 L 294.40625 42.488281 C 294.40625 42.488281 294.300781 41.886719 293.972656 41.53125 Z M 293.972656 41.53125 " fill-opacity="1" fill-rule="nonzero"/><path fill="#fcaf06" d="M 279.582031 49.382812 C 279.582031 49.382812 280.070312 50.082031 281.039062 49.800781 C 282.660156 49.328125 282.917969 49.164062 283.929688 51.339844 C 284.875 53.371094 287.28125 53.707031 288.667969 52 C 290.226562 50.082031 289.878906 48.105469 291.65625 48.113281 C 292.746094 48.078125 293.339844 50.507812 295.046875 49.800781 L 295.578125 48.375 C 295.578125 48.375 294.988281 49.574219 294.140625 48.867188 C 293.289062 48.164062 292.203125 46.207031 290.65625 47.269531 C 289.109375 48.332031 289.160156 50.414062 287.621094 51.664062 C 286.082031 52.914062 284.554688 51.136719 284.121094 49.910156 C 283.691406 48.6875 282.625 48.21875 281.183594 49.101562 C 280.085938 49.625 279.242188 47.65625 279.242188 47.65625 Z M 279.582031 49.382812 " fill-opacity="1" fill-rule="nonzero"/><path fill="#ffffff" d="M 279.226562 46.429688 C 279.226562 46.429688 279.6875 44.027344 281.148438 42.53125 C 281.636719 41.253906 281.574219 41.179688 281.574219 41.179688 C 281.574219 41.179688 279.242188 43.230469 279.226562 46.429688 Z M 279.226562 46.429688 " fill-opacity="1" fill-rule="nonzero"/><path fill="#ffffff" d="M 283.859375 39.972656 C 283.859375 39.972656 285.847656 38.839844 288.519531 39.03125 C 291.1875 39.21875 293.398438 40.914062 294.308594 42.324219 C 294.03125 41.640625 293.480469 40.496094 292.691406 40.109375 C 292.691406 40.109375 290.867188 38.757812 288.503906 38.589844 C 286.144531 38.421875 284.875 39.050781 284.875 39.050781 Z M 283.859375 39.972656 " fill-opacity="1" fill-rule="nonzero"/><path fill="#ffffff" d="M 295.484375 45.089844 C 295.722656 45.761719 295.671875 46.957031 295.554688 47.941406 C 295.554688 47.941406 296.390625 45.9375 295.660156 44.367188 C 295.527344 44.992188 295.484375 45.089844 295.484375 45.089844 Z M 295.484375 45.089844 " fill-opacity="1" fill-rule="nonzero"/><g clip-path="url(#9897b60dde)"><path fill="#e5503d" d="M 287.152344 54.570312 C 287.132812 54.570312 287.117188 54.570312 287.101562 54.570312 C 286.875 54.5625 286.648438 54.554688 286.425781 54.542969 L 286.375 54.539062 C 286.316406 54.539062 286.257812 54.535156 286.203125 54.523438 C 285.816406 54.441406 285.363281 54.339844 284.90625 54.1875 C 284.871094 54.175781 284.835938 54.164062 284.796875 54.152344 C 284.648438 54.101562 284.496094 54.050781 284.339844 54.007812 C 283.777344 53.855469 283.210938 53.597656 282.5625 53.1875 C 282.195312 52.960938 281.832031 52.6875 281.378906 52.300781 C 281.09375 52.0625 280.847656 51.785156 280.648438 51.484375 C 280.632812 51.464844 280.621094 51.441406 280.605469 51.421875 C 280.558594 51.347656 280.507812 51.269531 280.449219 51.199219 C 280.046875 50.679688 279.789062 50.109375 279.589844 49.617188 C 279.554688 49.527344 279.515625 49.441406 279.480469 49.359375 C 279.210938 48.753906 279.054688 48.125 279 47.4375 C 278.953125 46.839844 278.984375 46.257812 279.019531 45.769531 C 279.066406 45.171875 279.214844 44.570312 279.484375 43.929688 C 279.78125 43.226562 280.164062 42.566406 280.628906 41.964844 C 281.03125 41.4375 281.394531 41.042969 281.765625 40.71875 C 281.914062 40.589844 282.039062 40.445312 282.144531 40.324219 C 282.300781 40.140625 282.476562 39.953125 282.664062 39.773438 C 282.96875 39.476562 283.382812 39.089844 283.859375 38.765625 C 284.132812 38.578125 284.445312 38.414062 284.839844 38.25 C 284.996094 38.183594 285.160156 38.121094 285.335938 38.089844 C 285.429688 38.074219 285.515625 38.066406 285.597656 38.066406 C 285.792969 38.066406 285.96875 38.109375 286.132812 38.199219 C 286.265625 38.273438 286.410156 38.335938 286.550781 38.394531 L 286.570312 38.402344 C 286.609375 38.417969 286.648438 38.425781 286.691406 38.425781 C 286.703125 38.425781 286.71875 38.425781 286.730469 38.421875 C 286.960938 38.386719 287.210938 38.367188 287.496094 38.367188 C 287.761719 38.367188 288.027344 38.382812 288.289062 38.398438 L 288.375 38.402344 C 288.972656 38.433594 289.414062 38.515625 289.8125 38.664062 C 290.058594 38.753906 290.308594 38.832031 290.589844 38.914062 C 291.070312 39.058594 291.515625 39.265625 292.039062 39.527344 C 292.148438 39.582031 292.25 39.609375 292.359375 39.617188 C 292.734375 39.644531 293.046875 39.75 293.320312 39.929688 C 293.476562 40.039062 293.660156 40.164062 293.824219 40.308594 C 294.214844 40.65625 294.527344 41.039062 294.773438 41.472656 C 295.003906 41.882812 295.167969 42.238281 295.28125 42.582031 C 295.300781 42.640625 295.328125 42.699219 295.359375 42.753906 C 295.363281 42.761719 295.367188 42.769531 295.371094 42.78125 C 295.410156 42.851562 295.445312 42.929688 295.484375 43 C 295.550781 43.128906 295.617188 43.261719 295.683594 43.394531 C 295.742188 43.515625 295.804688 43.660156 295.851562 43.808594 C 295.964844 44.164062 296.054688 44.460938 296.125 44.734375 C 296.203125 45.03125 296.21875 45.339844 296.21875 45.601562 C 296.222656 45.691406 296.222656 45.78125 296.21875 45.867188 C 296.21875 45.90625 296.21875 45.949219 296.21875 45.988281 C 296.214844 46.386719 296.199219 46.851562 296.125 47.308594 C 296.125 47.328125 296.121094 47.347656 296.117188 47.367188 C 296.109375 47.425781 296.097656 47.484375 296.085938 47.539062 C 295.949219 48.035156 295.8125 48.546875 295.59375 49.023438 C 295.585938 49.039062 295.578125 49.054688 295.570312 49.070312 C 295.554688 49.097656 295.539062 49.128906 295.527344 49.164062 C 295.367188 49.613281 295.121094 50.035156 294.90625 50.410156 C 294.78125 50.625 294.632812 50.847656 294.441406 51.109375 C 294.21875 51.410156 293.957031 51.707031 293.640625 52.019531 C 293.519531 52.140625 293.371094 52.261719 293.191406 52.390625 C 292.566406 52.828125 291.992188 53.183594 291.425781 53.480469 C 291.136719 53.632812 290.820312 53.761719 290.394531 53.902344 C 289.949219 54.046875 289.503906 54.183594 289.074219 54.316406 C 288.761719 54.414062 288.433594 54.457031 288.128906 54.488281 C 287.894531 54.515625 287.660156 54.535156 287.382812 54.558594 C 287.292969 54.566406 287.222656 54.570312 287.152344 54.570312 Z M 279.589844 48.714844 C 279.59375 48.738281 279.597656 48.753906 279.601562 48.769531 C 279.605469 48.800781 279.609375 48.824219 279.617188 48.847656 C 279.734375 49.191406 279.886719 49.59375 280.085938 49.980469 C 280.347656 50.480469 280.667969 50.953125 281.042969 51.398438 C 281.488281 51.917969 281.957031 52.34375 282.480469 52.699219 C 283.203125 53.191406 283.976562 53.5625 284.773438 53.808594 C 285.554688 54.046875 286.382812 54.167969 287.234375 54.167969 C 287.738281 54.167969 288.257812 54.125 288.785156 54.042969 C 289.355469 53.953125 289.941406 53.789062 290.628906 53.527344 C 291.089844 53.351562 291.511719 53.097656 291.921875 52.855469 C 292.054688 52.777344 292.191406 52.695312 292.328125 52.617188 C 293.40625 51.875 294.273438 50.941406 294.894531 49.84375 C 294.921875 49.800781 294.941406 49.753906 294.964844 49.710938 C 294.976562 49.691406 294.984375 49.671875 294.992188 49.652344 C 295.015625 49.609375 295.035156 49.570312 295.058594 49.527344 C 295.09375 49.453125 295.128906 49.378906 295.167969 49.304688 C 295.175781 49.292969 295.179688 49.28125 295.1875 49.265625 C 295.230469 49.191406 295.269531 49.109375 295.289062 48.988281 L 295.296875 48.945312 L 295.257812 48.964844 C 295.21875 48.988281 295.183594 49.007812 295.152344 49.023438 C 295.089844 49.058594 295.035156 49.089844 294.976562 49.117188 C 294.828125 49.195312 294.675781 49.234375 294.523438 49.234375 C 294.351562 49.234375 294.171875 49.1875 293.992188 49.089844 C 293.925781 49.054688 293.867188 49.011719 293.808594 48.96875 C 293.796875 48.960938 293.785156 48.953125 293.777344 48.945312 C 293.484375 48.734375 293.246094 48.457031 293.019531 48.191406 L 293.011719 48.183594 C 292.851562 47.996094 292.679688 47.808594 292.480469 47.609375 C 292.324219 47.449219 292.144531 47.347656 291.945312 47.304688 C 291.832031 47.28125 291.722656 47.269531 291.613281 47.269531 C 291.277344 47.269531 290.949219 47.382812 290.640625 47.605469 C 290.425781 47.757812 290.226562 47.960938 290.027344 48.226562 C 289.699219 48.660156 289.460938 49.046875 289.277344 49.441406 C 289.261719 49.476562 289.242188 49.511719 289.222656 49.546875 C 289.210938 49.570312 289.199219 49.589844 289.1875 49.609375 C 289.160156 49.660156 289.136719 49.710938 289.109375 49.757812 C 289.046875 49.878906 288.980469 50.003906 288.917969 50.128906 C 288.738281 50.488281 288.558594 50.8125 288.359375 51.125 C 288.023438 51.65625 287.484375 51.90625 287.050781 52.066406 C 287.035156 52.074219 287.011719 52.078125 286.992188 52.082031 C 286.773438 52.128906 286.550781 52.152344 286.332031 52.152344 C 286.1875 52.152344 286.046875 52.140625 285.902344 52.125 C 285.707031 52.097656 285.53125 52.035156 285.378906 51.941406 C 284.953125 51.671875 284.679688 51.410156 284.5 51.097656 C 284.382812 50.898438 284.277344 50.703125 284.179688 50.511719 C 284.109375 50.371094 284.042969 50.226562 283.984375 50.085938 C 283.898438 49.882812 283.804688 49.675781 283.691406 49.480469 C 283.554688 49.25 283.390625 49.070312 283.1875 48.9375 C 283.003906 48.8125 282.8125 48.75 282.617188 48.75 C 282.484375 48.75 282.34375 48.78125 282.207031 48.839844 C 281.957031 48.949219 281.765625 49.035156 281.585938 49.117188 C 281.335938 49.230469 281.09375 49.289062 280.84375 49.289062 C 280.765625 49.289062 280.691406 49.28125 280.613281 49.273438 C 280.363281 49.238281 280.179688 49.160156 280.027344 49.03125 C 279.976562 48.988281 279.925781 48.941406 279.878906 48.898438 C 279.835938 48.859375 279.792969 48.820312 279.75 48.785156 C 279.730469 48.765625 279.707031 48.75 279.675781 48.730469 C 279.660156 48.71875 279.644531 48.707031 279.625 48.695312 L 279.582031 48.660156 Z M 282.335938 48.417969 C 282.351562 48.417969 282.367188 48.417969 282.382812 48.417969 C 282.777344 48.4375 283.132812 48.550781 283.445312 48.761719 C 283.765625 48.976562 284 49.265625 284.167969 49.644531 C 284.257812 49.859375 284.359375 50.070312 284.460938 50.277344 C 284.492188 50.347656 284.527344 50.414062 284.558594 50.484375 C 284.691406 50.769531 284.878906 51.046875 285.167969 51.382812 C 285.417969 51.679688 285.742188 51.84375 286.132812 51.871094 C 286.175781 51.875 286.21875 51.875 286.261719 51.875 C 286.527344 51.875 286.789062 51.820312 287.046875 51.707031 C 287.460938 51.53125 287.789062 51.300781 288.042969 51.007812 C 288.289062 50.726562 288.492188 50.394531 288.667969 49.996094 C 288.699219 49.921875 288.730469 49.84375 288.761719 49.769531 C 288.796875 49.679688 288.832031 49.589844 288.875 49.5 C 288.90625 49.429688 288.941406 49.363281 288.972656 49.300781 C 289.019531 49.214844 289.066406 49.125 289.101562 49.035156 C 289.191406 48.820312 289.308594 48.621094 289.421875 48.421875 C 289.480469 48.320312 289.542969 48.214844 289.597656 48.105469 C 289.617188 48.070312 289.640625 48.042969 289.664062 48.007812 C 289.675781 47.996094 289.6875 47.980469 289.699219 47.96875 C 289.960938 47.605469 290.3125 47.335938 290.617188 47.125 C 290.726562 47.050781 290.839844 47 290.96875 46.96875 C 291.136719 46.929688 291.261719 46.914062 291.382812 46.914062 C 291.457031 46.914062 291.523438 46.921875 291.59375 46.933594 C 291.644531 46.945312 291.695312 46.953125 291.742188 46.960938 C 291.886719 46.988281 292.03125 47.015625 292.171875 47.054688 C 292.40625 47.128906 292.628906 47.257812 292.855469 47.457031 C 292.882812 47.476562 292.90625 47.5 292.929688 47.523438 C 292.957031 47.550781 292.984375 47.578125 293.015625 47.605469 C 293.199219 47.757812 293.359375 47.925781 293.507812 48.117188 C 293.601562 48.238281 293.707031 48.355469 293.8125 48.46875 C 293.84375 48.503906 293.875 48.539062 293.90625 48.574219 C 294.085938 48.777344 294.335938 48.828125 294.527344 48.847656 C 294.539062 48.847656 294.546875 48.847656 294.554688 48.847656 C 294.589844 48.847656 294.625 48.84375 294.667969 48.828125 C 294.871094 48.769531 295.015625 48.675781 295.109375 48.539062 L 295.132812 48.503906 C 295.199219 48.410156 295.265625 48.3125 295.316406 48.207031 C 295.441406 47.949219 295.539062 47.714844 295.625 47.496094 C 295.746094 47.179688 295.824219 46.863281 295.859375 46.554688 C 295.914062 46.058594 295.886719 45.542969 295.773438 44.925781 C 295.769531 44.914062 295.757812 44.90625 295.746094 44.894531 C 295.742188 44.890625 295.734375 44.886719 295.726562 44.878906 L 295.699219 44.855469 L 295.691406 44.890625 C 295.640625 45.066406 295.539062 45.226562 295.367188 45.410156 C 295.359375 45.417969 295.355469 45.425781 295.347656 45.4375 C 295.34375 45.4375 295.34375 45.441406 295.339844 45.445312 C 295.144531 45.703125 294.875 45.902344 294.519531 46.054688 C 294.421875 46.097656 294.328125 46.117188 294.242188 46.117188 C 294.125 46.117188 294.019531 46.082031 293.914062 46.007812 C 293.898438 45.996094 293.886719 45.984375 293.871094 45.976562 C 293.800781 45.921875 293.726562 45.867188 293.648438 45.839844 L 293.636719 45.835938 L 293.625 45.84375 C 293.582031 45.875 293.535156 45.90625 293.492188 45.941406 C 293.394531 46.011719 293.300781 46.078125 293.207031 46.144531 C 293.097656 46.214844 292.980469 46.285156 292.832031 46.367188 C 292.765625 46.402344 292.6875 46.433594 292.617188 46.460938 L 292.59375 46.46875 C 292.578125 46.472656 292.5625 46.476562 292.550781 46.476562 C 292.519531 46.476562 292.488281 46.460938 292.464844 46.429688 C 292.363281 46.304688 292.261719 46.175781 292.164062 46.058594 C 292.152344 46.042969 292.136719 46.027344 292.125 46.011719 C 292.101562 45.984375 292.074219 45.957031 292.054688 45.925781 C 292.003906 45.851562 292.007812 45.789062 292.074219 45.722656 C 292.089844 45.710938 292.105469 45.695312 292.121094 45.683594 L 292.125 45.683594 C 292.199219 45.621094 292.273438 45.5625 292.347656 45.503906 C 292.523438 45.367188 292.703125 45.226562 292.878906 45.085938 C 292.890625 45.078125 292.902344 45.070312 292.917969 45.058594 C 292.964844 45.027344 293.015625 44.992188 293.035156 44.921875 L 293.039062 44.914062 L 293.035156 44.90625 C 293.023438 44.882812 293.015625 44.855469 293.003906 44.828125 C 292.984375 44.769531 292.960938 44.710938 292.933594 44.652344 C 292.777344 44.257812 292.617188 43.835938 292.523438 43.390625 C 292.4375 42.984375 292.289062 42.566406 292.050781 42.074219 C 291.980469 41.9375 291.894531 41.804688 291.808594 41.6875 C 291.6875 41.523438 291.535156 41.40625 291.347656 41.34375 C 291.261719 41.3125 291.175781 41.300781 291.09375 41.300781 C 290.957031 41.300781 290.824219 41.34375 290.703125 41.433594 C 290.398438 41.664062 290.175781 41.960938 290.046875 42.316406 C 289.96875 42.542969 289.894531 42.773438 289.828125 43 L 289.816406 43.035156 C 289.660156 43.539062 289.554688 44.066406 289.453125 44.574219 C 289.425781 44.695312 289.402344 44.816406 289.378906 44.9375 C 289.351562 45.074219 289.324219 45.214844 289.296875 45.347656 C 289.234375 45.691406 289.167969 46.042969 289.066406 46.382812 C 288.976562 46.679688 288.871094 47.027344 288.726562 47.355469 C 288.570312 47.707031 288.332031 48 288.019531 48.226562 C 287.808594 48.378906 287.578125 48.457031 287.332031 48.457031 C 287.328125 48.457031 287.320312 48.457031 287.3125 48.457031 C 287.160156 48.457031 287.007812 48.433594 286.859375 48.410156 C 286.785156 48.398438 286.714844 48.382812 286.636719 48.363281 C 286.601562 48.355469 286.5625 48.34375 286.523438 48.335938 L 286.492188 48.328125 L 286.496094 48.359375 C 286.5 48.378906 286.503906 48.394531 286.503906 48.410156 C 286.507812 48.441406 286.511719 48.46875 286.519531 48.496094 C 286.539062 48.554688 286.558594 48.609375 286.578125 48.664062 C 286.59375 48.703125 286.605469 48.742188 286.621094 48.78125 C 286.675781 48.949219 286.691406 49.128906 286.671875 49.347656 C 286.664062 49.425781 286.636719 49.453125 286.550781 49.472656 C 286.539062 49.472656 286.523438 49.476562 286.507812 49.476562 C 286.503906 49.476562 286.496094 49.476562 286.488281 49.480469 C 286.382812 49.492188 286.273438 49.496094 286.148438 49.496094 C 285.9375 49.496094 285.71875 49.476562 285.507812 49.457031 L 285.4375 49.453125 C 285.410156 49.449219 285.386719 49.441406 285.359375 49.4375 C 285.351562 49.433594 285.339844 49.433594 285.332031 49.429688 C 285.234375 49.40625 285.160156 49.351562 285.117188 49.257812 C 285.085938 49.191406 285.058594 49.125 285.042969 49.0625 C 284.976562 48.804688 285 48.546875 285.027344 48.300781 C 285.035156 48.226562 285.070312 48.195312 285.152344 48.191406 C 285.191406 48.1875 285.238281 48.183594 285.285156 48.183594 C 285.316406 48.183594 285.34375 48.1875 285.367188 48.1875 C 285.410156 48.191406 285.457031 48.195312 285.5 48.195312 C 285.664062 48.195312 285.828125 48.167969 285.984375 48.144531 C 286.015625 48.140625 286.042969 48.136719 286.074219 48.132812 C 286.101562 48.128906 286.125 48.113281 286.144531 48.105469 C 286.152344 48.097656 286.164062 48.09375 286.171875 48.089844 L 286.191406 48.082031 L 286.183594 48.0625 C 286.179688 48.054688 286.175781 48.046875 286.175781 48.039062 C 286.171875 48.027344 286.167969 48.015625 286.160156 48.003906 C 286 47.800781 285.910156 47.554688 285.824219 47.320312 C 285.816406 47.300781 285.808594 47.277344 285.800781 47.257812 C 285.765625 47.160156 285.742188 47.050781 285.730469 46.949219 C 285.710938 46.761719 285.695312 46.574219 285.683594 46.390625 C 285.675781 46.304688 285.667969 46.222656 285.664062 46.140625 C 285.660156 46.113281 285.65625 46.085938 285.652344 46.058594 C 285.648438 46.015625 285.644531 45.96875 285.644531 45.925781 C 285.640625 45.796875 285.644531 45.6875 285.652344 45.585938 C 285.65625 45.527344 285.664062 45.464844 285.675781 45.40625 C 285.679688 45.382812 285.683594 45.359375 285.6875 45.332031 C 285.707031 45.21875 285.722656 45.105469 285.738281 44.992188 C 285.78125 44.730469 285.820312 44.457031 285.867188 44.191406 C 285.925781 43.851562 286.011719 43.507812 286.132812 43.132812 C 286.136719 43.125 286.140625 43.113281 286.140625 43.105469 C 286.160156 43.054688 286.183594 42.992188 286.144531 42.917969 L 286.140625 42.914062 L 286.132812 42.910156 C 286.117188 42.902344 286.097656 42.894531 286.078125 42.886719 C 286.035156 42.867188 285.988281 42.847656 285.945312 42.828125 C 285.648438 42.691406 285.433594 42.546875 285.265625 42.371094 C 285.1875 42.285156 285.1875 42.25 285.261719 42.152344 C 285.300781 42.101562 285.339844 42.050781 285.378906 42 C 285.441406 41.921875 285.503906 41.839844 285.566406 41.757812 C 285.625 41.683594 285.640625 41.660156 285.679688 41.660156 C 285.699219 41.660156 285.730469 41.667969 285.777344 41.683594 C 285.847656 41.703125 285.914062 41.730469 285.984375 41.757812 C 286.035156 41.777344 286.089844 41.800781 286.148438 41.816406 C 286.160156 41.824219 286.171875 41.828125 286.1875 41.835938 C 286.21875 41.851562 286.253906 41.867188 286.292969 41.867188 C 286.316406 41.867188 286.335938 41.863281 286.359375 41.851562 L 286.375 41.847656 L 286.371094 41.832031 C 286.367188 41.804688 286.363281 41.777344 286.359375 41.75 C 286.351562 41.695312 286.34375 41.636719 286.339844 41.578125 C 286.308594 41.292969 286.136719 41.085938 285.988281 40.9375 C 285.929688 40.878906 285.863281 40.851562 285.785156 40.851562 C 285.761719 40.851562 285.734375 40.855469 285.703125 40.863281 C 285.539062 40.894531 285.390625 40.957031 285.253906 41.046875 C 284.835938 41.328125 284.503906 41.6875 284.269531 42.113281 C 284.238281 42.167969 284.210938 42.222656 284.183594 42.273438 C 284.128906 42.371094 284.078125 42.472656 284.019531 42.566406 C 283.910156 42.753906 283.828125 42.949219 283.75 43.132812 C 283.648438 43.382812 283.535156 43.632812 283.429688 43.875 L 283.375 44 C 283.320312 44.125 283.261719 44.25 283.207031 44.371094 C 283.113281 44.578125 283.019531 44.792969 282.929688 45.003906 C 282.824219 45.25 282.679688 45.566406 282.472656 45.851562 C 282.464844 45.863281 282.460938 45.871094 282.453125 45.878906 C 282.40625 45.941406 282.359375 46.003906 282.347656 46.089844 L 282.34375 46.109375 L 282.363281 46.113281 C 282.382812 46.121094 282.402344 46.125 282.417969 46.132812 C 282.460938 46.144531 282.496094 46.15625 282.535156 46.164062 C 282.628906 46.183594 282.722656 46.203125 282.8125 46.222656 C 282.878906 46.238281 282.945312 46.25 283.007812 46.265625 C 283.183594 46.304688 283.234375 46.371094 283.203125 46.527344 C 283.175781 46.6875 283.136719 46.839844 283.089844 46.984375 C 283.039062 47.136719 283.003906 47.164062 282.867188 47.164062 C 282.855469 47.164062 282.839844 47.164062 282.820312 47.160156 C 282.761719 47.160156 282.714844 47.15625 282.671875 47.148438 C 282.429688 47.113281 282.183594 47.074219 281.949219 47.039062 L 281.882812 47.03125 C 281.855469 47.027344 281.828125 47.023438 281.804688 47.011719 C 281.703125 46.980469 281.664062 46.925781 281.671875 46.828125 C 281.675781 46.796875 281.683594 46.765625 281.6875 46.734375 C 281.695312 46.707031 281.699219 46.683594 281.703125 46.660156 C 281.703125 46.652344 281.707031 46.640625 281.710938 46.632812 C 281.722656 46.601562 281.734375 46.5625 281.699219 46.515625 L 281.683594 46.507812 C 281.675781 46.507812 281.667969 46.507812 281.660156 46.507812 C 281.644531 46.503906 281.625 46.5 281.605469 46.5 C 281.605469 46.5 281.59375 46.5 281.589844 46.5 C 281.410156 46.5 281.242188 46.445312 281.058594 46.328125 C 280.71875 46.109375 280.511719 45.78125 280.429688 45.328125 C 280.371094 45.015625 280.363281 44.683594 280.414062 44.332031 C 280.417969 44.285156 280.425781 44.234375 280.433594 44.1875 C 280.449219 44.101562 280.460938 44.015625 280.46875 43.925781 C 280.5 43.617188 280.578125 43.296875 280.710938 42.957031 C 280.773438 42.804688 280.835938 42.652344 280.898438 42.5 C 280.941406 42.402344 280.984375 42.300781 281.023438 42.203125 C 281.042969 42.152344 281.058594 42.101562 281.074219 42.050781 C 281.082031 42.035156 281.085938 42.019531 281.09375 42 L 281.097656 41.996094 C 281.101562 41.988281 281.109375 41.980469 281.113281 41.972656 C 281.125 41.957031 281.109375 41.945312 281.101562 41.9375 C 281.101562 41.9375 281.101562 41.9375 281.097656 41.933594 L 281.066406 41.902344 L 281.058594 41.972656 C 281 41.972656 280.976562 42.019531 280.953125 42.054688 C 280.949219 42.0625 280.945312 42.074219 280.9375 42.082031 C 280.464844 42.722656 280.105469 43.316406 279.839844 43.890625 C 279.796875 43.992188 279.761719 44.074219 279.742188 44.15625 C 279.707031 44.277344 279.675781 44.40625 279.644531 44.527344 C 279.609375 44.664062 279.574219 44.804688 279.535156 44.945312 C 279.472656 45.175781 279.4375 45.433594 279.421875 45.753906 C 279.398438 46.328125 279.453125 46.890625 279.507812 47.363281 C 279.554688 47.734375 279.679688 48.089844 279.882812 48.417969 C 280.070312 48.714844 280.355469 48.867188 280.726562 48.871094 C 280.734375 48.871094 280.738281 48.871094 280.746094 48.871094 C 280.988281 48.871094 281.222656 48.816406 281.441406 48.710938 C 281.59375 48.636719 281.746094 48.570312 281.898438 48.507812 C 282.046875 48.449219 282.195312 48.417969 282.335938 48.417969 Z M 286.300781 48.269531 C 286.242188 48.277344 286.183594 48.28125 286.125 48.285156 C 286 48.296875 285.878906 48.308594 285.761719 48.3125 C 285.574219 48.320312 285.394531 48.339844 285.207031 48.363281 L 285.191406 48.363281 L 285.1875 48.378906 C 285.148438 48.53125 285.164062 48.679688 285.179688 48.824219 C 285.1875 48.886719 285.195312 48.949219 285.199219 49.007812 L 285.199219 49.019531 C 285.199219 49.082031 285.203125 49.148438 285.261719 49.199219 L 285.265625 49.203125 L 285.269531 49.203125 C 285.53125 49.253906 285.789062 49.28125 286.015625 49.28125 C 286.199219 49.28125 286.359375 49.265625 286.488281 49.230469 L 286.503906 49.226562 L 286.503906 49.210938 C 286.503906 49.035156 286.460938 48.871094 286.414062 48.695312 C 286.378906 48.566406 286.339844 48.429688 286.324219 48.289062 L 286.324219 48.269531 Z M 285.738281 40.632812 C 285.910156 40.632812 286.152344 40.707031 286.273438 40.925781 C 286.398438 41.152344 286.476562 41.347656 286.515625 41.539062 C 286.578125 41.8125 286.582031 42.105469 286.53125 42.40625 C 286.480469 42.714844 286.410156 43.050781 286.3125 43.453125 C 286.105469 44.285156 285.976562 45.160156 285.929688 46.042969 C 285.90625 46.4375 285.964844 46.855469 286.101562 47.320312 C 286.234375 47.757812 286.535156 48.074219 286.996094 48.261719 C 287.042969 48.28125 287.117188 48.304688 287.1875 48.304688 C 287.199219 48.304688 287.210938 48.300781 287.21875 48.300781 C 287.546875 48.261719 287.789062 48.171875 287.980469 48.015625 C 288.238281 47.804688 288.4375 47.539062 288.585938 47.199219 C 288.726562 46.882812 288.800781 46.546875 288.875 46.222656 C 288.894531 46.136719 288.914062 46.046875 288.9375 45.957031 C 288.980469 45.773438 289.007812 45.585938 289.035156 45.40625 C 289.050781 45.28125 289.070312 45.152344 289.09375 45.027344 C 289.167969 44.648438 289.246094 44.261719 289.324219 43.890625 C 289.347656 43.769531 289.371094 43.652344 289.394531 43.53125 C 289.40625 43.480469 289.421875 43.425781 289.441406 43.367188 C 289.464844 43.296875 289.488281 43.222656 289.511719 43.148438 C 289.59375 42.894531 289.679688 42.628906 289.769531 42.371094 C 289.882812 42.039062 290 41.804688 290.144531 41.601562 C 290.382812 41.277344 290.660156 41.117188 290.992188 41.117188 C 291.066406 41.117188 291.140625 41.125 291.21875 41.140625 C 291.335938 41.164062 291.449219 41.210938 291.5625 41.257812 C 291.578125 41.261719 291.59375 41.269531 291.609375 41.273438 C 291.738281 41.328125 291.84375 41.414062 291.917969 41.546875 C 292.121094 41.878906 292.253906 42.167969 292.34375 42.457031 C 292.46875 42.878906 292.574219 43.199219 292.675781 43.5 C 292.75 43.714844 292.832031 43.929688 292.910156 44.140625 C 292.960938 44.273438 293.011719 44.414062 293.0625 44.550781 C 293.183594 44.890625 293.328125 45.15625 293.511719 45.386719 C 293.671875 45.585938 293.839844 45.710938 294.039062 45.78125 C 294.105469 45.804688 294.171875 45.816406 294.230469 45.816406 C 294.289062 45.816406 294.347656 45.804688 294.398438 45.785156 L 294.417969 45.773438 C 294.566406 45.714844 294.71875 45.648438 294.855469 45.5625 C 295.046875 45.441406 295.199219 45.273438 295.3125 45.0625 C 295.445312 44.8125 295.449219 44.546875 295.4375 44.34375 C 295.398438 43.644531 295.289062 43.082031 295.09375 42.574219 C 294.988281 42.304688 294.855469 41.992188 294.675781 41.695312 C 294.558594 41.503906 294.429688 41.3125 294.304688 41.128906 L 294.296875 41.117188 C 294.027344 40.71875 293.679688 40.398438 293.402344 40.167969 C 293.230469 40.023438 293.0625 39.945312 292.871094 39.921875 L 292.820312 39.917969 L 292.847656 39.957031 C 292.855469 39.964844 292.859375 39.972656 292.863281 39.976562 C 292.875 39.996094 292.886719 40.011719 292.902344 40.027344 C 293.300781 40.453125 293.671875 40.960938 294.042969 41.570312 C 294.378906 42.128906 294.59375 42.652344 294.695312 43.167969 C 294.769531 43.542969 294.789062 43.890625 294.757812 44.230469 C 294.742188 44.363281 294.699219 44.488281 294.628906 44.601562 C 294.550781 44.726562 294.417969 44.800781 294.269531 44.800781 C 294.183594 44.800781 294.101562 44.777344 294.027344 44.726562 C 293.953125 44.671875 293.847656 44.59375 293.78125 44.496094 C 293.542969 44.144531 293.335938 43.828125 293.195312 43.472656 C 292.992188 42.972656 292.804688 42.433594 292.578125 41.730469 C 292.453125 41.339844 292.316406 41.058594 292.128906 40.820312 C 291.902344 40.53125 291.644531 40.339844 291.34375 40.230469 C 291.175781 40.171875 291.011719 40.140625 290.855469 40.140625 C 290.664062 40.140625 290.476562 40.191406 290.304688 40.285156 C 290.253906 40.3125 290.195312 40.339844 290.140625 40.367188 L 290.109375 40.378906 C 289.949219 40.457031 289.816406 40.5625 289.710938 40.695312 C 289.523438 40.9375 289.394531 41.148438 289.300781 41.359375 L 289.285156 41.394531 C 289.226562 41.53125 289.164062 41.671875 289.105469 41.816406 C 288.9375 42.238281 288.75 42.738281 288.644531 43.269531 C 288.628906 43.34375 288.617188 43.414062 288.601562 43.484375 C 288.578125 43.625 288.554688 43.765625 288.515625 43.902344 C 288.425781 44.25 288.355469 44.605469 288.289062 44.953125 C 288.269531 45.054688 288.246094 45.160156 288.226562 45.265625 C 288.15625 45.617188 288.058594 46.03125 287.871094 46.429688 C 287.792969 46.589844 287.707031 46.710938 287.597656 46.804688 C 287.515625 46.878906 287.414062 46.925781 287.292969 46.9375 C 287.28125 46.9375 287.265625 46.9375 287.253906 46.9375 C 287.167969 46.9375 287.101562 46.910156 287.050781 46.855469 C 286.917969 46.714844 286.792969 46.550781 286.769531 46.328125 C 286.742188 46.058594 286.738281 45.792969 286.75 45.539062 C 286.78125 44.933594 286.871094 44.34375 286.945312 43.902344 C 286.980469 43.671875 287.027344 43.441406 287.074219 43.21875 C 287.101562 43.082031 287.128906 42.941406 287.15625 42.804688 C 287.265625 42.21875 287.332031 41.742188 287.367188 41.296875 C 287.398438 40.917969 287.320312 40.605469 287.128906 40.34375 C 286.980469 40.140625 286.777344 40.007812 286.527344 39.953125 C 286.421875 39.929688 286.320312 39.917969 286.238281 39.910156 C 286.171875 39.90625 286.109375 39.902344 286.046875 39.902344 C 285.917969 39.902344 285.796875 39.914062 285.683594 39.941406 C 285.40625 40.003906 285.140625 40.117188 284.894531 40.273438 C 284.5625 40.488281 284.285156 40.710938 284.039062 40.957031 C 283.542969 41.449219 283.195312 41.894531 282.945312 42.355469 C 282.902344 42.433594 282.859375 42.511719 282.804688 42.597656 C 282.765625 42.652344 282.726562 42.710938 282.691406 42.765625 C 282.640625 42.839844 282.589844 42.917969 282.542969 42.992188 C 282.429688 43.175781 282.242188 43.269531 282.0625 43.363281 L 282.058594 43.367188 C 282.027344 43.382812 281.996094 43.390625 281.96875 43.390625 C 281.90625 43.390625 281.84375 43.355469 281.796875 43.289062 C 281.734375 43.203125 281.71875 43.101562 281.746094 43 C 281.761719 42.957031 281.773438 42.910156 281.785156 42.867188 C 281.835938 42.683594 281.886719 42.492188 281.984375 42.316406 L 282.039062 42.222656 C 282.199219 41.941406 282.367188 41.648438 282.550781 41.375 C 282.75 41.074219 282.949219 40.785156 283.1875 40.53125 C 283.210938 40.503906 283.234375 40.476562 283.257812 40.449219 C 283.277344 40.429688 283.292969 40.40625 283.3125 40.382812 C 283.359375 40.335938 283.402344 40.285156 283.445312 40.234375 C 283.546875 40.117188 283.652344 39.996094 283.765625 39.886719 C 284.175781 39.492188 284.636719 39.132812 285.132812 38.816406 C 285.261719 38.734375 285.375 38.679688 285.480469 38.648438 C 285.628906 38.601562 285.78125 38.566406 285.929688 38.53125 C 286 38.515625 286.070312 38.5 286.140625 38.480469 C 286.15625 38.480469 286.167969 38.472656 286.183594 38.460938 C 286.191406 38.457031 286.203125 38.453125 286.210938 38.445312 L 286.242188 38.429688 L 286.214844 38.410156 C 286.207031 38.402344 286.195312 38.394531 286.1875 38.386719 C 286.171875 38.371094 286.15625 38.359375 286.136719 38.351562 C 285.949219 38.277344 285.757812 38.238281 285.570312 38.238281 C 285.511719 38.238281 285.453125 38.242188 285.390625 38.25 C 285.128906 38.285156 284.886719 38.359375 284.675781 38.476562 C 284.308594 38.679688 283.925781 38.910156 283.589844 39.21875 C 283.503906 39.300781 283.414062 39.386719 283.328125 39.46875 C 283.234375 39.5625 283.136719 39.652344 283.039062 39.742188 C 282.6875 40.070312 282.417969 40.445312 282.203125 40.769531 C 282.0625 40.976562 281.9375 41.15625 281.816406 41.316406 C 281.695312 41.480469 281.554688 41.679688 281.441406 41.898438 C 281.097656 42.570312 280.871094 43.207031 280.753906 43.84375 C 280.667969 44.292969 280.664062 44.742188 280.734375 45.175781 C 280.792969 45.53125 280.972656 45.832031 281.285156 46.09375 C 281.371094 46.167969 281.449219 46.199219 281.527344 46.199219 C 281.59375 46.199219 281.664062 46.175781 281.75 46.125 C 281.796875 46.097656 281.839844 46.0625 281.871094 46.023438 L 281.890625 46 C 281.953125 45.933594 282.015625 45.863281 282.0625 45.785156 C 282.226562 45.511719 282.398438 45.21875 282.542969 44.914062 C 282.582031 44.824219 282.621094 44.738281 282.660156 44.652344 C 282.960938 44.007812 283.269531 43.339844 283.601562 42.695312 C 283.8125 42.285156 284.046875 41.851562 284.375 41.484375 C 284.496094 41.351562 284.652344 41.179688 284.832031 41.027344 C 285.058594 40.835938 285.316406 40.710938 285.621094 40.644531 C 285.660156 40.636719 285.699219 40.632812 285.738281 40.632812 Z M 282.21875 46.222656 C 281.824219 46.414062 281.789062 46.644531 281.804688 46.820312 L 281.808594 46.835938 L 281.820312 46.839844 C 282.199219 46.953125 282.550781 47.011719 282.90625 47.019531 L 282.925781 47.019531 L 282.929688 47.003906 C 282.9375 46.957031 282.945312 46.914062 282.953125 46.871094 C 282.972656 46.753906 282.992188 46.640625 283.007812 46.527344 C 283.011719 46.5 283.007812 46.476562 283 46.453125 C 283 46.441406 282.996094 46.433594 282.996094 46.421875 L 282.996094 46.40625 L 282.226562 46.222656 Z M 286.058594 39.695312 C 286.125 39.695312 286.179688 39.695312 286.230469 39.695312 C 286.566406 39.710938 286.871094 39.824219 287.132812 40.023438 C 287.222656 40.089844 287.308594 40.167969 287.347656 40.296875 C 287.363281 40.347656 287.390625 40.394531 287.417969 40.441406 C 287.425781 40.457031 287.4375 40.476562 287.445312 40.492188 C 287.519531 40.628906 287.558594 40.757812 287.566406 40.890625 C 287.574219 41.03125 287.585938 41.175781 287.574219 41.316406 C 287.558594 41.535156 287.535156 41.765625 287.5 42.039062 C 287.480469 42.179688 287.457031 42.324219 287.4375 42.460938 C 287.417969 42.558594 287.402344 42.660156 287.386719 42.761719 C 287.367188 42.898438 287.351562 43.035156 287.332031 43.171875 C 287.300781 43.417969 287.265625 43.675781 287.21875 43.929688 C 287.199219 44.050781 287.175781 44.175781 287.152344 44.292969 C 287.085938 44.652344 287.019531 45.019531 286.976562 45.390625 C 286.941406 45.703125 286.945312 46.003906 286.984375 46.292969 C 287.003906 46.429688 287.066406 46.558594 287.183594 46.683594 C 287.195312 46.699219 287.21875 46.703125 287.242188 46.710938 C 287.253906 46.714844 287.269531 46.71875 287.28125 46.722656 L 287.316406 46.734375 L 287.3125 46.699219 C 287.308594 46.675781 287.308594 46.65625 287.304688 46.636719 C 287.300781 46.601562 287.296875 46.570312 287.292969 46.535156 C 287.285156 46.476562 287.273438 46.417969 287.265625 46.359375 C 287.246094 46.25 287.230469 46.140625 287.214844 46.027344 C 287.210938 46.007812 287.214844 45.980469 287.222656 45.953125 C 287.222656 45.945312 287.226562 45.933594 287.226562 45.925781 C 287.441406 45.859375 287.640625 45.820312 287.851562 45.808594 L 287.867188 45.808594 L 287.871094 45.792969 C 287.886719 45.734375 287.898438 45.679688 287.914062 45.621094 C 287.949219 45.5 287.980469 45.375 288.011719 45.25 C 288.039062 45.128906 288.066406 45.007812 288.09375 44.886719 C 288.140625 44.683594 288.1875 44.472656 288.242188 44.269531 C 288.367188 43.8125 288.453125 43.433594 288.519531 43.074219 C 288.523438 43.058594 288.527344 43.046875 288.53125 43.027344 C 288.542969 42.964844 288.558594 42.902344 288.539062 42.824219 L 288.535156 42.816406 L 288.523438 42.8125 C 288.511719 42.808594 288.503906 42.804688 288.492188 42.800781 C 288.472656 42.796875 288.449219 42.789062 288.425781 42.78125 C 288.382812 42.765625 288.34375 42.753906 288.304688 42.742188 C 288.207031 42.710938 288.105469 42.675781 288.011719 42.640625 C 287.898438 42.59375 287.832031 42.476562 287.863281 42.371094 C 287.910156 42.203125 287.96875 42.03125 288.039062 41.84375 C 288.070312 41.765625 288.105469 41.742188 288.175781 41.742188 C 288.191406 41.742188 288.207031 41.742188 288.226562 41.742188 C 288.269531 41.75 288.3125 41.757812 288.351562 41.769531 C 288.375 41.773438 288.394531 41.777344 288.417969 41.78125 L 288.445312 41.789062 C 288.554688 41.8125 288.664062 41.835938 288.777344 41.835938 C 288.804688 41.835938 288.832031 41.832031 288.859375 41.828125 L 288.875 41.828125 L 288.878906 41.816406 C 288.882812 41.808594 288.886719 41.796875 288.890625 41.789062 C 288.898438 41.769531 288.910156 41.753906 288.914062 41.734375 C 289.011719 41.40625 289.171875 41.113281 289.332031 40.84375 C 289.46875 40.605469 289.675781 40.40625 289.960938 40.238281 C 289.980469 40.226562 290.003906 40.21875 290.023438 40.207031 C 290.054688 40.191406 290.085938 40.175781 290.117188 40.15625 C 290.332031 40.003906 290.59375 39.933594 290.929688 39.933594 C 290.941406 39.933594 290.949219 39.933594 290.957031 39.933594 C 291.113281 39.933594 291.257812 39.964844 291.398438 40.019531 C 291.652344 40.121094 291.871094 40.273438 292.058594 40.492188 C 292.414062 40.898438 292.675781 41.375 292.859375 41.949219 C 292.90625 42.097656 292.953125 42.253906 292.996094 42.402344 C 293.085938 42.699219 293.175781 43.003906 293.289062 43.300781 C 293.460938 43.742188 293.652344 44.078125 293.886719 44.351562 L 293.898438 44.367188 C 293.960938 44.441406 294.027344 44.515625 294.121094 44.558594 C 294.164062 44.578125 294.207031 44.589844 294.25 44.589844 C 294.347656 44.589844 294.433594 44.53125 294.480469 44.4375 C 294.503906 44.390625 294.519531 44.339844 294.535156 44.292969 C 294.601562 44.054688 294.585938 43.820312 294.566406 43.558594 C 294.542969 43.316406 294.484375 43.078125 294.429688 42.847656 C 294.417969 42.796875 294.40625 42.746094 294.394531 42.695312 C 294.390625 42.675781 294.378906 42.65625 294.367188 42.636719 C 294.359375 42.628906 294.355469 42.617188 294.347656 42.605469 L 294.339844 42.589844 L 294.320312 42.597656 C 294.296875 42.605469 294.273438 42.613281 294.246094 42.621094 C 294.121094 42.664062 294 42.703125 293.886719 42.769531 C 293.832031 42.800781 293.773438 42.835938 293.714844 42.863281 C 293.683594 42.875 293.660156 42.882812 293.644531 42.882812 C 293.617188 42.882812 293.59375 42.867188 293.554688 42.820312 C 293.390625 42.644531 293.296875 42.425781 293.207031 42.214844 C 293.179688 42.15625 293.152344 42.09375 293.125 42.035156 C 293.082031 41.9375 293.101562 41.886719 293.203125 41.828125 C 293.269531 41.789062 293.34375 41.75 293.414062 41.71875 C 293.453125 41.699219 293.492188 41.679688 293.53125 41.65625 C 293.550781 41.648438 293.570312 41.636719 293.589844 41.628906 C 293.667969 41.589844 293.75 41.550781 293.816406 41.480469 L 293.828125 41.46875 L 293.820312 41.457031 C 293.8125 41.4375 293.800781 41.421875 293.792969 41.402344 C 293.773438 41.367188 293.753906 41.332031 293.730469 41.300781 C 293.488281 40.984375 293.285156 40.730469 293.101562 40.5 C 293.0625 40.453125 293.007812 40.410156 292.960938 40.375 L 292.949219 40.367188 C 292.609375 40.105469 292.269531 39.898438 291.902344 39.726562 C 291.441406 39.511719 290.96875 39.328125 290.523438 39.164062 C 290.5 39.152344 290.476562 39.144531 290.453125 39.136719 C 290.203125 39.042969 289.949219 38.945312 289.683594 38.894531 C 289.652344 38.890625 289.625 38.890625 289.59375 38.886719 C 289.582031 38.886719 289.570312 38.886719 289.554688 38.882812 L 289.539062 38.882812 L 289.535156 38.898438 C 289.53125 38.910156 289.527344 38.921875 289.523438 38.929688 C 289.519531 38.949219 289.515625 38.960938 289.511719 38.972656 C 289.414062 39.316406 289.25 39.632812 289.015625 39.914062 C 288.957031 39.988281 288.894531 40.019531 288.824219 40.019531 C 288.804688 40.019531 288.777344 40.015625 288.753906 40.007812 C 288.683594 39.992188 288.613281 39.980469 288.546875 39.96875 C 288.515625 39.960938 288.480469 39.957031 288.449219 39.949219 C 288.425781 39.945312 288.40625 39.941406 288.382812 39.9375 C 288.328125 39.929688 288.269531 39.917969 288.214844 39.902344 C 288.160156 39.890625 288.136719 39.847656 288.148438 39.796875 C 288.160156 39.753906 288.179688 39.710938 288.195312 39.667969 L 288.203125 39.660156 C 288.324219 39.375 288.453125 39.125 288.597656 38.898438 C 288.601562 38.890625 288.609375 38.882812 288.613281 38.878906 C 288.636719 38.84375 288.667969 38.800781 288.636719 38.742188 L 288.628906 38.734375 C 288.625 38.734375 288.625 38.730469 288.621094 38.730469 C 288.617188 38.726562 288.609375 38.722656 288.601562 38.722656 L 288.585938 38.71875 C 288.5625 38.714844 288.539062 38.710938 288.511719 38.710938 C 288.339844 38.703125 288.167969 38.695312 288 38.695312 C 286.984375 38.695312 286 38.851562 285.074219 39.160156 C 284.898438 39.21875 284.71875 39.292969 284.574219 39.4375 C 284.539062 39.476562 284.492188 39.511719 284.449219 39.546875 C 284.429688 39.558594 284.410156 39.574219 284.394531 39.589844 C 284.101562 39.828125 283.878906 40.042969 283.6875 40.273438 C 283.609375 40.367188 283.523438 40.460938 283.445312 40.550781 C 283.386719 40.613281 283.328125 40.679688 283.273438 40.742188 C 283.242188 40.777344 283.214844 40.808594 283.1875 40.839844 C 283.097656 40.9375 283.011719 41.039062 282.9375 41.144531 C 282.886719 41.222656 282.835938 41.296875 282.785156 41.371094 C 282.597656 41.65625 282.398438 41.953125 282.230469 42.257812 C 282.101562 42.503906 282.011719 42.757812 281.941406 42.976562 C 281.921875 43.035156 281.898438 43.109375 281.960938 43.191406 L 281.972656 43.207031 L 281.988281 43.195312 C 282.003906 43.191406 282.015625 43.183594 282.03125 43.175781 C 282.058594 43.160156 282.089844 43.144531 282.117188 43.121094 C 282.253906 43.003906 282.351562 42.855469 282.429688 42.726562 C 282.503906 42.601562 282.574219 42.488281 282.648438 42.378906 C 282.789062 42.167969 282.917969 41.984375 283.039062 41.808594 C 283.105469 41.71875 283.175781 41.628906 283.246094 41.542969 L 283.25 41.539062 C 283.328125 41.441406 283.402344 41.355469 283.476562 41.273438 C 283.570312 41.167969 283.675781 41.054688 283.785156 40.941406 C 284.058594 40.660156 284.375 40.390625 284.726562 40.144531 C 284.742188 40.136719 284.753906 40.125 284.761719 40.109375 C 284.769531 40.105469 284.773438 40.097656 284.777344 40.09375 L 284.789062 40.082031 L 284.78125 40.070312 C 284.765625 40.035156 284.746094 40.003906 284.730469 39.96875 C 284.691406 39.898438 284.652344 39.820312 284.617188 39.746094 C 284.574219 39.644531 284.589844 39.597656 284.695312 39.542969 C 284.871094 39.449219 285.058594 39.386719 285.285156 39.324219 C 285.296875 39.320312 285.3125 39.320312 285.324219 39.320312 C 285.363281 39.320312 285.394531 39.335938 285.4375 39.378906 C 285.511719 39.449219 285.582031 39.519531 285.660156 39.59375 C 285.691406 39.625 285.722656 39.65625 285.757812 39.691406 L 285.761719 39.695312 L 285.773438 39.695312 C 285.820312 39.695312 285.867188 39.695312 285.917969 39.695312 C 285.964844 39.695312 286.011719 39.695312 286.058594 39.695312 Z M 287.625 45.972656 C 287.558594 45.972656 287.507812 45.988281 287.371094 46.035156 L 287.355469 46.039062 L 287.355469 46.089844 C 287.363281 46.257812 287.371094 46.417969 287.457031 46.582031 L 287.472656 46.609375 L 287.492188 46.585938 C 287.507812 46.574219 287.519531 46.558594 287.53125 46.546875 C 287.558594 46.523438 287.582031 46.496094 287.597656 46.46875 C 287.667969 46.335938 287.746094 46.183594 287.785156 46.015625 L 287.789062 45.992188 L 287.765625 45.988281 C 287.703125 45.980469 287.660156 45.972656 287.625 45.972656 Z M 292.945312 45.230469 C 292.851562 45.324219 292.757812 45.417969 292.664062 45.507812 C 292.601562 45.574219 292.523438 45.625 292.441406 45.675781 C 292.355469 45.730469 292.269531 45.785156 292.195312 45.859375 L 292.183594 45.875 L 292.191406 45.886719 C 292.328125 46.078125 292.460938 46.21875 292.671875 46.292969 L 292.683594 46.296875 L 292.691406 46.289062 C 292.753906 46.253906 292.8125 46.214844 292.875 46.179688 C 293.042969 46.078125 293.210938 45.972656 293.378906 45.867188 C 293.429688 45.835938 293.496094 45.792969 293.515625 45.710938 L 293.519531 45.699219 L 293.511719 45.691406 C 293.492188 45.664062 293.472656 45.636719 293.449219 45.609375 C 293.402344 45.546875 293.351562 45.484375 293.304688 45.417969 C 293.277344 45.382812 293.257812 45.34375 293.234375 45.300781 C 293.199219 45.234375 293.164062 45.164062 293.101562 45.105469 L 293.085938 45.089844 Z M 285.710938 41.835938 C 285.699219 41.851562 285.683594 41.867188 285.667969 41.882812 C 285.628906 41.921875 285.59375 41.960938 285.558594 42.003906 C 285.519531 42.050781 285.484375 42.097656 285.449219 42.152344 C 285.433594 42.175781 285.417969 42.199219 285.398438 42.222656 L 285.390625 42.238281 L 285.402344 42.25 C 285.578125 42.421875 285.90625 42.664062 286.050781 42.738281 C 286.085938 42.753906 286.117188 42.761719 286.152344 42.769531 C 286.164062 42.773438 286.179688 42.777344 286.195312 42.78125 L 286.214844 42.789062 L 286.222656 42.769531 C 286.28125 42.617188 286.359375 42.238281 286.363281 42.089844 L 286.363281 42.078125 L 286.355469 42.074219 C 286.199219 41.964844 285.941406 41.863281 285.730469 41.832031 L 285.71875 41.828125 Z M 293.902344 41.652344 C 293.824219 41.703125 293.75 41.75 293.675781 41.792969 C 293.5625 41.859375 293.453125 41.925781 293.351562 41.996094 L 293.339844 42.007812 L 293.34375 42.019531 C 293.460938 42.367188 293.558594 42.566406 293.675781 42.695312 L 293.6875 42.707031 L 294.300781 42.449219 L 294.292969 42.433594 C 294.222656 42.152344 294.082031 41.917969 293.933594 41.664062 L 293.921875 41.640625 Z M 288.167969 41.882812 C 288.15625 41.910156 288.144531 41.933594 288.136719 41.960938 C 288.070312 42.117188 288.007812 42.261719 288.019531 42.445312 L 288.019531 42.453125 L 288.03125 42.460938 C 288.238281 42.59375 288.402344 42.648438 288.601562 42.648438 L 288.617188 42.648438 L 288.621094 42.636719 C 288.691406 42.460938 288.773438 42.246094 288.828125 41.992188 L 288.832031 41.96875 L 288.804688 41.96875 C 288.699219 41.960938 288.59375 41.9375 288.492188 41.917969 C 288.394531 41.898438 288.292969 41.878906 288.191406 41.867188 L 288.175781 41.867188 Z M 285.316406 39.441406 C 285.121094 39.492188 284.929688 39.546875 284.742188 39.65625 L 284.726562 39.664062 L 284.734375 39.679688 C 284.800781 39.871094 284.804688 39.875 284.921875 39.992188 L 284.933594 40 L 284.949219 39.996094 C 284.992188 39.976562 285.035156 39.960938 285.082031 39.941406 C 285.214844 39.886719 285.351562 39.832031 285.488281 39.773438 C 285.507812 39.765625 285.527344 39.75 285.546875 39.734375 C 285.558594 39.726562 285.570312 39.71875 285.582031 39.710938 L 285.601562 39.695312 L 285.328125 39.4375 Z M 288.746094 38.917969 C 288.6875 39.027344 288.632812 39.128906 288.578125 39.230469 C 288.558594 39.269531 288.53125 39.3125 288.507812 39.351562 C 288.445312 39.457031 288.382812 39.5625 288.355469 39.6875 L 288.351562 39.703125 L 288.367188 39.710938 C 288.550781 39.804688 288.679688 39.839844 288.835938 39.839844 C 288.855469 39.839844 288.871094 39.839844 288.890625 39.839844 L 288.898438 39.839844 L 288.90625 39.828125 C 289.125 39.546875 289.289062 39.164062 289.292969 38.914062 L 289.292969 38.898438 L 289.28125 38.894531 C 289.152344 38.835938 289.015625 38.796875 288.84375 38.765625 L 288.828125 38.765625 Z M 288.746094 38.917969 " fill-opacity="1" fill-rule="nonzero"/></g><path fill="#e5503d" d="M 290.910156 44.675781 C 290.867188 44.675781 290.832031 44.652344 290.808594 44.609375 C 290.792969 44.582031 290.785156 44.558594 290.777344 44.535156 C 290.765625 44.484375 290.753906 44.4375 290.742188 44.386719 C 290.683594 44.160156 290.628906 43.929688 290.574219 43.699219 C 290.5625 43.652344 290.558594 43.601562 290.554688 43.542969 C 290.554688 43.511719 290.550781 43.484375 290.550781 43.449219 C 290.550781 43.441406 290.550781 43.429688 290.554688 43.417969 C 290.558594 43.386719 290.5625 43.34375 290.574219 43.308594 C 290.597656 43.222656 290.648438 43.179688 290.742188 43.171875 C 290.871094 43.15625 290.976562 43.136719 291.070312 43.105469 C 291.109375 43.089844 291.148438 43.082031 291.183594 43.082031 C 291.304688 43.082031 291.402344 43.164062 291.46875 43.320312 C 291.480469 43.347656 291.488281 43.378906 291.496094 43.414062 C 291.503906 43.4375 291.507812 43.460938 291.515625 43.480469 C 291.574219 43.65625 291.632812 43.828125 291.6875 43.992188 C 291.695312 44.015625 291.707031 44.042969 291.71875 44.066406 C 291.730469 44.101562 291.746094 44.136719 291.753906 44.171875 C 291.796875 44.324219 291.71875 44.472656 291.566406 44.519531 C 291.390625 44.570312 291.210938 44.617188 291.035156 44.664062 C 291 44.671875 290.957031 44.675781 290.917969 44.675781 Z M 291.15625 43.214844 C 291.144531 43.214844 291.128906 43.214844 291.117188 43.21875 C 291.027344 43.238281 290.9375 43.261719 290.847656 43.28125 C 290.8125 43.292969 290.78125 43.300781 290.746094 43.308594 L 290.734375 43.3125 L 290.730469 43.324219 C 290.726562 43.335938 290.722656 43.34375 290.722656 43.351562 C 290.71875 43.363281 290.714844 43.375 290.714844 43.390625 L 290.734375 43.535156 C 290.769531 43.773438 290.800781 44.015625 290.839844 44.257812 C 290.851562 44.339844 290.871094 44.421875 290.949219 44.488281 L 290.957031 44.496094 L 291.566406 44.304688 L 291.570312 44.292969 C 291.597656 44.191406 291.578125 44.117188 291.554688 44.050781 C 291.488281 43.859375 291.421875 43.664062 291.355469 43.476562 L 291.3125 43.363281 C 291.304688 43.339844 291.296875 43.320312 291.285156 43.300781 C 291.253906 43.242188 291.210938 43.214844 291.15625 43.214844 Z M 291.15625 43.214844 " fill-opacity="1" fill-rule="nonzero"/><path fill="#e5503d" d="M 284.945312 45.058594 C 284.816406 45.058594 284.707031 45.050781 284.652344 45.039062 C 284.527344 45.015625 284.496094 44.984375 284.472656 44.863281 C 284.460938 44.8125 284.457031 44.757812 284.453125 44.695312 L 284.445312 44.589844 C 284.429688 44.371094 284.417969 44.148438 284.40625 43.925781 C 284.398438 43.777344 284.402344 43.777344 284.464844 43.671875 C 284.511719 43.675781 284.554688 43.679688 284.597656 43.683594 C 284.703125 43.695312 284.804688 43.707031 284.902344 43.71875 C 284.984375 43.726562 285.070312 43.742188 285.148438 43.753906 C 285.167969 43.757812 285.1875 43.761719 285.207031 43.765625 C 285.277344 43.773438 285.3125 43.816406 285.316406 43.894531 C 285.316406 43.945312 285.320312 44.015625 285.316406 44.085938 C 285.300781 44.363281 285.308594 44.609375 285.339844 44.835938 L 285.339844 44.839844 C 285.347656 44.910156 285.359375 44.980469 285.3125 45.035156 C 285.226562 45.050781 285.085938 45.058594 284.945312 45.058594 Z M 284.5625 43.820312 C 284.558594 43.839844 284.554688 43.855469 284.554688 43.871094 C 284.546875 43.894531 284.542969 43.914062 284.546875 43.933594 C 284.554688 44.191406 284.570312 44.464844 284.582031 44.746094 C 284.585938 44.785156 284.589844 44.8125 284.605469 44.835938 C 284.613281 44.851562 284.640625 44.898438 284.679688 44.90625 C 284.769531 44.921875 284.863281 44.933594 284.960938 44.933594 C 285.035156 44.933594 285.105469 44.925781 285.171875 44.910156 L 285.191406 44.90625 L 285.167969 43.898438 L 285.152344 43.894531 C 285.035156 43.867188 284.921875 43.851562 284.800781 43.835938 C 284.730469 43.824219 284.660156 43.816406 284.585938 43.800781 L 284.566406 43.796875 Z M 284.5625 43.820312 " fill-opacity="1" fill-rule="nonzero"/><path fill="#e5503d" d="M 289.898438 47.027344 C 289.859375 47.027344 289.832031 47 289.777344 46.914062 C 289.726562 46.832031 289.683594 46.746094 289.636719 46.664062 L 289.621094 46.632812 C 289.589844 46.578125 289.558594 46.519531 289.53125 46.464844 C 289.511719 46.425781 289.492188 46.386719 289.46875 46.347656 C 289.4375 46.289062 289.429688 46.257812 289.4375 46.238281 C 289.445312 46.21875 289.476562 46.203125 289.546875 46.179688 C 289.605469 46.164062 289.667969 46.144531 289.734375 46.125 C 289.816406 46.105469 289.898438 46.082031 289.980469 46.0625 C 290.144531 46.019531 290.3125 45.972656 290.476562 45.925781 C 290.5 45.921875 290.523438 45.917969 290.542969 45.917969 C 290.59375 45.917969 290.632812 45.9375 290.671875 45.976562 C 290.714844 46.019531 290.753906 46.0625 290.796875 46.101562 C 290.851562 46.15625 290.90625 46.214844 290.960938 46.273438 C 290.976562 46.289062 290.988281 46.316406 291 46.339844 C 291.007812 46.351562 291.011719 46.359375 291.015625 46.371094 C 291.011719 46.378906 291.007812 46.390625 291.007812 46.398438 C 290.996094 46.421875 290.992188 46.441406 290.976562 46.457031 C 290.941406 46.496094 290.90625 46.527344 290.867188 46.546875 C 290.589844 46.691406 290.304688 46.84375 290.015625 46.988281 C 289.957031 47.015625 289.925781 47.027344 289.898438 47.027344 Z M 290.527344 46.046875 C 290.480469 46.0625 290.433594 46.074219 290.386719 46.089844 C 290.28125 46.121094 290.183594 46.152344 290.082031 46.179688 C 289.980469 46.207031 289.882812 46.230469 289.777344 46.253906 C 289.726562 46.265625 289.679688 46.277344 289.628906 46.289062 L 289.605469 46.296875 L 289.617188 46.320312 C 289.628906 46.347656 289.640625 46.375 289.65625 46.402344 C 289.683594 46.464844 289.710938 46.527344 289.742188 46.589844 C 289.75 46.601562 289.757812 46.617188 289.765625 46.632812 C 289.800781 46.707031 289.839844 46.785156 289.917969 46.835938 L 289.925781 46.84375 L 289.988281 46.820312 C 290.28125 46.703125 290.554688 46.59375 290.804688 46.398438 L 290.816406 46.386719 L 290.804688 46.363281 C 290.734375 46.242188 290.664062 46.128906 290.542969 46.050781 L 290.535156 46.042969 Z M 290.527344 46.046875 " fill-opacity="1" fill-rule="nonzero"/><path fill="#e5503d" d="M 222.359375 79.167969 C 222.222656 79.167969 222.085938 79.140625 221.949219 79.082031 C 221.445312 78.855469 221.21875 78.261719 221.441406 77.757812 L 224.488281 70.953125 C 224.714844 70.449219 225.308594 70.222656 225.8125 70.445312 C 226.316406 70.671875 226.546875 71.261719 226.320312 71.765625 L 223.273438 78.574219 C 223.109375 78.945312 222.746094 79.167969 222.359375 79.167969 Z M 222.359375 79.167969 " fill-opacity="1" fill-rule="nonzero"/><path fill="#e5503d" d="M 236.507812 96.929688 C 236.054688 96.929688 235.644531 96.621094 235.535156 96.160156 C 235.40625 95.621094 235.738281 95.082031 236.277344 94.953125 L 243.535156 93.214844 C 244.074219 93.085938 244.613281 93.417969 244.742188 93.957031 C 244.875 94.496094 244.539062 95.039062 244 95.167969 L 236.742188 96.902344 C 236.664062 96.921875 236.585938 96.929688 236.507812 96.929688 Z M 236.507812 96.929688 " fill-opacity="1" fill-rule="nonzero"/><path fill="#e5503d" d="M 152.433594 79.167969 C 152.046875 79.167969 151.679688 78.949219 151.515625 78.578125 L 148.46875 71.769531 C 148.242188 71.265625 148.46875 70.671875 148.976562 70.449219 C 149.480469 70.222656 150.074219 70.449219 150.300781 70.953125 L 153.347656 77.761719 C 153.574219 78.265625 153.347656 78.855469 152.839844 79.082031 C 152.707031 79.140625 152.566406 79.167969 152.433594 79.167969 Z M 152.433594 79.167969 " fill-opacity="1" fill-rule="nonzero"/><path fill="#e5503d" d="M 138.285156 96.929688 C 138.207031 96.929688 138.128906 96.921875 138.050781 96.902344 L 130.789062 95.167969 C 130.25 95.039062 129.917969 94.496094 130.046875 93.957031 C 130.175781 93.417969 130.714844 93.085938 131.257812 93.214844 L 138.515625 94.953125 C 139.054688 95.082031 139.386719 95.621094 139.257812 96.160156 C 139.148438 96.621094 138.738281 96.929688 138.285156 96.929688 Z M 138.285156 96.929688 " fill-opacity="1" fill-rule="nonzero"/><path fill="#ff4c4e" d="M 129.449219 175.808594 L 158.789062 175.808594 L 179.152344 160.699219 L 144.871094 160.699219 C 143.976562 160.699219 143.132812 161.113281 142.589844 161.824219 C 139.460938 165.917969 134.886719 168.667969 129.800781 169.519531 L 128.507812 169.734375 C 127.785156 169.851562 127.359375 170.609375 127.632812 171.289062 Z M 129.449219 175.808594 " fill-opacity="1" fill-rule="nonzero"/><path fill="#ff4c4e" d="M 216.003906 175.808594 L 245.34375 175.808594 L 247.152344 171.289062 C 247.425781 170.609375 247 169.851562 246.277344 169.734375 L 244.984375 169.519531 C 239.898438 168.671875 235.328125 165.917969 232.195312 161.824219 C 231.652344 161.113281 230.8125 160.699219 229.917969 160.699219 L 195.640625 160.699219 Z M 216.003906 175.808594 " fill-opacity="1" fill-rule="nonzero"/><path fill="#ff4c4e" d="M 180.261719 106.984375 L 150.589844 106.984375 C 149.816406 106.984375 149.085938 107.347656 148.617188 107.960938 C 145.910156 111.503906 141.953125 113.882812 137.546875 114.617188 L 136.429688 114.804688 C 135.804688 114.90625 135.433594 115.5625 135.671875 116.148438 L 137.242188 120.058594 L 162.632812 120.058594 Z M 180.261719 106.984375 " fill-opacity="1" fill-rule="nonzero"/><path fill="#ff4c4e" d="M 238.363281 114.804688 L 237.246094 114.621094 C 232.847656 113.886719 228.886719 111.503906 226.175781 107.960938 C 225.707031 107.351562 224.980469 106.988281 224.207031 106.988281 L 194.53125 106.988281 L 212.160156 120.066406 L 237.550781 120.066406 L 239.117188 116.15625 C 239.355469 115.566406 238.988281 114.910156 238.363281 114.804688 Z M 238.363281 114.804688 " fill-opacity="1" fill-rule="nonzero"/><path fill="#5ce1e6" d="M 173.992188 185.03125 L 169.453125 185.03125 C 168.820312 185.03125 168.308594 184.519531 168.308594 183.886719 L 168.308594 177.863281 C 168.308594 177.230469 168.820312 176.71875 169.453125 176.71875 L 173.992188 176.71875 C 174.625 176.71875 175.140625 177.230469 175.140625 177.863281 L 175.140625 183.886719 C 175.140625 184.515625 174.625 185.03125 173.992188 185.03125 Z M 173.992188 185.03125 " fill-opacity="1" fill-rule="nonzero"/><path fill="#5ce1e6" d="M 189.664062 185.03125 L 185.125 185.03125 C 184.492188 185.03125 183.980469 184.519531 183.980469 183.886719 L 183.980469 177.863281 C 183.980469 177.230469 184.492188 176.71875 185.125 176.71875 L 189.664062 176.71875 C 190.300781 176.71875 190.8125 177.230469 190.8125 177.863281 L 190.8125 183.886719 C 190.8125 184.515625 190.300781 185.03125 189.664062 185.03125 Z M 189.664062 185.03125 " fill-opacity="1" fill-rule="nonzero"/><path fill="#5ce1e6" d="M 223.046875 192.648438 L 151.746094 192.648438 C 148.597656 192.648438 145.746094 194.503906 144.46875 197.378906 L 230.320312 197.378906 C 229.046875 194.503906 226.195312 192.648438 223.046875 192.648438 Z M 223.046875 192.648438 " fill-opacity="1" fill-rule="nonzero"/><path fill="#5ce1e6" d="M 219.652344 134.457031 L 155.140625 134.457031 C 152.292969 134.457031 149.710938 136.132812 148.554688 138.738281 L 226.234375 138.738281 C 225.082031 136.132812 222.5 134.457031 219.652344 134.457031 Z M 219.652344 134.457031 " fill-opacity="1" fill-rule="nonzero"/><path fill="#5ce1e6" d="M 206.609375 86.570312 L 168.183594 86.570312 C 165.835938 86.570312 163.761719 88.089844 163.050781 90.328125 L 211.742188 90.328125 C 211.03125 88.089844 208.953125 86.570312 206.609375 86.570312 Z M 206.609375 86.570312 " fill-opacity="1" fill-rule="nonzero"/><path fill="#5ce1e6" d="M 205.339844 185.03125 L 200.800781 185.03125 C 200.164062 185.03125 199.652344 184.519531 199.652344 183.886719 L 199.652344 177.863281 C 199.652344 177.230469 200.164062 176.71875 200.800781 176.71875 L 205.339844 176.71875 C 205.972656 176.71875 206.484375 177.230469 206.484375 177.863281 L 206.484375 183.886719 C 206.484375 184.515625 205.972656 185.03125 205.339844 185.03125 Z M 205.339844 185.03125 " fill-opacity="1" fill-rule="nonzero"/><path fill="#5ce1e6" d="M 181.832031 128.105469 L 177.292969 128.105469 C 176.660156 128.105469 176.144531 127.59375 176.144531 126.960938 L 176.144531 120.9375 C 176.144531 120.304688 176.660156 119.792969 177.292969 119.792969 L 181.832031 119.792969 C 182.464844 119.792969 182.976562 120.304688 182.976562 120.9375 L 182.976562 126.960938 C 182.976562 127.59375 182.464844 128.105469 181.832031 128.105469 Z M 181.832031 128.105469 " fill-opacity="1" fill-rule="nonzero"/><path fill="#5ce1e6" d="M 197.503906 128.105469 L 192.964844 128.105469 C 192.332031 128.105469 191.816406 127.59375 191.816406 126.960938 L 191.816406 120.9375 C 191.816406 120.304688 192.332031 119.792969 192.964844 119.792969 L 197.503906 119.792969 C 198.136719 119.792969 198.648438 120.304688 198.648438 120.9375 L 198.648438 126.960938 C 198.648438 127.59375 198.136719 128.105469 197.503906 128.105469 Z M 197.503906 128.105469 " fill-opacity="1" fill-rule="nonzero"/><g clip-path="url(#4c1e6edee1)"><path fill="#0097b2" d="M 256.273438 197.324219 C 255.871094 196.734375 255.207031 196.378906 254.492188 196.378906 L 245.410156 196.378906 L 237.371094 190.414062 L 237.371094 176.808594 L 245.34375 176.808594 C 245.894531 176.808594 246.347656 176.359375 246.347656 175.808594 C 246.347656 175.253906 245.894531 174.804688 245.34375 174.804688 L 216.371094 174.832031 L 187.996094 153.777344 C 187.640625 153.515625 187.15625 153.515625 186.800781 153.777344 L 158.425781 174.832031 L 129.332031 174.804688 C 128.777344 174.804688 128.328125 175.253906 128.328125 175.808594 C 128.328125 176.359375 128.777344 176.808594 129.332031 176.808594 L 137.425781 176.808594 L 137.425781 190.414062 L 129.382812 196.378906 L 120.300781 196.378906 C 119.585938 196.378906 118.921875 196.730469 118.519531 197.324219 C 118.117188 197.914062 118.039062 198.664062 118.304688 199.324219 L 119.921875 203.363281 C 120.253906 204.183594 121.035156 204.714844 121.917969 204.714844 L 252.871094 204.714844 C 253.753906 204.714844 254.539062 204.183594 254.867188 203.363281 L 256.484375 199.324219 C 256.753906 198.664062 256.675781 197.914062 256.273438 197.324219 Z M 235.363281 176.835938 L 235.363281 188.925781 L 219.074219 176.835938 Z M 139.425781 176.835938 L 155.71875 176.835938 L 139.425781 188.925781 Z M 187.394531 155.832031 L 242.042969 196.378906 L 132.746094 196.378906 Z M 254.625 198.582031 L 253.007812 202.617188 C 252.984375 202.671875 252.929688 202.707031 252.875 202.707031 L 121.921875 202.707031 C 121.859375 202.707031 121.808594 202.671875 121.789062 202.617188 L 120.171875 198.582031 C 120.148438 198.535156 120.15625 198.488281 120.183594 198.445312 C 120.214844 198.402344 120.253906 198.382812 120.300781 198.382812 L 254.492188 198.382812 C 254.542969 198.382812 254.585938 198.402344 254.609375 198.445312 C 254.640625 198.488281 254.644531 198.535156 254.625 198.582031 Z M 254.625 198.582031 " fill-opacity="1" fill-rule="nonzero"/></g><path fill="#0097b2" d="M 128.871094 143.964844 C 129.175781 144.726562 129.902344 145.21875 130.722656 145.21875 L 143.199219 145.21875 L 143.199219 156.949219 C 143.199219 157.5 143.648438 157.949219 144.203125 157.949219 C 144.753906 157.949219 145.203125 157.5 145.203125 156.949219 L 145.203125 145.21875 L 229.585938 145.21875 L 229.585938 156.949219 C 229.585938 157.5 230.039062 157.949219 230.589844 157.949219 C 231.144531 157.949219 231.59375 157.5 231.59375 156.949219 L 231.59375 145.21875 L 244.070312 145.21875 C 244.890625 145.21875 245.617188 144.722656 245.921875 143.964844 L 247.324219 140.46875 C 247.570312 139.855469 247.496094 139.160156 247.121094 138.609375 C 246.75 138.0625 246.132812 137.734375 245.46875 137.734375 L 237.65625 137.734375 L 227.515625 130.210938 L 227.515625 121.066406 L 237.550781 121.066406 C 238.105469 121.066406 238.554688 120.617188 238.554688 120.0625 C 238.554688 119.511719 238.105469 119.0625 237.550781 119.0625 L 212.488281 119.0625 L 187.992188 100.882812 C 187.636719 100.621094 187.152344 100.621094 186.796875 100.882812 L 162.300781 119.0625 L 137.136719 119.0625 C 136.582031 119.0625 136.132812 119.511719 136.132812 120.0625 C 136.132812 120.617188 136.582031 121.066406 137.136719 121.066406 L 147.277344 121.066406 L 147.277344 130.210938 L 137.136719 137.730469 L 129.320312 137.730469 C 128.65625 137.730469 128.039062 138.058594 127.667969 138.609375 C 127.292969 139.15625 127.21875 139.851562 127.464844 140.464844 Z M 225.507812 121.066406 L 225.507812 128.722656 L 215.191406 121.066406 Z M 149.28125 121.066406 L 159.601562 121.066406 L 149.28125 128.722656 Z M 187.394531 102.941406 L 234.289062 137.734375 L 140.503906 137.734375 Z M 245.460938 139.722656 L 244.0625 143.210938 L 130.734375 143.21875 L 129.320312 139.738281 Z M 245.460938 139.722656 " fill-opacity="1" fill-rule="nonzero"/><g clip-path="url(#2392cdef18)"><path fill="#0097b2" d="M 147.363281 94.558594 C 147.644531 95.457031 148.46875 96.0625 149.414062 96.0625 L 155.472656 96.0625 L 155.472656 103.683594 C 155.472656 104.234375 155.921875 104.683594 156.476562 104.683594 C 157.027344 104.683594 157.476562 104.234375 157.476562 103.683594 L 157.476562 96.0625 L 217.316406 96.0625 L 217.316406 103.683594 C 217.316406 104.234375 217.765625 104.683594 218.320312 104.683594 C 218.871094 104.683594 219.324219 104.234375 219.324219 103.683594 L 219.324219 96.0625 L 225.378906 96.0625 C 226.324219 96.0625 227.148438 95.457031 227.433594 94.558594 L 228.199219 92.113281 C 228.40625 91.457031 228.292969 90.757812 227.882812 90.199219 C 227.472656 89.640625 226.84375 89.324219 226.148438 89.324219 L 158.007812 89.324219 L 187.394531 67.519531 L 212.613281 86.234375 C 213.058594 86.5625 213.6875 86.46875 214.019531 86.027344 C 214.347656 85.582031 214.257812 84.957031 213.8125 84.625 L 187.996094 65.46875 C 187.640625 65.203125 187.15625 65.203125 186.800781 65.46875 L 154.644531 89.324219 L 148.644531 89.324219 C 147.957031 89.324219 147.324219 89.644531 146.914062 90.203125 C 146.503906 90.761719 146.386719 91.457031 146.59375 92.117188 Z M 148.527344 91.390625 C 148.558594 91.351562 148.597656 91.332031 148.644531 91.332031 L 226.144531 91.332031 C 226.195312 91.332031 226.230469 91.351562 226.261719 91.390625 C 226.289062 91.429688 226.292969 91.472656 226.28125 91.519531 L 225.511719 93.964844 C 225.492188 94.023438 225.4375 94.0625 225.375 94.0625 L 149.410156 94.0625 C 149.347656 94.0625 149.292969 94.023438 149.273438 93.964844 L 148.507812 91.519531 C 148.496094 91.46875 148.5 91.425781 148.527344 91.390625 Z M 148.527344 91.390625 " fill-opacity="1" fill-rule="nonzero"/></g></svg>