<svg xmlns="http://www.w3.org/2000/svg" xmlns:xlink="http://www.w3.org/1999/xlink" width="500" zoomAndPan="magnify" viewBox="0 0 375 225" height="300" preserveAspectRatio="xMidYMid meet" version="1.0"><defs><clipPath id="e62891d4af"><path d="M 219 18.371094 L 291 18.371094 L 291 90 L 219 90 Z M 219 18.371094 " clip-rule="nonzero"/></clipPath><clipPath id="ad0e1c0b6f"><path d="M 51.378906 172.523438 L 323.53125 172.523438 L 323.53125 206.621094 L 51.378906 206.621094 Z M 51.378906 172.523438 " clip-rule="nonzero"/></clipPath><clipPath id="f3a57a83f9"><path d="M 172 46 L 323.578125 46 L 323.578125 173 L 172 173 Z M 172 46 " clip-rule="nonzero"/></clipPath><clipPath id="2be567f77f"><path d="M 51.328125 129 L 87 129 L 87 173 L 51.328125 173 Z M 51.328125 129 " clip-rule="nonzero"/></clipPath></defs><g clip-path="url(#e62891d4af)"><path fill="#ee2549" d="M 219.480469 53.964844 C 219.480469 34.304688 235.410156 18.371094 255.058594 18.371094 C 274.710938 18.371094 290.640625 34.304688 290.640625 53.964844 C 290.640625 73.621094 274.710938 89.554688 255.058594 89.554688 C 235.410156 89.554688 219.480469 73.621094 219.480469 53.964844 " fill-opacity="1" fill-rule="nonzero"/></g><g clip-path="url(#ad0e1c0b6f)"><path fill="#ffffff" d="M 323.53125 172.59375 L 51.378906 172.59375 L 51.378906 206.621094 L 323.53125 206.621094 L 323.53125 172.59375 " fill-opacity="1" fill-rule="nonzero"/></g><path fill="#ffffff" d="M 181.734375 133.773438 C 181.734375 133.773438 179.6875 133.582031 179.199219 132.859375 C 179.199219 132.859375 179.277344 133.8125 179.574219 134.25 L 169.621094 134.25 L 169.621094 131.078125 C 174.347656 131.054688 178.386719 130.910156 181.734375 130.71875 Z M 166.378906 134.25 L 156.425781 134.25 C 156.71875 133.8125 156.800781 132.859375 156.800781 132.859375 C 156.308594 133.582031 154.261719 133.773438 154.261719 133.773438 L 154.261719 130.71875 C 157.609375 130.910156 161.648438 131.054688 166.378906 131.078125 Z M 168 126.089844 C 154.316406 126.089844 137.90625 123.082031 137.90625 123.082031 C 137.90625 123.082031 137.839844 124.394531 138.855469 126.089844 C 138.855469 126.089844 139.773438 126.238281 141.605469 126.445312 C 141.523438 128.304688 142.019531 129.515625 142.019531 129.515625 C 142.019531 129.515625 144.753906 130.011719 150.25 130.449219 L 150.25 133.773438 C 150.25 133.773438 148.207031 133.582031 147.71875 132.859375 C 147.71875 132.859375 147.796875 133.8125 148.089844 134.25 L 142.019531 134.25 L 142.019531 137.542969 L 150.25 137.542969 L 150.25 171.300781 L 149.75 171.300781 L 149.144531 172.792969 L 155.371094 172.792969 L 154.765625 171.300781 L 154.261719 171.300781 L 154.261719 137.542969 L 181.734375 137.542969 L 181.734375 171.300781 L 181.234375 171.300781 L 180.628906 172.792969 L 186.851562 172.792969 L 186.25 171.300781 L 185.746094 171.300781 L 185.746094 137.542969 L 193.976562 137.542969 L 193.976562 134.25 L 187.910156 134.25 C 188.203125 133.8125 188.28125 132.859375 188.28125 132.859375 C 187.792969 133.582031 185.746094 133.773438 185.746094 133.773438 L 185.746094 130.449219 C 191.242188 130.011719 193.976562 129.515625 193.976562 129.515625 C 193.976562 129.515625 194.472656 128.304688 194.394531 126.445312 C 196.226562 126.238281 197.140625 126.089844 197.140625 126.089844 C 198.15625 124.394531 198.09375 123.082031 198.09375 123.082031 C 198.09375 123.082031 181.683594 126.089844 168 126.089844 " fill-opacity="1" fill-rule="nonzero"/><path fill="#ffffff" d="M 128.21875 140.207031 C 128.21875 140.207031 127.472656 140.917969 125.933594 140.917969 L 122.269531 140.917969 C 122.269531 140.917969 123.421875 139.980469 123.21875 138.839844 C 123.21875 138.839844 119.011719 141.269531 110.359375 137.085938 L 110.359375 133.277344 L 106.621094 133.277344 L 106.621094 126.625 C 106.621094 126.625 115.144531 125.839844 121.355469 123.878906 L 121.355469 124.429688 C 121.214844 124.523438 121.035156 124.761719 121.035156 125.363281 C 121.035156 125.890625 120.742188 126.042969 120.738281 126.046875 C 120.632812 126.09375 120.570312 126.210938 120.597656 126.324219 C 120.621094 126.433594 120.71875 126.515625 120.839844 126.515625 L 122.246094 126.515625 C 122.359375 126.515625 122.457031 126.433594 122.484375 126.324219 C 122.507812 126.214844 122.453125 126.097656 122.351562 126.046875 C 122.339844 126.042969 122.046875 125.890625 122.046875 125.363281 C 122.046875 124.761719 121.867188 124.523438 121.726562 124.429688 L 121.726562 123.761719 C 124.238281 122.9375 126.328125 121.914062 127.238281 120.664062 L 126.027344 120.664062 C 126.027344 120.664062 127.171875 119.695312 127.238281 118.566406 C 127.238281 118.566406 126.511719 119.25 125.019531 119.25 L 121.457031 119.25 C 121.457031 119.25 122.582031 118.34375 122.378906 117.238281 C 122.378906 117.238281 118.074219 119.726562 109.210938 115.195312 L 109.210938 111.78125 L 105.734375 111.78125 L 105.734375 106.582031 C 105.734375 106.582031 114.527344 104.855469 120.34375 102.183594 L 120.34375 102.648438 C 120.199219 102.742188 120.023438 102.980469 120.023438 103.582031 C 120.023438 104.109375 119.730469 104.261719 119.722656 104.261719 C 119.617188 104.3125 119.558594 104.425781 119.582031 104.539062 C 119.609375 104.652344 119.707031 104.734375 119.824219 104.734375 L 121.234375 104.734375 C 121.347656 104.734375 121.445312 104.652344 121.46875 104.542969 C 121.496094 104.433594 121.441406 104.316406 121.339844 104.265625 C 121.328125 104.261719 121.035156 104.109375 121.035156 103.582031 C 121.035156 102.980469 120.855469 102.742188 120.714844 102.648438 L 120.714844 102.007812 C 122.632812 101.09375 124.183594 100.070312 124.914062 98.976562 L 123.792969 98.976562 C 123.792969 98.976562 124.855469 97.992188 124.914062 96.847656 C 124.914062 96.847656 124.238281 97.542969 122.851562 97.542969 L 119.535156 97.542969 C 119.535156 97.542969 120.582031 96.621094 120.398438 95.496094 C 120.398438 95.496094 118.289062 96.753906 114.40625 95.214844 C 114.40625 95.214844 98.847656 89.078125 96.972656 84.574219 L 96.972656 82.859375 L 95.472656 82.859375 C 95.472656 82.859375 95.785156 81.613281 94.441406 81.363281 L 94.441406 80.75 C 95.105469 80.488281 96.003906 79.847656 96.003906 78.6875 C 96.003906 78.550781 95.894531 78.441406 95.757812 78.441406 L 94.4375 78.441406 L 94.429688 77.007812 L 95.144531 77.007812 C 95.335938 77.007812 95.492188 76.851562 95.492188 76.660156 C 95.492188 76.46875 95.335938 76.316406 95.144531 76.316406 L 94.429688 76.316406 L 94.429688 75.113281 L 95.101562 75.113281 C 95.285156 75.113281 95.4375 74.96875 95.4375 74.789062 C 95.4375 74.601562 95.285156 74.457031 95.101562 74.457031 L 94.425781 74.457031 L 94.417969 73.21875 L 95.058594 73.21875 C 95.234375 73.21875 95.375 73.078125 95.375 72.910156 C 95.375 72.734375 95.234375 72.597656 95.058594 72.597656 L 94.417969 72.597656 L 94.414062 71.324219 L 95.015625 71.324219 C 95.183594 71.324219 95.320312 71.191406 95.320312 71.03125 C 95.320312 70.871094 95.183594 70.742188 95.015625 70.742188 L 94.414062 70.742188 L 94.410156 69.425781 L 94.972656 69.425781 C 95.132812 69.425781 95.261719 69.304688 95.261719 69.15625 C 95.261719 69.003906 95.132812 68.882812 94.972656 68.882812 L 94.40625 68.882812 L 94.402344 67.53125 L 94.925781 67.53125 C 95.082031 67.53125 95.203125 67.417969 95.203125 67.277344 C 95.203125 67.136719 95.082031 67.027344 94.925781 67.027344 L 94.402344 67.027344 L 94.398438 65.636719 L 94.886719 65.636719 C 95.027344 65.636719 95.148438 65.53125 95.148438 65.402344 C 95.148438 65.273438 95.027344 65.167969 94.886719 65.167969 L 94.398438 65.167969 L 94.390625 63.742188 L 94.839844 63.742188 C 94.980469 63.742188 95.089844 63.644531 95.089844 63.523438 C 95.089844 63.410156 94.980469 63.308594 94.839844 63.308594 L 94.390625 63.308594 L 94.386719 61.847656 L 94.796875 61.847656 C 94.925781 61.847656 95.03125 61.757812 95.03125 61.648438 C 95.03125 61.539062 94.925781 61.453125 94.796875 61.453125 L 94.386719 61.453125 L 94.382812 59.828125 C 94.753906 59.703125 95.023438 59.351562 95.023438 58.9375 L 95.023438 55.605469 C 95.023438 55.183594 94.746094 54.835938 94.367188 54.714844 L 94.363281 53.140625 C 94.515625 53.046875 94.621094 52.875 94.621094 52.679688 L 94.621094 51.921875 C 94.621094 51.726562 94.515625 51.554688 94.359375 51.457031 L 94.351562 49.652344 C 94.527344 49.558594 94.640625 49.375 94.640625 49.164062 C 94.640625 48.949219 94.523438 48.769531 94.347656 48.671875 L 94.347656 48.171875 C 94.347656 48.023438 94.230469 47.90625 94.082031 47.90625 C 93.9375 47.90625 93.816406 48.023438 93.816406 48.171875 L 93.8125 48.671875 C 93.640625 48.769531 93.519531 48.949219 93.519531 49.164062 C 93.519531 49.375 93.640625 49.558594 93.8125 49.652344 L 93.804688 51.457031 C 93.644531 51.554688 93.539062 51.726562 93.539062 51.921875 L 93.539062 52.679688 C 93.539062 52.875 93.644531 53.046875 93.800781 53.140625 L 93.796875 54.714844 C 93.417969 54.835938 93.140625 55.183594 93.140625 55.605469 L 93.140625 58.9375 C 93.140625 59.351562 93.410156 59.703125 93.78125 59.828125 L 93.777344 61.453125 L 93.367188 61.453125 C 93.234375 61.453125 93.132812 61.539062 93.132812 61.648438 C 93.132812 61.757812 93.234375 61.847656 93.367188 61.847656 L 93.777344 61.847656 L 93.769531 63.308594 L 93.320312 63.308594 C 93.183594 63.308594 93.070312 63.410156 93.070312 63.523438 C 93.070312 63.644531 93.183594 63.742188 93.320312 63.742188 L 93.769531 63.742188 L 93.765625 65.167969 L 93.277344 65.167969 C 93.132812 65.167969 93.015625 65.273438 93.015625 65.402344 C 93.015625 65.53125 93.132812 65.636719 93.277344 65.636719 L 93.761719 65.636719 L 93.761719 67.027344 L 93.234375 67.027344 C 93.082031 67.027344 92.957031 67.136719 92.957031 67.277344 C 92.957031 67.417969 93.082031 67.53125 93.234375 67.53125 L 93.761719 67.53125 L 93.753906 68.882812 L 93.191406 68.882812 C 93.03125 68.882812 92.898438 69.003906 92.898438 69.15625 C 92.898438 69.304688 93.03125 69.425781 93.191406 69.425781 L 93.753906 69.425781 L 93.75 70.742188 L 93.148438 70.742188 C 92.976562 70.742188 92.84375 70.871094 92.84375 71.03125 C 92.84375 71.191406 92.976562 71.324219 93.148438 71.324219 L 93.746094 71.324219 L 93.746094 72.597656 L 93.105469 72.597656 C 92.925781 72.597656 92.785156 72.734375 92.785156 72.910156 C 92.785156 73.078125 92.925781 73.21875 93.105469 73.21875 L 93.742188 73.21875 L 93.738281 74.457031 L 93.0625 74.457031 C 92.878906 74.457031 92.726562 74.601562 92.726562 74.789062 C 92.726562 74.96875 92.878906 75.113281 93.0625 75.113281 L 93.738281 75.113281 L 93.734375 76.316406 L 93.019531 76.316406 C 92.828125 76.316406 92.667969 76.46875 92.667969 76.660156 C 92.667969 76.851562 92.828125 77.007812 93.019531 77.007812 L 93.734375 77.007812 L 93.726562 78.441406 L 92.402344 78.441406 C 92.269531 78.441406 92.160156 78.550781 92.160156 78.6875 C 92.160156 79.847656 93.058594 80.488281 93.71875 80.75 L 93.71875 81.363281 C 92.375 81.613281 92.691406 82.859375 92.691406 82.859375 L 91.1875 82.859375 L 91.1875 84.574219 C 89.316406 89.078125 73.757812 95.214844 73.757812 95.214844 C 69.871094 96.753906 67.765625 95.496094 67.765625 95.496094 C 67.582031 96.621094 68.625 97.542969 68.625 97.542969 L 65.3125 97.542969 C 63.921875 97.542969 63.246094 96.847656 63.246094 96.847656 C 63.308594 97.992188 64.371094 98.976562 64.371094 98.976562 L 63.246094 98.976562 C 63.980469 100.070312 65.53125 101.09375 67.449219 102.011719 L 67.449219 102.648438 C 67.304688 102.742188 67.128906 102.980469 67.128906 103.582031 C 67.128906 104.109375 66.835938 104.261719 66.824219 104.265625 C 66.722656 104.316406 66.664062 104.433594 66.691406 104.542969 C 66.71875 104.652344 66.8125 104.734375 66.929688 104.734375 L 68.339844 104.734375 C 68.453125 104.734375 68.554688 104.652344 68.578125 104.539062 C 68.601562 104.425781 68.546875 104.3125 68.441406 104.261719 C 68.429688 104.261719 68.136719 104.109375 68.136719 103.582031 C 68.136719 102.980469 67.960938 102.742188 67.816406 102.648438 L 67.816406 102.183594 C 73.636719 104.855469 82.425781 106.582031 82.425781 106.582031 L 82.425781 111.78125 L 78.953125 111.78125 L 78.953125 115.195312 C 70.085938 119.726562 65.785156 117.238281 65.785156 117.238281 C 65.585938 118.34375 66.707031 119.25 66.707031 119.25 L 63.144531 119.25 C 61.652344 119.25 60.925781 118.566406 60.925781 118.566406 C 60.992188 119.695312 62.132812 120.664062 62.132812 120.664062 L 60.925781 120.664062 C 61.835938 121.914062 63.921875 122.9375 66.4375 123.761719 L 66.4375 124.429688 C 66.292969 124.523438 66.113281 124.761719 66.113281 125.363281 C 66.113281 125.890625 65.824219 126.042969 65.8125 126.046875 C 65.710938 126.097656 65.652344 126.214844 65.679688 126.324219 C 65.707031 126.433594 65.800781 126.515625 65.914062 126.515625 L 67.328125 126.515625 C 67.441406 126.515625 67.542969 126.433594 67.566406 126.324219 C 67.589844 126.210938 67.53125 126.09375 67.429688 126.046875 C 67.421875 126.042969 67.128906 125.890625 67.128906 125.363281 C 67.128906 124.761719 66.949219 124.523438 66.808594 124.429688 L 66.808594 123.878906 C 73.023438 125.839844 81.542969 126.625 81.542969 126.625 L 81.542969 133.277344 L 77.804688 133.277344 L 77.804688 137.085938 C 69.148438 141.269531 64.945312 138.839844 64.945312 138.839844 C 64.742188 139.980469 65.894531 140.917969 65.894531 140.917969 L 62.226562 140.917969 C 60.691406 140.917969 59.945312 140.207031 59.945312 140.207031 C 60.011719 141.371094 61.1875 142.367188 61.1875 142.367188 L 59.945312 142.367188 C 60.941406 143.742188 63.324219 144.851562 66.144531 145.726562 L 66.144531 146.390625 C 66.003906 146.488281 65.824219 146.726562 65.824219 147.324219 C 65.824219 147.851562 65.535156 148.003906 65.519531 148.007812 C 65.417969 148.058594 65.359375 148.175781 65.386719 148.285156 C 65.414062 148.394531 65.511719 148.476562 65.625 148.476562 L 67.035156 148.476562 C 67.152344 148.476562 67.25 148.394531 67.273438 148.285156 C 67.300781 148.167969 67.242188 148.054688 67.132812 148.007812 C 67.128906 148.003906 66.835938 147.851562 66.835938 147.324219 C 66.835938 146.726562 66.65625 146.488281 66.515625 146.390625 L 66.515625 145.839844 C 72.855469 147.742188 81.167969 148.511719 81.167969 148.511719 L 81.167969 168.269531 L 77.320312 168.269531 L 77.320312 172.792969 L 110.839844 172.792969 L 110.839844 168.269531 L 106.992188 168.269531 L 106.992188 148.511719 C 106.992188 148.511719 115.304688 147.742188 121.648438 145.839844 L 121.648438 146.390625 C 121.507812 146.488281 121.328125 146.726562 121.328125 147.324219 C 121.328125 147.851562 121.035156 148.003906 121.027344 148.007812 C 120.921875 148.054688 120.863281 148.167969 120.886719 148.285156 C 120.910156 148.394531 121.011719 148.476562 121.125 148.476562 L 122.539062 148.476562 C 122.652344 148.476562 122.746094 148.394531 122.777344 148.285156 C 122.800781 148.175781 122.742188 148.058594 122.640625 148.007812 C 122.628906 148.003906 122.339844 147.851562 122.339844 147.324219 C 122.339844 146.726562 122.160156 146.488281 122.015625 146.390625 L 122.015625 145.726562 C 124.839844 144.851562 127.222656 143.742188 128.21875 142.367188 L 126.976562 142.367188 C 126.976562 142.367188 128.152344 141.371094 128.21875 140.207031 " fill-opacity="1" fill-rule="nonzero"/><g clip-path="url(#f3a57a83f9)"><path fill="#ffffff" d="M 314.921875 71.84375 L 314.921875 79.675781 C 317.621094 81.535156 320.714844 82.503906 323.53125 82.984375 L 323.53125 172.792969 L 174.09375 172.792969 L 174.09375 148.941406 L 180.882812 136.160156 L 180.882812 128.175781 C 180.882812 128.175781 174.117188 128.535156 172.371094 126.230469 L 172.628906 125.804688 C 172.628906 125.804688 172.410156 124.984375 172.628906 124.773438 C 172.628906 124.773438 177.257812 125.390625 181.984375 123 L 181.984375 120.371094 C 181.984375 120.371094 175.214844 120.734375 173.46875 118.429688 L 173.722656 118.003906 C 173.722656 118.003906 173.503906 117.1875 173.722656 116.972656 C 173.722656 116.972656 182.753906 118.171875 188.460938 110.71875 L 188.460938 104.550781 C 186.34375 104.433594 183.492188 104.011719 182.445312 102.628906 L 182.703125 102.203125 C 182.703125 102.203125 182.484375 101.382812 182.703125 101.167969 C 182.703125 101.167969 188.859375 102.847656 194.398438 95.21875 C 194.363281 94.988281 194.597656 94.753906 194.726562 94.554688 C 194.875 94.316406 194.691406 93.960938 194.457031 93.742188 C 194.222656 93.523438 194.652344 93.582031 194.710938 93.421875 C 194.769531 93.261719 195.3125 92.785156 195.167969 93.234375 C 195.015625 93.675781 195.472656 94.101562 195.5625 94.425781 C 195.601562 94.605469 195.535156 94.820312 195.464844 94.980469 C 197.152344 94.929688 203.015625 94.660156 209.351562 93.195312 C 209.5 92.902344 209.28125 92.484375 209.003906 92.230469 C 208.71875 91.964844 209.246094 92.03125 209.320312 91.832031 C 209.394531 91.640625 210.058594 91.050781 209.878906 91.597656 C 209.699219 92.144531 210.253906 92.660156 210.359375 93.070312 C 210.460938 93.476562 210.09375 94.035156 210.09375 94.035156 C 215.65625 101.816406 221.882812 100.121094 221.882812 100.121094 C 222.101562 100.335938 221.882812 101.152344 221.882812 101.152344 L 222.136719 101.578125 C 221.09375 102.960938 218.238281 103.382812 216.125 103.503906 L 216.125 112.457031 L 236.972656 109.472656 L 236.972656 104.5625 C 234.835938 104.464844 231.796875 104.066406 230.710938 102.628906 L 230.964844 102.203125 C 230.964844 102.203125 230.746094 101.382812 230.964844 101.167969 C 230.964844 101.167969 241.300781 102.878906 246.773438 94.789062 C 246.789062 94.769531 246.804688 94.742188 246.816406 94.71875 C 246.816406 94.71875 249.027344 95.042969 252.128906 94.871094 C 254.84375 94.449219 259.234375 93.171875 260.929688 89.226562 C 261.789062 87.222656 262.355469 85.648438 262.726562 84.441406 C 260.175781 84.234375 257.007812 83.609375 255.792969 81.816406 L 256.105469 81.226562 C 256.105469 81.226562 255.835938 80.09375 256.105469 79.796875 C 256.105469 79.796875 266.207031 81.269531 273.476562 76.253906 L 273.476562 68.429688 C 273.476562 68.429688 265.089844 68.933594 262.929688 65.738281 L 263.246094 65.148438 C 263.246094 65.148438 262.972656 64.015625 263.246094 63.71875 C 263.246094 63.71875 264.371094 63.886719 266.148438 63.917969 L 266.164062 63.917969 C 269.03125 63.601562 276.90625 62.050781 281.152344 54.359375 L 281.195312 54.289062 C 281.671875 53.46875 282.042969 52.628906 281.695312 52.269531 C 281.335938 51.90625 281.785156 51.261719 281.5 50.707031 C 281.21875 50.144531 281.546875 48.996094 281.246094 48.488281 C 280.945312 47.984375 281.667969 47.816406 281.90625 47.308594 C 282.144531 46.804688 281.753906 46.023438 282.566406 46.640625 C 283.382812 47.257812 283.140625 47.703125 282.867188 47.871094 C 282.597656 48.039062 282.386719 49.160156 282.867188 49.609375 C 283.355469 50.058594 283.261719 51.039062 283.261719 51.039062 C 289.925781 53.929688 299.953125 55.707031 304.015625 56.34375 L 304.019531 56.34375 C 304.589844 56.109375 304.390625 54.175781 303.800781 53.757812 C 303.21875 53.335938 303.667969 53.507812 304.117188 52.960938 C 304.570312 52.410156 305.15625 53.421875 305.5625 53.71875 C 305.964844 54.011719 305.785156 54.726562 305.605469 55.226562 C 305.425781 55.734375 305.832031 56.617188 305.832031 56.617188 C 306.734375 56.828125 306.195312 58.296875 306.195312 58.296875 C 310.097656 64.34375 320.902344 66.957031 322.566406 67.324219 L 322.570312 67.324219 C 322.921875 67.316406 323.242188 67.300781 323.53125 67.285156 L 323.53125 70.671875 C 320.273438 72.167969 314.921875 71.84375 314.921875 71.84375 " fill-opacity="1" fill-rule="nonzero"/></g><g clip-path="url(#2be567f77f)"><path fill="#ffffff" d="M 86.058594 156.40625 L 86.058594 156.613281 C 83.148438 158.796875 73.636719 158.519531 73.636719 158.519531 L 73.636719 168.175781 L 74.140625 168.984375 L 74.140625 172.792969 L 51.378906 172.792969 L 51.378906 135.820312 C 53.027344 134.824219 54.351562 133.585938 55.070312 132.035156 L 55.726562 132.035156 L 55.726562 130.996094 L 57.117188 130.996094 C 57.117188 130.996094 57.117188 130.992188 57.121094 130.988281 C 57.128906 130.949219 57.203125 130.652344 57.230469 130.328125 C 57.257812 130.003906 57.234375 129.652344 57.058594 129.492188 C 56.554688 129.035156 57.160156 128.980469 57.386719 129.390625 C 57.613281 128.980469 58.214844 129.035156 57.710938 129.492188 C 57.535156 129.652344 57.519531 130.007812 57.546875 130.335938 C 57.574219 130.632812 57.632812 130.910156 57.652344 130.976562 L 57.652344 130.988281 L 57.65625 130.996094 L 59.050781 130.996094 L 59.050781 132.035156 L 59.699219 132.035156 C 63.503906 139.746094 81.246094 139.820312 81.246094 139.820312 L 81.246094 140.097656 C 78.226562 143.066406 72.570312 143.570312 72.570312 143.570312 L 72.570312 151.960938 L 77.441406 151.960938 L 77.441406 153.703125 C 78.28125 155.101562 86.058594 156.40625 86.058594 156.40625 " fill-opacity="1" fill-rule="nonzero"/></g><path fill="#ffffff" d="M 194.199219 163.296875 L 192.875 163.296875 C 191.710938 162.851562 189.957031 162.222656 189.65625 162.113281 L 189.65625 160.101562 C 191.582031 160.777344 193.121094 161.363281 194.199219 161.792969 Z M 194.199219 165.617188 L 192.796875 165.617188 C 191.980469 165.175781 189.757812 164.152344 189.660156 164.109375 C 189.660156 164.109375 189.660156 164.109375 189.65625 164.105469 L 189.65625 162.707031 C 190.226562 162.914062 191.714844 163.453125 192.722656 163.835938 C 192.757812 163.847656 192.789062 163.855469 192.824219 163.855469 L 194.199219 163.855469 Z M 187.582031 159.445312 L 187.582031 161.308594 C 185.445312 160.519531 181.742188 159.25 176.945312 157.988281 C 176.1875 157.789062 175.382812 157.582031 174.535156 157.378906 L 174.535156 155.734375 C 176.964844 156.296875 179.191406 156.875 181.160156 157.429688 C 183.542969 158.101562 185.703125 158.773438 187.589844 159.398438 C 187.585938 159.414062 187.582031 159.429688 187.582031 159.445312 Z M 187.582031 163.300781 C 186.183594 162.785156 184.121094 162.066406 181.523438 161.277344 L 181.523438 159.871094 C 184.160156 160.675781 186.226562 161.402344 187.582031 161.90625 Z M 180.824219 161.066406 C 179.636719 160.714844 178.347656 160.351562 176.964844 159.988281 C 176.199219 159.785156 175.386719 159.578125 174.535156 159.375 L 174.535156 157.953125 C 175.328125 158.148438 176.082031 158.339844 176.792969 158.527344 C 178.242188 158.90625 179.589844 159.289062 180.824219 159.65625 Z M 173.835938 155.675781 L 173.835938 157.210938 C 170.5625 156.4375 166.71875 155.664062 162.480469 155.054688 L 162.480469 153.488281 C 166.574219 154.0625 170.410156 154.796875 173.851562 155.578125 C 173.84375 155.609375 173.835938 155.644531 173.835938 155.675781 Z M 173.835938 159.207031 C 172.054688 158.785156 170.097656 158.363281 168 157.96875 L 168 156.542969 C 170.097656 156.9375 172.054688 157.363281 173.835938 157.785156 Z M 167.300781 157.835938 C 165.761719 157.558594 164.152344 157.289062 162.480469 157.050781 L 162.480469 155.621094 C 164.152344 155.863281 165.765625 156.128906 167.300781 156.410156 Z M 160.40625 154.777344 C 156.191406 154.246094 151.636719 153.894531 146.90625 153.878906 L 146.90625 152.332031 C 151.5625 152.351562 156.109375 152.6875 160.40625 153.214844 Z M 160.40625 156.773438 C 158.355469 156.515625 156.226562 156.296875 154.035156 156.144531 L 154.035156 154.707031 C 156.226562 154.863281 158.355469 155.082031 160.40625 155.339844 Z M 153.335938 156.09375 C 151.238281 155.960938 149.089844 155.882812 146.90625 155.875 L 146.90625 154.4375 C 149.089844 154.445312 151.238281 154.523438 153.335938 154.660156 Z M 146.207031 153.878906 C 141.472656 153.894531 136.917969 154.246094 132.703125 154.777344 L 132.703125 153.214844 C 137 152.6875 141.546875 152.351562 146.207031 152.332031 Z M 146.207031 155.875 C 144.019531 155.882812 141.871094 155.960938 139.777344 156.09375 L 139.777344 154.660156 C 141.875 154.523438 144.023438 154.445312 146.207031 154.4375 Z M 139.078125 156.144531 C 136.882812 156.296875 134.753906 156.515625 132.703125 156.773438 L 132.703125 155.339844 C 134.765625 155.078125 136.894531 154.863281 139.078125 154.707031 Z M 130.632812 155.054688 C 126.390625 155.664062 122.546875 156.4375 119.273438 157.210938 L 119.273438 155.675781 C 119.273438 155.644531 119.265625 155.609375 119.257812 155.578125 C 122.703125 154.796875 126.535156 154.0625 130.632812 153.488281 Z M 130.632812 157.050781 C 128.960938 157.289062 127.347656 157.558594 125.808594 157.835938 L 125.808594 156.417969 C 127.363281 156.132812 128.972656 155.863281 130.632812 155.621094 Z M 125.109375 157.96875 C 123.011719 158.363281 121.058594 158.785156 119.273438 159.207031 L 119.273438 157.800781 C 121.101562 157.363281 123.050781 156.941406 125.109375 156.546875 Z M 118.574219 157.378906 C 117.730469 157.582031 116.921875 157.789062 116.164062 157.988281 C 111.371094 159.25 107.664062 160.519531 105.527344 161.308594 L 105.527344 159.445312 C 105.527344 159.429688 105.523438 159.414062 105.519531 159.398438 C 107.40625 158.773438 109.566406 158.101562 111.949219 157.429688 C 113.921875 156.875 116.148438 156.296875 118.574219 155.734375 Z M 118.574219 159.375 C 117.722656 159.578125 116.910156 159.785156 116.144531 159.988281 C 114.761719 160.351562 113.472656 160.714844 112.285156 161.066406 L 112.285156 159.667969 C 114.136719 159.117188 116.25 158.535156 118.574219 157.96875 Z M 111.585938 161.277344 C 108.992188 162.066406 106.925781 162.785156 105.527344 163.300781 L 105.527344 161.910156 C 106.882812 161.40625 108.945312 160.683594 111.585938 159.878906 Z M 103.453125 162.113281 C 103.152344 162.222656 101.398438 162.851562 100.234375 163.296875 L 98.910156 163.296875 L 98.910156 161.792969 C 99.992188 161.363281 101.53125 160.777344 103.453125 160.101562 Z M 103.453125 164.105469 C 103.453125 164.109375 103.449219 164.109375 103.449219 164.109375 C 103.351562 164.152344 101.128906 165.175781 100.3125 165.617188 L 98.910156 165.617188 L 98.910156 163.855469 L 100.285156 163.855469 C 100.320312 163.855469 100.355469 163.847656 100.386719 163.835938 C 101.394531 163.453125 102.882812 162.914062 103.453125 162.707031 Z M 196.273438 161.894531 C 196.273438 161.894531 196.273438 161.890625 196.273438 161.890625 L 196.273438 160.742188 C 196.273438 160.664062 196.210938 160.601562 196.132812 160.601562 L 195.921875 160.601562 L 195.921875 159.621094 C 195.929688 159.488281 195.859375 159.21875 195.554688 159.128906 L 195.550781 159.128906 C 195.546875 159.125 195.539062 159.101562 195.539062 159.054688 C 195.539062 159.027344 195.570312 158.953125 195.589844 158.90625 C 195.648438 158.765625 195.722656 158.589844 195.628906 158.449219 C 195.5625 158.347656 195.433594 158.296875 195.234375 158.296875 C 195.039062 158.296875 194.910156 158.347656 194.839844 158.449219 C 194.746094 158.589844 194.820312 158.765625 194.882812 158.90625 C 194.902344 158.953125 194.933594 159.027344 194.933594 159.054688 C 194.933594 159.101562 194.925781 159.125 194.921875 159.128906 L 194.914062 159.128906 C 194.609375 159.21875 194.542969 159.488281 194.546875 159.613281 L 194.546875 160.601562 L 194.339844 160.601562 C 194.261719 160.601562 194.199219 160.664062 194.199219 160.742188 L 194.199219 161.042969 C 193.078125 160.597656 191.527344 160.011719 189.617188 159.347656 C 189.589844 159.324219 189.554688 159.308594 189.515625 159.308594 L 189.496094 159.308594 C 189.433594 159.285156 189.371094 159.265625 189.304688 159.242188 L 189.304688 158.328125 C 189.3125 158.195312 189.242188 157.925781 188.9375 157.835938 C 188.933594 157.828125 188.921875 157.808594 188.921875 157.761719 C 188.921875 157.734375 188.953125 157.660156 188.976562 157.613281 C 189.035156 157.472656 189.109375 157.296875 189.011719 157.152344 C 188.945312 157.054688 188.816406 157.003906 188.617188 157.003906 C 188.421875 157.003906 188.292969 157.054688 188.226562 157.152344 C 188.128906 157.296875 188.203125 157.472656 188.265625 157.613281 C 188.285156 157.660156 188.316406 157.734375 188.316406 157.761719 C 188.316406 157.808594 188.304688 157.828125 188.300781 157.835938 C 187.996094 157.925781 187.925781 158.195312 187.929688 158.320312 L 187.929688 158.777344 C 186.007812 158.136719 183.800781 157.445312 181.363281 156.761719 C 176.328125 155.34375 169.65625 153.761719 162.128906 152.734375 L 162.128906 151.988281 C 162.136719 151.855469 162.066406 151.585938 161.761719 151.5 C 161.761719 151.496094 161.757812 151.496094 161.757812 151.496094 C 161.753906 151.488281 161.742188 151.46875 161.742188 151.421875 C 161.742188 151.394531 161.777344 151.324219 161.796875 151.273438 C 161.855469 151.132812 161.929688 150.960938 161.835938 150.816406 C 161.769531 150.714844 161.640625 150.664062 161.441406 150.664062 C 161.242188 150.664062 161.117188 150.714844 161.046875 150.816406 C 160.953125 150.960938 161.027344 151.132812 161.085938 151.273438 C 161.109375 151.324219 161.140625 151.394531 161.140625 151.421875 C 161.140625 151.46875 161.128906 151.488281 161.128906 151.496094 C 161.125 151.496094 161.125 151.496094 161.125 151.5 C 160.816406 151.585938 160.75 151.855469 160.753906 151.980469 L 160.753906 152.558594 C 156.25 151.992188 151.460938 151.632812 146.554688 151.632812 C 141.648438 151.632812 136.863281 151.992188 132.355469 152.558594 L 132.355469 151.988281 C 132.359375 151.855469 132.292969 151.585938 131.988281 151.5 C 131.984375 151.496094 131.984375 151.496094 131.984375 151.496094 C 131.980469 151.488281 131.96875 151.46875 131.96875 151.421875 C 131.96875 151.394531 132.003906 151.324219 132.023438 151.273438 C 132.082031 151.132812 132.15625 150.960938 132.0625 150.816406 C 131.996094 150.714844 131.867188 150.664062 131.667969 150.664062 C 131.46875 150.664062 131.339844 150.714844 131.273438 150.816406 C 131.179688 150.960938 131.253906 151.132812 131.3125 151.273438 C 131.332031 151.324219 131.367188 151.394531 131.367188 151.421875 C 131.367188 151.46875 131.355469 151.488281 131.351562 151.496094 C 131.351562 151.496094 131.351562 151.496094 131.351562 151.5 C 131.042969 151.585938 130.976562 151.855469 130.980469 151.980469 L 130.980469 152.734375 C 123.457031 153.761719 116.78125 155.34375 111.75 156.761719 C 109.308594 157.445312 107.101562 158.136719 105.179688 158.777344 L 105.179688 158.328125 C 105.183594 158.195312 105.113281 157.925781 104.808594 157.835938 C 104.804688 157.828125 104.792969 157.808594 104.792969 157.761719 C 104.792969 157.734375 104.824219 157.660156 104.847656 157.613281 C 104.90625 157.472656 104.980469 157.296875 104.882812 157.152344 C 104.816406 157.054688 104.691406 157.003906 104.492188 157.003906 C 104.292969 157.003906 104.164062 157.054688 104.097656 157.152344 C 104.003906 157.296875 104.074219 157.472656 104.136719 157.613281 C 104.15625 157.660156 104.1875 157.734375 104.1875 157.761719 C 104.1875 157.808594 104.179688 157.828125 104.175781 157.835938 C 104.175781 157.835938 104.175781 157.835938 104.171875 157.835938 C 103.867188 157.925781 103.796875 158.195312 103.804688 158.320312 L 103.804688 159.242188 C 103.742188 159.265625 103.675781 159.285156 103.613281 159.308594 L 103.59375 159.308594 C 103.554688 159.308594 103.519531 159.324219 103.496094 159.347656 C 101.585938 160.011719 100.035156 160.597656 98.910156 161.042969 L 98.910156 160.742188 C 98.910156 160.664062 98.847656 160.601562 98.773438 160.601562 L 98.5625 160.601562 L 98.5625 159.621094 C 98.566406 159.488281 98.5 159.21875 98.195312 159.128906 L 98.191406 159.128906 C 98.1875 159.125 98.175781 159.101562 98.175781 159.054688 C 98.175781 159.027344 98.210938 158.953125 98.230469 158.90625 C 98.289062 158.765625 98.363281 158.589844 98.269531 158.449219 C 98.199219 158.347656 98.074219 158.296875 97.875 158.296875 C 97.675781 158.296875 97.546875 158.347656 97.480469 158.449219 C 97.386719 158.589844 97.460938 158.765625 97.519531 158.90625 C 97.542969 158.953125 97.574219 159.027344 97.574219 159.054688 C 97.574219 159.101562 97.5625 159.125 97.558594 159.128906 C 97.25 159.21875 97.183594 159.488281 97.1875 159.613281 L 97.1875 160.601562 L 96.976562 160.601562 C 96.902344 160.601562 96.839844 160.664062 96.839844 160.742188 L 96.839844 161.890625 L 96.835938 161.894531 C 96.710938 161.949219 96.628906 162.074219 96.628906 162.210938 L 96.628906 172.441406 C 96.628906 172.636719 96.785156 172.792969 96.976562 172.792969 L 103.6875 172.792969 C 103.878906 172.792969 104.035156 172.636719 104.035156 172.441406 L 104.035156 168.300781 C 106.238281 167.421875 124.9375 160.253906 146.554688 160.253906 C 168.171875 160.253906 186.871094 167.421875 189.074219 168.300781 L 189.074219 172.441406 C 189.074219 172.636719 189.230469 172.792969 189.421875 172.792969 L 196.132812 172.792969 C 196.324219 172.792969 196.480469 172.636719 196.480469 172.441406 L 196.480469 162.210938 C 196.480469 162.074219 196.402344 161.949219 196.273438 161.894531 " fill-opacity="1" fill-rule="nonzero"/></svg>