<svg xmlns="http://www.w3.org/2000/svg" xmlns:xlink="http://www.w3.org/1999/xlink" width="500" zoomAndPan="magnify" viewBox="0 0 375 225" height="300" preserveAspectRatio="xMidYMid meet" version="1.0"><defs><clipPath id="1376818eb5"><path d="M 92.710938 8.898438 L 290.710938 8.898438 L 290.710938 206.898438 L 92.710938 206.898438 Z M 92.710938 8.898438 " clip-rule="nonzero"/></clipPath><clipPath id="ca296957c2"><path d="M 79.617188 100 L 228 100 L 228 206.964844 L 79.617188 206.964844 Z M 79.617188 100 " clip-rule="nonzero"/></clipPath></defs><g clip-path="url(#1376818eb5)"><path fill="#ee2549" d="M 290.710938 107.898438 C 290.710938 109.519531 290.671875 111.140625 290.589844 112.757812 C 290.511719 114.375 290.394531 115.992188 290.234375 117.605469 C 290.074219 119.214844 289.878906 120.824219 289.640625 122.425781 C 289.402344 124.027344 289.125 125.625 288.808594 127.214844 C 288.492188 128.804688 288.136719 130.382812 287.742188 131.953125 C 287.351562 133.527344 286.917969 135.085938 286.449219 136.636719 C 285.976562 138.1875 285.46875 139.726562 284.921875 141.253906 C 284.378906 142.777344 283.796875 144.289062 283.175781 145.785156 C 282.554688 147.28125 281.898438 148.761719 281.207031 150.226562 C 280.511719 151.691406 279.785156 153.140625 279.019531 154.566406 C 278.257812 155.996094 277.457031 157.40625 276.625 158.796875 C 275.792969 160.1875 274.925781 161.554688 274.027344 162.902344 C 273.125 164.25 272.195312 165.574219 271.226562 166.875 C 270.261719 168.175781 269.265625 169.453125 268.238281 170.703125 C 267.210938 171.957031 266.152344 173.183594 265.066406 174.382812 C 263.976562 175.585938 262.859375 176.757812 261.714844 177.902344 C 260.570312 179.050781 259.394531 180.167969 258.195312 181.253906 C 256.996094 182.34375 255.769531 183.398438 254.515625 184.429688 C 253.261719 185.457031 251.988281 186.453125 250.683594 187.417969 C 249.382812 188.382812 248.058594 189.316406 246.710938 190.214844 C 245.363281 191.117188 243.996094 191.980469 242.605469 192.816406 C 241.21875 193.648438 239.808594 194.445312 238.378906 195.210938 C 236.949219 195.972656 235.503906 196.703125 234.039062 197.394531 C 232.574219 198.085938 231.09375 198.742188 229.597656 199.363281 C 228.101562 199.984375 226.589844 200.566406 225.0625 201.113281 C 223.539062 201.660156 222 202.167969 220.449219 202.636719 C 218.898438 203.105469 217.335938 203.539062 215.765625 203.933594 C 214.195312 204.328125 212.613281 204.679688 211.023438 204.996094 C 209.4375 205.3125 207.839844 205.589844 206.238281 205.828125 C 204.632812 206.066406 203.027344 206.265625 201.414062 206.421875 C 199.800781 206.582031 198.1875 206.703125 196.570312 206.78125 C 194.949219 206.859375 193.332031 206.898438 191.710938 206.898438 C 190.089844 206.898438 188.472656 206.859375 186.851562 206.78125 C 185.234375 206.703125 183.621094 206.582031 182.007812 206.421875 C 180.394531 206.265625 178.789062 206.066406 177.183594 205.828125 C 175.582031 205.589844 173.984375 205.3125 172.398438 204.996094 C 170.808594 204.679688 169.226562 204.328125 167.65625 203.933594 C 166.085938 203.539062 164.523438 203.105469 162.972656 202.636719 C 161.421875 202.167969 159.882812 201.660156 158.359375 201.113281 C 156.832031 200.566406 155.320312 199.984375 153.824219 199.363281 C 152.328125 198.742188 150.847656 198.085938 149.382812 197.394531 C 147.917969 196.703125 146.472656 195.972656 145.042969 195.210938 C 143.613281 194.445312 142.203125 193.648438 140.816406 192.816406 C 139.425781 191.980469 138.054688 191.117188 136.710938 190.214844 C 135.363281 189.316406 134.039062 188.382812 132.738281 187.417969 C 131.433594 186.453125 130.160156 185.457031 128.90625 184.429688 C 127.652344 183.398438 126.425781 182.34375 125.226562 181.253906 C 124.027344 180.167969 122.851562 179.050781 121.707031 177.902344 C 120.5625 176.757812 119.445312 175.585938 118.355469 174.382812 C 117.269531 173.183594 116.210938 171.957031 115.183594 170.703125 C 114.15625 169.453125 113.160156 168.175781 112.191406 166.875 C 111.226562 165.574219 110.296875 164.25 109.394531 162.902344 C 108.496094 161.554688 107.628906 160.1875 106.796875 158.796875 C 105.960938 157.40625 105.164062 155.996094 104.402344 154.566406 C 103.636719 153.140625 102.910156 151.691406 102.214844 150.226562 C 101.523438 148.761719 100.867188 147.28125 100.246094 145.785156 C 99.625 144.289062 99.042969 142.777344 98.496094 141.253906 C 97.953125 139.726562 97.445312 138.1875 96.972656 136.636719 C 96.503906 135.085938 96.070312 133.527344 95.679688 131.953125 C 95.285156 130.382812 94.929688 128.804688 94.613281 127.214844 C 94.296875 125.625 94.019531 124.027344 93.78125 122.425781 C 93.542969 120.824219 93.347656 119.214844 93.1875 117.605469 C 93.027344 115.992188 92.910156 114.375 92.832031 112.757812 C 92.75 111.140625 92.710938 109.519531 92.710938 107.898438 C 92.710938 106.28125 92.75 104.660156 92.832031 103.042969 C 92.910156 101.425781 93.027344 99.808594 93.1875 98.195312 C 93.347656 96.582031 93.542969 94.976562 93.78125 93.375 C 94.019531 91.769531 94.296875 90.175781 94.613281 88.585938 C 94.929688 86.996094 95.285156 85.417969 95.679688 83.84375 C 96.070312 82.273438 96.503906 80.710938 96.972656 79.160156 C 97.445312 77.613281 97.953125 76.074219 98.496094 74.546875 C 99.042969 73.023438 99.625 71.511719 100.246094 70.015625 C 100.867188 68.515625 101.523438 67.035156 102.214844 65.570312 C 102.910156 64.105469 103.636719 62.660156 104.402344 61.230469 C 105.164062 59.804688 105.960938 58.394531 106.796875 57.003906 C 107.628906 55.613281 108.496094 54.246094 109.394531 52.898438 C 110.296875 51.550781 111.226562 50.226562 112.191406 48.925781 C 113.160156 47.625 114.15625 46.347656 115.183594 45.09375 C 116.210938 43.84375 117.269531 42.617188 118.355469 41.414062 C 119.445312 40.214844 120.5625 39.042969 121.707031 37.894531 C 122.851562 36.75 124.027344 35.632812 125.226562 34.546875 C 126.425781 33.457031 127.652344 32.398438 128.90625 31.371094 C 130.160156 30.34375 131.433594 29.347656 132.738281 28.382812 C 134.039062 27.417969 135.363281 26.484375 136.710938 25.585938 C 138.054688 24.683594 139.425781 23.816406 140.816406 22.984375 C 142.203125 22.152344 143.613281 21.355469 145.042969 20.589844 C 146.472656 19.824219 147.917969 19.097656 149.382812 18.40625 C 150.847656 17.710938 152.328125 17.054688 153.824219 16.4375 C 155.320312 15.816406 156.832031 15.234375 158.359375 14.6875 C 159.882812 14.140625 161.421875 13.632812 162.972656 13.164062 C 164.523438 12.691406 166.085938 12.261719 167.65625 11.867188 C 169.226562 11.472656 170.808594 11.117188 172.398438 10.800781 C 173.984375 10.484375 175.582031 10.210938 177.183594 9.972656 C 178.789062 9.734375 180.394531 9.535156 182.007812 9.375 C 183.621094 9.21875 185.234375 9.097656 186.851562 9.019531 C 188.472656 8.941406 190.089844 8.898438 191.710938 8.898438 C 193.332031 8.898438 194.949219 8.941406 196.570312 9.019531 C 198.1875 9.097656 199.800781 9.21875 201.414062 9.375 C 203.027344 9.535156 204.632812 9.734375 206.238281 9.972656 C 207.839844 10.210938 209.4375 10.484375 211.023438 10.800781 C 212.613281 11.117188 214.195312 11.472656 215.765625 11.867188 C 217.335938 12.261719 218.898438 12.691406 220.449219 13.164062 C 222 13.632812 223.539062 14.140625 225.0625 14.6875 C 226.589844 15.234375 228.101562 15.816406 229.597656 16.4375 C 231.09375 17.054688 232.574219 17.710938 234.039062 18.40625 C 235.503906 19.097656 236.949219 19.824219 238.378906 20.589844 C 239.808594 21.355469 241.21875 22.152344 242.605469 22.984375 C 243.996094 23.816406 245.363281 24.683594 246.710938 25.585938 C 248.058594 26.484375 249.382812 27.417969 250.683594 28.382812 C 251.988281 29.347656 253.261719 30.34375 254.515625 31.371094 C 255.769531 32.398438 256.996094 33.457031 258.195312 34.546875 C 259.394531 35.632812 260.570312 36.75 261.714844 37.894531 C 262.859375 39.042969 263.976562 40.214844 265.066406 41.414062 C 266.152344 42.617188 267.210938 43.84375 268.238281 45.09375 C 269.265625 46.347656 270.261719 47.625 271.226562 48.925781 C 272.195312 50.226562 273.125 51.550781 274.027344 52.898438 C 274.925781 54.246094 275.792969 55.613281 276.625 57.003906 C 277.457031 58.394531 278.257812 59.804688 279.019531 61.230469 C 279.785156 62.660156 280.511719 64.105469 281.207031 65.570312 C 281.898438 67.035156 282.554688 68.515625 283.175781 70.015625 C 283.796875 71.511719 284.378906 73.023438 284.921875 74.546875 C 285.46875 76.074219 285.976562 77.613281 286.449219 79.160156 C 286.917969 80.710938 287.351562 82.273438 287.742188 83.84375 C 288.136719 85.417969 288.492188 86.996094 288.808594 88.585938 C 289.125 90.175781 289.402344 91.769531 289.640625 93.375 C 289.878906 94.976562 290.074219 96.582031 290.234375 98.195312 C 290.394531 99.808594 290.511719 101.425781 290.589844 103.042969 C 290.671875 104.660156 290.710938 106.28125 290.710938 107.898438 Z M 290.710938 107.898438 " fill-opacity="1" fill-rule="nonzero"/></g><g clip-path="url(#ca296957c2)"><path fill="#ffffff" d="M 225.011719 125.964844 C 218.566406 120.636719 216.539062 110.917969 216.300781 109.671875 C 215.683594 107.09375 214.820312 104.710938 213.855469 102.570312 C 212.574219 99.734375 208.554688 99.621094 207.132812 102.394531 C 204.183594 108.152344 200.710938 113.273438 197.316406 117.59375 C 189.679688 127.320312 177.625 132.515625 165.277344 131.707031 C 165.277344 131.707031 113.917969 128.417969 113.105469 128.421875 C 113.105469 128.421875 97.695312 128.003906 86.914062 121.597656 C 85.304688 120.644531 83.289062 121.71875 83.09375 123.578125 C 82.230469 131.796875 89.964844 137.972656 89.964844 137.972656 C 83.839844 143.980469 79.988281 152.316406 79.949219 161.613281 C 79.902344 172.839844 85.804688 182.796875 94.582031 188.882812 C 93.503906 190.542969 92.859375 192.511719 92.859375 194.636719 L 92.859375 196.359375 C 92.859375 202.210938 97.609375 206.953125 103.46875 206.953125 L 128.582031 206.953125 C 134.914062 206.953125 140.050781 201.824219 140.050781 195.5 C 140.050781 195.371094 140.035156 195.246094 140.03125 195.121094 L 140.082031 195.121094 C 140.167969 192.929688 140.078125 186.558594 136.195312 184.542969 C 134.824219 183.832031 133.601562 182.0625 133.644531 180.519531 C 133.726562 177.589844 136.578125 176.703125 139.566406 176.929688 C 151.742188 177.851562 155.394531 188.605469 154.992188 195.519531 L 154.992188 196.359375 C 154.992188 202.210938 159.742188 206.953125 165.597656 206.953125 L 190.320312 206.953125 C 196.292969 206.953125 201.5625 202.558594 202.125 196.621094 C 202.582031 191.855469 200.105469 187.628906 196.296875 185.5 C 201.132812 182.09375 205.355469 177.800781 208.648438 172.726562 C 216.933594 159.96875 222.984375 144.046875 226.863281 131.800781 C 227.539062 129.664062 226.742188 127.394531 225.011719 125.964844 Z M 111.242188 167.222656 C 108.265625 167.222656 105.851562 164.8125 105.851562 161.839844 C 105.851562 158.867188 108.265625 156.457031 111.242188 156.457031 C 114.21875 156.457031 116.632812 158.867188 116.632812 161.839844 C 116.632812 164.8125 114.21875 167.222656 111.242188 167.222656 Z M 127.785156 153.476562 C 124.808594 153.476562 122.394531 151.066406 122.394531 148.09375 C 122.394531 145.121094 124.808594 142.710938 127.785156 142.710938 C 130.765625 142.710938 133.175781 145.121094 133.175781 148.09375 C 133.175781 151.066406 130.765625 153.476562 127.785156 153.476562 Z M 145.644531 167.222656 C 142.667969 167.222656 140.253906 164.8125 140.253906 161.839844 C 140.253906 158.867188 142.667969 156.457031 145.644531 156.457031 C 148.621094 156.457031 151.035156 158.867188 151.035156 161.839844 C 151.035156 164.8125 148.621094 167.222656 145.644531 167.222656 Z M 162.496094 153.476562 C 159.519531 153.476562 157.105469 151.066406 157.105469 148.09375 C 157.105469 145.121094 159.519531 142.710938 162.496094 142.710938 C 165.472656 142.710938 167.886719 145.121094 167.886719 148.09375 C 167.886719 151.066406 165.472656 153.476562 162.496094 153.476562 Z M 182.386719 167.222656 C 179.410156 167.222656 176.996094 164.8125 176.996094 161.839844 C 176.996094 158.867188 179.410156 156.457031 182.386719 156.457031 C 185.363281 156.457031 187.777344 158.867188 187.777344 161.839844 C 187.777344 164.8125 185.363281 167.222656 182.386719 167.222656 Z M 182.386719 167.222656 " fill-opacity="1" fill-rule="nonzero"/></g><path fill="#ffffff" d="M 292.605469 18.5625 C 290.796875 17.96875 288.851562 18.953125 288.257812 20.757812 L 286.417969 26.367188 C 285.21875 30.015625 281.945312 32.585938 278.109375 32.882812 L 275.148438 33.113281 L 276.015625 22.265625 C 276.167969 20.371094 274.753906 18.710938 272.859375 18.5625 L 272.855469 18.5625 C 270.960938 18.410156 269.300781 19.824219 269.148438 21.714844 L 267.21875 45.777344 C 266.722656 51.984375 261.535156 56.765625 255.300781 56.765625 L 247.546875 56.765625 L 247.546875 49.746094 C 247.546875 47.847656 246.007812 46.304688 244.101562 46.304688 C 242.199219 46.304688 240.65625 47.847656 240.65625 49.746094 L 240.65625 74.105469 L 228.433594 74.105469 L 228.433594 49.746094 C 228.433594 47.847656 226.890625 46.304688 224.988281 46.304688 C 223.085938 46.304688 221.542969 47.847656 221.542969 49.746094 L 221.542969 56.765625 L 213.789062 56.765625 C 207.554688 56.765625 202.367188 51.984375 201.871094 45.777344 L 199.941406 21.714844 C 199.792969 19.824219 198.132812 18.410156 196.234375 18.5625 C 194.335938 18.710938 192.921875 20.371094 193.074219 22.265625 L 193.945312 33.113281 L 190.980469 32.882812 C 187.148438 32.585938 183.871094 30.015625 182.671875 26.367188 L 180.832031 20.757812 C 180.242188 18.953125 178.296875 17.96875 176.488281 18.5625 C 174.679688 19.152344 173.695312 21.097656 174.285156 22.902344 L 176.125 28.507812 C 178.191406 34.796875 183.839844 39.230469 190.445312 39.742188 L 194.5 40.058594 L 195.003906 46.324219 C 195.785156 56.109375 203.964844 63.648438 213.792969 63.648438 L 221.542969 63.648438 L 221.542969 74.105469 L 220.828125 74.105469 C 220.824219 74.105469 220.824219 74.105469 220.824219 74.105469 L 201.066406 74.105469 C 198.53125 74.105469 197.113281 77.066406 198.746094 79 C 200.816406 81.449219 204.613281 83.976562 211.496094 84.40625 C 212.410156 92.882812 220.714844 98.390625 223.027344 108.171875 L 223.066406 108.355469 C 223.066406 108.363281 223.078125 108.425781 223.097656 108.527344 C 223.277344 109.382812 224.671875 113.011719 226.183594 116.726562 C 228.050781 121.316406 233.003906 122.304688 234.152344 122.304688 C 237.742188 122.304688 240.957031 120.054688 242.144531 116.667969 C 244.683594 109.457031 249.53125 96.945312 255.101562 88.992188 C 256.066406 87.609375 256.640625 86.03125 256.808594 84.40625 C 264.21875 83.941406 268.050781 81.042969 270.007812 78.4375 C 271.34375 76.652344 269.976562 74.105469 267.746094 74.105469 L 247.480469 74.105469 C 247.480469 74.105469 247.480469 74.105469 247.476562 74.105469 L 247.546875 74.105469 L 247.546875 63.648438 L 255.300781 63.648438 C 265.125 63.648438 273.304688 56.109375 274.089844 46.324219 L 274.589844 40.058594 L 278.644531 39.742188 C 285.253906 39.230469 290.902344 34.796875 292.964844 28.507812 L 294.804688 22.902344 C 295.398438 21.097656 294.410156 19.152344 292.605469 18.5625 Z M 224.351562 90.042969 C 222.128906 90.042969 220.328125 88.242188 220.328125 86.023438 C 220.328125 83.800781 222.128906 82 224.351562 82 C 226.578125 82 228.378906 83.800781 228.378906 86.023438 C 228.378906 88.242188 226.578125 90.042969 224.351562 90.042969 Z M 247.980469 86.023438 C 247.980469 88.242188 246.175781 90.042969 243.953125 90.042969 C 241.726562 90.042969 239.925781 88.242188 239.925781 86.023438 C 239.925781 83.800781 241.726562 82 243.953125 82 C 246.175781 82 247.980469 83.800781 247.980469 86.023438 Z M 247.980469 86.023438 " fill-opacity="1" fill-rule="nonzero"/></svg>