<svg xmlns="http://www.w3.org/2000/svg" xmlns:xlink="http://www.w3.org/1999/xlink" width="500" zoomAndPan="magnify" viewBox="0 0 375 225" height="300" preserveAspectRatio="xMidYMid meet" version="1.0"><defs><clipPath id="5b1c2038ef"><path d="M 87.25 12.25 L 287.5 12.25 L 287.5 212.5 L 87.25 212.5 Z M 87.25 12.25 " clip-rule="nonzero"/></clipPath><clipPath id="0365f4de51"><path d="M 100 112 L 274 112 L 274 212.5 L 100 212.5 Z M 100 112 " clip-rule="nonzero"/></clipPath></defs><g clip-path="url(#5b1c2038ef)"><path fill="#ee2549" d="M 287.484375 112.363281 C 287.484375 167.65625 242.664062 212.476562 187.371094 212.476562 C 150.421875 212.476562 118.152344 192.457031 100.804688 162.675781 C 100.804688 162.675781 100.800781 162.679688 100.796875 162.679688 C 100.714844 162.539062 100.636719 162.398438 100.558594 162.257812 C 100.527344 162.207031 100.5 162.15625 100.46875 162.105469 C 99.691406 160.75 98.945312 159.375 98.230469 157.980469 C 98.214844 157.949219 98.199219 157.917969 98.183594 157.886719 C 97.457031 156.464844 96.761719 155.023438 96.101562 153.566406 C 96.101562 153.566406 96.101562 153.566406 96.101562 153.5625 C 90.417969 140.996094 87.25 127.050781 87.25 112.363281 C 87.25 57.070312 132.070312 12.25 187.363281 12.25 C 195.136719 12.25 202.707031 13.132812 209.972656 14.8125 C 254.378906 25.058594 287.484375 64.84375 287.484375 112.363281 Z M 287.484375 112.363281 " fill-opacity="1" fill-rule="nonzero"/></g><path fill="#ffffff" d="M 249.839844 119.636719 L 125.34375 119.636719 C 125.34375 119.636719 140.128906 115.675781 149.710938 103.03125 L 149.710938 90.789062 L 141.40625 90.789062 L 141.40625 89.988281 L 159.289062 89.988281 L 159.289062 73.652344 C 151.855469 77.421875 143.285156 80.785156 134.007812 82.65625 L 133.847656 81.871094 C 163.855469 75.816406 186.457031 54.03125 186.679688 53.8125 L 186.785156 53.917969 C 186.898438 53.8125 186.960938 53.75 186.960938 53.75 C 186.960938 53.75 187.023438 53.8125 187.136719 53.917969 L 187.242188 53.8125 C 187.464844 54.03125 210.066406 75.816406 240.074219 81.871094 L 239.914062 82.65625 C 230.636719 80.785156 222.066406 77.421875 214.632812 73.652344 L 214.632812 89.988281 L 234.859375 89.988281 L 234.859375 90.789062 L 225.46875 90.789062 L 225.46875 103.03125 C 235.050781 115.671875 249.839844 119.636719 249.839844 119.636719 Z M 249.839844 119.636719 " fill-opacity="1" fill-rule="nonzero"/><path fill="#ee2549" d="M 149.710938 102.628906 L 225.46875 102.628906 L 225.46875 103.433594 L 149.710938 103.433594 Z M 149.710938 102.628906 " fill-opacity="1" fill-rule="nonzero"/><path fill="#ffffff" d="M 270.15625 161.9375 L 105.175781 161.9375 C 105.175781 161.9375 124.773438 156.6875 137.464844 139.933594 L 137.464844 128.410156 L 121.695312 128.410156 C 117.773438 128.410156 114.597656 125.230469 114.597656 121.3125 C 150.980469 117.984375 187.363281 82.367188 187.363281 82.367188 C 187.363281 82.367188 223.746094 117.984375 260.128906 121.3125 C 260.128906 125.234375 256.949219 128.410156 253.027344 128.410156 L 237.863281 128.410156 L 237.863281 139.933594 C 250.558594 156.6875 270.15625 161.9375 270.15625 161.9375 Z M 270.15625 161.9375 " fill-opacity="1" fill-rule="nonzero"/><path fill="#ee2549" d="M 137.464844 139.53125 L 237.863281 139.53125 L 237.863281 140.335938 L 137.464844 140.335938 Z M 137.464844 139.53125 " fill-opacity="1" fill-rule="nonzero"/><g clip-path="url(#0365f4de51)"><path fill="#ffffff" d="M 273.925781 162.679688 C 256.578125 192.457031 224.308594 212.476562 187.363281 212.476562 C 150.414062 212.476562 118.144531 192.457031 100.796875 162.679688 C 145.507812 153.511719 187.363281 112.550781 187.363281 112.550781 C 187.363281 112.550781 229.214844 153.515625 273.925781 162.679688 Z M 273.925781 162.679688 " fill-opacity="1" fill-rule="nonzero"/></g><path fill="#ee2549" d="M 138.183594 163.484375 L 236.292969 163.484375 L 187.664062 133.910156 Z M 141.089844 162.683594 L 187.664062 134.847656 L 233.429688 162.683594 Z M 213.136719 133.410156 C 205.992188 128.292969 200.054688 123.4375 195.707031 119.667969 L 225.71875 119.667969 L 187.566406 96.96875 L 149.585938 119.667969 L 178.820312 119.667969 C 174.519531 123.308594 168.695312 127.964844 161.707031 132.894531 C 147.429688 142.964844 125.253906 156.242188 100.699219 162.296875 L 100.894531 163.074219 C 125.574219 156.992188 147.847656 143.65625 162.183594 133.539062 C 176.25 123.617188 185.640625 114.765625 187.359375 113.113281 C 189.078125 114.804688 198.53125 123.9375 212.65625 134.050781 C 227.046875 144.355469 248.910156 157.71875 273.535156 163.371094 L 273.925781 162.679688 C 249.4375 157.058594 227.460938 143.667969 213.136719 133.410156 Z M 194.796875 118.875 C 190.261719 114.898438 187.695312 112.320312 187.648438 112.269531 L 187.363281 112.550781 L 187.082031 112.265625 C 187.03125 112.316406 184.40625 114.890625 179.761719 118.863281 L 152.492188 118.863281 L 187.566406 97.902344 L 222.800781 118.863281 L 194.796875 118.863281 Z M 119.257812 120.675781 L 119.105469 119.890625 C 156.148438 112.59375 186.773438 82.386719 187.078125 82.085938 L 187.363281 82.367188 L 187.648438 82.089844 C 187.921875 82.371094 215.25 110.292969 249.933594 118.640625 L 249.742188 119.417969 C 216.710938 111.46875 190.339844 85.90625 187.355469 82.933594 C 184.164062 86.011719 154.636719 113.707031 119.257812 120.675781 Z M 119.257812 120.675781 " fill-opacity="1" fill-rule="nonzero"/><path fill="#ee2549" d="M 264.84375 175.355469 L 109.882812 175.355469 L 109.882812 176.160156 L 129.34375 176.160156 L 129.34375 190.96875 L 138.164062 190.96875 L 138.164062 176.160156 L 162.230469 176.160156 L 162.230469 190.96875 L 171.050781 190.96875 L 171.050781 176.160156 L 203.714844 176.160156 L 203.714844 190.96875 L 212.539062 190.96875 L 212.539062 176.160156 L 236.601562 176.160156 L 236.601562 190.96875 L 245.425781 190.96875 L 245.425781 176.160156 L 264.84375 176.160156 Z M 137.363281 190.167969 L 130.144531 190.167969 L 130.144531 176.160156 L 137.363281 176.160156 Z M 170.25 190.167969 L 163.03125 190.167969 L 163.03125 176.160156 L 170.25 176.160156 Z M 211.738281 190.167969 L 204.519531 190.167969 L 204.519531 176.160156 L 211.738281 176.160156 Z M 244.625 190.167969 L 237.40625 190.167969 L 237.40625 176.160156 L 244.625 176.160156 Z M 187.316406 63.359375 L 166.046875 76.667969 L 208.1875 76.667969 Z M 187.3125 64.308594 L 205.4375 75.867188 L 168.839844 75.867188 Z M 187.3125 64.308594 " fill-opacity="1" fill-rule="nonzero"/></svg>