<svg xmlns="http://www.w3.org/2000/svg" xmlns:xlink="http://www.w3.org/1999/xlink" width="500" zoomAndPan="magnify" viewBox="0 0 375 225" height="300" preserveAspectRatio="xMidYMid meet" version="1.0"><defs><clipPath id="0238e6fc31"><path d="M 112.75 17.996094 L 262.453125 17.996094 L 262.453125 206.996094 L 112.75 206.996094 Z M 112.75 17.996094 " clip-rule="nonzero"/></clipPath></defs><g clip-path="url(#0238e6fc31)"><path fill="#ffffff" d="M 218.4375 92.382812 C 218.4375 110.421875 203.792969 125.046875 185.722656 125.046875 C 167.65625 125.046875 153.011719 110.421875 153.011719 92.382812 C 153.011719 92.84375 153.035156 93.300781 153.074219 93.75 C 153.035156 93.300781 153.011719 92.84375 153.011719 92.382812 C 153.011719 74.339844 167.65625 59.714844 185.722656 59.714844 C 203.792969 59.714844 218.4375 74.339844 218.4375 92.382812 M 187.960938 17.996094 C 187.84375 17.996094 187.722656 18 187.601562 18 C 187.480469 18 187.363281 17.996094 187.242188 17.996094 C 146.101562 17.996094 112.75 51.296875 112.75 92.382812 C 112.75 150.535156 181.539062 202.550781 186.910156 206.523438 C 187.128906 206.6875 187.394531 206.882812 187.601562 206.996094 C 187.84375 206.851562 188.09375 206.671875 188.351562 206.484375 C 194.113281 202.210938 262.453125 150.347656 262.453125 92.382812 C 262.453125 51.296875 229.105469 17.996094 187.960938 17.996094 " fill-opacity="1" fill-rule="nonzero"/></g><path fill="#ee2549" d="M 218.4375 92.382812 C 218.4375 110.421875 203.792969 125.046875 185.722656 125.046875 C 167.65625 125.046875 153.011719 110.421875 153.011719 92.382812 C 153.011719 92.84375 153.035156 93.300781 153.074219 93.75 C 153.035156 93.300781 153.011719 92.84375 153.011719 92.382812 C 153.011719 74.339844 167.65625 59.714844 185.722656 59.714844 C 203.792969 59.714844 218.4375 74.339844 218.4375 92.382812 " fill-opacity="1" fill-rule="nonzero"/></svg>